G04 #@! TF.FileFunction,Copper,L1,Top,Signal*
%FSLAX46Y46*%
G04 Gerber Fmt 4.6, Leading zero omitted, Abs format (unit mm)*
G04 Created by KiCad (PCBNEW 4.0.1-stable) date 5/8/2016 2:59:50 PM*
%MOMM*%
G01*
G04 APERTURE LIST*
%ADD10C,0.100000*%
%ADD11C,4.064000*%
%ADD12C,1.700000*%
%ADD13R,1.000000X1.250000*%
%ADD14R,1.250000X1.000000*%
%ADD15R,1.198880X1.198880*%
%ADD16R,1.600000X0.550000*%
%ADD17R,0.550000X1.600000*%
%ADD18R,1.727200X2.032000*%
%ADD19O,1.727200X2.032000*%
%ADD20R,1.300000X0.700000*%
%ADD21R,1.550000X0.600000*%
%ADD22C,1.501140*%
%ADD23R,2.032000X2.032000*%
%ADD24O,2.032000X2.032000*%
%ADD25R,1.350000X0.400000*%
%ADD26O,0.950000X1.250000*%
%ADD27O,1.550000X1.000000*%
%ADD28R,1.727200X1.727200*%
%ADD29O,1.727200X1.727200*%
%ADD30C,0.685800*%
%ADD31C,0.152400*%
%ADD32C,0.381000*%
G04 APERTURE END LIST*
D10*
D11*
X112268000Y-97028000D03*
D12*
X125528000Y-129068000D03*
X132028000Y-129068000D03*
X132028000Y-133568000D03*
X125528000Y-133568000D03*
D13*
X116570000Y-113792000D03*
X114570000Y-113792000D03*
X116570000Y-116840000D03*
X114570000Y-116840000D03*
D14*
X122174000Y-106918000D03*
X122174000Y-104918000D03*
X119634000Y-106918000D03*
X119634000Y-104918000D03*
D13*
X140478000Y-109728000D03*
X142478000Y-109728000D03*
X137430000Y-106426000D03*
X139430000Y-106426000D03*
X146542000Y-114554000D03*
X144542000Y-114554000D03*
X140478000Y-114554000D03*
X142478000Y-114554000D03*
D14*
X149352000Y-120634000D03*
X149352000Y-118634000D03*
D15*
X141986000Y-102141020D03*
X141986000Y-100042980D03*
X138684000Y-102141020D03*
X138684000Y-100042980D03*
D16*
X125798000Y-103626000D03*
X125798000Y-104426000D03*
X125798000Y-105226000D03*
X125798000Y-106026000D03*
X125798000Y-106826000D03*
X125798000Y-107626000D03*
X125798000Y-108426000D03*
X125798000Y-109226000D03*
D17*
X127248000Y-110676000D03*
X128048000Y-110676000D03*
X128848000Y-110676000D03*
X129648000Y-110676000D03*
X130448000Y-110676000D03*
X131248000Y-110676000D03*
X132048000Y-110676000D03*
X132848000Y-110676000D03*
D16*
X134298000Y-109226000D03*
X134298000Y-108426000D03*
X134298000Y-107626000D03*
X134298000Y-106826000D03*
X134298000Y-106026000D03*
X134298000Y-105226000D03*
X134298000Y-104426000D03*
X134298000Y-103626000D03*
D17*
X132848000Y-102176000D03*
X132048000Y-102176000D03*
X131248000Y-102176000D03*
X130448000Y-102176000D03*
X129648000Y-102176000D03*
X128848000Y-102176000D03*
X128048000Y-102176000D03*
X127248000Y-102176000D03*
D14*
X137922000Y-111744000D03*
X137922000Y-109744000D03*
D18*
X152400000Y-96520000D03*
D19*
X149860000Y-96520000D03*
X147320000Y-96520000D03*
X144780000Y-96520000D03*
X142240000Y-96520000D03*
X139700000Y-96520000D03*
X137160000Y-96520000D03*
X134620000Y-96520000D03*
X132080000Y-96520000D03*
X129540000Y-96520000D03*
X127000000Y-96520000D03*
X124460000Y-96520000D03*
X121920000Y-96520000D03*
X119380000Y-96520000D03*
X116840000Y-96520000D03*
D18*
X152400000Y-124460000D03*
D19*
X149860000Y-124460000D03*
X147320000Y-124460000D03*
X144780000Y-124460000D03*
X142240000Y-124460000D03*
X139700000Y-124460000D03*
X137160000Y-124460000D03*
X134620000Y-124460000D03*
X132080000Y-124460000D03*
X129540000Y-124460000D03*
X127000000Y-124460000D03*
X124460000Y-124460000D03*
X121920000Y-124460000D03*
X119380000Y-124460000D03*
X116840000Y-124460000D03*
D20*
X117094000Y-101788000D03*
X117094000Y-99888000D03*
X149098000Y-111821000D03*
X149098000Y-109921000D03*
D21*
X146210000Y-120777000D03*
X146210000Y-119507000D03*
X146210000Y-118237000D03*
X146210000Y-116967000D03*
X140810000Y-116967000D03*
X140810000Y-118237000D03*
X140810000Y-119507000D03*
X140810000Y-120777000D03*
D22*
X120904000Y-112875060D03*
X120904000Y-117756940D03*
D12*
X114098000Y-129068000D03*
X120598000Y-129068000D03*
X120598000Y-133568000D03*
X114098000Y-133568000D03*
X136958000Y-129068000D03*
X143458000Y-129068000D03*
X143458000Y-133568000D03*
X136958000Y-133568000D03*
X148388000Y-129068000D03*
X154888000Y-129068000D03*
X154888000Y-133568000D03*
X148388000Y-133568000D03*
X114098000Y-137958000D03*
X120598000Y-137958000D03*
X120598000Y-142458000D03*
X114098000Y-142458000D03*
X125528000Y-137958000D03*
X132028000Y-137958000D03*
X132028000Y-142458000D03*
X125528000Y-142458000D03*
X136958000Y-137958000D03*
X143458000Y-137958000D03*
X143458000Y-142458000D03*
X136958000Y-142458000D03*
X148388000Y-137958000D03*
X154888000Y-137958000D03*
X154888000Y-142458000D03*
X148388000Y-142458000D03*
X151856000Y-100636000D03*
X151856000Y-107136000D03*
X147356000Y-107136000D03*
X147356000Y-100636000D03*
D11*
X156972000Y-97028000D03*
X112268000Y-123952000D03*
X156972000Y-123952000D03*
D23*
X155956000Y-104648000D03*
D24*
X155956000Y-107188000D03*
D25*
X113322540Y-105125100D03*
X113322540Y-105775100D03*
X113322540Y-106425100D03*
X113322540Y-107075100D03*
X113322540Y-107725100D03*
D26*
X113322540Y-103925100D03*
X113322540Y-108925100D03*
D27*
X110622540Y-102925100D03*
X110622540Y-109925100D03*
D28*
X155194000Y-112522000D03*
D29*
X157734000Y-112522000D03*
X155194000Y-115062000D03*
X157734000Y-115062000D03*
X155194000Y-117602000D03*
X157734000Y-117602000D03*
D14*
X119634000Y-99838000D03*
X119634000Y-101838000D03*
D30*
X123317000Y-112903000D03*
X127000000Y-120650000D03*
X127000000Y-130302000D03*
X120904000Y-101854000D03*
X114808000Y-107696000D03*
X120904000Y-104902000D03*
X140716000Y-106426000D03*
X127254000Y-106680000D03*
X127254000Y-105156000D03*
X132842000Y-105918000D03*
X142494000Y-108458000D03*
X114554000Y-115316000D03*
X147828000Y-118110000D03*
X143510000Y-114554000D03*
X129540000Y-121158000D03*
X129540000Y-130302000D03*
X143510000Y-101600000D03*
X130810000Y-105283000D03*
X132334000Y-108712000D03*
X134620000Y-100584000D03*
X141986000Y-99314000D03*
X133858000Y-101346000D03*
X138684000Y-99314000D03*
X130429000Y-121158000D03*
X131318000Y-121158000D03*
X132207000Y-121158000D03*
X133096000Y-121158000D03*
X133985000Y-121158000D03*
X134874000Y-120904000D03*
X136144000Y-120777000D03*
X149860000Y-126492000D03*
X137287000Y-120904000D03*
X138303000Y-120777000D03*
X152400000Y-127254000D03*
X151384000Y-112903000D03*
X135255000Y-112014000D03*
X132461000Y-107823000D03*
X131572000Y-107950000D03*
X130048000Y-107442000D03*
X124079000Y-101981000D03*
X124079000Y-102997000D03*
D31*
X123317000Y-112903000D02*
X125603000Y-112903000D01*
X125984000Y-113284000D02*
X125984000Y-113792000D01*
X125603000Y-112903000D02*
X125984000Y-113284000D01*
X127000000Y-120650000D02*
X127000000Y-119888000D01*
X125984000Y-118872000D02*
X125984000Y-115062000D01*
X127000000Y-119888000D02*
X125984000Y-118872000D01*
X127000000Y-124460000D02*
X127000000Y-124968000D01*
X120904000Y-112875060D02*
X120904000Y-113030000D01*
X120904000Y-113030000D02*
X120142000Y-113792000D01*
X120142000Y-113792000D02*
X116570000Y-113792000D01*
X120904000Y-112875060D02*
X120904000Y-110998000D01*
X123476000Y-108426000D02*
X125798000Y-108426000D01*
X120904000Y-110998000D02*
X123476000Y-108426000D01*
X136958000Y-137958000D02*
X136958000Y-136958000D01*
X127000000Y-134874000D02*
X127000000Y-130302000D01*
X128270000Y-136144000D02*
X127000000Y-134874000D01*
X136144000Y-136144000D02*
X128270000Y-136144000D01*
X136958000Y-136958000D02*
X136144000Y-136144000D01*
X136958000Y-137958000D02*
X143458000Y-137958000D01*
D32*
X119634000Y-101838000D02*
X120888000Y-101838000D01*
X120888000Y-101838000D02*
X120904000Y-101854000D01*
X113322540Y-107725100D02*
X114778900Y-107725100D01*
X114778900Y-107725100D02*
X114808000Y-107696000D01*
X119634000Y-104918000D02*
X120888000Y-104918000D01*
X120888000Y-104918000D02*
X120904000Y-104902000D01*
X139430000Y-106426000D02*
X140716000Y-106426000D01*
X125798000Y-106826000D02*
X127108000Y-106826000D01*
X127108000Y-106826000D02*
X127254000Y-106680000D01*
X125798000Y-105226000D02*
X127184000Y-105226000D01*
X127184000Y-105226000D02*
X127254000Y-105156000D01*
X134298000Y-106026000D02*
X132950000Y-106026000D01*
X132950000Y-106026000D02*
X132842000Y-105918000D01*
X142478000Y-109728000D02*
X142478000Y-108474000D01*
X142478000Y-108474000D02*
X142494000Y-108458000D01*
X114570000Y-113792000D02*
X114570000Y-115300000D01*
X114570000Y-115300000D02*
X114554000Y-115316000D01*
X146210000Y-118237000D02*
X147701000Y-118237000D01*
X147701000Y-118237000D02*
X147828000Y-118110000D01*
X142478000Y-114554000D02*
X143510000Y-114554000D01*
D31*
X124460000Y-117602000D02*
X124460000Y-117348000D01*
X121765060Y-117756940D02*
X122682000Y-116840000D01*
X122682000Y-116840000D02*
X124206000Y-116840000D01*
X124206000Y-116840000D02*
X124460000Y-117094000D01*
X124460000Y-117094000D02*
X124460000Y-117348000D01*
X121765060Y-117756940D02*
X120904000Y-117756940D01*
X125984000Y-121285000D02*
X124841000Y-121285000D01*
X124460000Y-120904000D02*
X124460000Y-118872000D01*
X124841000Y-121285000D02*
X124460000Y-120904000D01*
X129413000Y-121285000D02*
X125984000Y-121285000D01*
X129540000Y-121158000D02*
X129413000Y-121285000D01*
X120904000Y-117756940D02*
X120042940Y-117756940D01*
X119126000Y-116840000D02*
X116570000Y-116840000D01*
X120042940Y-117756940D02*
X119126000Y-116840000D01*
X120904000Y-117756940D02*
X120904000Y-115570000D01*
X124200000Y-109226000D02*
X125798000Y-109226000D01*
X122428000Y-110998000D02*
X124200000Y-109226000D01*
X122428000Y-114046000D02*
X122428000Y-110998000D01*
X120904000Y-115570000D02*
X122428000Y-114046000D01*
X148388000Y-136704000D02*
X147066000Y-135382000D01*
X147066000Y-135382000D02*
X130810000Y-135382000D01*
X130810000Y-135382000D02*
X129540000Y-134112000D01*
X129540000Y-134112000D02*
X129540000Y-130302000D01*
X148388000Y-136704000D02*
X148388000Y-137958000D01*
X148388000Y-137958000D02*
X154888000Y-137958000D01*
D32*
X125798000Y-106026000D02*
X124352000Y-106026000D01*
X124206000Y-106172000D02*
X124206000Y-107626000D01*
X124352000Y-106026000D02*
X124206000Y-106172000D01*
D31*
X143510000Y-94742000D02*
X143510000Y-101600000D01*
D32*
X149098000Y-111821000D02*
X141417000Y-111821000D01*
X140478000Y-112760000D02*
X140478000Y-114554000D01*
X141417000Y-111821000D02*
X140478000Y-112760000D01*
X119888000Y-122174000D02*
X117983000Y-122174000D01*
X112522000Y-120396000D02*
X112522000Y-110744000D01*
X112776000Y-120650000D02*
X112522000Y-120396000D01*
X116459000Y-120650000D02*
X112776000Y-120650000D01*
X117983000Y-122174000D02*
X116459000Y-120650000D01*
X130810000Y-105283000D02*
X130810000Y-108712000D01*
X130810000Y-108712000D02*
X130810000Y-108585000D01*
X130810000Y-108585000D02*
X130810000Y-108712000D01*
X125798000Y-107626000D02*
X126803000Y-107626000D01*
X127381000Y-108712000D02*
X129032000Y-108712000D01*
X129032000Y-108712000D02*
X130810000Y-108712000D01*
X130810000Y-108712000D02*
X132334000Y-108712000D01*
X127254000Y-108585000D02*
X127381000Y-108712000D01*
X127254000Y-108077000D02*
X127254000Y-108585000D01*
X126803000Y-107626000D02*
X127254000Y-108077000D01*
X124206000Y-122174000D02*
X139192000Y-122174000D01*
X139573000Y-118491000D02*
X139446000Y-118491000D01*
X139446000Y-118491000D02*
X139192000Y-118745000D01*
X139192000Y-118745000D02*
X139192000Y-122174000D01*
X139192000Y-122174000D02*
X139319000Y-122174000D01*
X152908000Y-110871000D02*
X153289000Y-110490000D01*
X152908000Y-119380000D02*
X152908000Y-110871000D01*
X150368000Y-121920000D02*
X152908000Y-119380000D01*
X139573000Y-121920000D02*
X150368000Y-121920000D01*
X153289000Y-110490000D02*
X157734000Y-110490000D01*
X139319000Y-122174000D02*
X139573000Y-121920000D01*
X112141000Y-103759000D02*
X112141000Y-103886000D01*
X112141000Y-103886000D02*
X112141000Y-110363000D01*
X112141000Y-110363000D02*
X112522000Y-110744000D01*
X115316000Y-101219000D02*
X113665000Y-101219000D01*
X112141000Y-102743000D02*
X112141000Y-103759000D01*
X113665000Y-101219000D02*
X112141000Y-102743000D01*
X112522000Y-110744000D02*
X112776000Y-110744000D01*
X117094000Y-109982000D02*
X117094000Y-107188000D01*
X116332000Y-110744000D02*
X117094000Y-109982000D01*
X112776000Y-110744000D02*
X116332000Y-110744000D01*
X117094000Y-107188000D02*
X119364000Y-107188000D01*
X157734000Y-112522000D02*
X157734000Y-110490000D01*
X115885000Y-101788000D02*
X117094000Y-101788000D01*
X115316000Y-101219000D02*
X115885000Y-101788000D01*
X115316000Y-95377000D02*
X115316000Y-101219000D01*
X115951000Y-94742000D02*
X115316000Y-95377000D01*
X116459000Y-94742000D02*
X115951000Y-94742000D01*
X153797000Y-94742000D02*
X143510000Y-94742000D01*
X143510000Y-94742000D02*
X116459000Y-94742000D01*
X154178000Y-95123000D02*
X153797000Y-94742000D01*
X154178000Y-98806000D02*
X154178000Y-95123000D01*
X155702000Y-100330000D02*
X154178000Y-98806000D01*
X157988000Y-100330000D02*
X155702000Y-100330000D01*
X158877000Y-101219000D02*
X157988000Y-100330000D01*
X158877000Y-109347000D02*
X158877000Y-101219000D01*
X157734000Y-110490000D02*
X158877000Y-109347000D01*
X125798000Y-107626000D02*
X124206000Y-107626000D01*
X124206000Y-107626000D02*
X123882000Y-107626000D01*
X123174000Y-106918000D02*
X122174000Y-106918000D01*
X123882000Y-107626000D02*
X123174000Y-106918000D01*
X124460000Y-124460000D02*
X124460000Y-122174000D01*
X119380000Y-124460000D02*
X119380000Y-122174000D01*
X119364000Y-107188000D02*
X119634000Y-106918000D01*
X124460000Y-122174000D02*
X124206000Y-122174000D01*
X124206000Y-122174000D02*
X119888000Y-122174000D01*
X119888000Y-122174000D02*
X119380000Y-122174000D01*
X137922000Y-111744000D02*
X137922000Y-113538000D01*
X138938000Y-114554000D02*
X140478000Y-114554000D01*
X137922000Y-113538000D02*
X138938000Y-114554000D01*
X137922000Y-109744000D02*
X140462000Y-109744000D01*
X140462000Y-109744000D02*
X140478000Y-109728000D01*
X134298000Y-108426000D02*
X137382000Y-108426000D01*
X137922000Y-108966000D02*
X137922000Y-109744000D01*
X137382000Y-108426000D02*
X137922000Y-108966000D01*
X134298000Y-106826000D02*
X137030000Y-106826000D01*
X137030000Y-106826000D02*
X137430000Y-106426000D01*
X137284000Y-106826000D02*
X137430000Y-106680000D01*
X155956000Y-107188000D02*
X155956000Y-108331000D01*
X151003000Y-114554000D02*
X146542000Y-114554000D01*
X152146000Y-113411000D02*
X151003000Y-114554000D01*
X152146000Y-110490000D02*
X152146000Y-113411000D01*
X153289000Y-109347000D02*
X152146000Y-110490000D01*
X154940000Y-109347000D02*
X153289000Y-109347000D01*
X155956000Y-108331000D02*
X154940000Y-109347000D01*
X155956000Y-107188000D02*
X155575000Y-107188000D01*
X155956000Y-107188000D02*
X155194000Y-107188000D01*
X140810000Y-120777000D02*
X142621000Y-120777000D01*
X144399000Y-116967000D02*
X146210000Y-116967000D01*
X143510000Y-117856000D02*
X144399000Y-116967000D01*
X143510000Y-119888000D02*
X143510000Y-117856000D01*
X142621000Y-120777000D02*
X143510000Y-119888000D01*
X146542000Y-114554000D02*
X146210000Y-114886000D01*
X146210000Y-114886000D02*
X146210000Y-116967000D01*
D31*
X146210000Y-120777000D02*
X149209000Y-120777000D01*
X149209000Y-120777000D02*
X149352000Y-120634000D01*
X141986000Y-102141020D02*
X141511020Y-102141020D01*
X141511020Y-102141020D02*
X140462000Y-101092000D01*
X140462000Y-101092000D02*
X135128000Y-101092000D01*
X135128000Y-101092000D02*
X134620000Y-100584000D01*
X141986000Y-100042980D02*
X141986000Y-99314000D01*
X138684000Y-102141020D02*
X135669020Y-102141020D01*
X134874000Y-101346000D02*
X133858000Y-101346000D01*
X135669020Y-102141020D02*
X134874000Y-101346000D01*
X138684000Y-100042980D02*
X138684000Y-99314000D01*
X125798000Y-103626000D02*
X125798000Y-100652000D01*
X125798000Y-100652000D02*
X121920000Y-96774000D01*
X121920000Y-96774000D02*
X121920000Y-96520000D01*
X127248000Y-110676000D02*
X127248000Y-119501000D01*
X130429000Y-120777000D02*
X130429000Y-121158000D01*
X129921000Y-120269000D02*
X130429000Y-120777000D01*
X128016000Y-120269000D02*
X129921000Y-120269000D01*
X127248000Y-119501000D02*
X128016000Y-120269000D01*
X128048000Y-110676000D02*
X128048000Y-119412000D01*
X131318000Y-120777000D02*
X131318000Y-121158000D01*
X130429000Y-119888000D02*
X131318000Y-120777000D01*
X130302000Y-119888000D02*
X130429000Y-119888000D01*
X128524000Y-119888000D02*
X130302000Y-119888000D01*
X128048000Y-119412000D02*
X128524000Y-119888000D01*
X128848000Y-110676000D02*
X128848000Y-119196000D01*
X132207000Y-120777000D02*
X132207000Y-121158000D01*
X130937000Y-119507000D02*
X132207000Y-120777000D01*
X129159000Y-119507000D02*
X130937000Y-119507000D01*
X128848000Y-119196000D02*
X129159000Y-119507000D01*
X129648000Y-110676000D02*
X129648000Y-118726000D01*
X133096000Y-120777000D02*
X133096000Y-121158000D01*
X131445000Y-119126000D02*
X133096000Y-120777000D01*
X130048000Y-119126000D02*
X131445000Y-119126000D01*
X129648000Y-118726000D02*
X130048000Y-119126000D01*
X120598000Y-129068000D02*
X121630000Y-129068000D01*
X139700000Y-126746000D02*
X139700000Y-124460000D01*
X139192000Y-127254000D02*
X139700000Y-126746000D01*
X138684000Y-127254000D02*
X139192000Y-127254000D01*
X134366000Y-127254000D02*
X138684000Y-127254000D01*
X133858000Y-127762000D02*
X134366000Y-127254000D01*
X122936000Y-127762000D02*
X133858000Y-127762000D01*
X121630000Y-129068000D02*
X122936000Y-127762000D01*
X114098000Y-129068000D02*
X120598000Y-129068000D01*
X130448000Y-110676000D02*
X130448000Y-118510000D01*
X133985000Y-120650000D02*
X133985000Y-121158000D01*
X132080000Y-118745000D02*
X133985000Y-120650000D01*
X130683000Y-118745000D02*
X132080000Y-118745000D01*
X130448000Y-118510000D02*
X130683000Y-118745000D01*
X132028000Y-129068000D02*
X133314000Y-129068000D01*
X142240000Y-127254000D02*
X142240000Y-124460000D01*
X141732000Y-127762000D02*
X142240000Y-127254000D01*
X134620000Y-127762000D02*
X141732000Y-127762000D01*
X133314000Y-129068000D02*
X134620000Y-127762000D01*
X125528000Y-129068000D02*
X132028000Y-129068000D01*
X131248000Y-110676000D02*
X131248000Y-118040000D01*
X134874000Y-120650000D02*
X134874000Y-120904000D01*
X132588000Y-118364000D02*
X134874000Y-120650000D01*
X131572000Y-118364000D02*
X132588000Y-118364000D01*
X131248000Y-118040000D02*
X131572000Y-118364000D01*
X143458000Y-129068000D02*
X144236000Y-129068000D01*
X144236000Y-129068000D02*
X144780000Y-128524000D01*
X144780000Y-128524000D02*
X144780000Y-124460000D01*
X136958000Y-129068000D02*
X143458000Y-129068000D01*
X156464000Y-111760000D02*
X156464000Y-113792000D01*
X153416000Y-111252000D02*
X153670000Y-110998000D01*
X153670000Y-110998000D02*
X154432000Y-110998000D01*
X154432000Y-110998000D02*
X156210000Y-110998000D01*
X156210000Y-110998000D02*
X156464000Y-111252000D01*
X156464000Y-111252000D02*
X156464000Y-111760000D01*
X147320000Y-124460000D02*
X147320000Y-123190000D01*
X153416000Y-119634000D02*
X153416000Y-117602000D01*
X150622000Y-122428000D02*
X153416000Y-119634000D01*
X148082000Y-122428000D02*
X150622000Y-122428000D01*
X147320000Y-123190000D02*
X148082000Y-122428000D01*
X153416000Y-117602000D02*
X153416000Y-111252000D01*
X156464000Y-113792000D02*
X157734000Y-115062000D01*
X132048000Y-110676000D02*
X132048000Y-117570000D01*
X133350000Y-117983000D02*
X136144000Y-120777000D01*
X132461000Y-117983000D02*
X133350000Y-117983000D01*
X132048000Y-117570000D02*
X132461000Y-117983000D01*
X147320000Y-124460000D02*
X147320000Y-128270000D01*
X147320000Y-128270000D02*
X148118000Y-129068000D01*
X148118000Y-129068000D02*
X148388000Y-129068000D01*
X148388000Y-129068000D02*
X154888000Y-129068000D01*
X120598000Y-137958000D02*
X121194000Y-137958000D01*
X121194000Y-137958000D02*
X123444000Y-140208000D01*
X154432000Y-126492000D02*
X149860000Y-126492000D01*
X155194000Y-127254000D02*
X154432000Y-126492000D01*
X156464000Y-127254000D02*
X155194000Y-127254000D01*
X157226000Y-128016000D02*
X156464000Y-127254000D01*
X157226000Y-139446000D02*
X157226000Y-128016000D01*
X156464000Y-140208000D02*
X157226000Y-139446000D01*
X123444000Y-140208000D02*
X156464000Y-140208000D01*
X153162000Y-120650000D02*
X153670000Y-120142000D01*
X149860000Y-123190000D02*
X150114000Y-122936000D01*
X150114000Y-122936000D02*
X150876000Y-122936000D01*
X150876000Y-122936000D02*
X153162000Y-120650000D01*
X149860000Y-123952000D02*
X149860000Y-123190000D01*
X153924000Y-114046000D02*
X155194000Y-112776000D01*
X153924000Y-116840000D02*
X153924000Y-114046000D01*
X153924000Y-119888000D02*
X153924000Y-116840000D01*
X153670000Y-120142000D02*
X153924000Y-119888000D01*
X155194000Y-112776000D02*
X155194000Y-112522000D01*
X149860000Y-124460000D02*
X149860000Y-123952000D01*
X132848000Y-110676000D02*
X132848000Y-117227000D01*
X133985000Y-117602000D02*
X137287000Y-120904000D01*
X133223000Y-117602000D02*
X133985000Y-117602000D01*
X132848000Y-117227000D02*
X133223000Y-117602000D01*
X120598000Y-137958000D02*
X120598000Y-138632000D01*
X114098000Y-137958000D02*
X120598000Y-137958000D01*
X152400000Y-124460000D02*
X152400000Y-122174000D01*
X156464000Y-116332000D02*
X155194000Y-115062000D01*
X156464000Y-118618000D02*
X156464000Y-116332000D01*
X155956000Y-119126000D02*
X156464000Y-118618000D01*
X155448000Y-119126000D02*
X155956000Y-119126000D01*
X152400000Y-122174000D02*
X155448000Y-119126000D01*
X134298000Y-109226000D02*
X134298000Y-117280000D01*
X137668000Y-120142000D02*
X138303000Y-120777000D01*
X137160000Y-120142000D02*
X137668000Y-120142000D01*
X134298000Y-117280000D02*
X137160000Y-120142000D01*
X132116000Y-137958000D02*
X133604000Y-139446000D01*
X133604000Y-139446000D02*
X155956000Y-139446000D01*
X155956000Y-139446000D02*
X156464000Y-138938000D01*
X156464000Y-138938000D02*
X156464000Y-128270000D01*
X156464000Y-128270000D02*
X155956000Y-127762000D01*
X155956000Y-127762000D02*
X152908000Y-127762000D01*
X152908000Y-127762000D02*
X152400000Y-127254000D01*
X132028000Y-137958000D02*
X132116000Y-137958000D01*
X125528000Y-137958000D02*
X132028000Y-137958000D01*
X134298000Y-107626000D02*
X141294000Y-107626000D01*
X152400000Y-98298000D02*
X152400000Y-96520000D01*
X148336000Y-102362000D02*
X152400000Y-98298000D01*
X146558000Y-102362000D02*
X148336000Y-102362000D01*
X141294000Y-107626000D02*
X146558000Y-102362000D01*
X152400000Y-97536000D02*
X152400000Y-96520000D01*
X134298000Y-105226000D02*
X143186000Y-105226000D01*
X149606000Y-100584000D02*
X149606000Y-96774000D01*
X148336000Y-101854000D02*
X149606000Y-100584000D01*
X146558000Y-101854000D02*
X148336000Y-101854000D01*
X146304000Y-102108000D02*
X146558000Y-101854000D01*
X143186000Y-105226000D02*
X146304000Y-102108000D01*
X149606000Y-96774000D02*
X149860000Y-96520000D01*
X134298000Y-104426000D02*
X143478000Y-104426000D01*
X147320000Y-98806000D02*
X147320000Y-96520000D01*
X146050000Y-100076000D02*
X147320000Y-98806000D01*
X146050000Y-101854000D02*
X146050000Y-100076000D01*
X143478000Y-104426000D02*
X146050000Y-101854000D01*
X144780000Y-102604000D02*
X144780000Y-96520000D01*
X143758000Y-103626000D02*
X144780000Y-102604000D01*
X134298000Y-103626000D02*
X143758000Y-103626000D01*
X132848000Y-102176000D02*
X132848000Y-99562000D01*
X142240000Y-97790000D02*
X142240000Y-96520000D01*
X141732000Y-98298000D02*
X142240000Y-97790000D01*
X138049000Y-98298000D02*
X141732000Y-98298000D01*
X137033000Y-99314000D02*
X138049000Y-98298000D01*
X133096000Y-99314000D02*
X137033000Y-99314000D01*
X132848000Y-99562000D02*
X133096000Y-99314000D01*
X132848000Y-102176000D02*
X132848000Y-101594000D01*
X132048000Y-102176000D02*
X132048000Y-99092000D01*
X139700000Y-97663000D02*
X139700000Y-96520000D01*
X139446000Y-97917000D02*
X139700000Y-97663000D01*
X137795000Y-97917000D02*
X139446000Y-97917000D01*
X136779000Y-98933000D02*
X137795000Y-97917000D01*
X132207000Y-98933000D02*
X136779000Y-98933000D01*
X132048000Y-99092000D02*
X132207000Y-98933000D01*
X132048000Y-102176000D02*
X132048000Y-101505000D01*
X131248000Y-102176000D02*
X131248000Y-98876000D01*
X137160000Y-97917000D02*
X137160000Y-96520000D01*
X136525000Y-98552000D02*
X137160000Y-97917000D01*
X131572000Y-98552000D02*
X136525000Y-98552000D01*
X131248000Y-98876000D02*
X131572000Y-98552000D01*
X131248000Y-102176000D02*
X131248000Y-101416000D01*
X130448000Y-102176000D02*
X130448000Y-98787000D01*
X134620000Y-97790000D02*
X134620000Y-97536000D01*
X134188198Y-98221802D02*
X134620000Y-97790000D01*
X131013198Y-98221802D02*
X134188198Y-98221802D01*
X130448000Y-98787000D02*
X131013198Y-98221802D01*
X134620000Y-97536000D02*
X134620000Y-96520000D01*
X134620000Y-97536000D02*
X134620000Y-96520000D01*
X149098000Y-109921000D02*
X150307000Y-109921000D01*
X151384000Y-110998000D02*
X151384000Y-112903000D01*
X150307000Y-109921000D02*
X151384000Y-110998000D01*
X151856000Y-107136000D02*
X151856000Y-108367000D01*
X150302000Y-109921000D02*
X149098000Y-109921000D01*
X151856000Y-108367000D02*
X150302000Y-109921000D01*
X135255000Y-112014000D02*
X136525000Y-110744000D01*
X136525000Y-110744000D02*
X139192000Y-110744000D01*
X139192000Y-110744000D02*
X139446000Y-110998000D01*
X139446000Y-110998000D02*
X147066000Y-110998000D01*
X147066000Y-110998000D02*
X148143000Y-109921000D01*
X148143000Y-109921000D02*
X149098000Y-109921000D01*
X151856000Y-100636000D02*
X151856000Y-107136000D01*
X129648000Y-102176000D02*
X129648000Y-103867000D01*
X132207000Y-107569000D02*
X132461000Y-107823000D01*
X132207000Y-104775000D02*
X132207000Y-107569000D01*
X131699000Y-104267000D02*
X132207000Y-104775000D01*
X130048000Y-104267000D02*
X131699000Y-104267000D01*
X129648000Y-103867000D02*
X130048000Y-104267000D01*
X129648000Y-102176000D02*
X129648000Y-98571000D01*
X132080000Y-97663000D02*
X132080000Y-96520000D01*
X131826000Y-97917000D02*
X132080000Y-97663000D01*
X130302000Y-97917000D02*
X131826000Y-97917000D01*
X129648000Y-98571000D02*
X130302000Y-97917000D01*
X128848000Y-102176000D02*
X128848000Y-103575000D01*
X131572000Y-104775000D02*
X131572000Y-107950000D01*
X131445000Y-104648000D02*
X131572000Y-104775000D01*
X129921000Y-104648000D02*
X131445000Y-104648000D01*
X128848000Y-103575000D02*
X129921000Y-104648000D01*
X128848000Y-102176000D02*
X128848000Y-98482000D01*
X129540000Y-97790000D02*
X129540000Y-96520000D01*
X128848000Y-98482000D02*
X129540000Y-97790000D01*
X128048000Y-106839000D02*
X128048000Y-102176000D01*
X128651000Y-107442000D02*
X128048000Y-106839000D01*
X130048000Y-107442000D02*
X128651000Y-107442000D01*
X128048000Y-102176000D02*
X128048000Y-100489000D01*
X127000000Y-99441000D02*
X127000000Y-96520000D01*
X128048000Y-100489000D02*
X127000000Y-99441000D01*
X124460000Y-96520000D02*
X124460000Y-98171000D01*
X127254000Y-100965000D02*
X127254000Y-102170000D01*
X126873000Y-100584000D02*
X127254000Y-100965000D01*
X124460000Y-98171000D02*
X126873000Y-100584000D01*
X127254000Y-102170000D02*
X127248000Y-102176000D01*
X125798000Y-104426000D02*
X124873000Y-104426000D01*
X120777000Y-97917000D02*
X119380000Y-96520000D01*
X122428000Y-97917000D02*
X120777000Y-97917000D01*
X124714000Y-100203000D02*
X122428000Y-97917000D01*
X124714000Y-104267000D02*
X124714000Y-100203000D01*
X124873000Y-104426000D02*
X124714000Y-104267000D01*
X113322540Y-105775100D02*
X114061900Y-105775100D01*
X114061900Y-105775100D02*
X115493802Y-104343198D01*
X113322540Y-105775100D02*
X113934900Y-105775100D01*
X115493802Y-104343198D02*
X115493802Y-103327198D01*
X115493802Y-103327198D02*
X115824000Y-102997000D01*
X115824000Y-102997000D02*
X118491000Y-102997000D01*
X118491000Y-102997000D02*
X118745000Y-102743000D01*
X124079000Y-101981000D02*
X124079000Y-101981000D01*
X123317000Y-102743000D02*
X124079000Y-101981000D01*
X118745000Y-102743000D02*
X123317000Y-102743000D01*
X113322540Y-106425100D02*
X114046900Y-106425100D01*
X114046900Y-106425100D02*
X115798604Y-104673396D01*
X115798604Y-104673396D02*
X115798604Y-103530396D01*
X115798604Y-103530396D02*
X115951000Y-103378000D01*
X115951000Y-103378000D02*
X118618000Y-103378000D01*
X118618000Y-103378000D02*
X118872000Y-103124000D01*
X123952000Y-103124000D02*
X124079000Y-102997000D01*
X118872000Y-103124000D02*
X123952000Y-103124000D01*
X118364000Y-99888000D02*
X119584000Y-99888000D01*
X119584000Y-99888000D02*
X119634000Y-99838000D01*
X118364000Y-102235000D02*
X118364000Y-99888000D01*
X117983000Y-102616000D02*
X118364000Y-102235000D01*
X115570000Y-102616000D02*
X117983000Y-102616000D01*
X115189000Y-102997000D02*
X115570000Y-102616000D01*
X115189000Y-104013000D02*
X115189000Y-102997000D01*
X113322540Y-105125100D02*
X114076900Y-105125100D01*
X114076900Y-105125100D02*
X115189000Y-104013000D01*
X117094000Y-99888000D02*
X118364000Y-99888000D01*
G36*
X150291800Y-119557800D02*
X148158200Y-119557800D01*
X148158200Y-118872000D01*
X148157583Y-118868950D01*
X148498400Y-118868950D01*
X148498400Y-119179471D01*
X148533202Y-119263491D01*
X148597508Y-119327797D01*
X148681528Y-119362600D01*
X149117050Y-119362600D01*
X149174200Y-119305450D01*
X149174200Y-118811800D01*
X149529800Y-118811800D01*
X149529800Y-119305450D01*
X149586950Y-119362600D01*
X150022472Y-119362600D01*
X150106492Y-119327797D01*
X150170798Y-119263491D01*
X150205600Y-119179471D01*
X150205600Y-118868950D01*
X150148450Y-118811800D01*
X149529800Y-118811800D01*
X149174200Y-118811800D01*
X148555550Y-118811800D01*
X148498400Y-118868950D01*
X148157583Y-118868950D01*
X148152197Y-118842354D01*
X148135132Y-118817379D01*
X148109695Y-118801011D01*
X148082000Y-118795800D01*
X145110200Y-118795800D01*
X145110200Y-118444150D01*
X145206400Y-118444150D01*
X145206400Y-118582472D01*
X145241203Y-118666492D01*
X145305509Y-118730798D01*
X145389529Y-118765600D01*
X145975050Y-118765600D01*
X146032200Y-118708450D01*
X146032200Y-118387000D01*
X146387800Y-118387000D01*
X146387800Y-118708450D01*
X146444950Y-118765600D01*
X147030471Y-118765600D01*
X147114491Y-118730798D01*
X147178797Y-118666492D01*
X147213600Y-118582472D01*
X147213600Y-118444150D01*
X147156450Y-118387000D01*
X146387800Y-118387000D01*
X146032200Y-118387000D01*
X145263550Y-118387000D01*
X145206400Y-118444150D01*
X145110200Y-118444150D01*
X145110200Y-118088529D01*
X148498400Y-118088529D01*
X148498400Y-118399050D01*
X148555550Y-118456200D01*
X149174200Y-118456200D01*
X149174200Y-117962550D01*
X149529800Y-117962550D01*
X149529800Y-118456200D01*
X150148450Y-118456200D01*
X150205600Y-118399050D01*
X150205600Y-118088529D01*
X150170798Y-118004509D01*
X150106492Y-117940203D01*
X150022472Y-117905400D01*
X149586950Y-117905400D01*
X149529800Y-117962550D01*
X149174200Y-117962550D01*
X149117050Y-117905400D01*
X148681528Y-117905400D01*
X148597508Y-117940203D01*
X148533202Y-118004509D01*
X148498400Y-118088529D01*
X145110200Y-118088529D01*
X145110200Y-117891528D01*
X145206400Y-117891528D01*
X145206400Y-118029850D01*
X145263550Y-118087000D01*
X146032200Y-118087000D01*
X146032200Y-117765550D01*
X146387800Y-117765550D01*
X146387800Y-118087000D01*
X147156450Y-118087000D01*
X147213600Y-118029850D01*
X147213600Y-117891528D01*
X147178797Y-117807508D01*
X147114491Y-117743202D01*
X147030471Y-117708400D01*
X146444950Y-117708400D01*
X146387800Y-117765550D01*
X146032200Y-117765550D01*
X145975050Y-117708400D01*
X145389529Y-117708400D01*
X145305509Y-117743202D01*
X145241203Y-117807508D01*
X145206400Y-117891528D01*
X145110200Y-117891528D01*
X145110200Y-117678200D01*
X150291800Y-117678200D01*
X150291800Y-119557800D01*
X150291800Y-119557800D01*
G37*
X150291800Y-119557800D02*
X148158200Y-119557800D01*
X148158200Y-118872000D01*
X148157583Y-118868950D01*
X148498400Y-118868950D01*
X148498400Y-119179471D01*
X148533202Y-119263491D01*
X148597508Y-119327797D01*
X148681528Y-119362600D01*
X149117050Y-119362600D01*
X149174200Y-119305450D01*
X149174200Y-118811800D01*
X149529800Y-118811800D01*
X149529800Y-119305450D01*
X149586950Y-119362600D01*
X150022472Y-119362600D01*
X150106492Y-119327797D01*
X150170798Y-119263491D01*
X150205600Y-119179471D01*
X150205600Y-118868950D01*
X150148450Y-118811800D01*
X149529800Y-118811800D01*
X149174200Y-118811800D01*
X148555550Y-118811800D01*
X148498400Y-118868950D01*
X148157583Y-118868950D01*
X148152197Y-118842354D01*
X148135132Y-118817379D01*
X148109695Y-118801011D01*
X148082000Y-118795800D01*
X145110200Y-118795800D01*
X145110200Y-118444150D01*
X145206400Y-118444150D01*
X145206400Y-118582472D01*
X145241203Y-118666492D01*
X145305509Y-118730798D01*
X145389529Y-118765600D01*
X145975050Y-118765600D01*
X146032200Y-118708450D01*
X146032200Y-118387000D01*
X146387800Y-118387000D01*
X146387800Y-118708450D01*
X146444950Y-118765600D01*
X147030471Y-118765600D01*
X147114491Y-118730798D01*
X147178797Y-118666492D01*
X147213600Y-118582472D01*
X147213600Y-118444150D01*
X147156450Y-118387000D01*
X146387800Y-118387000D01*
X146032200Y-118387000D01*
X145263550Y-118387000D01*
X145206400Y-118444150D01*
X145110200Y-118444150D01*
X145110200Y-118088529D01*
X148498400Y-118088529D01*
X148498400Y-118399050D01*
X148555550Y-118456200D01*
X149174200Y-118456200D01*
X149174200Y-117962550D01*
X149529800Y-117962550D01*
X149529800Y-118456200D01*
X150148450Y-118456200D01*
X150205600Y-118399050D01*
X150205600Y-118088529D01*
X150170798Y-118004509D01*
X150106492Y-117940203D01*
X150022472Y-117905400D01*
X149586950Y-117905400D01*
X149529800Y-117962550D01*
X149174200Y-117962550D01*
X149117050Y-117905400D01*
X148681528Y-117905400D01*
X148597508Y-117940203D01*
X148533202Y-118004509D01*
X148498400Y-118088529D01*
X145110200Y-118088529D01*
X145110200Y-117891528D01*
X145206400Y-117891528D01*
X145206400Y-118029850D01*
X145263550Y-118087000D01*
X146032200Y-118087000D01*
X146032200Y-117765550D01*
X146387800Y-117765550D01*
X146387800Y-118087000D01*
X147156450Y-118087000D01*
X147213600Y-118029850D01*
X147213600Y-117891528D01*
X147178797Y-117807508D01*
X147114491Y-117743202D01*
X147030471Y-117708400D01*
X146444950Y-117708400D01*
X146387800Y-117765550D01*
X146032200Y-117765550D01*
X145975050Y-117708400D01*
X145389529Y-117708400D01*
X145305509Y-117743202D01*
X145241203Y-117807508D01*
X145206400Y-117891528D01*
X145110200Y-117891528D01*
X145110200Y-117678200D01*
X150291800Y-117678200D01*
X150291800Y-119557800D01*
G36*
X141274800Y-116078000D02*
X141280803Y-116107646D01*
X141297868Y-116132621D01*
X141323305Y-116148989D01*
X141351000Y-116154200D01*
X141909800Y-116154200D01*
X141909800Y-118795800D01*
X139522200Y-118795800D01*
X139522200Y-118444150D01*
X139806400Y-118444150D01*
X139806400Y-118582472D01*
X139841203Y-118666492D01*
X139905509Y-118730798D01*
X139989529Y-118765600D01*
X140575050Y-118765600D01*
X140632200Y-118708450D01*
X140632200Y-118387000D01*
X140987800Y-118387000D01*
X140987800Y-118708450D01*
X141044950Y-118765600D01*
X141630471Y-118765600D01*
X141714491Y-118730798D01*
X141778797Y-118666492D01*
X141813600Y-118582472D01*
X141813600Y-118444150D01*
X141756450Y-118387000D01*
X140987800Y-118387000D01*
X140632200Y-118387000D01*
X139863550Y-118387000D01*
X139806400Y-118444150D01*
X139522200Y-118444150D01*
X139522200Y-117891528D01*
X139806400Y-117891528D01*
X139806400Y-118029850D01*
X139863550Y-118087000D01*
X140632200Y-118087000D01*
X140632200Y-117765550D01*
X140987800Y-117765550D01*
X140987800Y-118087000D01*
X141756450Y-118087000D01*
X141813600Y-118029850D01*
X141813600Y-117891528D01*
X141778797Y-117807508D01*
X141714491Y-117743202D01*
X141630471Y-117708400D01*
X141044950Y-117708400D01*
X140987800Y-117765550D01*
X140632200Y-117765550D01*
X140575050Y-117708400D01*
X139989529Y-117708400D01*
X139905509Y-117743202D01*
X139841203Y-117807508D01*
X139806400Y-117891528D01*
X139522200Y-117891528D01*
X139522200Y-117174150D01*
X139806400Y-117174150D01*
X139806400Y-117312472D01*
X139841203Y-117396492D01*
X139905509Y-117460798D01*
X139989529Y-117495600D01*
X140575050Y-117495600D01*
X140632200Y-117438450D01*
X140632200Y-117117000D01*
X140987800Y-117117000D01*
X140987800Y-117438450D01*
X141044950Y-117495600D01*
X141630471Y-117495600D01*
X141714491Y-117460798D01*
X141778797Y-117396492D01*
X141813600Y-117312472D01*
X141813600Y-117174150D01*
X141756450Y-117117000D01*
X140987800Y-117117000D01*
X140632200Y-117117000D01*
X139863550Y-117117000D01*
X139806400Y-117174150D01*
X139522200Y-117174150D01*
X139522200Y-116621528D01*
X139806400Y-116621528D01*
X139806400Y-116759850D01*
X139863550Y-116817000D01*
X140632200Y-116817000D01*
X140632200Y-116495550D01*
X140987800Y-116495550D01*
X140987800Y-116817000D01*
X141756450Y-116817000D01*
X141813600Y-116759850D01*
X141813600Y-116621528D01*
X141778797Y-116537508D01*
X141714491Y-116473202D01*
X141630471Y-116438400D01*
X141044950Y-116438400D01*
X140987800Y-116495550D01*
X140632200Y-116495550D01*
X140575050Y-116438400D01*
X139989529Y-116438400D01*
X139905509Y-116473202D01*
X139841203Y-116537508D01*
X139806400Y-116621528D01*
X139522200Y-116621528D01*
X139522200Y-114788950D01*
X139749400Y-114788950D01*
X139749400Y-115224472D01*
X139784203Y-115308492D01*
X139848509Y-115372798D01*
X139932529Y-115407600D01*
X140243050Y-115407600D01*
X140300200Y-115350450D01*
X140300200Y-114731800D01*
X140655800Y-114731800D01*
X140655800Y-115350450D01*
X140712950Y-115407600D01*
X141023471Y-115407600D01*
X141107491Y-115372798D01*
X141171797Y-115308492D01*
X141206600Y-115224472D01*
X141206600Y-114788950D01*
X141149450Y-114731800D01*
X140655800Y-114731800D01*
X140300200Y-114731800D01*
X139806550Y-114731800D01*
X139749400Y-114788950D01*
X139522200Y-114788950D01*
X139522200Y-113883528D01*
X139749400Y-113883528D01*
X139749400Y-114319050D01*
X139806550Y-114376200D01*
X140300200Y-114376200D01*
X140300200Y-113757550D01*
X140655800Y-113757550D01*
X140655800Y-114376200D01*
X141149450Y-114376200D01*
X141206600Y-114319050D01*
X141206600Y-113883528D01*
X141171797Y-113799508D01*
X141107491Y-113735202D01*
X141023471Y-113700400D01*
X140712950Y-113700400D01*
X140655800Y-113757550D01*
X140300200Y-113757550D01*
X140243050Y-113700400D01*
X139932529Y-113700400D01*
X139848509Y-113735202D01*
X139784203Y-113799508D01*
X139749400Y-113883528D01*
X139522200Y-113883528D01*
X139522200Y-113614200D01*
X141274800Y-113614200D01*
X141274800Y-116078000D01*
X141274800Y-116078000D01*
G37*
X141274800Y-116078000D02*
X141280803Y-116107646D01*
X141297868Y-116132621D01*
X141323305Y-116148989D01*
X141351000Y-116154200D01*
X141909800Y-116154200D01*
X141909800Y-118795800D01*
X139522200Y-118795800D01*
X139522200Y-118444150D01*
X139806400Y-118444150D01*
X139806400Y-118582472D01*
X139841203Y-118666492D01*
X139905509Y-118730798D01*
X139989529Y-118765600D01*
X140575050Y-118765600D01*
X140632200Y-118708450D01*
X140632200Y-118387000D01*
X140987800Y-118387000D01*
X140987800Y-118708450D01*
X141044950Y-118765600D01*
X141630471Y-118765600D01*
X141714491Y-118730798D01*
X141778797Y-118666492D01*
X141813600Y-118582472D01*
X141813600Y-118444150D01*
X141756450Y-118387000D01*
X140987800Y-118387000D01*
X140632200Y-118387000D01*
X139863550Y-118387000D01*
X139806400Y-118444150D01*
X139522200Y-118444150D01*
X139522200Y-117891528D01*
X139806400Y-117891528D01*
X139806400Y-118029850D01*
X139863550Y-118087000D01*
X140632200Y-118087000D01*
X140632200Y-117765550D01*
X140987800Y-117765550D01*
X140987800Y-118087000D01*
X141756450Y-118087000D01*
X141813600Y-118029850D01*
X141813600Y-117891528D01*
X141778797Y-117807508D01*
X141714491Y-117743202D01*
X141630471Y-117708400D01*
X141044950Y-117708400D01*
X140987800Y-117765550D01*
X140632200Y-117765550D01*
X140575050Y-117708400D01*
X139989529Y-117708400D01*
X139905509Y-117743202D01*
X139841203Y-117807508D01*
X139806400Y-117891528D01*
X139522200Y-117891528D01*
X139522200Y-117174150D01*
X139806400Y-117174150D01*
X139806400Y-117312472D01*
X139841203Y-117396492D01*
X139905509Y-117460798D01*
X139989529Y-117495600D01*
X140575050Y-117495600D01*
X140632200Y-117438450D01*
X140632200Y-117117000D01*
X140987800Y-117117000D01*
X140987800Y-117438450D01*
X141044950Y-117495600D01*
X141630471Y-117495600D01*
X141714491Y-117460798D01*
X141778797Y-117396492D01*
X141813600Y-117312472D01*
X141813600Y-117174150D01*
X141756450Y-117117000D01*
X140987800Y-117117000D01*
X140632200Y-117117000D01*
X139863550Y-117117000D01*
X139806400Y-117174150D01*
X139522200Y-117174150D01*
X139522200Y-116621528D01*
X139806400Y-116621528D01*
X139806400Y-116759850D01*
X139863550Y-116817000D01*
X140632200Y-116817000D01*
X140632200Y-116495550D01*
X140987800Y-116495550D01*
X140987800Y-116817000D01*
X141756450Y-116817000D01*
X141813600Y-116759850D01*
X141813600Y-116621528D01*
X141778797Y-116537508D01*
X141714491Y-116473202D01*
X141630471Y-116438400D01*
X141044950Y-116438400D01*
X140987800Y-116495550D01*
X140632200Y-116495550D01*
X140575050Y-116438400D01*
X139989529Y-116438400D01*
X139905509Y-116473202D01*
X139841203Y-116537508D01*
X139806400Y-116621528D01*
X139522200Y-116621528D01*
X139522200Y-114788950D01*
X139749400Y-114788950D01*
X139749400Y-115224472D01*
X139784203Y-115308492D01*
X139848509Y-115372798D01*
X139932529Y-115407600D01*
X140243050Y-115407600D01*
X140300200Y-115350450D01*
X140300200Y-114731800D01*
X140655800Y-114731800D01*
X140655800Y-115350450D01*
X140712950Y-115407600D01*
X141023471Y-115407600D01*
X141107491Y-115372798D01*
X141171797Y-115308492D01*
X141206600Y-115224472D01*
X141206600Y-114788950D01*
X141149450Y-114731800D01*
X140655800Y-114731800D01*
X140300200Y-114731800D01*
X139806550Y-114731800D01*
X139749400Y-114788950D01*
X139522200Y-114788950D01*
X139522200Y-113883528D01*
X139749400Y-113883528D01*
X139749400Y-114319050D01*
X139806550Y-114376200D01*
X140300200Y-114376200D01*
X140300200Y-113757550D01*
X140655800Y-113757550D01*
X140655800Y-114376200D01*
X141149450Y-114376200D01*
X141206600Y-114319050D01*
X141206600Y-113883528D01*
X141171797Y-113799508D01*
X141107491Y-113735202D01*
X141023471Y-113700400D01*
X140712950Y-113700400D01*
X140655800Y-113757550D01*
X140300200Y-113757550D01*
X140243050Y-113700400D01*
X139932529Y-113700400D01*
X139848509Y-113735202D01*
X139784203Y-113799508D01*
X139749400Y-113883528D01*
X139522200Y-113883528D01*
X139522200Y-113614200D01*
X141274800Y-113614200D01*
X141274800Y-116078000D01*
G36*
X145338800Y-115493800D02*
X141681200Y-115493800D01*
X141681200Y-114788950D01*
X141749400Y-114788950D01*
X141749400Y-115224472D01*
X141784203Y-115308492D01*
X141848509Y-115372798D01*
X141932529Y-115407600D01*
X142243050Y-115407600D01*
X142300200Y-115350450D01*
X142300200Y-114731800D01*
X142655800Y-114731800D01*
X142655800Y-115350450D01*
X142712950Y-115407600D01*
X143023471Y-115407600D01*
X143107491Y-115372798D01*
X143171797Y-115308492D01*
X143206600Y-115224472D01*
X143206600Y-114788950D01*
X143813400Y-114788950D01*
X143813400Y-115224472D01*
X143848203Y-115308492D01*
X143912509Y-115372798D01*
X143996529Y-115407600D01*
X144307050Y-115407600D01*
X144364200Y-115350450D01*
X144364200Y-114731800D01*
X144719800Y-114731800D01*
X144719800Y-115350450D01*
X144776950Y-115407600D01*
X145087471Y-115407600D01*
X145171491Y-115372798D01*
X145235797Y-115308492D01*
X145270600Y-115224472D01*
X145270600Y-114788950D01*
X145213450Y-114731800D01*
X144719800Y-114731800D01*
X144364200Y-114731800D01*
X143870550Y-114731800D01*
X143813400Y-114788950D01*
X143206600Y-114788950D01*
X143149450Y-114731800D01*
X142655800Y-114731800D01*
X142300200Y-114731800D01*
X141806550Y-114731800D01*
X141749400Y-114788950D01*
X141681200Y-114788950D01*
X141681200Y-113883528D01*
X141749400Y-113883528D01*
X141749400Y-114319050D01*
X141806550Y-114376200D01*
X142300200Y-114376200D01*
X142300200Y-113757550D01*
X142655800Y-113757550D01*
X142655800Y-114376200D01*
X143149450Y-114376200D01*
X143206600Y-114319050D01*
X143206600Y-113883528D01*
X143813400Y-113883528D01*
X143813400Y-114319050D01*
X143870550Y-114376200D01*
X144364200Y-114376200D01*
X144364200Y-113757550D01*
X144719800Y-113757550D01*
X144719800Y-114376200D01*
X145213450Y-114376200D01*
X145270600Y-114319050D01*
X145270600Y-113883528D01*
X145235797Y-113799508D01*
X145171491Y-113735202D01*
X145087471Y-113700400D01*
X144776950Y-113700400D01*
X144719800Y-113757550D01*
X144364200Y-113757550D01*
X144307050Y-113700400D01*
X143996529Y-113700400D01*
X143912509Y-113735202D01*
X143848203Y-113799508D01*
X143813400Y-113883528D01*
X143206600Y-113883528D01*
X143171797Y-113799508D01*
X143107491Y-113735202D01*
X143023471Y-113700400D01*
X142712950Y-113700400D01*
X142655800Y-113757550D01*
X142300200Y-113757550D01*
X142243050Y-113700400D01*
X141932529Y-113700400D01*
X141848509Y-113735202D01*
X141784203Y-113799508D01*
X141749400Y-113883528D01*
X141681200Y-113883528D01*
X141681200Y-113614200D01*
X145338800Y-113614200D01*
X145338800Y-115493800D01*
X145338800Y-115493800D01*
G37*
X145338800Y-115493800D02*
X141681200Y-115493800D01*
X141681200Y-114788950D01*
X141749400Y-114788950D01*
X141749400Y-115224472D01*
X141784203Y-115308492D01*
X141848509Y-115372798D01*
X141932529Y-115407600D01*
X142243050Y-115407600D01*
X142300200Y-115350450D01*
X142300200Y-114731800D01*
X142655800Y-114731800D01*
X142655800Y-115350450D01*
X142712950Y-115407600D01*
X143023471Y-115407600D01*
X143107491Y-115372798D01*
X143171797Y-115308492D01*
X143206600Y-115224472D01*
X143206600Y-114788950D01*
X143813400Y-114788950D01*
X143813400Y-115224472D01*
X143848203Y-115308492D01*
X143912509Y-115372798D01*
X143996529Y-115407600D01*
X144307050Y-115407600D01*
X144364200Y-115350450D01*
X144364200Y-114731800D01*
X144719800Y-114731800D01*
X144719800Y-115350450D01*
X144776950Y-115407600D01*
X145087471Y-115407600D01*
X145171491Y-115372798D01*
X145235797Y-115308492D01*
X145270600Y-115224472D01*
X145270600Y-114788950D01*
X145213450Y-114731800D01*
X144719800Y-114731800D01*
X144364200Y-114731800D01*
X143870550Y-114731800D01*
X143813400Y-114788950D01*
X143206600Y-114788950D01*
X143149450Y-114731800D01*
X142655800Y-114731800D01*
X142300200Y-114731800D01*
X141806550Y-114731800D01*
X141749400Y-114788950D01*
X141681200Y-114788950D01*
X141681200Y-113883528D01*
X141749400Y-113883528D01*
X141749400Y-114319050D01*
X141806550Y-114376200D01*
X142300200Y-114376200D01*
X142300200Y-113757550D01*
X142655800Y-113757550D01*
X142655800Y-114376200D01*
X143149450Y-114376200D01*
X143206600Y-114319050D01*
X143206600Y-113883528D01*
X143813400Y-113883528D01*
X143813400Y-114319050D01*
X143870550Y-114376200D01*
X144364200Y-114376200D01*
X144364200Y-113757550D01*
X144719800Y-113757550D01*
X144719800Y-114376200D01*
X145213450Y-114376200D01*
X145270600Y-114319050D01*
X145270600Y-113883528D01*
X145235797Y-113799508D01*
X145171491Y-113735202D01*
X145087471Y-113700400D01*
X144776950Y-113700400D01*
X144719800Y-113757550D01*
X144364200Y-113757550D01*
X144307050Y-113700400D01*
X143996529Y-113700400D01*
X143912509Y-113735202D01*
X143848203Y-113799508D01*
X143813400Y-113883528D01*
X143206600Y-113883528D01*
X143171797Y-113799508D01*
X143107491Y-113735202D01*
X143023471Y-113700400D01*
X142712950Y-113700400D01*
X142655800Y-113757550D01*
X142300200Y-113757550D01*
X142243050Y-113700400D01*
X141932529Y-113700400D01*
X141848509Y-113735202D01*
X141784203Y-113799508D01*
X141749400Y-113883528D01*
X141681200Y-113883528D01*
X141681200Y-113614200D01*
X145338800Y-113614200D01*
X145338800Y-115493800D01*
G36*
X115493800Y-118033800D02*
X113614200Y-118033800D01*
X113614200Y-117074950D01*
X113841400Y-117074950D01*
X113841400Y-117510472D01*
X113876203Y-117594492D01*
X113940509Y-117658798D01*
X114024529Y-117693600D01*
X114335050Y-117693600D01*
X114392200Y-117636450D01*
X114392200Y-117017800D01*
X114747800Y-117017800D01*
X114747800Y-117636450D01*
X114804950Y-117693600D01*
X115115471Y-117693600D01*
X115199491Y-117658798D01*
X115263797Y-117594492D01*
X115298600Y-117510472D01*
X115298600Y-117074950D01*
X115241450Y-117017800D01*
X114747800Y-117017800D01*
X114392200Y-117017800D01*
X113898550Y-117017800D01*
X113841400Y-117074950D01*
X113614200Y-117074950D01*
X113614200Y-116169528D01*
X113841400Y-116169528D01*
X113841400Y-116605050D01*
X113898550Y-116662200D01*
X114392200Y-116662200D01*
X114392200Y-116043550D01*
X114747800Y-116043550D01*
X114747800Y-116662200D01*
X115241450Y-116662200D01*
X115298600Y-116605050D01*
X115298600Y-116169528D01*
X115263797Y-116085508D01*
X115199491Y-116021202D01*
X115115471Y-115986400D01*
X114804950Y-115986400D01*
X114747800Y-116043550D01*
X114392200Y-116043550D01*
X114335050Y-115986400D01*
X114024529Y-115986400D01*
X113940509Y-116021202D01*
X113876203Y-116085508D01*
X113841400Y-116169528D01*
X113614200Y-116169528D01*
X113614200Y-114026950D01*
X113841400Y-114026950D01*
X113841400Y-114462472D01*
X113876203Y-114546492D01*
X113940509Y-114610798D01*
X114024529Y-114645600D01*
X114335050Y-114645600D01*
X114392200Y-114588450D01*
X114392200Y-113969800D01*
X114747800Y-113969800D01*
X114747800Y-114588450D01*
X114804950Y-114645600D01*
X115115471Y-114645600D01*
X115199491Y-114610798D01*
X115263797Y-114546492D01*
X115298600Y-114462472D01*
X115298600Y-114026950D01*
X115241450Y-113969800D01*
X114747800Y-113969800D01*
X114392200Y-113969800D01*
X113898550Y-113969800D01*
X113841400Y-114026950D01*
X113614200Y-114026950D01*
X113614200Y-113121528D01*
X113841400Y-113121528D01*
X113841400Y-113557050D01*
X113898550Y-113614200D01*
X114392200Y-113614200D01*
X114392200Y-112995550D01*
X114747800Y-112995550D01*
X114747800Y-113614200D01*
X115241450Y-113614200D01*
X115298600Y-113557050D01*
X115298600Y-113121528D01*
X115263797Y-113037508D01*
X115199491Y-112973202D01*
X115115471Y-112938400D01*
X114804950Y-112938400D01*
X114747800Y-112995550D01*
X114392200Y-112995550D01*
X114335050Y-112938400D01*
X114024529Y-112938400D01*
X113940509Y-112973202D01*
X113876203Y-113037508D01*
X113841400Y-113121528D01*
X113614200Y-113121528D01*
X113614200Y-112598200D01*
X115493800Y-112598200D01*
X115493800Y-118033800D01*
X115493800Y-118033800D01*
G37*
X115493800Y-118033800D02*
X113614200Y-118033800D01*
X113614200Y-117074950D01*
X113841400Y-117074950D01*
X113841400Y-117510472D01*
X113876203Y-117594492D01*
X113940509Y-117658798D01*
X114024529Y-117693600D01*
X114335050Y-117693600D01*
X114392200Y-117636450D01*
X114392200Y-117017800D01*
X114747800Y-117017800D01*
X114747800Y-117636450D01*
X114804950Y-117693600D01*
X115115471Y-117693600D01*
X115199491Y-117658798D01*
X115263797Y-117594492D01*
X115298600Y-117510472D01*
X115298600Y-117074950D01*
X115241450Y-117017800D01*
X114747800Y-117017800D01*
X114392200Y-117017800D01*
X113898550Y-117017800D01*
X113841400Y-117074950D01*
X113614200Y-117074950D01*
X113614200Y-116169528D01*
X113841400Y-116169528D01*
X113841400Y-116605050D01*
X113898550Y-116662200D01*
X114392200Y-116662200D01*
X114392200Y-116043550D01*
X114747800Y-116043550D01*
X114747800Y-116662200D01*
X115241450Y-116662200D01*
X115298600Y-116605050D01*
X115298600Y-116169528D01*
X115263797Y-116085508D01*
X115199491Y-116021202D01*
X115115471Y-115986400D01*
X114804950Y-115986400D01*
X114747800Y-116043550D01*
X114392200Y-116043550D01*
X114335050Y-115986400D01*
X114024529Y-115986400D01*
X113940509Y-116021202D01*
X113876203Y-116085508D01*
X113841400Y-116169528D01*
X113614200Y-116169528D01*
X113614200Y-114026950D01*
X113841400Y-114026950D01*
X113841400Y-114462472D01*
X113876203Y-114546492D01*
X113940509Y-114610798D01*
X114024529Y-114645600D01*
X114335050Y-114645600D01*
X114392200Y-114588450D01*
X114392200Y-113969800D01*
X114747800Y-113969800D01*
X114747800Y-114588450D01*
X114804950Y-114645600D01*
X115115471Y-114645600D01*
X115199491Y-114610798D01*
X115263797Y-114546492D01*
X115298600Y-114462472D01*
X115298600Y-114026950D01*
X115241450Y-113969800D01*
X114747800Y-113969800D01*
X114392200Y-113969800D01*
X113898550Y-113969800D01*
X113841400Y-114026950D01*
X113614200Y-114026950D01*
X113614200Y-113121528D01*
X113841400Y-113121528D01*
X113841400Y-113557050D01*
X113898550Y-113614200D01*
X114392200Y-113614200D01*
X114392200Y-112995550D01*
X114747800Y-112995550D01*
X114747800Y-113614200D01*
X115241450Y-113614200D01*
X115298600Y-113557050D01*
X115298600Y-113121528D01*
X115263797Y-113037508D01*
X115199491Y-112973202D01*
X115115471Y-112938400D01*
X114804950Y-112938400D01*
X114747800Y-112995550D01*
X114392200Y-112995550D01*
X114335050Y-112938400D01*
X114024529Y-112938400D01*
X113940509Y-112973202D01*
X113876203Y-113037508D01*
X113841400Y-113121528D01*
X113614200Y-113121528D01*
X113614200Y-112598200D01*
X115493800Y-112598200D01*
X115493800Y-118033800D01*
G36*
X123113800Y-107746800D02*
X118694200Y-107746800D01*
X118694200Y-107152950D01*
X118780400Y-107152950D01*
X118780400Y-107463471D01*
X118815202Y-107547491D01*
X118879508Y-107611797D01*
X118963528Y-107646600D01*
X119399050Y-107646600D01*
X119456200Y-107589450D01*
X119456200Y-107095800D01*
X119811800Y-107095800D01*
X119811800Y-107589450D01*
X119868950Y-107646600D01*
X120304472Y-107646600D01*
X120388492Y-107611797D01*
X120452798Y-107547491D01*
X120487600Y-107463471D01*
X120487600Y-107152950D01*
X121320400Y-107152950D01*
X121320400Y-107463471D01*
X121355202Y-107547491D01*
X121419508Y-107611797D01*
X121503528Y-107646600D01*
X121939050Y-107646600D01*
X121996200Y-107589450D01*
X121996200Y-107095800D01*
X122351800Y-107095800D01*
X122351800Y-107589450D01*
X122408950Y-107646600D01*
X122844472Y-107646600D01*
X122928492Y-107611797D01*
X122992798Y-107547491D01*
X123027600Y-107463471D01*
X123027600Y-107152950D01*
X122970450Y-107095800D01*
X122351800Y-107095800D01*
X121996200Y-107095800D01*
X121377550Y-107095800D01*
X121320400Y-107152950D01*
X120487600Y-107152950D01*
X120430450Y-107095800D01*
X119811800Y-107095800D01*
X119456200Y-107095800D01*
X118837550Y-107095800D01*
X118780400Y-107152950D01*
X118694200Y-107152950D01*
X118694200Y-106372529D01*
X118780400Y-106372529D01*
X118780400Y-106683050D01*
X118837550Y-106740200D01*
X119456200Y-106740200D01*
X119456200Y-106246550D01*
X119811800Y-106246550D01*
X119811800Y-106740200D01*
X120430450Y-106740200D01*
X120487600Y-106683050D01*
X120487600Y-106372529D01*
X121320400Y-106372529D01*
X121320400Y-106683050D01*
X121377550Y-106740200D01*
X121996200Y-106740200D01*
X121996200Y-106246550D01*
X122351800Y-106246550D01*
X122351800Y-106740200D01*
X122970450Y-106740200D01*
X123027600Y-106683050D01*
X123027600Y-106372529D01*
X122992798Y-106288509D01*
X122928492Y-106224203D01*
X122844472Y-106189400D01*
X122408950Y-106189400D01*
X122351800Y-106246550D01*
X121996200Y-106246550D01*
X121939050Y-106189400D01*
X121503528Y-106189400D01*
X121419508Y-106224203D01*
X121355202Y-106288509D01*
X121320400Y-106372529D01*
X120487600Y-106372529D01*
X120452798Y-106288509D01*
X120388492Y-106224203D01*
X120304472Y-106189400D01*
X119868950Y-106189400D01*
X119811800Y-106246550D01*
X119456200Y-106246550D01*
X119399050Y-106189400D01*
X118963528Y-106189400D01*
X118879508Y-106224203D01*
X118815202Y-106288509D01*
X118780400Y-106372529D01*
X118694200Y-106372529D01*
X118694200Y-106121200D01*
X123113800Y-106121200D01*
X123113800Y-107746800D01*
X123113800Y-107746800D01*
G37*
X123113800Y-107746800D02*
X118694200Y-107746800D01*
X118694200Y-107152950D01*
X118780400Y-107152950D01*
X118780400Y-107463471D01*
X118815202Y-107547491D01*
X118879508Y-107611797D01*
X118963528Y-107646600D01*
X119399050Y-107646600D01*
X119456200Y-107589450D01*
X119456200Y-107095800D01*
X119811800Y-107095800D01*
X119811800Y-107589450D01*
X119868950Y-107646600D01*
X120304472Y-107646600D01*
X120388492Y-107611797D01*
X120452798Y-107547491D01*
X120487600Y-107463471D01*
X120487600Y-107152950D01*
X121320400Y-107152950D01*
X121320400Y-107463471D01*
X121355202Y-107547491D01*
X121419508Y-107611797D01*
X121503528Y-107646600D01*
X121939050Y-107646600D01*
X121996200Y-107589450D01*
X121996200Y-107095800D01*
X122351800Y-107095800D01*
X122351800Y-107589450D01*
X122408950Y-107646600D01*
X122844472Y-107646600D01*
X122928492Y-107611797D01*
X122992798Y-107547491D01*
X123027600Y-107463471D01*
X123027600Y-107152950D01*
X122970450Y-107095800D01*
X122351800Y-107095800D01*
X121996200Y-107095800D01*
X121377550Y-107095800D01*
X121320400Y-107152950D01*
X120487600Y-107152950D01*
X120430450Y-107095800D01*
X119811800Y-107095800D01*
X119456200Y-107095800D01*
X118837550Y-107095800D01*
X118780400Y-107152950D01*
X118694200Y-107152950D01*
X118694200Y-106372529D01*
X118780400Y-106372529D01*
X118780400Y-106683050D01*
X118837550Y-106740200D01*
X119456200Y-106740200D01*
X119456200Y-106246550D01*
X119811800Y-106246550D01*
X119811800Y-106740200D01*
X120430450Y-106740200D01*
X120487600Y-106683050D01*
X120487600Y-106372529D01*
X121320400Y-106372529D01*
X121320400Y-106683050D01*
X121377550Y-106740200D01*
X121996200Y-106740200D01*
X121996200Y-106246550D01*
X122351800Y-106246550D01*
X122351800Y-106740200D01*
X122970450Y-106740200D01*
X123027600Y-106683050D01*
X123027600Y-106372529D01*
X122992798Y-106288509D01*
X122928492Y-106224203D01*
X122844472Y-106189400D01*
X122408950Y-106189400D01*
X122351800Y-106246550D01*
X121996200Y-106246550D01*
X121939050Y-106189400D01*
X121503528Y-106189400D01*
X121419508Y-106224203D01*
X121355202Y-106288509D01*
X121320400Y-106372529D01*
X120487600Y-106372529D01*
X120452798Y-106288509D01*
X120388492Y-106224203D01*
X120304472Y-106189400D01*
X119868950Y-106189400D01*
X119811800Y-106246550D01*
X119456200Y-106246550D01*
X119399050Y-106189400D01*
X118963528Y-106189400D01*
X118879508Y-106224203D01*
X118815202Y-106288509D01*
X118780400Y-106372529D01*
X118694200Y-106372529D01*
X118694200Y-106121200D01*
X123113800Y-106121200D01*
X123113800Y-107746800D01*
G36*
X123113800Y-105714800D02*
X118694200Y-105714800D01*
X118694200Y-105152950D01*
X118780400Y-105152950D01*
X118780400Y-105463471D01*
X118815202Y-105547491D01*
X118879508Y-105611797D01*
X118963528Y-105646600D01*
X119399050Y-105646600D01*
X119456200Y-105589450D01*
X119456200Y-105095800D01*
X119811800Y-105095800D01*
X119811800Y-105589450D01*
X119868950Y-105646600D01*
X120304472Y-105646600D01*
X120388492Y-105611797D01*
X120452798Y-105547491D01*
X120487600Y-105463471D01*
X120487600Y-105152950D01*
X121320400Y-105152950D01*
X121320400Y-105463471D01*
X121355202Y-105547491D01*
X121419508Y-105611797D01*
X121503528Y-105646600D01*
X121939050Y-105646600D01*
X121996200Y-105589450D01*
X121996200Y-105095800D01*
X122351800Y-105095800D01*
X122351800Y-105589450D01*
X122408950Y-105646600D01*
X122844472Y-105646600D01*
X122928492Y-105611797D01*
X122992798Y-105547491D01*
X123027600Y-105463471D01*
X123027600Y-105152950D01*
X122970450Y-105095800D01*
X122351800Y-105095800D01*
X121996200Y-105095800D01*
X121377550Y-105095800D01*
X121320400Y-105152950D01*
X120487600Y-105152950D01*
X120430450Y-105095800D01*
X119811800Y-105095800D01*
X119456200Y-105095800D01*
X118837550Y-105095800D01*
X118780400Y-105152950D01*
X118694200Y-105152950D01*
X118694200Y-104372529D01*
X118780400Y-104372529D01*
X118780400Y-104683050D01*
X118837550Y-104740200D01*
X119456200Y-104740200D01*
X119456200Y-104246550D01*
X119811800Y-104246550D01*
X119811800Y-104740200D01*
X120430450Y-104740200D01*
X120487600Y-104683050D01*
X120487600Y-104372529D01*
X121320400Y-104372529D01*
X121320400Y-104683050D01*
X121377550Y-104740200D01*
X121996200Y-104740200D01*
X121996200Y-104246550D01*
X122351800Y-104246550D01*
X122351800Y-104740200D01*
X122970450Y-104740200D01*
X123027600Y-104683050D01*
X123027600Y-104372529D01*
X122992798Y-104288509D01*
X122928492Y-104224203D01*
X122844472Y-104189400D01*
X122408950Y-104189400D01*
X122351800Y-104246550D01*
X121996200Y-104246550D01*
X121939050Y-104189400D01*
X121503528Y-104189400D01*
X121419508Y-104224203D01*
X121355202Y-104288509D01*
X121320400Y-104372529D01*
X120487600Y-104372529D01*
X120452798Y-104288509D01*
X120388492Y-104224203D01*
X120304472Y-104189400D01*
X119868950Y-104189400D01*
X119811800Y-104246550D01*
X119456200Y-104246550D01*
X119399050Y-104189400D01*
X118963528Y-104189400D01*
X118879508Y-104224203D01*
X118815202Y-104288509D01*
X118780400Y-104372529D01*
X118694200Y-104372529D01*
X118694200Y-104089200D01*
X123113800Y-104089200D01*
X123113800Y-105714800D01*
X123113800Y-105714800D01*
G37*
X123113800Y-105714800D02*
X118694200Y-105714800D01*
X118694200Y-105152950D01*
X118780400Y-105152950D01*
X118780400Y-105463471D01*
X118815202Y-105547491D01*
X118879508Y-105611797D01*
X118963528Y-105646600D01*
X119399050Y-105646600D01*
X119456200Y-105589450D01*
X119456200Y-105095800D01*
X119811800Y-105095800D01*
X119811800Y-105589450D01*
X119868950Y-105646600D01*
X120304472Y-105646600D01*
X120388492Y-105611797D01*
X120452798Y-105547491D01*
X120487600Y-105463471D01*
X120487600Y-105152950D01*
X121320400Y-105152950D01*
X121320400Y-105463471D01*
X121355202Y-105547491D01*
X121419508Y-105611797D01*
X121503528Y-105646600D01*
X121939050Y-105646600D01*
X121996200Y-105589450D01*
X121996200Y-105095800D01*
X122351800Y-105095800D01*
X122351800Y-105589450D01*
X122408950Y-105646600D01*
X122844472Y-105646600D01*
X122928492Y-105611797D01*
X122992798Y-105547491D01*
X123027600Y-105463471D01*
X123027600Y-105152950D01*
X122970450Y-105095800D01*
X122351800Y-105095800D01*
X121996200Y-105095800D01*
X121377550Y-105095800D01*
X121320400Y-105152950D01*
X120487600Y-105152950D01*
X120430450Y-105095800D01*
X119811800Y-105095800D01*
X119456200Y-105095800D01*
X118837550Y-105095800D01*
X118780400Y-105152950D01*
X118694200Y-105152950D01*
X118694200Y-104372529D01*
X118780400Y-104372529D01*
X118780400Y-104683050D01*
X118837550Y-104740200D01*
X119456200Y-104740200D01*
X119456200Y-104246550D01*
X119811800Y-104246550D01*
X119811800Y-104740200D01*
X120430450Y-104740200D01*
X120487600Y-104683050D01*
X120487600Y-104372529D01*
X121320400Y-104372529D01*
X121320400Y-104683050D01*
X121377550Y-104740200D01*
X121996200Y-104740200D01*
X121996200Y-104246550D01*
X122351800Y-104246550D01*
X122351800Y-104740200D01*
X122970450Y-104740200D01*
X123027600Y-104683050D01*
X123027600Y-104372529D01*
X122992798Y-104288509D01*
X122928492Y-104224203D01*
X122844472Y-104189400D01*
X122408950Y-104189400D01*
X122351800Y-104246550D01*
X121996200Y-104246550D01*
X121939050Y-104189400D01*
X121503528Y-104189400D01*
X121419508Y-104224203D01*
X121355202Y-104288509D01*
X121320400Y-104372529D01*
X120487600Y-104372529D01*
X120452798Y-104288509D01*
X120388492Y-104224203D01*
X120304472Y-104189400D01*
X119868950Y-104189400D01*
X119811800Y-104246550D01*
X119456200Y-104246550D01*
X119399050Y-104189400D01*
X118963528Y-104189400D01*
X118879508Y-104224203D01*
X118815202Y-104288509D01*
X118780400Y-104372529D01*
X118694200Y-104372529D01*
X118694200Y-104089200D01*
X123113800Y-104089200D01*
X123113800Y-105714800D01*
G36*
X124891800Y-118033800D02*
X124587000Y-118033800D01*
X124557354Y-118039803D01*
X124532379Y-118056868D01*
X124516011Y-118082305D01*
X124510800Y-118110000D01*
X124510800Y-118364000D01*
X124516803Y-118393646D01*
X124533868Y-118418621D01*
X124559305Y-118434989D01*
X124587000Y-118440200D01*
X124891800Y-118440200D01*
X124891800Y-119049800D01*
X124028200Y-119049800D01*
X124028200Y-118440200D01*
X124333000Y-118440200D01*
X124362646Y-118434197D01*
X124387621Y-118417132D01*
X124403989Y-118391695D01*
X124409200Y-118364000D01*
X124409200Y-118110000D01*
X124403197Y-118080354D01*
X124386132Y-118055379D01*
X124360695Y-118039011D01*
X124333000Y-118033800D01*
X124028200Y-118033800D01*
X124028200Y-117424200D01*
X124891800Y-117424200D01*
X124891800Y-118033800D01*
X124891800Y-118033800D01*
G37*
X124891800Y-118033800D02*
X124587000Y-118033800D01*
X124557354Y-118039803D01*
X124532379Y-118056868D01*
X124516011Y-118082305D01*
X124510800Y-118110000D01*
X124510800Y-118364000D01*
X124516803Y-118393646D01*
X124533868Y-118418621D01*
X124559305Y-118434989D01*
X124587000Y-118440200D01*
X124891800Y-118440200D01*
X124891800Y-119049800D01*
X124028200Y-119049800D01*
X124028200Y-118440200D01*
X124333000Y-118440200D01*
X124362646Y-118434197D01*
X124387621Y-118417132D01*
X124403989Y-118391695D01*
X124409200Y-118364000D01*
X124409200Y-118110000D01*
X124403197Y-118080354D01*
X124386132Y-118055379D01*
X124360695Y-118039011D01*
X124333000Y-118033800D01*
X124028200Y-118033800D01*
X124028200Y-117424200D01*
X124891800Y-117424200D01*
X124891800Y-118033800D01*
G36*
X126415800Y-114223800D02*
X126111000Y-114223800D01*
X126081354Y-114229803D01*
X126056379Y-114246868D01*
X126040011Y-114272305D01*
X126034800Y-114300000D01*
X126034800Y-114554000D01*
X126040803Y-114583646D01*
X126057868Y-114608621D01*
X126083305Y-114624989D01*
X126111000Y-114630200D01*
X126415800Y-114630200D01*
X126415800Y-115239800D01*
X125552200Y-115239800D01*
X125552200Y-114630200D01*
X125857000Y-114630200D01*
X125886646Y-114624197D01*
X125911621Y-114607132D01*
X125927989Y-114581695D01*
X125933200Y-114554000D01*
X125933200Y-114300000D01*
X125927197Y-114270354D01*
X125910132Y-114245379D01*
X125884695Y-114229011D01*
X125857000Y-114223800D01*
X125552200Y-114223800D01*
X125552200Y-113614200D01*
X126415800Y-113614200D01*
X126415800Y-114223800D01*
X126415800Y-114223800D01*
G37*
X126415800Y-114223800D02*
X126111000Y-114223800D01*
X126081354Y-114229803D01*
X126056379Y-114246868D01*
X126040011Y-114272305D01*
X126034800Y-114300000D01*
X126034800Y-114554000D01*
X126040803Y-114583646D01*
X126057868Y-114608621D01*
X126083305Y-114624989D01*
X126111000Y-114630200D01*
X126415800Y-114630200D01*
X126415800Y-115239800D01*
X125552200Y-115239800D01*
X125552200Y-114630200D01*
X125857000Y-114630200D01*
X125886646Y-114624197D01*
X125911621Y-114607132D01*
X125927989Y-114581695D01*
X125933200Y-114554000D01*
X125933200Y-114300000D01*
X125927197Y-114270354D01*
X125910132Y-114245379D01*
X125884695Y-114229011D01*
X125857000Y-114223800D01*
X125552200Y-114223800D01*
X125552200Y-113614200D01*
X126415800Y-113614200D01*
X126415800Y-114223800D01*
M02*
