G04 #@! TF.FileFunction,Copper,L2,Bot,Signal*
%FSLAX46Y46*%
G04 Gerber Fmt 4.6, Leading zero omitted, Abs format (unit mm)*
G04 Created by KiCad (PCBNEW 4.0.1-stable) date 5/8/2016 2:59:50 PM*
%MOMM*%
G01*
G04 APERTURE LIST*
%ADD10C,0.100000*%
%ADD11C,4.064000*%
%ADD12C,1.700000*%
%ADD13R,1.000000X1.250000*%
%ADD14R,1.727200X2.032000*%
%ADD15O,1.727200X2.032000*%
%ADD16R,0.700000X1.300000*%
%ADD17R,1.300000X0.700000*%
%ADD18R,0.450000X1.750000*%
%ADD19C,1.501140*%
%ADD20R,2.032000X2.032000*%
%ADD21O,2.032000X2.032000*%
%ADD22O,0.950000X1.250000*%
%ADD23O,1.550000X1.000000*%
%ADD24R,1.727200X1.727200*%
%ADD25O,1.727200X1.727200*%
%ADD26C,0.685800*%
%ADD27C,0.152400*%
%ADD28C,0.381000*%
%ADD29C,0.254000*%
G04 APERTURE END LIST*
D10*
D11*
X112268000Y-97028000D03*
D12*
X125528000Y-129068000D03*
X132028000Y-129068000D03*
X132028000Y-133568000D03*
X125528000Y-133568000D03*
D13*
X132318000Y-112776000D03*
X130318000Y-112776000D03*
D14*
X152400000Y-96520000D03*
D15*
X149860000Y-96520000D03*
X147320000Y-96520000D03*
X144780000Y-96520000D03*
X142240000Y-96520000D03*
X139700000Y-96520000D03*
X137160000Y-96520000D03*
X134620000Y-96520000D03*
X132080000Y-96520000D03*
X129540000Y-96520000D03*
X127000000Y-96520000D03*
X124460000Y-96520000D03*
X121920000Y-96520000D03*
X119380000Y-96520000D03*
X116840000Y-96520000D03*
D14*
X152400000Y-124460000D03*
D15*
X149860000Y-124460000D03*
X147320000Y-124460000D03*
X144780000Y-124460000D03*
X142240000Y-124460000D03*
X139700000Y-124460000D03*
X137160000Y-124460000D03*
X134620000Y-124460000D03*
X132080000Y-124460000D03*
X129540000Y-124460000D03*
X127000000Y-124460000D03*
X124460000Y-124460000D03*
X121920000Y-124460000D03*
X119380000Y-124460000D03*
X116840000Y-124460000D03*
D16*
X136205000Y-112776000D03*
X134305000Y-112776000D03*
D17*
X138684000Y-102042000D03*
X138684000Y-100142000D03*
X141986000Y-102042000D03*
X141986000Y-100142000D03*
D18*
X134273000Y-110026000D03*
X133623000Y-110026000D03*
X132973000Y-110026000D03*
X132323000Y-110026000D03*
X131673000Y-110026000D03*
X131023000Y-110026000D03*
X130373000Y-110026000D03*
X129723000Y-110026000D03*
X129073000Y-110026000D03*
X128423000Y-110026000D03*
X127773000Y-110026000D03*
X127123000Y-110026000D03*
X126473000Y-110026000D03*
X125823000Y-110026000D03*
X125823000Y-102826000D03*
X126473000Y-102826000D03*
X127123000Y-102826000D03*
X127773000Y-102826000D03*
X128423000Y-102826000D03*
X129073000Y-102826000D03*
X129723000Y-102826000D03*
X130373000Y-102826000D03*
X131023000Y-102826000D03*
X131673000Y-102826000D03*
X132323000Y-102826000D03*
X132973000Y-102826000D03*
X133623000Y-102826000D03*
X134273000Y-102826000D03*
D19*
X120904000Y-112875060D03*
X120904000Y-117756940D03*
D12*
X114098000Y-129068000D03*
X120598000Y-129068000D03*
X120598000Y-133568000D03*
X114098000Y-133568000D03*
X136958000Y-129068000D03*
X143458000Y-129068000D03*
X143458000Y-133568000D03*
X136958000Y-133568000D03*
X148388000Y-129068000D03*
X154888000Y-129068000D03*
X154888000Y-133568000D03*
X148388000Y-133568000D03*
X114098000Y-137958000D03*
X120598000Y-137958000D03*
X120598000Y-142458000D03*
X114098000Y-142458000D03*
X125528000Y-137958000D03*
X132028000Y-137958000D03*
X132028000Y-142458000D03*
X125528000Y-142458000D03*
X136958000Y-137958000D03*
X143458000Y-137958000D03*
X143458000Y-142458000D03*
X136958000Y-142458000D03*
X148388000Y-137958000D03*
X154888000Y-137958000D03*
X154888000Y-142458000D03*
X148388000Y-142458000D03*
X151856000Y-100636000D03*
X151856000Y-107136000D03*
X147356000Y-107136000D03*
X147356000Y-100636000D03*
D11*
X156972000Y-97028000D03*
X112268000Y-123952000D03*
X156972000Y-123952000D03*
D13*
X127397000Y-100330000D03*
X129397000Y-100330000D03*
D20*
X155956000Y-104648000D03*
D21*
X155956000Y-107188000D03*
D22*
X113322540Y-103925100D03*
X113322540Y-108925100D03*
D23*
X110622540Y-102925100D03*
X110622540Y-109925100D03*
D24*
X155194000Y-112522000D03*
D25*
X157734000Y-112522000D03*
X155194000Y-115062000D03*
X157734000Y-115062000D03*
X155194000Y-117602000D03*
X157734000Y-117602000D03*
D26*
X123317000Y-112903000D03*
X127000000Y-120650000D03*
X127000000Y-130302000D03*
X120904000Y-101854000D03*
X114808000Y-107696000D03*
X120904000Y-104902000D03*
X140716000Y-106426000D03*
X127254000Y-106680000D03*
X127254000Y-105156000D03*
X132842000Y-105918000D03*
X142494000Y-108458000D03*
X114554000Y-115316000D03*
X147828000Y-118110000D03*
X143510000Y-114554000D03*
X129540000Y-121158000D03*
X129540000Y-130302000D03*
X143510000Y-101600000D03*
X130810000Y-105283000D03*
X132334000Y-108712000D03*
X134620000Y-100584000D03*
X141986000Y-99314000D03*
X133858000Y-101346000D03*
X138684000Y-99314000D03*
X130429000Y-121158000D03*
X131318000Y-121158000D03*
X132207000Y-121158000D03*
X133096000Y-121158000D03*
X133985000Y-121158000D03*
X134874000Y-120904000D03*
X136144000Y-120777000D03*
X149860000Y-126492000D03*
X137287000Y-120904000D03*
X138303000Y-120777000D03*
X152400000Y-127254000D03*
X151384000Y-112903000D03*
X135255000Y-112014000D03*
X132461000Y-107823000D03*
X131572000Y-107950000D03*
X130048000Y-107442000D03*
X124079000Y-101981000D03*
X124079000Y-102997000D03*
D27*
X127000000Y-124460000D02*
X127000000Y-120650000D01*
X123289060Y-112875060D02*
X120904000Y-112875060D01*
X123317000Y-112903000D02*
X123289060Y-112875060D01*
X120396000Y-113383060D02*
X120904000Y-112875060D01*
X127000000Y-130302000D02*
X127000000Y-124460000D01*
D28*
X129723000Y-100656000D02*
X129397000Y-100330000D01*
D27*
X129540000Y-124460000D02*
X129540000Y-121158000D01*
X129540000Y-129794000D02*
X129540000Y-130302000D01*
X129540000Y-124460000D02*
X129540000Y-129794000D01*
D28*
X128423000Y-102826000D02*
X129073000Y-102826000D01*
X132323000Y-110026000D02*
X132323000Y-112263000D01*
X132323000Y-112263000D02*
X132318000Y-112268000D01*
D27*
X138684000Y-102042000D02*
X141986000Y-102042000D01*
X143068000Y-102042000D02*
X141986000Y-102042000D01*
X143510000Y-101600000D02*
X143068000Y-102042000D01*
D28*
X129073000Y-102826000D02*
X129073000Y-104689000D01*
X129073000Y-104689000D02*
X129667000Y-105283000D01*
X129667000Y-105283000D02*
X130810000Y-105283000D01*
X132323000Y-108723000D02*
X132323000Y-110026000D01*
X132334000Y-108712000D02*
X132323000Y-108723000D01*
D27*
X128397000Y-102800000D02*
X128423000Y-102826000D01*
X134620000Y-100584000D02*
X133604000Y-100584000D01*
X133604000Y-100584000D02*
X133350000Y-100838000D01*
X133350000Y-100838000D02*
X131318000Y-100838000D01*
X131318000Y-100838000D02*
X130373000Y-101783000D01*
X130373000Y-101783000D02*
X130373000Y-102826000D01*
X141986000Y-99314000D02*
X141986000Y-100142000D01*
X131023000Y-101641000D02*
X131023000Y-102826000D01*
X131318000Y-101346000D02*
X131023000Y-101641000D01*
X133858000Y-101346000D02*
X131318000Y-101346000D01*
X138684000Y-99314000D02*
X138684000Y-100142000D01*
X131572000Y-123063000D02*
X132080000Y-123571000D01*
X130810000Y-123063000D02*
X131572000Y-123063000D01*
X130429000Y-122682000D02*
X130810000Y-123063000D01*
X130429000Y-121158000D02*
X130429000Y-122682000D01*
X132080000Y-123571000D02*
X132080000Y-124460000D01*
X134620000Y-123317000D02*
X134620000Y-124460000D01*
X133985000Y-122682000D02*
X134620000Y-123317000D01*
X131572000Y-122682000D02*
X133985000Y-122682000D01*
X131318000Y-122428000D02*
X131572000Y-122682000D01*
X131318000Y-121158000D02*
X131318000Y-122428000D01*
X134620000Y-123571000D02*
X134620000Y-124460000D01*
X134366000Y-122301000D02*
X134493000Y-122301000D01*
X134493000Y-122301000D02*
X134747000Y-122555000D01*
X135890000Y-123190000D02*
X137160000Y-124460000D01*
X135382000Y-123190000D02*
X135890000Y-123190000D01*
X134747000Y-122555000D02*
X135382000Y-123190000D01*
X132461000Y-122301000D02*
X134366000Y-122301000D01*
X132207000Y-122047000D02*
X132461000Y-122301000D01*
X132207000Y-121158000D02*
X132207000Y-122047000D01*
X137795000Y-122809000D02*
X139446000Y-124460000D01*
X135890000Y-122809000D02*
X137795000Y-122809000D01*
X135001000Y-121920000D02*
X135890000Y-122809000D01*
X134239000Y-121920000D02*
X135001000Y-121920000D01*
X133096000Y-121920000D02*
X134239000Y-121920000D01*
X133096000Y-121666000D02*
X133096000Y-121920000D01*
X133096000Y-121158000D02*
X133096000Y-121666000D01*
X139446000Y-124460000D02*
X139700000Y-124460000D01*
X140970000Y-123190000D02*
X142240000Y-124460000D01*
X139065000Y-123190000D02*
X140970000Y-123190000D01*
X138379198Y-122504198D02*
X139065000Y-123190000D01*
X136220198Y-122504198D02*
X138379198Y-122504198D01*
X135255000Y-121539000D02*
X136220198Y-122504198D01*
X134366000Y-121539000D02*
X135255000Y-121539000D01*
X133985000Y-121158000D02*
X134366000Y-121539000D01*
X143129000Y-122809000D02*
X144780000Y-124460000D01*
X139192000Y-122809000D02*
X143129000Y-122809000D01*
X138557000Y-122174000D02*
X139192000Y-122809000D01*
X136652000Y-122174000D02*
X138557000Y-122174000D01*
X135636000Y-121158000D02*
X136652000Y-122174000D01*
X135128000Y-121158000D02*
X135636000Y-121158000D01*
X134874000Y-120904000D02*
X135128000Y-121158000D01*
X145288000Y-122428000D02*
X147320000Y-124460000D01*
X139446000Y-122428000D02*
X145288000Y-122428000D01*
X138811000Y-121793000D02*
X139446000Y-122428000D01*
X137160000Y-121793000D02*
X138811000Y-121793000D01*
X136144000Y-120777000D02*
X137160000Y-121793000D01*
X149860000Y-126492000D02*
X149860000Y-124460000D01*
X147447000Y-122047000D02*
X149860000Y-124460000D01*
X139700000Y-122047000D02*
X147447000Y-122047000D01*
X139065000Y-121412000D02*
X139700000Y-122047000D01*
X137795000Y-121412000D02*
X139065000Y-121412000D01*
X137287000Y-120904000D02*
X137795000Y-121412000D01*
X149682198Y-121742198D02*
X152400000Y-124460000D01*
X139903198Y-121742198D02*
X149682198Y-121742198D01*
X139192000Y-121031000D02*
X139903198Y-121742198D01*
X138557000Y-121031000D02*
X139192000Y-121031000D01*
X138303000Y-120777000D02*
X138557000Y-121031000D01*
X152400000Y-127254000D02*
X152400000Y-124460000D01*
X153797000Y-116205000D02*
X155194000Y-117602000D01*
X153797000Y-113411000D02*
X153797000Y-116205000D01*
X153543000Y-113157000D02*
X153797000Y-113411000D01*
X151638000Y-113157000D02*
X153543000Y-113157000D01*
X151384000Y-112903000D02*
X151638000Y-113157000D01*
X132973000Y-110026000D02*
X132973000Y-110875000D01*
X132973000Y-110875000D02*
X133604000Y-111506000D01*
X133604000Y-111506000D02*
X133604000Y-113665000D01*
X133604000Y-113665000D02*
X133858000Y-113919000D01*
X133858000Y-113919000D02*
X134874000Y-113919000D01*
X134874000Y-113919000D02*
X135255000Y-113538000D01*
X135255000Y-113538000D02*
X135255000Y-112014000D01*
X132973000Y-108335000D02*
X132973000Y-110026000D01*
X132461000Y-107823000D02*
X132973000Y-108335000D01*
X131673000Y-108051000D02*
X131673000Y-110026000D01*
X131572000Y-107950000D02*
X131673000Y-108051000D01*
X136205000Y-112776000D02*
X136205000Y-112075000D01*
X130302000Y-107188000D02*
X130048000Y-107442000D01*
X132969000Y-107188000D02*
X130302000Y-107188000D01*
X134747000Y-108966000D02*
X132969000Y-107188000D01*
X134747000Y-110617000D02*
X134747000Y-108966000D01*
X136205000Y-112075000D02*
X134747000Y-110617000D01*
X134273000Y-110026000D02*
X134273000Y-112744000D01*
X134273000Y-112744000D02*
X134305000Y-112776000D01*
X127123000Y-102826000D02*
X127123000Y-99879000D01*
X127123000Y-99879000D02*
X127066000Y-99822000D01*
X126473000Y-102826000D02*
X126473000Y-101835000D01*
X126111000Y-101473000D02*
X126473000Y-101835000D01*
X124587000Y-101473000D02*
X126111000Y-101473000D01*
X124587000Y-101473000D02*
X124079000Y-101981000D01*
X124333000Y-102743000D02*
X125603000Y-102743000D01*
X124079000Y-102997000D02*
X124333000Y-102743000D01*
X125603000Y-102743000D02*
X125823000Y-102826000D01*
D29*
G36*
X159539000Y-144299000D02*
X109701000Y-144299000D01*
X109701000Y-143363021D01*
X113372584Y-143363021D01*
X113466792Y-143542848D01*
X113929993Y-143701822D01*
X114418772Y-143671435D01*
X114729208Y-143542848D01*
X114823416Y-143363021D01*
X119872584Y-143363021D01*
X119966792Y-143542848D01*
X120429993Y-143701822D01*
X120918772Y-143671435D01*
X121229208Y-143542848D01*
X121323416Y-143363021D01*
X124802584Y-143363021D01*
X124896792Y-143542848D01*
X125359993Y-143701822D01*
X125848772Y-143671435D01*
X126159208Y-143542848D01*
X126253416Y-143363021D01*
X131302584Y-143363021D01*
X131396792Y-143542848D01*
X131859993Y-143701822D01*
X132348772Y-143671435D01*
X132659208Y-143542848D01*
X132753416Y-143363021D01*
X136232584Y-143363021D01*
X136326792Y-143542848D01*
X136789993Y-143701822D01*
X137278772Y-143671435D01*
X137589208Y-143542848D01*
X137683416Y-143363021D01*
X142732584Y-143363021D01*
X142826792Y-143542848D01*
X143289993Y-143701822D01*
X143778772Y-143671435D01*
X144089208Y-143542848D01*
X144183416Y-143363021D01*
X147662584Y-143363021D01*
X147756792Y-143542848D01*
X148219993Y-143701822D01*
X148708772Y-143671435D01*
X149019208Y-143542848D01*
X149113416Y-143363021D01*
X154162584Y-143363021D01*
X154256792Y-143542848D01*
X154719993Y-143701822D01*
X155208772Y-143671435D01*
X155519208Y-143542848D01*
X155613416Y-143363021D01*
X154888000Y-142637605D01*
X154162584Y-143363021D01*
X149113416Y-143363021D01*
X148388000Y-142637605D01*
X147662584Y-143363021D01*
X144183416Y-143363021D01*
X143458000Y-142637605D01*
X142732584Y-143363021D01*
X137683416Y-143363021D01*
X136958000Y-142637605D01*
X136232584Y-143363021D01*
X132753416Y-143363021D01*
X132028000Y-142637605D01*
X131302584Y-143363021D01*
X126253416Y-143363021D01*
X125528000Y-142637605D01*
X124802584Y-143363021D01*
X121323416Y-143363021D01*
X120598000Y-142637605D01*
X119872584Y-143363021D01*
X114823416Y-143363021D01*
X114098000Y-142637605D01*
X113372584Y-143363021D01*
X109701000Y-143363021D01*
X109701000Y-142289993D01*
X112854178Y-142289993D01*
X112884565Y-142778772D01*
X113013152Y-143089208D01*
X113192979Y-143183416D01*
X113918395Y-142458000D01*
X114277605Y-142458000D01*
X115003021Y-143183416D01*
X115182848Y-143089208D01*
X115341822Y-142626007D01*
X115320933Y-142289993D01*
X119354178Y-142289993D01*
X119384565Y-142778772D01*
X119513152Y-143089208D01*
X119692979Y-143183416D01*
X120418395Y-142458000D01*
X120777605Y-142458000D01*
X121503021Y-143183416D01*
X121682848Y-143089208D01*
X121841822Y-142626007D01*
X121820933Y-142289993D01*
X124284178Y-142289993D01*
X124314565Y-142778772D01*
X124443152Y-143089208D01*
X124622979Y-143183416D01*
X125348395Y-142458000D01*
X125707605Y-142458000D01*
X126433021Y-143183416D01*
X126612848Y-143089208D01*
X126771822Y-142626007D01*
X126750933Y-142289993D01*
X130784178Y-142289993D01*
X130814565Y-142778772D01*
X130943152Y-143089208D01*
X131122979Y-143183416D01*
X131848395Y-142458000D01*
X132207605Y-142458000D01*
X132933021Y-143183416D01*
X133112848Y-143089208D01*
X133271822Y-142626007D01*
X133250933Y-142289993D01*
X135714178Y-142289993D01*
X135744565Y-142778772D01*
X135873152Y-143089208D01*
X136052979Y-143183416D01*
X136778395Y-142458000D01*
X137137605Y-142458000D01*
X137863021Y-143183416D01*
X138042848Y-143089208D01*
X138201822Y-142626007D01*
X138180933Y-142289993D01*
X142214178Y-142289993D01*
X142244565Y-142778772D01*
X142373152Y-143089208D01*
X142552979Y-143183416D01*
X143278395Y-142458000D01*
X143637605Y-142458000D01*
X144363021Y-143183416D01*
X144542848Y-143089208D01*
X144701822Y-142626007D01*
X144680933Y-142289993D01*
X147144178Y-142289993D01*
X147174565Y-142778772D01*
X147303152Y-143089208D01*
X147482979Y-143183416D01*
X148208395Y-142458000D01*
X148567605Y-142458000D01*
X149293021Y-143183416D01*
X149472848Y-143089208D01*
X149631822Y-142626007D01*
X149610933Y-142289993D01*
X153644178Y-142289993D01*
X153674565Y-142778772D01*
X153803152Y-143089208D01*
X153982979Y-143183416D01*
X154708395Y-142458000D01*
X155067605Y-142458000D01*
X155793021Y-143183416D01*
X155972848Y-143089208D01*
X156131822Y-142626007D01*
X156101435Y-142137228D01*
X155972848Y-141826792D01*
X155793021Y-141732584D01*
X155067605Y-142458000D01*
X154708395Y-142458000D01*
X153982979Y-141732584D01*
X153803152Y-141826792D01*
X153644178Y-142289993D01*
X149610933Y-142289993D01*
X149601435Y-142137228D01*
X149472848Y-141826792D01*
X149293021Y-141732584D01*
X148567605Y-142458000D01*
X148208395Y-142458000D01*
X147482979Y-141732584D01*
X147303152Y-141826792D01*
X147144178Y-142289993D01*
X144680933Y-142289993D01*
X144671435Y-142137228D01*
X144542848Y-141826792D01*
X144363021Y-141732584D01*
X143637605Y-142458000D01*
X143278395Y-142458000D01*
X142552979Y-141732584D01*
X142373152Y-141826792D01*
X142214178Y-142289993D01*
X138180933Y-142289993D01*
X138171435Y-142137228D01*
X138042848Y-141826792D01*
X137863021Y-141732584D01*
X137137605Y-142458000D01*
X136778395Y-142458000D01*
X136052979Y-141732584D01*
X135873152Y-141826792D01*
X135714178Y-142289993D01*
X133250933Y-142289993D01*
X133241435Y-142137228D01*
X133112848Y-141826792D01*
X132933021Y-141732584D01*
X132207605Y-142458000D01*
X131848395Y-142458000D01*
X131122979Y-141732584D01*
X130943152Y-141826792D01*
X130784178Y-142289993D01*
X126750933Y-142289993D01*
X126741435Y-142137228D01*
X126612848Y-141826792D01*
X126433021Y-141732584D01*
X125707605Y-142458000D01*
X125348395Y-142458000D01*
X124622979Y-141732584D01*
X124443152Y-141826792D01*
X124284178Y-142289993D01*
X121820933Y-142289993D01*
X121811435Y-142137228D01*
X121682848Y-141826792D01*
X121503021Y-141732584D01*
X120777605Y-142458000D01*
X120418395Y-142458000D01*
X119692979Y-141732584D01*
X119513152Y-141826792D01*
X119354178Y-142289993D01*
X115320933Y-142289993D01*
X115311435Y-142137228D01*
X115182848Y-141826792D01*
X115003021Y-141732584D01*
X114277605Y-142458000D01*
X113918395Y-142458000D01*
X113192979Y-141732584D01*
X113013152Y-141826792D01*
X112854178Y-142289993D01*
X109701000Y-142289993D01*
X109701000Y-141552979D01*
X113372584Y-141552979D01*
X114098000Y-142278395D01*
X114823416Y-141552979D01*
X119872584Y-141552979D01*
X120598000Y-142278395D01*
X121323416Y-141552979D01*
X124802584Y-141552979D01*
X125528000Y-142278395D01*
X126253416Y-141552979D01*
X131302584Y-141552979D01*
X132028000Y-142278395D01*
X132753416Y-141552979D01*
X136232584Y-141552979D01*
X136958000Y-142278395D01*
X137683416Y-141552979D01*
X142732584Y-141552979D01*
X143458000Y-142278395D01*
X144183416Y-141552979D01*
X147662584Y-141552979D01*
X148388000Y-142278395D01*
X149113416Y-141552979D01*
X154162584Y-141552979D01*
X154888000Y-142278395D01*
X155613416Y-141552979D01*
X155519208Y-141373152D01*
X155056007Y-141214178D01*
X154567228Y-141244565D01*
X154256792Y-141373152D01*
X154162584Y-141552979D01*
X149113416Y-141552979D01*
X149019208Y-141373152D01*
X148556007Y-141214178D01*
X148067228Y-141244565D01*
X147756792Y-141373152D01*
X147662584Y-141552979D01*
X144183416Y-141552979D01*
X144089208Y-141373152D01*
X143626007Y-141214178D01*
X143137228Y-141244565D01*
X142826792Y-141373152D01*
X142732584Y-141552979D01*
X137683416Y-141552979D01*
X137589208Y-141373152D01*
X137126007Y-141214178D01*
X136637228Y-141244565D01*
X136326792Y-141373152D01*
X136232584Y-141552979D01*
X132753416Y-141552979D01*
X132659208Y-141373152D01*
X132196007Y-141214178D01*
X131707228Y-141244565D01*
X131396792Y-141373152D01*
X131302584Y-141552979D01*
X126253416Y-141552979D01*
X126159208Y-141373152D01*
X125696007Y-141214178D01*
X125207228Y-141244565D01*
X124896792Y-141373152D01*
X124802584Y-141552979D01*
X121323416Y-141552979D01*
X121229208Y-141373152D01*
X120766007Y-141214178D01*
X120277228Y-141244565D01*
X119966792Y-141373152D01*
X119872584Y-141552979D01*
X114823416Y-141552979D01*
X114729208Y-141373152D01*
X114266007Y-141214178D01*
X113777228Y-141244565D01*
X113466792Y-141373152D01*
X113372584Y-141552979D01*
X109701000Y-141552979D01*
X109701000Y-138201787D01*
X112866787Y-138201787D01*
X113053800Y-138654395D01*
X113399784Y-139000983D01*
X113852065Y-139188786D01*
X114341787Y-139189213D01*
X114794395Y-139002200D01*
X115140983Y-138656216D01*
X115328786Y-138203935D01*
X115328787Y-138201787D01*
X119366787Y-138201787D01*
X119553800Y-138654395D01*
X119899784Y-139000983D01*
X120352065Y-139188786D01*
X120841787Y-139189213D01*
X121294395Y-139002200D01*
X121640983Y-138656216D01*
X121828786Y-138203935D01*
X121828787Y-138201787D01*
X124296787Y-138201787D01*
X124483800Y-138654395D01*
X124829784Y-139000983D01*
X125282065Y-139188786D01*
X125771787Y-139189213D01*
X126224395Y-139002200D01*
X126570983Y-138656216D01*
X126758786Y-138203935D01*
X126758787Y-138201787D01*
X130796787Y-138201787D01*
X130983800Y-138654395D01*
X131329784Y-139000983D01*
X131782065Y-139188786D01*
X132271787Y-139189213D01*
X132724395Y-139002200D01*
X133070983Y-138656216D01*
X133258786Y-138203935D01*
X133258787Y-138201787D01*
X135726787Y-138201787D01*
X135913800Y-138654395D01*
X136259784Y-139000983D01*
X136712065Y-139188786D01*
X137201787Y-139189213D01*
X137654395Y-139002200D01*
X138000983Y-138656216D01*
X138188786Y-138203935D01*
X138188787Y-138201787D01*
X142226787Y-138201787D01*
X142413800Y-138654395D01*
X142759784Y-139000983D01*
X143212065Y-139188786D01*
X143701787Y-139189213D01*
X144154395Y-139002200D01*
X144500983Y-138656216D01*
X144688786Y-138203935D01*
X144688787Y-138201787D01*
X147156787Y-138201787D01*
X147343800Y-138654395D01*
X147689784Y-139000983D01*
X148142065Y-139188786D01*
X148631787Y-139189213D01*
X149084395Y-139002200D01*
X149430983Y-138656216D01*
X149618786Y-138203935D01*
X149618787Y-138201787D01*
X153656787Y-138201787D01*
X153843800Y-138654395D01*
X154189784Y-139000983D01*
X154642065Y-139188786D01*
X155131787Y-139189213D01*
X155584395Y-139002200D01*
X155930983Y-138656216D01*
X156118786Y-138203935D01*
X156119213Y-137714213D01*
X155932200Y-137261605D01*
X155586216Y-136915017D01*
X155133935Y-136727214D01*
X154644213Y-136726787D01*
X154191605Y-136913800D01*
X153845017Y-137259784D01*
X153657214Y-137712065D01*
X153656787Y-138201787D01*
X149618787Y-138201787D01*
X149619213Y-137714213D01*
X149432200Y-137261605D01*
X149086216Y-136915017D01*
X148633935Y-136727214D01*
X148144213Y-136726787D01*
X147691605Y-136913800D01*
X147345017Y-137259784D01*
X147157214Y-137712065D01*
X147156787Y-138201787D01*
X144688787Y-138201787D01*
X144689213Y-137714213D01*
X144502200Y-137261605D01*
X144156216Y-136915017D01*
X143703935Y-136727214D01*
X143214213Y-136726787D01*
X142761605Y-136913800D01*
X142415017Y-137259784D01*
X142227214Y-137712065D01*
X142226787Y-138201787D01*
X138188787Y-138201787D01*
X138189213Y-137714213D01*
X138002200Y-137261605D01*
X137656216Y-136915017D01*
X137203935Y-136727214D01*
X136714213Y-136726787D01*
X136261605Y-136913800D01*
X135915017Y-137259784D01*
X135727214Y-137712065D01*
X135726787Y-138201787D01*
X133258787Y-138201787D01*
X133259213Y-137714213D01*
X133072200Y-137261605D01*
X132726216Y-136915017D01*
X132273935Y-136727214D01*
X131784213Y-136726787D01*
X131331605Y-136913800D01*
X130985017Y-137259784D01*
X130797214Y-137712065D01*
X130796787Y-138201787D01*
X126758787Y-138201787D01*
X126759213Y-137714213D01*
X126572200Y-137261605D01*
X126226216Y-136915017D01*
X125773935Y-136727214D01*
X125284213Y-136726787D01*
X124831605Y-136913800D01*
X124485017Y-137259784D01*
X124297214Y-137712065D01*
X124296787Y-138201787D01*
X121828787Y-138201787D01*
X121829213Y-137714213D01*
X121642200Y-137261605D01*
X121296216Y-136915017D01*
X120843935Y-136727214D01*
X120354213Y-136726787D01*
X119901605Y-136913800D01*
X119555017Y-137259784D01*
X119367214Y-137712065D01*
X119366787Y-138201787D01*
X115328787Y-138201787D01*
X115329213Y-137714213D01*
X115142200Y-137261605D01*
X114796216Y-136915017D01*
X114343935Y-136727214D01*
X113854213Y-136726787D01*
X113401605Y-136913800D01*
X113055017Y-137259784D01*
X112867214Y-137712065D01*
X112866787Y-138201787D01*
X109701000Y-138201787D01*
X109701000Y-134473021D01*
X113372584Y-134473021D01*
X113466792Y-134652848D01*
X113929993Y-134811822D01*
X114418772Y-134781435D01*
X114729208Y-134652848D01*
X114823416Y-134473021D01*
X119872584Y-134473021D01*
X119966792Y-134652848D01*
X120429993Y-134811822D01*
X120918772Y-134781435D01*
X121229208Y-134652848D01*
X121323416Y-134473021D01*
X124802584Y-134473021D01*
X124896792Y-134652848D01*
X125359993Y-134811822D01*
X125848772Y-134781435D01*
X126159208Y-134652848D01*
X126253416Y-134473021D01*
X131302584Y-134473021D01*
X131396792Y-134652848D01*
X131859993Y-134811822D01*
X132348772Y-134781435D01*
X132659208Y-134652848D01*
X132753416Y-134473021D01*
X136232584Y-134473021D01*
X136326792Y-134652848D01*
X136789993Y-134811822D01*
X137278772Y-134781435D01*
X137589208Y-134652848D01*
X137683416Y-134473021D01*
X142732584Y-134473021D01*
X142826792Y-134652848D01*
X143289993Y-134811822D01*
X143778772Y-134781435D01*
X144089208Y-134652848D01*
X144183416Y-134473021D01*
X147662584Y-134473021D01*
X147756792Y-134652848D01*
X148219993Y-134811822D01*
X148708772Y-134781435D01*
X149019208Y-134652848D01*
X149113416Y-134473021D01*
X154162584Y-134473021D01*
X154256792Y-134652848D01*
X154719993Y-134811822D01*
X155208772Y-134781435D01*
X155519208Y-134652848D01*
X155613416Y-134473021D01*
X154888000Y-133747605D01*
X154162584Y-134473021D01*
X149113416Y-134473021D01*
X148388000Y-133747605D01*
X147662584Y-134473021D01*
X144183416Y-134473021D01*
X143458000Y-133747605D01*
X142732584Y-134473021D01*
X137683416Y-134473021D01*
X136958000Y-133747605D01*
X136232584Y-134473021D01*
X132753416Y-134473021D01*
X132028000Y-133747605D01*
X131302584Y-134473021D01*
X126253416Y-134473021D01*
X125528000Y-133747605D01*
X124802584Y-134473021D01*
X121323416Y-134473021D01*
X120598000Y-133747605D01*
X119872584Y-134473021D01*
X114823416Y-134473021D01*
X114098000Y-133747605D01*
X113372584Y-134473021D01*
X109701000Y-134473021D01*
X109701000Y-133399993D01*
X112854178Y-133399993D01*
X112884565Y-133888772D01*
X113013152Y-134199208D01*
X113192979Y-134293416D01*
X113918395Y-133568000D01*
X114277605Y-133568000D01*
X115003021Y-134293416D01*
X115182848Y-134199208D01*
X115341822Y-133736007D01*
X115320933Y-133399993D01*
X119354178Y-133399993D01*
X119384565Y-133888772D01*
X119513152Y-134199208D01*
X119692979Y-134293416D01*
X120418395Y-133568000D01*
X120777605Y-133568000D01*
X121503021Y-134293416D01*
X121682848Y-134199208D01*
X121841822Y-133736007D01*
X121820933Y-133399993D01*
X124284178Y-133399993D01*
X124314565Y-133888772D01*
X124443152Y-134199208D01*
X124622979Y-134293416D01*
X125348395Y-133568000D01*
X125707605Y-133568000D01*
X126433021Y-134293416D01*
X126612848Y-134199208D01*
X126771822Y-133736007D01*
X126750933Y-133399993D01*
X130784178Y-133399993D01*
X130814565Y-133888772D01*
X130943152Y-134199208D01*
X131122979Y-134293416D01*
X131848395Y-133568000D01*
X132207605Y-133568000D01*
X132933021Y-134293416D01*
X133112848Y-134199208D01*
X133271822Y-133736007D01*
X133250933Y-133399993D01*
X135714178Y-133399993D01*
X135744565Y-133888772D01*
X135873152Y-134199208D01*
X136052979Y-134293416D01*
X136778395Y-133568000D01*
X137137605Y-133568000D01*
X137863021Y-134293416D01*
X138042848Y-134199208D01*
X138201822Y-133736007D01*
X138180933Y-133399993D01*
X142214178Y-133399993D01*
X142244565Y-133888772D01*
X142373152Y-134199208D01*
X142552979Y-134293416D01*
X143278395Y-133568000D01*
X143637605Y-133568000D01*
X144363021Y-134293416D01*
X144542848Y-134199208D01*
X144701822Y-133736007D01*
X144680933Y-133399993D01*
X147144178Y-133399993D01*
X147174565Y-133888772D01*
X147303152Y-134199208D01*
X147482979Y-134293416D01*
X148208395Y-133568000D01*
X148567605Y-133568000D01*
X149293021Y-134293416D01*
X149472848Y-134199208D01*
X149631822Y-133736007D01*
X149610933Y-133399993D01*
X153644178Y-133399993D01*
X153674565Y-133888772D01*
X153803152Y-134199208D01*
X153982979Y-134293416D01*
X154708395Y-133568000D01*
X155067605Y-133568000D01*
X155793021Y-134293416D01*
X155972848Y-134199208D01*
X156131822Y-133736007D01*
X156101435Y-133247228D01*
X155972848Y-132936792D01*
X155793021Y-132842584D01*
X155067605Y-133568000D01*
X154708395Y-133568000D01*
X153982979Y-132842584D01*
X153803152Y-132936792D01*
X153644178Y-133399993D01*
X149610933Y-133399993D01*
X149601435Y-133247228D01*
X149472848Y-132936792D01*
X149293021Y-132842584D01*
X148567605Y-133568000D01*
X148208395Y-133568000D01*
X147482979Y-132842584D01*
X147303152Y-132936792D01*
X147144178Y-133399993D01*
X144680933Y-133399993D01*
X144671435Y-133247228D01*
X144542848Y-132936792D01*
X144363021Y-132842584D01*
X143637605Y-133568000D01*
X143278395Y-133568000D01*
X142552979Y-132842584D01*
X142373152Y-132936792D01*
X142214178Y-133399993D01*
X138180933Y-133399993D01*
X138171435Y-133247228D01*
X138042848Y-132936792D01*
X137863021Y-132842584D01*
X137137605Y-133568000D01*
X136778395Y-133568000D01*
X136052979Y-132842584D01*
X135873152Y-132936792D01*
X135714178Y-133399993D01*
X133250933Y-133399993D01*
X133241435Y-133247228D01*
X133112848Y-132936792D01*
X132933021Y-132842584D01*
X132207605Y-133568000D01*
X131848395Y-133568000D01*
X131122979Y-132842584D01*
X130943152Y-132936792D01*
X130784178Y-133399993D01*
X126750933Y-133399993D01*
X126741435Y-133247228D01*
X126612848Y-132936792D01*
X126433021Y-132842584D01*
X125707605Y-133568000D01*
X125348395Y-133568000D01*
X124622979Y-132842584D01*
X124443152Y-132936792D01*
X124284178Y-133399993D01*
X121820933Y-133399993D01*
X121811435Y-133247228D01*
X121682848Y-132936792D01*
X121503021Y-132842584D01*
X120777605Y-133568000D01*
X120418395Y-133568000D01*
X119692979Y-132842584D01*
X119513152Y-132936792D01*
X119354178Y-133399993D01*
X115320933Y-133399993D01*
X115311435Y-133247228D01*
X115182848Y-132936792D01*
X115003021Y-132842584D01*
X114277605Y-133568000D01*
X113918395Y-133568000D01*
X113192979Y-132842584D01*
X113013152Y-132936792D01*
X112854178Y-133399993D01*
X109701000Y-133399993D01*
X109701000Y-132662979D01*
X113372584Y-132662979D01*
X114098000Y-133388395D01*
X114823416Y-132662979D01*
X119872584Y-132662979D01*
X120598000Y-133388395D01*
X121323416Y-132662979D01*
X124802584Y-132662979D01*
X125528000Y-133388395D01*
X126253416Y-132662979D01*
X131302584Y-132662979D01*
X132028000Y-133388395D01*
X132753416Y-132662979D01*
X136232584Y-132662979D01*
X136958000Y-133388395D01*
X137683416Y-132662979D01*
X142732584Y-132662979D01*
X143458000Y-133388395D01*
X144183416Y-132662979D01*
X147662584Y-132662979D01*
X148388000Y-133388395D01*
X149113416Y-132662979D01*
X154162584Y-132662979D01*
X154888000Y-133388395D01*
X155613416Y-132662979D01*
X155519208Y-132483152D01*
X155056007Y-132324178D01*
X154567228Y-132354565D01*
X154256792Y-132483152D01*
X154162584Y-132662979D01*
X149113416Y-132662979D01*
X149019208Y-132483152D01*
X148556007Y-132324178D01*
X148067228Y-132354565D01*
X147756792Y-132483152D01*
X147662584Y-132662979D01*
X144183416Y-132662979D01*
X144089208Y-132483152D01*
X143626007Y-132324178D01*
X143137228Y-132354565D01*
X142826792Y-132483152D01*
X142732584Y-132662979D01*
X137683416Y-132662979D01*
X137589208Y-132483152D01*
X137126007Y-132324178D01*
X136637228Y-132354565D01*
X136326792Y-132483152D01*
X136232584Y-132662979D01*
X132753416Y-132662979D01*
X132659208Y-132483152D01*
X132196007Y-132324178D01*
X131707228Y-132354565D01*
X131396792Y-132483152D01*
X131302584Y-132662979D01*
X126253416Y-132662979D01*
X126159208Y-132483152D01*
X125696007Y-132324178D01*
X125207228Y-132354565D01*
X124896792Y-132483152D01*
X124802584Y-132662979D01*
X121323416Y-132662979D01*
X121229208Y-132483152D01*
X120766007Y-132324178D01*
X120277228Y-132354565D01*
X119966792Y-132483152D01*
X119872584Y-132662979D01*
X114823416Y-132662979D01*
X114729208Y-132483152D01*
X114266007Y-132324178D01*
X113777228Y-132354565D01*
X113466792Y-132483152D01*
X113372584Y-132662979D01*
X109701000Y-132662979D01*
X109701000Y-129311787D01*
X112866787Y-129311787D01*
X113053800Y-129764395D01*
X113399784Y-130110983D01*
X113852065Y-130298786D01*
X114341787Y-130299213D01*
X114794395Y-130112200D01*
X115140983Y-129766216D01*
X115328786Y-129313935D01*
X115328787Y-129311787D01*
X119366787Y-129311787D01*
X119553800Y-129764395D01*
X119899784Y-130110983D01*
X120352065Y-130298786D01*
X120841787Y-130299213D01*
X121294395Y-130112200D01*
X121640983Y-129766216D01*
X121828786Y-129313935D01*
X121828787Y-129311787D01*
X124296787Y-129311787D01*
X124483800Y-129764395D01*
X124829784Y-130110983D01*
X125282065Y-130298786D01*
X125771787Y-130299213D01*
X126224395Y-130112200D01*
X126344960Y-129991845D01*
X126276226Y-130157376D01*
X126275975Y-130445361D01*
X126385950Y-130711521D01*
X126589408Y-130915335D01*
X126855376Y-131025774D01*
X127143361Y-131026025D01*
X127409521Y-130916050D01*
X127613335Y-130712592D01*
X127723774Y-130446624D01*
X127724025Y-130158639D01*
X127614050Y-129892479D01*
X127457200Y-129735355D01*
X127457200Y-125793426D01*
X127476288Y-125789629D01*
X127880065Y-125519834D01*
X128149860Y-125116057D01*
X128244600Y-124639769D01*
X128244600Y-124280231D01*
X128295400Y-124280231D01*
X128295400Y-124639769D01*
X128390140Y-125116057D01*
X128659935Y-125519834D01*
X129063712Y-125789629D01*
X129082800Y-125793426D01*
X129082800Y-129735546D01*
X128926665Y-129891408D01*
X128816226Y-130157376D01*
X128815975Y-130445361D01*
X128925950Y-130711521D01*
X129129408Y-130915335D01*
X129395376Y-131025774D01*
X129683361Y-131026025D01*
X129949521Y-130916050D01*
X130153335Y-130712592D01*
X130263774Y-130446624D01*
X130264025Y-130158639D01*
X130154050Y-129892479D01*
X129997200Y-129735355D01*
X129997200Y-129311787D01*
X130796787Y-129311787D01*
X130983800Y-129764395D01*
X131329784Y-130110983D01*
X131782065Y-130298786D01*
X132271787Y-130299213D01*
X132724395Y-130112200D01*
X133070983Y-129766216D01*
X133258786Y-129313935D01*
X133258787Y-129311787D01*
X135726787Y-129311787D01*
X135913800Y-129764395D01*
X136259784Y-130110983D01*
X136712065Y-130298786D01*
X137201787Y-130299213D01*
X137654395Y-130112200D01*
X138000983Y-129766216D01*
X138188786Y-129313935D01*
X138188787Y-129311787D01*
X142226787Y-129311787D01*
X142413800Y-129764395D01*
X142759784Y-130110983D01*
X143212065Y-130298786D01*
X143701787Y-130299213D01*
X144154395Y-130112200D01*
X144500983Y-129766216D01*
X144688786Y-129313935D01*
X144688787Y-129311787D01*
X147156787Y-129311787D01*
X147343800Y-129764395D01*
X147689784Y-130110983D01*
X148142065Y-130298786D01*
X148631787Y-130299213D01*
X149084395Y-130112200D01*
X149430983Y-129766216D01*
X149618786Y-129313935D01*
X149618787Y-129311787D01*
X153656787Y-129311787D01*
X153843800Y-129764395D01*
X154189784Y-130110983D01*
X154642065Y-130298786D01*
X155131787Y-130299213D01*
X155584395Y-130112200D01*
X155930983Y-129766216D01*
X156118786Y-129313935D01*
X156119213Y-128824213D01*
X155932200Y-128371605D01*
X155586216Y-128025017D01*
X155133935Y-127837214D01*
X154644213Y-127836787D01*
X154191605Y-128023800D01*
X153845017Y-128369784D01*
X153657214Y-128822065D01*
X153656787Y-129311787D01*
X149618787Y-129311787D01*
X149619213Y-128824213D01*
X149432200Y-128371605D01*
X149086216Y-128025017D01*
X148633935Y-127837214D01*
X148144213Y-127836787D01*
X147691605Y-128023800D01*
X147345017Y-128369784D01*
X147157214Y-128822065D01*
X147156787Y-129311787D01*
X144688787Y-129311787D01*
X144689213Y-128824213D01*
X144502200Y-128371605D01*
X144156216Y-128025017D01*
X143703935Y-127837214D01*
X143214213Y-127836787D01*
X142761605Y-128023800D01*
X142415017Y-128369784D01*
X142227214Y-128822065D01*
X142226787Y-129311787D01*
X138188787Y-129311787D01*
X138189213Y-128824213D01*
X138002200Y-128371605D01*
X137656216Y-128025017D01*
X137203935Y-127837214D01*
X136714213Y-127836787D01*
X136261605Y-128023800D01*
X135915017Y-128369784D01*
X135727214Y-128822065D01*
X135726787Y-129311787D01*
X133258787Y-129311787D01*
X133259213Y-128824213D01*
X133072200Y-128371605D01*
X132726216Y-128025017D01*
X132273935Y-127837214D01*
X131784213Y-127836787D01*
X131331605Y-128023800D01*
X130985017Y-128369784D01*
X130797214Y-128822065D01*
X130796787Y-129311787D01*
X129997200Y-129311787D01*
X129997200Y-125793426D01*
X130016288Y-125789629D01*
X130420065Y-125519834D01*
X130689860Y-125116057D01*
X130784600Y-124639769D01*
X130784600Y-124280231D01*
X130689860Y-123803943D01*
X130420065Y-123400166D01*
X130016288Y-123130371D01*
X129997200Y-123126574D01*
X129997200Y-122809696D01*
X130006602Y-122856963D01*
X130105711Y-123005289D01*
X130486711Y-123386289D01*
X130635037Y-123485398D01*
X130810000Y-123520200D01*
X131119731Y-123520200D01*
X130930140Y-123803943D01*
X130835400Y-124280231D01*
X130835400Y-124639769D01*
X130930140Y-125116057D01*
X131199935Y-125519834D01*
X131603712Y-125789629D01*
X132080000Y-125884369D01*
X132556288Y-125789629D01*
X132960065Y-125519834D01*
X133229860Y-125116057D01*
X133324600Y-124639769D01*
X133324600Y-124280231D01*
X133229860Y-123803943D01*
X132960065Y-123400166D01*
X132569502Y-123139200D01*
X133795622Y-123139200D01*
X133929755Y-123273333D01*
X133739935Y-123400166D01*
X133470140Y-123803943D01*
X133375400Y-124280231D01*
X133375400Y-124639769D01*
X133470140Y-125116057D01*
X133739935Y-125519834D01*
X134143712Y-125789629D01*
X134620000Y-125884369D01*
X135096288Y-125789629D01*
X135500065Y-125519834D01*
X135769860Y-125116057D01*
X135864600Y-124639769D01*
X135864600Y-124280231D01*
X135769860Y-123803943D01*
X135665128Y-123647200D01*
X135700622Y-123647200D01*
X135984793Y-123931371D01*
X135915400Y-124280231D01*
X135915400Y-124639769D01*
X136010140Y-125116057D01*
X136279935Y-125519834D01*
X136683712Y-125789629D01*
X137160000Y-125884369D01*
X137636288Y-125789629D01*
X138040065Y-125519834D01*
X138309860Y-125116057D01*
X138404600Y-124639769D01*
X138404600Y-124280231D01*
X138351202Y-124011780D01*
X138482651Y-124143230D01*
X138455400Y-124280231D01*
X138455400Y-124639769D01*
X138550140Y-125116057D01*
X138819935Y-125519834D01*
X139223712Y-125789629D01*
X139700000Y-125884369D01*
X140176288Y-125789629D01*
X140580065Y-125519834D01*
X140849860Y-125116057D01*
X140944600Y-124639769D01*
X140944600Y-124280231D01*
X140849860Y-123803943D01*
X140745128Y-123647200D01*
X140780622Y-123647200D01*
X141064793Y-123931371D01*
X140995400Y-124280231D01*
X140995400Y-124639769D01*
X141090140Y-125116057D01*
X141359935Y-125519834D01*
X141763712Y-125789629D01*
X142240000Y-125884369D01*
X142716288Y-125789629D01*
X143120065Y-125519834D01*
X143389860Y-125116057D01*
X143484600Y-124639769D01*
X143484600Y-124280231D01*
X143389860Y-123803943D01*
X143213656Y-123540234D01*
X143604793Y-123931371D01*
X143535400Y-124280231D01*
X143535400Y-124639769D01*
X143630140Y-125116057D01*
X143899935Y-125519834D01*
X144303712Y-125789629D01*
X144780000Y-125884369D01*
X145256288Y-125789629D01*
X145660065Y-125519834D01*
X145929860Y-125116057D01*
X146024600Y-124639769D01*
X146024600Y-124280231D01*
X145929860Y-123803943D01*
X145753656Y-123540234D01*
X146144793Y-123931371D01*
X146075400Y-124280231D01*
X146075400Y-124639769D01*
X146170140Y-125116057D01*
X146439935Y-125519834D01*
X146843712Y-125789629D01*
X147320000Y-125884369D01*
X147796288Y-125789629D01*
X148200065Y-125519834D01*
X148469860Y-125116057D01*
X148564600Y-124639769D01*
X148564600Y-124280231D01*
X148469860Y-123803943D01*
X148293656Y-123540234D01*
X148684793Y-123931371D01*
X148615400Y-124280231D01*
X148615400Y-124639769D01*
X148710140Y-125116057D01*
X148979935Y-125519834D01*
X149383712Y-125789629D01*
X149402800Y-125793426D01*
X149402800Y-125925546D01*
X149246665Y-126081408D01*
X149136226Y-126347376D01*
X149135975Y-126635361D01*
X149245950Y-126901521D01*
X149449408Y-127105335D01*
X149715376Y-127215774D01*
X150003361Y-127216025D01*
X150269521Y-127106050D01*
X150473335Y-126902592D01*
X150583774Y-126636624D01*
X150584025Y-126348639D01*
X150474050Y-126082479D01*
X150317200Y-125925355D01*
X150317200Y-125793426D01*
X150336288Y-125789629D01*
X150740065Y-125519834D01*
X151009860Y-125116057D01*
X151104600Y-124639769D01*
X151104600Y-124280231D01*
X151009860Y-123803943D01*
X150833655Y-123540234D01*
X151147936Y-123854515D01*
X151147936Y-125476000D01*
X151174503Y-125617190D01*
X151257946Y-125746865D01*
X151385266Y-125833859D01*
X151536400Y-125864464D01*
X151942800Y-125864464D01*
X151942800Y-126687546D01*
X151786665Y-126843408D01*
X151676226Y-127109376D01*
X151675975Y-127397361D01*
X151785950Y-127663521D01*
X151989408Y-127867335D01*
X152255376Y-127977774D01*
X152543361Y-127978025D01*
X152809521Y-127868050D01*
X153013335Y-127664592D01*
X153123774Y-127398624D01*
X153124025Y-127110639D01*
X153014050Y-126844479D01*
X152857200Y-126687355D01*
X152857200Y-125864464D01*
X153263600Y-125864464D01*
X153404790Y-125837897D01*
X153534465Y-125754454D01*
X153621459Y-125627134D01*
X153652064Y-125476000D01*
X153652064Y-124429870D01*
X154558583Y-124429870D01*
X154925166Y-125317069D01*
X155603361Y-125996449D01*
X156489919Y-126364580D01*
X157449870Y-126365417D01*
X158337069Y-125998834D01*
X159016449Y-125320639D01*
X159384580Y-124434081D01*
X159385417Y-123474130D01*
X159018834Y-122586931D01*
X158340639Y-121907551D01*
X157454081Y-121539420D01*
X156494130Y-121538583D01*
X155606931Y-121905166D01*
X154927551Y-122583361D01*
X154559420Y-123469919D01*
X154558583Y-124429870D01*
X153652064Y-124429870D01*
X153652064Y-123444000D01*
X153625497Y-123302810D01*
X153542054Y-123173135D01*
X153414734Y-123086141D01*
X153263600Y-123055536D01*
X151642115Y-123055536D01*
X150005487Y-121418909D01*
X149857161Y-121319800D01*
X149682198Y-121284998D01*
X140092576Y-121284998D01*
X139515289Y-120707711D01*
X139366963Y-120608602D01*
X139192000Y-120573800D01*
X139002300Y-120573800D01*
X138917050Y-120367479D01*
X138713592Y-120163665D01*
X138447624Y-120053226D01*
X138159639Y-120052975D01*
X137893479Y-120162950D01*
X137731507Y-120324639D01*
X137697592Y-120290665D01*
X137431624Y-120180226D01*
X137143639Y-120179975D01*
X136877479Y-120289950D01*
X136770246Y-120396996D01*
X136758050Y-120367479D01*
X136554592Y-120163665D01*
X136288624Y-120053226D01*
X136000639Y-120052975D01*
X135734479Y-120162950D01*
X135530665Y-120366408D01*
X135480589Y-120487005D01*
X135284592Y-120290665D01*
X135018624Y-120180226D01*
X134730639Y-120179975D01*
X134464479Y-120289950D01*
X134264039Y-120490040D01*
X134129624Y-120434226D01*
X133841639Y-120433975D01*
X133575479Y-120543950D01*
X133540618Y-120578750D01*
X133506592Y-120544665D01*
X133240624Y-120434226D01*
X132952639Y-120433975D01*
X132686479Y-120543950D01*
X132651618Y-120578750D01*
X132617592Y-120544665D01*
X132351624Y-120434226D01*
X132063639Y-120433975D01*
X131797479Y-120543950D01*
X131762618Y-120578750D01*
X131728592Y-120544665D01*
X131462624Y-120434226D01*
X131174639Y-120433975D01*
X130908479Y-120543950D01*
X130873618Y-120578750D01*
X130839592Y-120544665D01*
X130573624Y-120434226D01*
X130285639Y-120433975D01*
X130019479Y-120543950D01*
X129984618Y-120578750D01*
X129950592Y-120544665D01*
X129684624Y-120434226D01*
X129396639Y-120433975D01*
X129130479Y-120543950D01*
X128926665Y-120747408D01*
X128816226Y-121013376D01*
X128815975Y-121301361D01*
X128925950Y-121567521D01*
X129082800Y-121724645D01*
X129082800Y-123126574D01*
X129063712Y-123130371D01*
X128659935Y-123400166D01*
X128390140Y-123803943D01*
X128295400Y-124280231D01*
X128244600Y-124280231D01*
X128149860Y-123803943D01*
X127880065Y-123400166D01*
X127476288Y-123130371D01*
X127457200Y-123126574D01*
X127457200Y-121216454D01*
X127613335Y-121060592D01*
X127723774Y-120794624D01*
X127724025Y-120506639D01*
X127614050Y-120240479D01*
X127410592Y-120036665D01*
X127144624Y-119926226D01*
X126856639Y-119925975D01*
X126590479Y-120035950D01*
X126386665Y-120239408D01*
X126276226Y-120505376D01*
X126275975Y-120793361D01*
X126385950Y-121059521D01*
X126542800Y-121216645D01*
X126542800Y-123126574D01*
X126523712Y-123130371D01*
X126119935Y-123400166D01*
X125850140Y-123803943D01*
X125755400Y-124280231D01*
X125755400Y-124639769D01*
X125850140Y-125116057D01*
X126119935Y-125519834D01*
X126523712Y-125789629D01*
X126542800Y-125793426D01*
X126542800Y-128342154D01*
X126226216Y-128025017D01*
X125773935Y-127837214D01*
X125284213Y-127836787D01*
X124831605Y-128023800D01*
X124485017Y-128369784D01*
X124297214Y-128822065D01*
X124296787Y-129311787D01*
X121828787Y-129311787D01*
X121829213Y-128824213D01*
X121642200Y-128371605D01*
X121296216Y-128025017D01*
X120843935Y-127837214D01*
X120354213Y-127836787D01*
X119901605Y-128023800D01*
X119555017Y-128369784D01*
X119367214Y-128822065D01*
X119366787Y-129311787D01*
X115328787Y-129311787D01*
X115329213Y-128824213D01*
X115142200Y-128371605D01*
X114796216Y-128025017D01*
X114343935Y-127837214D01*
X113854213Y-127836787D01*
X113401605Y-128023800D01*
X113055017Y-128369784D01*
X112867214Y-128822065D01*
X112866787Y-129311787D01*
X109701000Y-129311787D01*
X109701000Y-124429870D01*
X109854583Y-124429870D01*
X110221166Y-125317069D01*
X110899361Y-125996449D01*
X111785919Y-126364580D01*
X112745870Y-126365417D01*
X113633069Y-125998834D01*
X114312449Y-125320639D01*
X114536022Y-124782213D01*
X115605473Y-124782213D01*
X115764430Y-125241720D01*
X116087133Y-125605419D01*
X116520882Y-125815393D01*
X116713000Y-125754712D01*
X116713000Y-124587000D01*
X116967000Y-124587000D01*
X116967000Y-125754712D01*
X117159118Y-125815393D01*
X117592867Y-125605419D01*
X117915570Y-125241720D01*
X118074527Y-124782213D01*
X117990643Y-124587000D01*
X116967000Y-124587000D01*
X116713000Y-124587000D01*
X115689357Y-124587000D01*
X115605473Y-124782213D01*
X114536022Y-124782213D01*
X114680580Y-124434081D01*
X114680838Y-124137787D01*
X115605473Y-124137787D01*
X115689357Y-124333000D01*
X116713000Y-124333000D01*
X116713000Y-123165288D01*
X116967000Y-123165288D01*
X116967000Y-124333000D01*
X117990643Y-124333000D01*
X118013318Y-124280231D01*
X118135400Y-124280231D01*
X118135400Y-124639769D01*
X118230140Y-125116057D01*
X118499935Y-125519834D01*
X118903712Y-125789629D01*
X119380000Y-125884369D01*
X119856288Y-125789629D01*
X120260065Y-125519834D01*
X120529860Y-125116057D01*
X120596265Y-124782213D01*
X120685473Y-124782213D01*
X120844430Y-125241720D01*
X121167133Y-125605419D01*
X121600882Y-125815393D01*
X121793000Y-125754712D01*
X121793000Y-124587000D01*
X122047000Y-124587000D01*
X122047000Y-125754712D01*
X122239118Y-125815393D01*
X122672867Y-125605419D01*
X122995570Y-125241720D01*
X123154527Y-124782213D01*
X123070643Y-124587000D01*
X122047000Y-124587000D01*
X121793000Y-124587000D01*
X120769357Y-124587000D01*
X120685473Y-124782213D01*
X120596265Y-124782213D01*
X120624600Y-124639769D01*
X120624600Y-124280231D01*
X120596266Y-124137787D01*
X120685473Y-124137787D01*
X120769357Y-124333000D01*
X121793000Y-124333000D01*
X121793000Y-123165288D01*
X122047000Y-123165288D01*
X122047000Y-124333000D01*
X123070643Y-124333000D01*
X123093318Y-124280231D01*
X123215400Y-124280231D01*
X123215400Y-124639769D01*
X123310140Y-125116057D01*
X123579935Y-125519834D01*
X123983712Y-125789629D01*
X124460000Y-125884369D01*
X124936288Y-125789629D01*
X125340065Y-125519834D01*
X125609860Y-125116057D01*
X125704600Y-124639769D01*
X125704600Y-124280231D01*
X125609860Y-123803943D01*
X125340065Y-123400166D01*
X124936288Y-123130371D01*
X124460000Y-123035631D01*
X123983712Y-123130371D01*
X123579935Y-123400166D01*
X123310140Y-123803943D01*
X123215400Y-124280231D01*
X123093318Y-124280231D01*
X123154527Y-124137787D01*
X122995570Y-123678280D01*
X122672867Y-123314581D01*
X122239118Y-123104607D01*
X122047000Y-123165288D01*
X121793000Y-123165288D01*
X121600882Y-123104607D01*
X121167133Y-123314581D01*
X120844430Y-123678280D01*
X120685473Y-124137787D01*
X120596266Y-124137787D01*
X120529860Y-123803943D01*
X120260065Y-123400166D01*
X119856288Y-123130371D01*
X119380000Y-123035631D01*
X118903712Y-123130371D01*
X118499935Y-123400166D01*
X118230140Y-123803943D01*
X118135400Y-124280231D01*
X118013318Y-124280231D01*
X118074527Y-124137787D01*
X117915570Y-123678280D01*
X117592867Y-123314581D01*
X117159118Y-123104607D01*
X116967000Y-123165288D01*
X116713000Y-123165288D01*
X116520882Y-123104607D01*
X116087133Y-123314581D01*
X115764430Y-123678280D01*
X115605473Y-124137787D01*
X114680838Y-124137787D01*
X114681417Y-123474130D01*
X114314834Y-122586931D01*
X113636639Y-121907551D01*
X112750081Y-121539420D01*
X111790130Y-121538583D01*
X110902931Y-121905166D01*
X110223551Y-122583361D01*
X109855420Y-123469919D01*
X109854583Y-124429870D01*
X109701000Y-124429870D01*
X109701000Y-117981036D01*
X119772234Y-117981036D01*
X119944142Y-118397086D01*
X120262180Y-118715679D01*
X120677929Y-118888313D01*
X121128096Y-118888706D01*
X121544146Y-118716798D01*
X121862739Y-118398760D01*
X122035373Y-117983011D01*
X122035766Y-117532844D01*
X121863858Y-117116794D01*
X121545820Y-116798201D01*
X121130071Y-116625567D01*
X120679904Y-116625174D01*
X120263854Y-116797082D01*
X119945261Y-117115120D01*
X119772627Y-117530869D01*
X119772234Y-117981036D01*
X109701000Y-117981036D01*
X109701000Y-113099156D01*
X119772234Y-113099156D01*
X119944142Y-113515206D01*
X119970297Y-113541406D01*
X119973602Y-113558023D01*
X120072711Y-113706349D01*
X120221037Y-113805458D01*
X120237072Y-113808648D01*
X120262180Y-113833799D01*
X120677929Y-114006433D01*
X121128096Y-114006826D01*
X121544146Y-113834918D01*
X121862739Y-113516880D01*
X121939400Y-113332260D01*
X122722655Y-113332260D01*
X122906408Y-113516335D01*
X123172376Y-113626774D01*
X123460361Y-113627025D01*
X123726521Y-113517050D01*
X123930335Y-113313592D01*
X124040774Y-113047624D01*
X124040817Y-112998250D01*
X129437000Y-112998250D01*
X129437000Y-113476785D01*
X129495004Y-113616819D01*
X129602180Y-113723996D01*
X129742214Y-113782000D01*
X130095750Y-113782000D01*
X130191000Y-113686750D01*
X130191000Y-112903000D01*
X130445000Y-112903000D01*
X130445000Y-113686750D01*
X130540250Y-113782000D01*
X130893786Y-113782000D01*
X131033820Y-113723996D01*
X131140996Y-113616819D01*
X131199000Y-113476785D01*
X131199000Y-112998250D01*
X131103750Y-112903000D01*
X130445000Y-112903000D01*
X130191000Y-112903000D01*
X129532250Y-112903000D01*
X129437000Y-112998250D01*
X124040817Y-112998250D01*
X124041025Y-112759639D01*
X123931050Y-112493479D01*
X123727592Y-112289665D01*
X123461624Y-112179226D01*
X123173639Y-112178975D01*
X122907479Y-112288950D01*
X122778343Y-112417860D01*
X121939450Y-112417860D01*
X121863858Y-112234914D01*
X121704438Y-112075215D01*
X129437000Y-112075215D01*
X129437000Y-112553750D01*
X129532250Y-112649000D01*
X130191000Y-112649000D01*
X130191000Y-111865250D01*
X130445000Y-111865250D01*
X130445000Y-112649000D01*
X131103750Y-112649000D01*
X131199000Y-112553750D01*
X131199000Y-112075215D01*
X131140996Y-111935181D01*
X131033820Y-111828004D01*
X130893786Y-111770000D01*
X130540250Y-111770000D01*
X130445000Y-111865250D01*
X130191000Y-111865250D01*
X130095750Y-111770000D01*
X129742214Y-111770000D01*
X129602180Y-111828004D01*
X129495004Y-111935181D01*
X129437000Y-112075215D01*
X121704438Y-112075215D01*
X121545820Y-111916321D01*
X121130071Y-111743687D01*
X120679904Y-111743294D01*
X120263854Y-111915202D01*
X119945261Y-112233240D01*
X119772627Y-112648989D01*
X119772234Y-113099156D01*
X109701000Y-113099156D01*
X109701000Y-110546666D01*
X109701932Y-110548061D01*
X109987749Y-110739038D01*
X110324893Y-110806100D01*
X110920187Y-110806100D01*
X111257331Y-110739038D01*
X111543148Y-110548061D01*
X111734125Y-110262244D01*
X111801187Y-109925100D01*
X111734125Y-109587956D01*
X111543148Y-109302139D01*
X111257331Y-109111162D01*
X110920187Y-109044100D01*
X110324893Y-109044100D01*
X109987749Y-109111162D01*
X109701932Y-109302139D01*
X109701000Y-109303534D01*
X109701000Y-108755391D01*
X112466540Y-108755391D01*
X112466540Y-109094809D01*
X112531699Y-109422386D01*
X112717257Y-109700092D01*
X112994963Y-109885650D01*
X113322540Y-109950809D01*
X113650117Y-109885650D01*
X113927823Y-109700092D01*
X114113381Y-109422386D01*
X114167362Y-109151000D01*
X125209536Y-109151000D01*
X125209536Y-110901000D01*
X125236103Y-111042190D01*
X125319546Y-111171865D01*
X125446866Y-111258859D01*
X125598000Y-111289464D01*
X126048000Y-111289464D01*
X126151670Y-111269957D01*
X126248000Y-111289464D01*
X126698000Y-111289464D01*
X126801670Y-111269957D01*
X126898000Y-111289464D01*
X127348000Y-111289464D01*
X127451670Y-111269957D01*
X127548000Y-111289464D01*
X127998000Y-111289464D01*
X128101670Y-111269957D01*
X128198000Y-111289464D01*
X128648000Y-111289464D01*
X128751670Y-111269957D01*
X128848000Y-111289464D01*
X129298000Y-111289464D01*
X129401670Y-111269957D01*
X129498000Y-111289464D01*
X129948000Y-111289464D01*
X130045805Y-111271061D01*
X130072215Y-111282000D01*
X130165250Y-111282000D01*
X130260500Y-111186750D01*
X130260500Y-111118519D01*
X130305859Y-111052134D01*
X130336464Y-110901000D01*
X130336464Y-109151000D01*
X130309897Y-109009810D01*
X130260500Y-108933044D01*
X130260500Y-108865250D01*
X130165250Y-108770000D01*
X130072215Y-108770000D01*
X130043531Y-108781881D01*
X129948000Y-108762536D01*
X129498000Y-108762536D01*
X129394330Y-108782043D01*
X129298000Y-108762536D01*
X128848000Y-108762536D01*
X128744330Y-108782043D01*
X128648000Y-108762536D01*
X128198000Y-108762536D01*
X128094330Y-108782043D01*
X127998000Y-108762536D01*
X127548000Y-108762536D01*
X127444330Y-108782043D01*
X127348000Y-108762536D01*
X126898000Y-108762536D01*
X126794330Y-108782043D01*
X126698000Y-108762536D01*
X126248000Y-108762536D01*
X126144330Y-108782043D01*
X126048000Y-108762536D01*
X125598000Y-108762536D01*
X125456810Y-108789103D01*
X125327135Y-108872546D01*
X125240141Y-108999866D01*
X125209536Y-109151000D01*
X114167362Y-109151000D01*
X114178540Y-109094809D01*
X114178540Y-108755391D01*
X114113381Y-108427814D01*
X113927823Y-108150108D01*
X113650117Y-107964550D01*
X113322540Y-107899391D01*
X112994963Y-107964550D01*
X112717257Y-108150108D01*
X112531699Y-108427814D01*
X112466540Y-108755391D01*
X109701000Y-108755391D01*
X109701000Y-107585361D01*
X129323975Y-107585361D01*
X129433950Y-107851521D01*
X129637408Y-108055335D01*
X129903376Y-108165774D01*
X130191361Y-108166025D01*
X130457521Y-108056050D01*
X130661335Y-107852592D01*
X130747451Y-107645200D01*
X130914737Y-107645200D01*
X130848226Y-107805376D01*
X130847975Y-108093361D01*
X130957950Y-108359521D01*
X131161408Y-108563335D01*
X131215800Y-108585920D01*
X131215800Y-108762536D01*
X130798000Y-108762536D01*
X130700195Y-108780939D01*
X130673785Y-108770000D01*
X130580750Y-108770000D01*
X130485500Y-108865250D01*
X130485500Y-108933481D01*
X130440141Y-108999866D01*
X130409536Y-109151000D01*
X130409536Y-110901000D01*
X130436103Y-111042190D01*
X130485500Y-111118956D01*
X130485500Y-111186750D01*
X130580750Y-111282000D01*
X130673785Y-111282000D01*
X130702469Y-111270119D01*
X130798000Y-111289464D01*
X131248000Y-111289464D01*
X131351670Y-111269957D01*
X131448000Y-111289464D01*
X131751500Y-111289464D01*
X131751500Y-111775049D01*
X131676810Y-111789103D01*
X131547135Y-111872546D01*
X131460141Y-111999866D01*
X131429536Y-112151000D01*
X131429536Y-113401000D01*
X131456103Y-113542190D01*
X131539546Y-113671865D01*
X131666866Y-113758859D01*
X131818000Y-113789464D01*
X132818000Y-113789464D01*
X132959190Y-113762897D01*
X133088865Y-113679454D01*
X133146800Y-113594663D01*
X133146800Y-113665000D01*
X133181602Y-113839963D01*
X133280711Y-113988289D01*
X133534711Y-114242289D01*
X133683037Y-114341398D01*
X133858000Y-114376200D01*
X134874000Y-114376200D01*
X135048963Y-114341398D01*
X135197289Y-114242289D01*
X135578289Y-113861289D01*
X135653171Y-113749221D01*
X135703866Y-113783859D01*
X135855000Y-113814464D01*
X136555000Y-113814464D01*
X136696190Y-113787897D01*
X136825865Y-113704454D01*
X136912859Y-113577134D01*
X136943464Y-113426000D01*
X136943464Y-113046361D01*
X150659975Y-113046361D01*
X150769950Y-113312521D01*
X150973408Y-113516335D01*
X151239376Y-113626774D01*
X151527361Y-113627025D01*
X151584267Y-113603512D01*
X151638000Y-113614200D01*
X153339800Y-113614200D01*
X153339800Y-116205000D01*
X153374602Y-116379963D01*
X153473711Y-116528289D01*
X154040336Y-117094914D01*
X154019757Y-117125712D01*
X153925017Y-117602000D01*
X154019757Y-118078288D01*
X154289552Y-118482065D01*
X154693329Y-118751860D01*
X155169617Y-118846600D01*
X155218383Y-118846600D01*
X155694671Y-118751860D01*
X156098448Y-118482065D01*
X156368243Y-118078288D01*
X156399506Y-117921118D01*
X156531007Y-117921118D01*
X156657695Y-118227001D01*
X156978801Y-118591310D01*
X157414880Y-118805005D01*
X157607000Y-118744865D01*
X157607000Y-117729000D01*
X157861000Y-117729000D01*
X157861000Y-118744865D01*
X158053120Y-118805005D01*
X158489199Y-118591310D01*
X158810305Y-118227001D01*
X158936993Y-117921118D01*
X158876312Y-117729000D01*
X157861000Y-117729000D01*
X157607000Y-117729000D01*
X156591688Y-117729000D01*
X156531007Y-117921118D01*
X156399506Y-117921118D01*
X156462983Y-117602000D01*
X156399507Y-117282882D01*
X156531007Y-117282882D01*
X156591688Y-117475000D01*
X157607000Y-117475000D01*
X157607000Y-116459135D01*
X157861000Y-116459135D01*
X157861000Y-117475000D01*
X158876312Y-117475000D01*
X158936993Y-117282882D01*
X158810305Y-116976999D01*
X158489199Y-116612690D01*
X158053120Y-116398995D01*
X157861000Y-116459135D01*
X157607000Y-116459135D01*
X157414880Y-116398995D01*
X156978801Y-116612690D01*
X156657695Y-116976999D01*
X156531007Y-117282882D01*
X156399507Y-117282882D01*
X156368243Y-117125712D01*
X156098448Y-116721935D01*
X155694671Y-116452140D01*
X155218383Y-116357400D01*
X155169617Y-116357400D01*
X154693329Y-116452140D01*
X154691764Y-116453186D01*
X154254200Y-116015622D01*
X154254200Y-115889157D01*
X154289552Y-115942065D01*
X154693329Y-116211860D01*
X155169617Y-116306600D01*
X155218383Y-116306600D01*
X155694671Y-116211860D01*
X156098448Y-115942065D01*
X156368243Y-115538288D01*
X156462983Y-115062000D01*
X156465017Y-115062000D01*
X156559757Y-115538288D01*
X156829552Y-115942065D01*
X157233329Y-116211860D01*
X157709617Y-116306600D01*
X157758383Y-116306600D01*
X158234671Y-116211860D01*
X158638448Y-115942065D01*
X158908243Y-115538288D01*
X159002983Y-115062000D01*
X158908243Y-114585712D01*
X158638448Y-114181935D01*
X158234671Y-113912140D01*
X157758383Y-113817400D01*
X157709617Y-113817400D01*
X157233329Y-113912140D01*
X156829552Y-114181935D01*
X156559757Y-114585712D01*
X156465017Y-115062000D01*
X156462983Y-115062000D01*
X156368243Y-114585712D01*
X156098448Y-114181935D01*
X155694671Y-113912140D01*
X155218383Y-113817400D01*
X155169617Y-113817400D01*
X154693329Y-113912140D01*
X154289552Y-114181935D01*
X154254200Y-114234843D01*
X154254200Y-113758633D01*
X154330400Y-113774064D01*
X156057600Y-113774064D01*
X156198790Y-113747497D01*
X156328465Y-113664054D01*
X156415459Y-113536734D01*
X156446064Y-113385600D01*
X156446064Y-112522000D01*
X156465017Y-112522000D01*
X156559757Y-112998288D01*
X156829552Y-113402065D01*
X157233329Y-113671860D01*
X157709617Y-113766600D01*
X157758383Y-113766600D01*
X158234671Y-113671860D01*
X158638448Y-113402065D01*
X158908243Y-112998288D01*
X159002983Y-112522000D01*
X158908243Y-112045712D01*
X158638448Y-111641935D01*
X158234671Y-111372140D01*
X157758383Y-111277400D01*
X157709617Y-111277400D01*
X157233329Y-111372140D01*
X156829552Y-111641935D01*
X156559757Y-112045712D01*
X156465017Y-112522000D01*
X156446064Y-112522000D01*
X156446064Y-111658400D01*
X156419497Y-111517210D01*
X156336054Y-111387535D01*
X156208734Y-111300541D01*
X156057600Y-111269936D01*
X154330400Y-111269936D01*
X154189210Y-111296503D01*
X154059535Y-111379946D01*
X153972541Y-111507266D01*
X153941936Y-111658400D01*
X153941936Y-112909358D01*
X153866289Y-112833711D01*
X153717963Y-112734602D01*
X153543000Y-112699800D01*
X152083300Y-112699800D01*
X151998050Y-112493479D01*
X151794592Y-112289665D01*
X151528624Y-112179226D01*
X151240639Y-112178975D01*
X150974479Y-112288950D01*
X150770665Y-112492408D01*
X150660226Y-112758376D01*
X150659975Y-113046361D01*
X136943464Y-113046361D01*
X136943464Y-112126000D01*
X136916897Y-111984810D01*
X136833454Y-111855135D01*
X136706134Y-111768141D01*
X136555000Y-111737536D01*
X136514114Y-111737536D01*
X135204200Y-110427622D01*
X135204200Y-108966000D01*
X135169398Y-108791037D01*
X135070289Y-108642711D01*
X134468599Y-108041021D01*
X146630584Y-108041021D01*
X146724792Y-108220848D01*
X147187993Y-108379822D01*
X147676772Y-108349435D01*
X147987208Y-108220848D01*
X148081416Y-108041021D01*
X147356000Y-107315605D01*
X146630584Y-108041021D01*
X134468599Y-108041021D01*
X133395571Y-106967993D01*
X146112178Y-106967993D01*
X146142565Y-107456772D01*
X146271152Y-107767208D01*
X146450979Y-107861416D01*
X147176395Y-107136000D01*
X147535605Y-107136000D01*
X148261021Y-107861416D01*
X148440848Y-107767208D01*
X148573813Y-107379787D01*
X150624787Y-107379787D01*
X150811800Y-107832395D01*
X151157784Y-108178983D01*
X151610065Y-108366786D01*
X152099787Y-108367213D01*
X152552395Y-108180200D01*
X152898983Y-107834216D01*
X153086786Y-107381935D01*
X153086955Y-107188000D01*
X154531631Y-107188000D01*
X154637971Y-107722609D01*
X154940803Y-108175828D01*
X155394022Y-108478660D01*
X155928631Y-108585000D01*
X155983369Y-108585000D01*
X156517978Y-108478660D01*
X156971197Y-108175828D01*
X157274029Y-107722609D01*
X157380369Y-107188000D01*
X157274029Y-106653391D01*
X156971197Y-106200172D01*
X156738966Y-106045000D01*
X157047786Y-106045000D01*
X157187820Y-105986996D01*
X157294996Y-105879819D01*
X157353000Y-105739785D01*
X157353000Y-104870250D01*
X157257750Y-104775000D01*
X156083000Y-104775000D01*
X156083000Y-104795000D01*
X155829000Y-104795000D01*
X155829000Y-104775000D01*
X154654250Y-104775000D01*
X154559000Y-104870250D01*
X154559000Y-105739785D01*
X154617004Y-105879819D01*
X154724180Y-105986996D01*
X154864214Y-106045000D01*
X155173034Y-106045000D01*
X154940803Y-106200172D01*
X154637971Y-106653391D01*
X154531631Y-107188000D01*
X153086955Y-107188000D01*
X153087213Y-106892213D01*
X152900200Y-106439605D01*
X152554216Y-106093017D01*
X152101935Y-105905214D01*
X151612213Y-105904787D01*
X151159605Y-106091800D01*
X150813017Y-106437784D01*
X150625214Y-106890065D01*
X150624787Y-107379787D01*
X148573813Y-107379787D01*
X148599822Y-107304007D01*
X148569435Y-106815228D01*
X148440848Y-106504792D01*
X148261021Y-106410584D01*
X147535605Y-107136000D01*
X147176395Y-107136000D01*
X146450979Y-106410584D01*
X146271152Y-106504792D01*
X146112178Y-106967993D01*
X133395571Y-106967993D01*
X133292289Y-106864711D01*
X133143963Y-106765602D01*
X132969000Y-106730800D01*
X130302000Y-106730800D01*
X130248523Y-106741437D01*
X130192624Y-106718226D01*
X129904639Y-106717975D01*
X129638479Y-106827950D01*
X129434665Y-107031408D01*
X129324226Y-107297376D01*
X129323975Y-107585361D01*
X109701000Y-107585361D01*
X109701000Y-106230979D01*
X146630584Y-106230979D01*
X147356000Y-106956395D01*
X148081416Y-106230979D01*
X147987208Y-106051152D01*
X147524007Y-105892178D01*
X147035228Y-105922565D01*
X146724792Y-106051152D01*
X146630584Y-106230979D01*
X109701000Y-106230979D01*
X109701000Y-103546666D01*
X109701932Y-103548061D01*
X109987749Y-103739038D01*
X110324893Y-103806100D01*
X110920187Y-103806100D01*
X111175118Y-103755391D01*
X112466540Y-103755391D01*
X112466540Y-104094809D01*
X112531699Y-104422386D01*
X112717257Y-104700092D01*
X112994963Y-104885650D01*
X113322540Y-104950809D01*
X113650117Y-104885650D01*
X113927823Y-104700092D01*
X114113381Y-104422386D01*
X114178540Y-104094809D01*
X114178540Y-103755391D01*
X114113381Y-103427814D01*
X113927823Y-103150108D01*
X113650117Y-102964550D01*
X113322540Y-102899391D01*
X112994963Y-102964550D01*
X112717257Y-103150108D01*
X112531699Y-103427814D01*
X112466540Y-103755391D01*
X111175118Y-103755391D01*
X111257331Y-103739038D01*
X111543148Y-103548061D01*
X111734125Y-103262244D01*
X111801187Y-102925100D01*
X111734125Y-102587956D01*
X111543148Y-102302139D01*
X111277085Y-102124361D01*
X123354975Y-102124361D01*
X123464950Y-102390521D01*
X123563250Y-102488993D01*
X123465665Y-102586408D01*
X123355226Y-102852376D01*
X123354975Y-103140361D01*
X123464950Y-103406521D01*
X123668408Y-103610335D01*
X123934376Y-103720774D01*
X124222361Y-103721025D01*
X124488521Y-103611050D01*
X124692335Y-103407592D01*
X124778451Y-103200200D01*
X125209536Y-103200200D01*
X125209536Y-103701000D01*
X125236103Y-103842190D01*
X125319546Y-103971865D01*
X125446866Y-104058859D01*
X125598000Y-104089464D01*
X126048000Y-104089464D01*
X126151670Y-104069957D01*
X126248000Y-104089464D01*
X126698000Y-104089464D01*
X126801670Y-104069957D01*
X126898000Y-104089464D01*
X127348000Y-104089464D01*
X127445805Y-104071061D01*
X127472215Y-104082000D01*
X127565250Y-104082000D01*
X127660500Y-103986750D01*
X127660500Y-103918519D01*
X127705859Y-103852134D01*
X127736464Y-103701000D01*
X127736464Y-101951000D01*
X127809536Y-101951000D01*
X127809536Y-103701000D01*
X127836103Y-103842190D01*
X127885500Y-103918956D01*
X127885500Y-103986750D01*
X127980750Y-104082000D01*
X128073785Y-104082000D01*
X128102469Y-104070119D01*
X128198000Y-104089464D01*
X128501500Y-104089464D01*
X128501500Y-104688995D01*
X128501499Y-104689000D01*
X128518606Y-104775000D01*
X128545003Y-104907704D01*
X128573805Y-104950809D01*
X128668888Y-105093112D01*
X129262886Y-105687109D01*
X129262888Y-105687112D01*
X129448296Y-105810997D01*
X129484582Y-105818215D01*
X129667000Y-105854501D01*
X129667005Y-105854500D01*
X130357646Y-105854500D01*
X130399408Y-105896335D01*
X130665376Y-106006774D01*
X130953361Y-106007025D01*
X131219521Y-105897050D01*
X131423335Y-105693592D01*
X131533774Y-105427624D01*
X131534025Y-105139639D01*
X131424050Y-104873479D01*
X131220592Y-104669665D01*
X130954624Y-104559226D01*
X130666639Y-104558975D01*
X130400479Y-104668950D01*
X130357855Y-104711500D01*
X129903723Y-104711500D01*
X129644500Y-104452276D01*
X129644500Y-103868758D01*
X129655859Y-103852134D01*
X129686464Y-103701000D01*
X129686464Y-101951000D01*
X129759536Y-101951000D01*
X129759536Y-103701000D01*
X129786103Y-103842190D01*
X129835500Y-103918956D01*
X129835500Y-103986750D01*
X129930750Y-104082000D01*
X130023785Y-104082000D01*
X130052469Y-104070119D01*
X130148000Y-104089464D01*
X130598000Y-104089464D01*
X130701670Y-104069957D01*
X130798000Y-104089464D01*
X131248000Y-104089464D01*
X131351670Y-104069957D01*
X131448000Y-104089464D01*
X131898000Y-104089464D01*
X131995805Y-104071061D01*
X132022215Y-104082000D01*
X132115250Y-104082000D01*
X132210500Y-103986750D01*
X132210500Y-103918519D01*
X132255859Y-103852134D01*
X132286464Y-103701000D01*
X132286464Y-103048250D01*
X132367000Y-103048250D01*
X132367000Y-103776786D01*
X132425004Y-103916820D01*
X132435500Y-103927316D01*
X132435500Y-103986750D01*
X132530750Y-104082000D01*
X132623785Y-104082000D01*
X132648000Y-104071970D01*
X132672215Y-104082000D01*
X132765250Y-104082000D01*
X132860500Y-103986750D01*
X132860500Y-103927316D01*
X132870996Y-103916820D01*
X132929000Y-103776786D01*
X132929000Y-103048250D01*
X132860500Y-102979750D01*
X132860500Y-102953000D01*
X132435500Y-102953000D01*
X132435500Y-102979750D01*
X132367000Y-103048250D01*
X132286464Y-103048250D01*
X132286464Y-102679000D01*
X132435500Y-102679000D01*
X132435500Y-102699000D01*
X132860500Y-102699000D01*
X132860500Y-102679000D01*
X133009536Y-102679000D01*
X133009536Y-103701000D01*
X133036103Y-103842190D01*
X133085500Y-103918956D01*
X133085500Y-103986750D01*
X133180750Y-104082000D01*
X133273785Y-104082000D01*
X133302469Y-104070119D01*
X133398000Y-104089464D01*
X133848000Y-104089464D01*
X133951670Y-104069957D01*
X134048000Y-104089464D01*
X134498000Y-104089464D01*
X134639190Y-104062897D01*
X134768865Y-103979454D01*
X134855859Y-103852134D01*
X134886464Y-103701000D01*
X134886464Y-103556215D01*
X154559000Y-103556215D01*
X154559000Y-104425750D01*
X154654250Y-104521000D01*
X155829000Y-104521000D01*
X155829000Y-103346250D01*
X156083000Y-103346250D01*
X156083000Y-104521000D01*
X157257750Y-104521000D01*
X157353000Y-104425750D01*
X157353000Y-103556215D01*
X157294996Y-103416181D01*
X157187820Y-103309004D01*
X157047786Y-103251000D01*
X156178250Y-103251000D01*
X156083000Y-103346250D01*
X155829000Y-103346250D01*
X155733750Y-103251000D01*
X154864214Y-103251000D01*
X154724180Y-103309004D01*
X154617004Y-103416181D01*
X154559000Y-103556215D01*
X134886464Y-103556215D01*
X134886464Y-101951000D01*
X134859897Y-101809810D01*
X134784089Y-101692000D01*
X137645536Y-101692000D01*
X137645536Y-102392000D01*
X137672103Y-102533190D01*
X137755546Y-102662865D01*
X137882866Y-102749859D01*
X138034000Y-102780464D01*
X139334000Y-102780464D01*
X139475190Y-102753897D01*
X139604865Y-102670454D01*
X139691859Y-102543134D01*
X139700756Y-102499200D01*
X140967707Y-102499200D01*
X140974103Y-102533190D01*
X141057546Y-102662865D01*
X141184866Y-102749859D01*
X141336000Y-102780464D01*
X142636000Y-102780464D01*
X142777190Y-102753897D01*
X142906865Y-102670454D01*
X142993859Y-102543134D01*
X143002756Y-102499200D01*
X143068000Y-102499200D01*
X143242963Y-102464398D01*
X143391289Y-102365289D01*
X143432745Y-102323833D01*
X143653361Y-102324025D01*
X143919521Y-102214050D01*
X144123335Y-102010592D01*
X144233774Y-101744624D01*
X144233951Y-101541021D01*
X146630584Y-101541021D01*
X146724792Y-101720848D01*
X147187993Y-101879822D01*
X147676772Y-101849435D01*
X147987208Y-101720848D01*
X148081416Y-101541021D01*
X147356000Y-100815605D01*
X146630584Y-101541021D01*
X144233951Y-101541021D01*
X144234025Y-101456639D01*
X144124050Y-101190479D01*
X143920592Y-100986665D01*
X143654624Y-100876226D01*
X143366639Y-100875975D01*
X143100479Y-100985950D01*
X142896665Y-101189408D01*
X142825642Y-101360452D01*
X142787134Y-101334141D01*
X142636000Y-101303536D01*
X141336000Y-101303536D01*
X141194810Y-101330103D01*
X141065135Y-101413546D01*
X140978141Y-101540866D01*
X140969244Y-101584800D01*
X139702293Y-101584800D01*
X139695897Y-101550810D01*
X139612454Y-101421135D01*
X139485134Y-101334141D01*
X139334000Y-101303536D01*
X138034000Y-101303536D01*
X137892810Y-101330103D01*
X137763135Y-101413546D01*
X137676141Y-101540866D01*
X137645536Y-101692000D01*
X134784089Y-101692000D01*
X134776454Y-101680135D01*
X134649134Y-101593141D01*
X134547732Y-101572607D01*
X134581774Y-101490624D01*
X134581933Y-101307867D01*
X134763361Y-101308025D01*
X135029521Y-101198050D01*
X135233335Y-100994592D01*
X135343774Y-100728624D01*
X135344025Y-100440639D01*
X135234050Y-100174479D01*
X135030592Y-99970665D01*
X134764624Y-99860226D01*
X134476639Y-99859975D01*
X134210479Y-99969950D01*
X134053355Y-100126800D01*
X133604000Y-100126800D01*
X133429037Y-100161602D01*
X133280711Y-100260711D01*
X133160622Y-100380800D01*
X131318000Y-100380800D01*
X131143037Y-100415602D01*
X130994711Y-100514711D01*
X130049711Y-101459711D01*
X129976018Y-101570000D01*
X129930750Y-101570000D01*
X129835500Y-101665250D01*
X129835500Y-101733481D01*
X129790141Y-101799866D01*
X129759536Y-101951000D01*
X129686464Y-101951000D01*
X129659897Y-101809810D01*
X129610500Y-101733044D01*
X129610500Y-101665250D01*
X129515250Y-101570000D01*
X129422215Y-101570000D01*
X129393531Y-101581881D01*
X129298000Y-101562536D01*
X128848000Y-101562536D01*
X128744330Y-101582043D01*
X128648000Y-101562536D01*
X128198000Y-101562536D01*
X128100195Y-101580939D01*
X128073785Y-101570000D01*
X127980750Y-101570000D01*
X127885500Y-101665250D01*
X127885500Y-101733481D01*
X127840141Y-101799866D01*
X127809536Y-101951000D01*
X127736464Y-101951000D01*
X127709897Y-101809810D01*
X127660500Y-101733044D01*
X127660500Y-101665250D01*
X127580200Y-101584950D01*
X127580200Y-101343464D01*
X127897000Y-101343464D01*
X128038190Y-101316897D01*
X128167865Y-101233454D01*
X128254859Y-101106134D01*
X128285464Y-100955000D01*
X128285464Y-100552250D01*
X128516000Y-100552250D01*
X128516000Y-101030785D01*
X128574004Y-101170819D01*
X128681180Y-101277996D01*
X128821214Y-101336000D01*
X129174750Y-101336000D01*
X129270000Y-101240750D01*
X129270000Y-100457000D01*
X129524000Y-100457000D01*
X129524000Y-101240750D01*
X129619250Y-101336000D01*
X129972786Y-101336000D01*
X130112820Y-101277996D01*
X130219996Y-101170819D01*
X130278000Y-101030785D01*
X130278000Y-100552250D01*
X130182750Y-100457000D01*
X129524000Y-100457000D01*
X129270000Y-100457000D01*
X128611250Y-100457000D01*
X128516000Y-100552250D01*
X128285464Y-100552250D01*
X128285464Y-99705000D01*
X128271204Y-99629215D01*
X128516000Y-99629215D01*
X128516000Y-100107750D01*
X128611250Y-100203000D01*
X129270000Y-100203000D01*
X129270000Y-99419250D01*
X129524000Y-99419250D01*
X129524000Y-100203000D01*
X130182750Y-100203000D01*
X130278000Y-100107750D01*
X130278000Y-99792000D01*
X137645536Y-99792000D01*
X137645536Y-100492000D01*
X137672103Y-100633190D01*
X137755546Y-100762865D01*
X137882866Y-100849859D01*
X138034000Y-100880464D01*
X139334000Y-100880464D01*
X139475190Y-100853897D01*
X139604865Y-100770454D01*
X139691859Y-100643134D01*
X139722464Y-100492000D01*
X139722464Y-99792000D01*
X140947536Y-99792000D01*
X140947536Y-100492000D01*
X140974103Y-100633190D01*
X141057546Y-100762865D01*
X141184866Y-100849859D01*
X141336000Y-100880464D01*
X142636000Y-100880464D01*
X142777190Y-100853897D01*
X142906865Y-100770454D01*
X142993859Y-100643134D01*
X143024464Y-100492000D01*
X143024464Y-100467993D01*
X146112178Y-100467993D01*
X146142565Y-100956772D01*
X146271152Y-101267208D01*
X146450979Y-101361416D01*
X147176395Y-100636000D01*
X147535605Y-100636000D01*
X148261021Y-101361416D01*
X148440848Y-101267208D01*
X148573813Y-100879787D01*
X150624787Y-100879787D01*
X150811800Y-101332395D01*
X151157784Y-101678983D01*
X151610065Y-101866786D01*
X152099787Y-101867213D01*
X152552395Y-101680200D01*
X152898983Y-101334216D01*
X153086786Y-100881935D01*
X153087213Y-100392213D01*
X152900200Y-99939605D01*
X152554216Y-99593017D01*
X152101935Y-99405214D01*
X151612213Y-99404787D01*
X151159605Y-99591800D01*
X150813017Y-99937784D01*
X150625214Y-100390065D01*
X150624787Y-100879787D01*
X148573813Y-100879787D01*
X148599822Y-100804007D01*
X148569435Y-100315228D01*
X148440848Y-100004792D01*
X148261021Y-99910584D01*
X147535605Y-100636000D01*
X147176395Y-100636000D01*
X146450979Y-99910584D01*
X146271152Y-100004792D01*
X146112178Y-100467993D01*
X143024464Y-100467993D01*
X143024464Y-99792000D01*
X143012982Y-99730979D01*
X146630584Y-99730979D01*
X147356000Y-100456395D01*
X148081416Y-99730979D01*
X147987208Y-99551152D01*
X147524007Y-99392178D01*
X147035228Y-99422565D01*
X146724792Y-99551152D01*
X146630584Y-99730979D01*
X143012982Y-99730979D01*
X142997897Y-99650810D01*
X142914454Y-99521135D01*
X142787134Y-99434141D01*
X142709809Y-99418482D01*
X142710025Y-99170639D01*
X142600050Y-98904479D01*
X142396592Y-98700665D01*
X142130624Y-98590226D01*
X141842639Y-98589975D01*
X141576479Y-98699950D01*
X141372665Y-98903408D01*
X141262226Y-99169376D01*
X141262010Y-99417458D01*
X141194810Y-99430103D01*
X141065135Y-99513546D01*
X140978141Y-99640866D01*
X140947536Y-99792000D01*
X139722464Y-99792000D01*
X139695897Y-99650810D01*
X139612454Y-99521135D01*
X139485134Y-99434141D01*
X139407809Y-99418482D01*
X139408025Y-99170639D01*
X139298050Y-98904479D01*
X139094592Y-98700665D01*
X138828624Y-98590226D01*
X138540639Y-98589975D01*
X138274479Y-98699950D01*
X138070665Y-98903408D01*
X137960226Y-99169376D01*
X137960010Y-99417458D01*
X137892810Y-99430103D01*
X137763135Y-99513546D01*
X137676141Y-99640866D01*
X137645536Y-99792000D01*
X130278000Y-99792000D01*
X130278000Y-99629215D01*
X130219996Y-99489181D01*
X130112820Y-99382004D01*
X129972786Y-99324000D01*
X129619250Y-99324000D01*
X129524000Y-99419250D01*
X129270000Y-99419250D01*
X129174750Y-99324000D01*
X128821214Y-99324000D01*
X128681180Y-99382004D01*
X128574004Y-99489181D01*
X128516000Y-99629215D01*
X128271204Y-99629215D01*
X128258897Y-99563810D01*
X128175454Y-99434135D01*
X128048134Y-99347141D01*
X127897000Y-99316536D01*
X126897000Y-99316536D01*
X126755810Y-99343103D01*
X126626135Y-99426546D01*
X126539141Y-99553866D01*
X126508536Y-99705000D01*
X126508536Y-100955000D01*
X126535103Y-101096190D01*
X126618546Y-101225865D01*
X126665800Y-101258152D01*
X126665800Y-101381222D01*
X126434289Y-101149711D01*
X126285963Y-101050602D01*
X126111000Y-101015800D01*
X124587000Y-101015800D01*
X124412037Y-101050602D01*
X124263710Y-101149711D01*
X124156254Y-101257167D01*
X123935639Y-101256975D01*
X123669479Y-101366950D01*
X123465665Y-101570408D01*
X123355226Y-101836376D01*
X123354975Y-102124361D01*
X111277085Y-102124361D01*
X111257331Y-102111162D01*
X110920187Y-102044100D01*
X110324893Y-102044100D01*
X109987749Y-102111162D01*
X109701932Y-102302139D01*
X109701000Y-102303534D01*
X109701000Y-97505870D01*
X109854583Y-97505870D01*
X110221166Y-98393069D01*
X110899361Y-99072449D01*
X111785919Y-99440580D01*
X112745870Y-99441417D01*
X113633069Y-99074834D01*
X114312449Y-98396639D01*
X114680580Y-97510081D01*
X114681162Y-96842213D01*
X115605473Y-96842213D01*
X115764430Y-97301720D01*
X116087133Y-97665419D01*
X116520882Y-97875393D01*
X116713000Y-97814712D01*
X116713000Y-96647000D01*
X116967000Y-96647000D01*
X116967000Y-97814712D01*
X117159118Y-97875393D01*
X117592867Y-97665419D01*
X117915570Y-97301720D01*
X118074527Y-96842213D01*
X117990643Y-96647000D01*
X116967000Y-96647000D01*
X116713000Y-96647000D01*
X115689357Y-96647000D01*
X115605473Y-96842213D01*
X114681162Y-96842213D01*
X114681417Y-96550130D01*
X114535832Y-96197787D01*
X115605473Y-96197787D01*
X115689357Y-96393000D01*
X116713000Y-96393000D01*
X116713000Y-95225288D01*
X116967000Y-95225288D01*
X116967000Y-96393000D01*
X117990643Y-96393000D01*
X118013318Y-96340231D01*
X118135400Y-96340231D01*
X118135400Y-96699769D01*
X118230140Y-97176057D01*
X118499935Y-97579834D01*
X118903712Y-97849629D01*
X119380000Y-97944369D01*
X119856288Y-97849629D01*
X120260065Y-97579834D01*
X120529860Y-97176057D01*
X120624600Y-96699769D01*
X120624600Y-96340231D01*
X120675400Y-96340231D01*
X120675400Y-96699769D01*
X120770140Y-97176057D01*
X121039935Y-97579834D01*
X121443712Y-97849629D01*
X121920000Y-97944369D01*
X122396288Y-97849629D01*
X122800065Y-97579834D01*
X123069860Y-97176057D01*
X123164600Y-96699769D01*
X123164600Y-96340231D01*
X123215400Y-96340231D01*
X123215400Y-96699769D01*
X123310140Y-97176057D01*
X123579935Y-97579834D01*
X123983712Y-97849629D01*
X124460000Y-97944369D01*
X124936288Y-97849629D01*
X125340065Y-97579834D01*
X125609860Y-97176057D01*
X125704600Y-96699769D01*
X125704600Y-96340231D01*
X125755400Y-96340231D01*
X125755400Y-96699769D01*
X125850140Y-97176057D01*
X126119935Y-97579834D01*
X126523712Y-97849629D01*
X127000000Y-97944369D01*
X127476288Y-97849629D01*
X127880065Y-97579834D01*
X128149860Y-97176057D01*
X128244600Y-96699769D01*
X128244600Y-96340231D01*
X128295400Y-96340231D01*
X128295400Y-96699769D01*
X128390140Y-97176057D01*
X128659935Y-97579834D01*
X129063712Y-97849629D01*
X129540000Y-97944369D01*
X130016288Y-97849629D01*
X130420065Y-97579834D01*
X130689860Y-97176057D01*
X130784600Y-96699769D01*
X130784600Y-96340231D01*
X130835400Y-96340231D01*
X130835400Y-96699769D01*
X130930140Y-97176057D01*
X131199935Y-97579834D01*
X131603712Y-97849629D01*
X132080000Y-97944369D01*
X132556288Y-97849629D01*
X132960065Y-97579834D01*
X133229860Y-97176057D01*
X133324600Y-96699769D01*
X133324600Y-96340231D01*
X133375400Y-96340231D01*
X133375400Y-96699769D01*
X133470140Y-97176057D01*
X133739935Y-97579834D01*
X134143712Y-97849629D01*
X134620000Y-97944369D01*
X135096288Y-97849629D01*
X135500065Y-97579834D01*
X135769860Y-97176057D01*
X135864600Y-96699769D01*
X135864600Y-96340231D01*
X135915400Y-96340231D01*
X135915400Y-96699769D01*
X136010140Y-97176057D01*
X136279935Y-97579834D01*
X136683712Y-97849629D01*
X137160000Y-97944369D01*
X137636288Y-97849629D01*
X138040065Y-97579834D01*
X138309860Y-97176057D01*
X138404600Y-96699769D01*
X138404600Y-96340231D01*
X138455400Y-96340231D01*
X138455400Y-96699769D01*
X138550140Y-97176057D01*
X138819935Y-97579834D01*
X139223712Y-97849629D01*
X139700000Y-97944369D01*
X140176288Y-97849629D01*
X140580065Y-97579834D01*
X140849860Y-97176057D01*
X140944600Y-96699769D01*
X140944600Y-96340231D01*
X140995400Y-96340231D01*
X140995400Y-96699769D01*
X141090140Y-97176057D01*
X141359935Y-97579834D01*
X141763712Y-97849629D01*
X142240000Y-97944369D01*
X142716288Y-97849629D01*
X143120065Y-97579834D01*
X143389860Y-97176057D01*
X143484600Y-96699769D01*
X143484600Y-96340231D01*
X143535400Y-96340231D01*
X143535400Y-96699769D01*
X143630140Y-97176057D01*
X143899935Y-97579834D01*
X144303712Y-97849629D01*
X144780000Y-97944369D01*
X145256288Y-97849629D01*
X145660065Y-97579834D01*
X145929860Y-97176057D01*
X146024600Y-96699769D01*
X146024600Y-96340231D01*
X146075400Y-96340231D01*
X146075400Y-96699769D01*
X146170140Y-97176057D01*
X146439935Y-97579834D01*
X146843712Y-97849629D01*
X147320000Y-97944369D01*
X147796288Y-97849629D01*
X148200065Y-97579834D01*
X148469860Y-97176057D01*
X148564600Y-96699769D01*
X148564600Y-96340231D01*
X148615400Y-96340231D01*
X148615400Y-96699769D01*
X148710140Y-97176057D01*
X148979935Y-97579834D01*
X149383712Y-97849629D01*
X149860000Y-97944369D01*
X150336288Y-97849629D01*
X150740065Y-97579834D01*
X151009860Y-97176057D01*
X151104600Y-96699769D01*
X151104600Y-96340231D01*
X151009860Y-95863943D01*
X150769354Y-95504000D01*
X151147936Y-95504000D01*
X151147936Y-97536000D01*
X151174503Y-97677190D01*
X151257946Y-97806865D01*
X151385266Y-97893859D01*
X151536400Y-97924464D01*
X153263600Y-97924464D01*
X153404790Y-97897897D01*
X153534465Y-97814454D01*
X153621459Y-97687134D01*
X153652064Y-97536000D01*
X153652064Y-97505870D01*
X154558583Y-97505870D01*
X154925166Y-98393069D01*
X155603361Y-99072449D01*
X156489919Y-99440580D01*
X157449870Y-99441417D01*
X158337069Y-99074834D01*
X159016449Y-98396639D01*
X159384580Y-97510081D01*
X159385417Y-96550130D01*
X159018834Y-95662931D01*
X158340639Y-94983551D01*
X157454081Y-94615420D01*
X156494130Y-94614583D01*
X155606931Y-94981166D01*
X154927551Y-95659361D01*
X154559420Y-96545919D01*
X154558583Y-97505870D01*
X153652064Y-97505870D01*
X153652064Y-95504000D01*
X153625497Y-95362810D01*
X153542054Y-95233135D01*
X153414734Y-95146141D01*
X153263600Y-95115536D01*
X151536400Y-95115536D01*
X151395210Y-95142103D01*
X151265535Y-95225546D01*
X151178541Y-95352866D01*
X151147936Y-95504000D01*
X150769354Y-95504000D01*
X150740065Y-95460166D01*
X150336288Y-95190371D01*
X149860000Y-95095631D01*
X149383712Y-95190371D01*
X148979935Y-95460166D01*
X148710140Y-95863943D01*
X148615400Y-96340231D01*
X148564600Y-96340231D01*
X148469860Y-95863943D01*
X148200065Y-95460166D01*
X147796288Y-95190371D01*
X147320000Y-95095631D01*
X146843712Y-95190371D01*
X146439935Y-95460166D01*
X146170140Y-95863943D01*
X146075400Y-96340231D01*
X146024600Y-96340231D01*
X145929860Y-95863943D01*
X145660065Y-95460166D01*
X145256288Y-95190371D01*
X144780000Y-95095631D01*
X144303712Y-95190371D01*
X143899935Y-95460166D01*
X143630140Y-95863943D01*
X143535400Y-96340231D01*
X143484600Y-96340231D01*
X143389860Y-95863943D01*
X143120065Y-95460166D01*
X142716288Y-95190371D01*
X142240000Y-95095631D01*
X141763712Y-95190371D01*
X141359935Y-95460166D01*
X141090140Y-95863943D01*
X140995400Y-96340231D01*
X140944600Y-96340231D01*
X140849860Y-95863943D01*
X140580065Y-95460166D01*
X140176288Y-95190371D01*
X139700000Y-95095631D01*
X139223712Y-95190371D01*
X138819935Y-95460166D01*
X138550140Y-95863943D01*
X138455400Y-96340231D01*
X138404600Y-96340231D01*
X138309860Y-95863943D01*
X138040065Y-95460166D01*
X137636288Y-95190371D01*
X137160000Y-95095631D01*
X136683712Y-95190371D01*
X136279935Y-95460166D01*
X136010140Y-95863943D01*
X135915400Y-96340231D01*
X135864600Y-96340231D01*
X135769860Y-95863943D01*
X135500065Y-95460166D01*
X135096288Y-95190371D01*
X134620000Y-95095631D01*
X134143712Y-95190371D01*
X133739935Y-95460166D01*
X133470140Y-95863943D01*
X133375400Y-96340231D01*
X133324600Y-96340231D01*
X133229860Y-95863943D01*
X132960065Y-95460166D01*
X132556288Y-95190371D01*
X132080000Y-95095631D01*
X131603712Y-95190371D01*
X131199935Y-95460166D01*
X130930140Y-95863943D01*
X130835400Y-96340231D01*
X130784600Y-96340231D01*
X130689860Y-95863943D01*
X130420065Y-95460166D01*
X130016288Y-95190371D01*
X129540000Y-95095631D01*
X129063712Y-95190371D01*
X128659935Y-95460166D01*
X128390140Y-95863943D01*
X128295400Y-96340231D01*
X128244600Y-96340231D01*
X128149860Y-95863943D01*
X127880065Y-95460166D01*
X127476288Y-95190371D01*
X127000000Y-95095631D01*
X126523712Y-95190371D01*
X126119935Y-95460166D01*
X125850140Y-95863943D01*
X125755400Y-96340231D01*
X125704600Y-96340231D01*
X125609860Y-95863943D01*
X125340065Y-95460166D01*
X124936288Y-95190371D01*
X124460000Y-95095631D01*
X123983712Y-95190371D01*
X123579935Y-95460166D01*
X123310140Y-95863943D01*
X123215400Y-96340231D01*
X123164600Y-96340231D01*
X123069860Y-95863943D01*
X122800065Y-95460166D01*
X122396288Y-95190371D01*
X121920000Y-95095631D01*
X121443712Y-95190371D01*
X121039935Y-95460166D01*
X120770140Y-95863943D01*
X120675400Y-96340231D01*
X120624600Y-96340231D01*
X120529860Y-95863943D01*
X120260065Y-95460166D01*
X119856288Y-95190371D01*
X119380000Y-95095631D01*
X118903712Y-95190371D01*
X118499935Y-95460166D01*
X118230140Y-95863943D01*
X118135400Y-96340231D01*
X118013318Y-96340231D01*
X118074527Y-96197787D01*
X117915570Y-95738280D01*
X117592867Y-95374581D01*
X117159118Y-95164607D01*
X116967000Y-95225288D01*
X116713000Y-95225288D01*
X116520882Y-95164607D01*
X116087133Y-95374581D01*
X115764430Y-95738280D01*
X115605473Y-96197787D01*
X114535832Y-96197787D01*
X114314834Y-95662931D01*
X113636639Y-94983551D01*
X112750081Y-94615420D01*
X111790130Y-94614583D01*
X110902931Y-94981166D01*
X110223551Y-95659361D01*
X109855420Y-96545919D01*
X109854583Y-97505870D01*
X109701000Y-97505870D01*
X109701000Y-94461000D01*
X159539000Y-94461000D01*
X159539000Y-144299000D01*
X159539000Y-144299000D01*
G37*
X159539000Y-144299000D02*
X109701000Y-144299000D01*
X109701000Y-143363021D01*
X113372584Y-143363021D01*
X113466792Y-143542848D01*
X113929993Y-143701822D01*
X114418772Y-143671435D01*
X114729208Y-143542848D01*
X114823416Y-143363021D01*
X119872584Y-143363021D01*
X119966792Y-143542848D01*
X120429993Y-143701822D01*
X120918772Y-143671435D01*
X121229208Y-143542848D01*
X121323416Y-143363021D01*
X124802584Y-143363021D01*
X124896792Y-143542848D01*
X125359993Y-143701822D01*
X125848772Y-143671435D01*
X126159208Y-143542848D01*
X126253416Y-143363021D01*
X131302584Y-143363021D01*
X131396792Y-143542848D01*
X131859993Y-143701822D01*
X132348772Y-143671435D01*
X132659208Y-143542848D01*
X132753416Y-143363021D01*
X136232584Y-143363021D01*
X136326792Y-143542848D01*
X136789993Y-143701822D01*
X137278772Y-143671435D01*
X137589208Y-143542848D01*
X137683416Y-143363021D01*
X142732584Y-143363021D01*
X142826792Y-143542848D01*
X143289993Y-143701822D01*
X143778772Y-143671435D01*
X144089208Y-143542848D01*
X144183416Y-143363021D01*
X147662584Y-143363021D01*
X147756792Y-143542848D01*
X148219993Y-143701822D01*
X148708772Y-143671435D01*
X149019208Y-143542848D01*
X149113416Y-143363021D01*
X154162584Y-143363021D01*
X154256792Y-143542848D01*
X154719993Y-143701822D01*
X155208772Y-143671435D01*
X155519208Y-143542848D01*
X155613416Y-143363021D01*
X154888000Y-142637605D01*
X154162584Y-143363021D01*
X149113416Y-143363021D01*
X148388000Y-142637605D01*
X147662584Y-143363021D01*
X144183416Y-143363021D01*
X143458000Y-142637605D01*
X142732584Y-143363021D01*
X137683416Y-143363021D01*
X136958000Y-142637605D01*
X136232584Y-143363021D01*
X132753416Y-143363021D01*
X132028000Y-142637605D01*
X131302584Y-143363021D01*
X126253416Y-143363021D01*
X125528000Y-142637605D01*
X124802584Y-143363021D01*
X121323416Y-143363021D01*
X120598000Y-142637605D01*
X119872584Y-143363021D01*
X114823416Y-143363021D01*
X114098000Y-142637605D01*
X113372584Y-143363021D01*
X109701000Y-143363021D01*
X109701000Y-142289993D01*
X112854178Y-142289993D01*
X112884565Y-142778772D01*
X113013152Y-143089208D01*
X113192979Y-143183416D01*
X113918395Y-142458000D01*
X114277605Y-142458000D01*
X115003021Y-143183416D01*
X115182848Y-143089208D01*
X115341822Y-142626007D01*
X115320933Y-142289993D01*
X119354178Y-142289993D01*
X119384565Y-142778772D01*
X119513152Y-143089208D01*
X119692979Y-143183416D01*
X120418395Y-142458000D01*
X120777605Y-142458000D01*
X121503021Y-143183416D01*
X121682848Y-143089208D01*
X121841822Y-142626007D01*
X121820933Y-142289993D01*
X124284178Y-142289993D01*
X124314565Y-142778772D01*
X124443152Y-143089208D01*
X124622979Y-143183416D01*
X125348395Y-142458000D01*
X125707605Y-142458000D01*
X126433021Y-143183416D01*
X126612848Y-143089208D01*
X126771822Y-142626007D01*
X126750933Y-142289993D01*
X130784178Y-142289993D01*
X130814565Y-142778772D01*
X130943152Y-143089208D01*
X131122979Y-143183416D01*
X131848395Y-142458000D01*
X132207605Y-142458000D01*
X132933021Y-143183416D01*
X133112848Y-143089208D01*
X133271822Y-142626007D01*
X133250933Y-142289993D01*
X135714178Y-142289993D01*
X135744565Y-142778772D01*
X135873152Y-143089208D01*
X136052979Y-143183416D01*
X136778395Y-142458000D01*
X137137605Y-142458000D01*
X137863021Y-143183416D01*
X138042848Y-143089208D01*
X138201822Y-142626007D01*
X138180933Y-142289993D01*
X142214178Y-142289993D01*
X142244565Y-142778772D01*
X142373152Y-143089208D01*
X142552979Y-143183416D01*
X143278395Y-142458000D01*
X143637605Y-142458000D01*
X144363021Y-143183416D01*
X144542848Y-143089208D01*
X144701822Y-142626007D01*
X144680933Y-142289993D01*
X147144178Y-142289993D01*
X147174565Y-142778772D01*
X147303152Y-143089208D01*
X147482979Y-143183416D01*
X148208395Y-142458000D01*
X148567605Y-142458000D01*
X149293021Y-143183416D01*
X149472848Y-143089208D01*
X149631822Y-142626007D01*
X149610933Y-142289993D01*
X153644178Y-142289993D01*
X153674565Y-142778772D01*
X153803152Y-143089208D01*
X153982979Y-143183416D01*
X154708395Y-142458000D01*
X155067605Y-142458000D01*
X155793021Y-143183416D01*
X155972848Y-143089208D01*
X156131822Y-142626007D01*
X156101435Y-142137228D01*
X155972848Y-141826792D01*
X155793021Y-141732584D01*
X155067605Y-142458000D01*
X154708395Y-142458000D01*
X153982979Y-141732584D01*
X153803152Y-141826792D01*
X153644178Y-142289993D01*
X149610933Y-142289993D01*
X149601435Y-142137228D01*
X149472848Y-141826792D01*
X149293021Y-141732584D01*
X148567605Y-142458000D01*
X148208395Y-142458000D01*
X147482979Y-141732584D01*
X147303152Y-141826792D01*
X147144178Y-142289993D01*
X144680933Y-142289993D01*
X144671435Y-142137228D01*
X144542848Y-141826792D01*
X144363021Y-141732584D01*
X143637605Y-142458000D01*
X143278395Y-142458000D01*
X142552979Y-141732584D01*
X142373152Y-141826792D01*
X142214178Y-142289993D01*
X138180933Y-142289993D01*
X138171435Y-142137228D01*
X138042848Y-141826792D01*
X137863021Y-141732584D01*
X137137605Y-142458000D01*
X136778395Y-142458000D01*
X136052979Y-141732584D01*
X135873152Y-141826792D01*
X135714178Y-142289993D01*
X133250933Y-142289993D01*
X133241435Y-142137228D01*
X133112848Y-141826792D01*
X132933021Y-141732584D01*
X132207605Y-142458000D01*
X131848395Y-142458000D01*
X131122979Y-141732584D01*
X130943152Y-141826792D01*
X130784178Y-142289993D01*
X126750933Y-142289993D01*
X126741435Y-142137228D01*
X126612848Y-141826792D01*
X126433021Y-141732584D01*
X125707605Y-142458000D01*
X125348395Y-142458000D01*
X124622979Y-141732584D01*
X124443152Y-141826792D01*
X124284178Y-142289993D01*
X121820933Y-142289993D01*
X121811435Y-142137228D01*
X121682848Y-141826792D01*
X121503021Y-141732584D01*
X120777605Y-142458000D01*
X120418395Y-142458000D01*
X119692979Y-141732584D01*
X119513152Y-141826792D01*
X119354178Y-142289993D01*
X115320933Y-142289993D01*
X115311435Y-142137228D01*
X115182848Y-141826792D01*
X115003021Y-141732584D01*
X114277605Y-142458000D01*
X113918395Y-142458000D01*
X113192979Y-141732584D01*
X113013152Y-141826792D01*
X112854178Y-142289993D01*
X109701000Y-142289993D01*
X109701000Y-141552979D01*
X113372584Y-141552979D01*
X114098000Y-142278395D01*
X114823416Y-141552979D01*
X119872584Y-141552979D01*
X120598000Y-142278395D01*
X121323416Y-141552979D01*
X124802584Y-141552979D01*
X125528000Y-142278395D01*
X126253416Y-141552979D01*
X131302584Y-141552979D01*
X132028000Y-142278395D01*
X132753416Y-141552979D01*
X136232584Y-141552979D01*
X136958000Y-142278395D01*
X137683416Y-141552979D01*
X142732584Y-141552979D01*
X143458000Y-142278395D01*
X144183416Y-141552979D01*
X147662584Y-141552979D01*
X148388000Y-142278395D01*
X149113416Y-141552979D01*
X154162584Y-141552979D01*
X154888000Y-142278395D01*
X155613416Y-141552979D01*
X155519208Y-141373152D01*
X155056007Y-141214178D01*
X154567228Y-141244565D01*
X154256792Y-141373152D01*
X154162584Y-141552979D01*
X149113416Y-141552979D01*
X149019208Y-141373152D01*
X148556007Y-141214178D01*
X148067228Y-141244565D01*
X147756792Y-141373152D01*
X147662584Y-141552979D01*
X144183416Y-141552979D01*
X144089208Y-141373152D01*
X143626007Y-141214178D01*
X143137228Y-141244565D01*
X142826792Y-141373152D01*
X142732584Y-141552979D01*
X137683416Y-141552979D01*
X137589208Y-141373152D01*
X137126007Y-141214178D01*
X136637228Y-141244565D01*
X136326792Y-141373152D01*
X136232584Y-141552979D01*
X132753416Y-141552979D01*
X132659208Y-141373152D01*
X132196007Y-141214178D01*
X131707228Y-141244565D01*
X131396792Y-141373152D01*
X131302584Y-141552979D01*
X126253416Y-141552979D01*
X126159208Y-141373152D01*
X125696007Y-141214178D01*
X125207228Y-141244565D01*
X124896792Y-141373152D01*
X124802584Y-141552979D01*
X121323416Y-141552979D01*
X121229208Y-141373152D01*
X120766007Y-141214178D01*
X120277228Y-141244565D01*
X119966792Y-141373152D01*
X119872584Y-141552979D01*
X114823416Y-141552979D01*
X114729208Y-141373152D01*
X114266007Y-141214178D01*
X113777228Y-141244565D01*
X113466792Y-141373152D01*
X113372584Y-141552979D01*
X109701000Y-141552979D01*
X109701000Y-138201787D01*
X112866787Y-138201787D01*
X113053800Y-138654395D01*
X113399784Y-139000983D01*
X113852065Y-139188786D01*
X114341787Y-139189213D01*
X114794395Y-139002200D01*
X115140983Y-138656216D01*
X115328786Y-138203935D01*
X115328787Y-138201787D01*
X119366787Y-138201787D01*
X119553800Y-138654395D01*
X119899784Y-139000983D01*
X120352065Y-139188786D01*
X120841787Y-139189213D01*
X121294395Y-139002200D01*
X121640983Y-138656216D01*
X121828786Y-138203935D01*
X121828787Y-138201787D01*
X124296787Y-138201787D01*
X124483800Y-138654395D01*
X124829784Y-139000983D01*
X125282065Y-139188786D01*
X125771787Y-139189213D01*
X126224395Y-139002200D01*
X126570983Y-138656216D01*
X126758786Y-138203935D01*
X126758787Y-138201787D01*
X130796787Y-138201787D01*
X130983800Y-138654395D01*
X131329784Y-139000983D01*
X131782065Y-139188786D01*
X132271787Y-139189213D01*
X132724395Y-139002200D01*
X133070983Y-138656216D01*
X133258786Y-138203935D01*
X133258787Y-138201787D01*
X135726787Y-138201787D01*
X135913800Y-138654395D01*
X136259784Y-139000983D01*
X136712065Y-139188786D01*
X137201787Y-139189213D01*
X137654395Y-139002200D01*
X138000983Y-138656216D01*
X138188786Y-138203935D01*
X138188787Y-138201787D01*
X142226787Y-138201787D01*
X142413800Y-138654395D01*
X142759784Y-139000983D01*
X143212065Y-139188786D01*
X143701787Y-139189213D01*
X144154395Y-139002200D01*
X144500983Y-138656216D01*
X144688786Y-138203935D01*
X144688787Y-138201787D01*
X147156787Y-138201787D01*
X147343800Y-138654395D01*
X147689784Y-139000983D01*
X148142065Y-139188786D01*
X148631787Y-139189213D01*
X149084395Y-139002200D01*
X149430983Y-138656216D01*
X149618786Y-138203935D01*
X149618787Y-138201787D01*
X153656787Y-138201787D01*
X153843800Y-138654395D01*
X154189784Y-139000983D01*
X154642065Y-139188786D01*
X155131787Y-139189213D01*
X155584395Y-139002200D01*
X155930983Y-138656216D01*
X156118786Y-138203935D01*
X156119213Y-137714213D01*
X155932200Y-137261605D01*
X155586216Y-136915017D01*
X155133935Y-136727214D01*
X154644213Y-136726787D01*
X154191605Y-136913800D01*
X153845017Y-137259784D01*
X153657214Y-137712065D01*
X153656787Y-138201787D01*
X149618787Y-138201787D01*
X149619213Y-137714213D01*
X149432200Y-137261605D01*
X149086216Y-136915017D01*
X148633935Y-136727214D01*
X148144213Y-136726787D01*
X147691605Y-136913800D01*
X147345017Y-137259784D01*
X147157214Y-137712065D01*
X147156787Y-138201787D01*
X144688787Y-138201787D01*
X144689213Y-137714213D01*
X144502200Y-137261605D01*
X144156216Y-136915017D01*
X143703935Y-136727214D01*
X143214213Y-136726787D01*
X142761605Y-136913800D01*
X142415017Y-137259784D01*
X142227214Y-137712065D01*
X142226787Y-138201787D01*
X138188787Y-138201787D01*
X138189213Y-137714213D01*
X138002200Y-137261605D01*
X137656216Y-136915017D01*
X137203935Y-136727214D01*
X136714213Y-136726787D01*
X136261605Y-136913800D01*
X135915017Y-137259784D01*
X135727214Y-137712065D01*
X135726787Y-138201787D01*
X133258787Y-138201787D01*
X133259213Y-137714213D01*
X133072200Y-137261605D01*
X132726216Y-136915017D01*
X132273935Y-136727214D01*
X131784213Y-136726787D01*
X131331605Y-136913800D01*
X130985017Y-137259784D01*
X130797214Y-137712065D01*
X130796787Y-138201787D01*
X126758787Y-138201787D01*
X126759213Y-137714213D01*
X126572200Y-137261605D01*
X126226216Y-136915017D01*
X125773935Y-136727214D01*
X125284213Y-136726787D01*
X124831605Y-136913800D01*
X124485017Y-137259784D01*
X124297214Y-137712065D01*
X124296787Y-138201787D01*
X121828787Y-138201787D01*
X121829213Y-137714213D01*
X121642200Y-137261605D01*
X121296216Y-136915017D01*
X120843935Y-136727214D01*
X120354213Y-136726787D01*
X119901605Y-136913800D01*
X119555017Y-137259784D01*
X119367214Y-137712065D01*
X119366787Y-138201787D01*
X115328787Y-138201787D01*
X115329213Y-137714213D01*
X115142200Y-137261605D01*
X114796216Y-136915017D01*
X114343935Y-136727214D01*
X113854213Y-136726787D01*
X113401605Y-136913800D01*
X113055017Y-137259784D01*
X112867214Y-137712065D01*
X112866787Y-138201787D01*
X109701000Y-138201787D01*
X109701000Y-134473021D01*
X113372584Y-134473021D01*
X113466792Y-134652848D01*
X113929993Y-134811822D01*
X114418772Y-134781435D01*
X114729208Y-134652848D01*
X114823416Y-134473021D01*
X119872584Y-134473021D01*
X119966792Y-134652848D01*
X120429993Y-134811822D01*
X120918772Y-134781435D01*
X121229208Y-134652848D01*
X121323416Y-134473021D01*
X124802584Y-134473021D01*
X124896792Y-134652848D01*
X125359993Y-134811822D01*
X125848772Y-134781435D01*
X126159208Y-134652848D01*
X126253416Y-134473021D01*
X131302584Y-134473021D01*
X131396792Y-134652848D01*
X131859993Y-134811822D01*
X132348772Y-134781435D01*
X132659208Y-134652848D01*
X132753416Y-134473021D01*
X136232584Y-134473021D01*
X136326792Y-134652848D01*
X136789993Y-134811822D01*
X137278772Y-134781435D01*
X137589208Y-134652848D01*
X137683416Y-134473021D01*
X142732584Y-134473021D01*
X142826792Y-134652848D01*
X143289993Y-134811822D01*
X143778772Y-134781435D01*
X144089208Y-134652848D01*
X144183416Y-134473021D01*
X147662584Y-134473021D01*
X147756792Y-134652848D01*
X148219993Y-134811822D01*
X148708772Y-134781435D01*
X149019208Y-134652848D01*
X149113416Y-134473021D01*
X154162584Y-134473021D01*
X154256792Y-134652848D01*
X154719993Y-134811822D01*
X155208772Y-134781435D01*
X155519208Y-134652848D01*
X155613416Y-134473021D01*
X154888000Y-133747605D01*
X154162584Y-134473021D01*
X149113416Y-134473021D01*
X148388000Y-133747605D01*
X147662584Y-134473021D01*
X144183416Y-134473021D01*
X143458000Y-133747605D01*
X142732584Y-134473021D01*
X137683416Y-134473021D01*
X136958000Y-133747605D01*
X136232584Y-134473021D01*
X132753416Y-134473021D01*
X132028000Y-133747605D01*
X131302584Y-134473021D01*
X126253416Y-134473021D01*
X125528000Y-133747605D01*
X124802584Y-134473021D01*
X121323416Y-134473021D01*
X120598000Y-133747605D01*
X119872584Y-134473021D01*
X114823416Y-134473021D01*
X114098000Y-133747605D01*
X113372584Y-134473021D01*
X109701000Y-134473021D01*
X109701000Y-133399993D01*
X112854178Y-133399993D01*
X112884565Y-133888772D01*
X113013152Y-134199208D01*
X113192979Y-134293416D01*
X113918395Y-133568000D01*
X114277605Y-133568000D01*
X115003021Y-134293416D01*
X115182848Y-134199208D01*
X115341822Y-133736007D01*
X115320933Y-133399993D01*
X119354178Y-133399993D01*
X119384565Y-133888772D01*
X119513152Y-134199208D01*
X119692979Y-134293416D01*
X120418395Y-133568000D01*
X120777605Y-133568000D01*
X121503021Y-134293416D01*
X121682848Y-134199208D01*
X121841822Y-133736007D01*
X121820933Y-133399993D01*
X124284178Y-133399993D01*
X124314565Y-133888772D01*
X124443152Y-134199208D01*
X124622979Y-134293416D01*
X125348395Y-133568000D01*
X125707605Y-133568000D01*
X126433021Y-134293416D01*
X126612848Y-134199208D01*
X126771822Y-133736007D01*
X126750933Y-133399993D01*
X130784178Y-133399993D01*
X130814565Y-133888772D01*
X130943152Y-134199208D01*
X131122979Y-134293416D01*
X131848395Y-133568000D01*
X132207605Y-133568000D01*
X132933021Y-134293416D01*
X133112848Y-134199208D01*
X133271822Y-133736007D01*
X133250933Y-133399993D01*
X135714178Y-133399993D01*
X135744565Y-133888772D01*
X135873152Y-134199208D01*
X136052979Y-134293416D01*
X136778395Y-133568000D01*
X137137605Y-133568000D01*
X137863021Y-134293416D01*
X138042848Y-134199208D01*
X138201822Y-133736007D01*
X138180933Y-133399993D01*
X142214178Y-133399993D01*
X142244565Y-133888772D01*
X142373152Y-134199208D01*
X142552979Y-134293416D01*
X143278395Y-133568000D01*
X143637605Y-133568000D01*
X144363021Y-134293416D01*
X144542848Y-134199208D01*
X144701822Y-133736007D01*
X144680933Y-133399993D01*
X147144178Y-133399993D01*
X147174565Y-133888772D01*
X147303152Y-134199208D01*
X147482979Y-134293416D01*
X148208395Y-133568000D01*
X148567605Y-133568000D01*
X149293021Y-134293416D01*
X149472848Y-134199208D01*
X149631822Y-133736007D01*
X149610933Y-133399993D01*
X153644178Y-133399993D01*
X153674565Y-133888772D01*
X153803152Y-134199208D01*
X153982979Y-134293416D01*
X154708395Y-133568000D01*
X155067605Y-133568000D01*
X155793021Y-134293416D01*
X155972848Y-134199208D01*
X156131822Y-133736007D01*
X156101435Y-133247228D01*
X155972848Y-132936792D01*
X155793021Y-132842584D01*
X155067605Y-133568000D01*
X154708395Y-133568000D01*
X153982979Y-132842584D01*
X153803152Y-132936792D01*
X153644178Y-133399993D01*
X149610933Y-133399993D01*
X149601435Y-133247228D01*
X149472848Y-132936792D01*
X149293021Y-132842584D01*
X148567605Y-133568000D01*
X148208395Y-133568000D01*
X147482979Y-132842584D01*
X147303152Y-132936792D01*
X147144178Y-133399993D01*
X144680933Y-133399993D01*
X144671435Y-133247228D01*
X144542848Y-132936792D01*
X144363021Y-132842584D01*
X143637605Y-133568000D01*
X143278395Y-133568000D01*
X142552979Y-132842584D01*
X142373152Y-132936792D01*
X142214178Y-133399993D01*
X138180933Y-133399993D01*
X138171435Y-133247228D01*
X138042848Y-132936792D01*
X137863021Y-132842584D01*
X137137605Y-133568000D01*
X136778395Y-133568000D01*
X136052979Y-132842584D01*
X135873152Y-132936792D01*
X135714178Y-133399993D01*
X133250933Y-133399993D01*
X133241435Y-133247228D01*
X133112848Y-132936792D01*
X132933021Y-132842584D01*
X132207605Y-133568000D01*
X131848395Y-133568000D01*
X131122979Y-132842584D01*
X130943152Y-132936792D01*
X130784178Y-133399993D01*
X126750933Y-133399993D01*
X126741435Y-133247228D01*
X126612848Y-132936792D01*
X126433021Y-132842584D01*
X125707605Y-133568000D01*
X125348395Y-133568000D01*
X124622979Y-132842584D01*
X124443152Y-132936792D01*
X124284178Y-133399993D01*
X121820933Y-133399993D01*
X121811435Y-133247228D01*
X121682848Y-132936792D01*
X121503021Y-132842584D01*
X120777605Y-133568000D01*
X120418395Y-133568000D01*
X119692979Y-132842584D01*
X119513152Y-132936792D01*
X119354178Y-133399993D01*
X115320933Y-133399993D01*
X115311435Y-133247228D01*
X115182848Y-132936792D01*
X115003021Y-132842584D01*
X114277605Y-133568000D01*
X113918395Y-133568000D01*
X113192979Y-132842584D01*
X113013152Y-132936792D01*
X112854178Y-133399993D01*
X109701000Y-133399993D01*
X109701000Y-132662979D01*
X113372584Y-132662979D01*
X114098000Y-133388395D01*
X114823416Y-132662979D01*
X119872584Y-132662979D01*
X120598000Y-133388395D01*
X121323416Y-132662979D01*
X124802584Y-132662979D01*
X125528000Y-133388395D01*
X126253416Y-132662979D01*
X131302584Y-132662979D01*
X132028000Y-133388395D01*
X132753416Y-132662979D01*
X136232584Y-132662979D01*
X136958000Y-133388395D01*
X137683416Y-132662979D01*
X142732584Y-132662979D01*
X143458000Y-133388395D01*
X144183416Y-132662979D01*
X147662584Y-132662979D01*
X148388000Y-133388395D01*
X149113416Y-132662979D01*
X154162584Y-132662979D01*
X154888000Y-133388395D01*
X155613416Y-132662979D01*
X155519208Y-132483152D01*
X155056007Y-132324178D01*
X154567228Y-132354565D01*
X154256792Y-132483152D01*
X154162584Y-132662979D01*
X149113416Y-132662979D01*
X149019208Y-132483152D01*
X148556007Y-132324178D01*
X148067228Y-132354565D01*
X147756792Y-132483152D01*
X147662584Y-132662979D01*
X144183416Y-132662979D01*
X144089208Y-132483152D01*
X143626007Y-132324178D01*
X143137228Y-132354565D01*
X142826792Y-132483152D01*
X142732584Y-132662979D01*
X137683416Y-132662979D01*
X137589208Y-132483152D01*
X137126007Y-132324178D01*
X136637228Y-132354565D01*
X136326792Y-132483152D01*
X136232584Y-132662979D01*
X132753416Y-132662979D01*
X132659208Y-132483152D01*
X132196007Y-132324178D01*
X131707228Y-132354565D01*
X131396792Y-132483152D01*
X131302584Y-132662979D01*
X126253416Y-132662979D01*
X126159208Y-132483152D01*
X125696007Y-132324178D01*
X125207228Y-132354565D01*
X124896792Y-132483152D01*
X124802584Y-132662979D01*
X121323416Y-132662979D01*
X121229208Y-132483152D01*
X120766007Y-132324178D01*
X120277228Y-132354565D01*
X119966792Y-132483152D01*
X119872584Y-132662979D01*
X114823416Y-132662979D01*
X114729208Y-132483152D01*
X114266007Y-132324178D01*
X113777228Y-132354565D01*
X113466792Y-132483152D01*
X113372584Y-132662979D01*
X109701000Y-132662979D01*
X109701000Y-129311787D01*
X112866787Y-129311787D01*
X113053800Y-129764395D01*
X113399784Y-130110983D01*
X113852065Y-130298786D01*
X114341787Y-130299213D01*
X114794395Y-130112200D01*
X115140983Y-129766216D01*
X115328786Y-129313935D01*
X115328787Y-129311787D01*
X119366787Y-129311787D01*
X119553800Y-129764395D01*
X119899784Y-130110983D01*
X120352065Y-130298786D01*
X120841787Y-130299213D01*
X121294395Y-130112200D01*
X121640983Y-129766216D01*
X121828786Y-129313935D01*
X121828787Y-129311787D01*
X124296787Y-129311787D01*
X124483800Y-129764395D01*
X124829784Y-130110983D01*
X125282065Y-130298786D01*
X125771787Y-130299213D01*
X126224395Y-130112200D01*
X126344960Y-129991845D01*
X126276226Y-130157376D01*
X126275975Y-130445361D01*
X126385950Y-130711521D01*
X126589408Y-130915335D01*
X126855376Y-131025774D01*
X127143361Y-131026025D01*
X127409521Y-130916050D01*
X127613335Y-130712592D01*
X127723774Y-130446624D01*
X127724025Y-130158639D01*
X127614050Y-129892479D01*
X127457200Y-129735355D01*
X127457200Y-125793426D01*
X127476288Y-125789629D01*
X127880065Y-125519834D01*
X128149860Y-125116057D01*
X128244600Y-124639769D01*
X128244600Y-124280231D01*
X128295400Y-124280231D01*
X128295400Y-124639769D01*
X128390140Y-125116057D01*
X128659935Y-125519834D01*
X129063712Y-125789629D01*
X129082800Y-125793426D01*
X129082800Y-129735546D01*
X128926665Y-129891408D01*
X128816226Y-130157376D01*
X128815975Y-130445361D01*
X128925950Y-130711521D01*
X129129408Y-130915335D01*
X129395376Y-131025774D01*
X129683361Y-131026025D01*
X129949521Y-130916050D01*
X130153335Y-130712592D01*
X130263774Y-130446624D01*
X130264025Y-130158639D01*
X130154050Y-129892479D01*
X129997200Y-129735355D01*
X129997200Y-129311787D01*
X130796787Y-129311787D01*
X130983800Y-129764395D01*
X131329784Y-130110983D01*
X131782065Y-130298786D01*
X132271787Y-130299213D01*
X132724395Y-130112200D01*
X133070983Y-129766216D01*
X133258786Y-129313935D01*
X133258787Y-129311787D01*
X135726787Y-129311787D01*
X135913800Y-129764395D01*
X136259784Y-130110983D01*
X136712065Y-130298786D01*
X137201787Y-130299213D01*
X137654395Y-130112200D01*
X138000983Y-129766216D01*
X138188786Y-129313935D01*
X138188787Y-129311787D01*
X142226787Y-129311787D01*
X142413800Y-129764395D01*
X142759784Y-130110983D01*
X143212065Y-130298786D01*
X143701787Y-130299213D01*
X144154395Y-130112200D01*
X144500983Y-129766216D01*
X144688786Y-129313935D01*
X144688787Y-129311787D01*
X147156787Y-129311787D01*
X147343800Y-129764395D01*
X147689784Y-130110983D01*
X148142065Y-130298786D01*
X148631787Y-130299213D01*
X149084395Y-130112200D01*
X149430983Y-129766216D01*
X149618786Y-129313935D01*
X149618787Y-129311787D01*
X153656787Y-129311787D01*
X153843800Y-129764395D01*
X154189784Y-130110983D01*
X154642065Y-130298786D01*
X155131787Y-130299213D01*
X155584395Y-130112200D01*
X155930983Y-129766216D01*
X156118786Y-129313935D01*
X156119213Y-128824213D01*
X155932200Y-128371605D01*
X155586216Y-128025017D01*
X155133935Y-127837214D01*
X154644213Y-127836787D01*
X154191605Y-128023800D01*
X153845017Y-128369784D01*
X153657214Y-128822065D01*
X153656787Y-129311787D01*
X149618787Y-129311787D01*
X149619213Y-128824213D01*
X149432200Y-128371605D01*
X149086216Y-128025017D01*
X148633935Y-127837214D01*
X148144213Y-127836787D01*
X147691605Y-128023800D01*
X147345017Y-128369784D01*
X147157214Y-128822065D01*
X147156787Y-129311787D01*
X144688787Y-129311787D01*
X144689213Y-128824213D01*
X144502200Y-128371605D01*
X144156216Y-128025017D01*
X143703935Y-127837214D01*
X143214213Y-127836787D01*
X142761605Y-128023800D01*
X142415017Y-128369784D01*
X142227214Y-128822065D01*
X142226787Y-129311787D01*
X138188787Y-129311787D01*
X138189213Y-128824213D01*
X138002200Y-128371605D01*
X137656216Y-128025017D01*
X137203935Y-127837214D01*
X136714213Y-127836787D01*
X136261605Y-128023800D01*
X135915017Y-128369784D01*
X135727214Y-128822065D01*
X135726787Y-129311787D01*
X133258787Y-129311787D01*
X133259213Y-128824213D01*
X133072200Y-128371605D01*
X132726216Y-128025017D01*
X132273935Y-127837214D01*
X131784213Y-127836787D01*
X131331605Y-128023800D01*
X130985017Y-128369784D01*
X130797214Y-128822065D01*
X130796787Y-129311787D01*
X129997200Y-129311787D01*
X129997200Y-125793426D01*
X130016288Y-125789629D01*
X130420065Y-125519834D01*
X130689860Y-125116057D01*
X130784600Y-124639769D01*
X130784600Y-124280231D01*
X130689860Y-123803943D01*
X130420065Y-123400166D01*
X130016288Y-123130371D01*
X129997200Y-123126574D01*
X129997200Y-122809696D01*
X130006602Y-122856963D01*
X130105711Y-123005289D01*
X130486711Y-123386289D01*
X130635037Y-123485398D01*
X130810000Y-123520200D01*
X131119731Y-123520200D01*
X130930140Y-123803943D01*
X130835400Y-124280231D01*
X130835400Y-124639769D01*
X130930140Y-125116057D01*
X131199935Y-125519834D01*
X131603712Y-125789629D01*
X132080000Y-125884369D01*
X132556288Y-125789629D01*
X132960065Y-125519834D01*
X133229860Y-125116057D01*
X133324600Y-124639769D01*
X133324600Y-124280231D01*
X133229860Y-123803943D01*
X132960065Y-123400166D01*
X132569502Y-123139200D01*
X133795622Y-123139200D01*
X133929755Y-123273333D01*
X133739935Y-123400166D01*
X133470140Y-123803943D01*
X133375400Y-124280231D01*
X133375400Y-124639769D01*
X133470140Y-125116057D01*
X133739935Y-125519834D01*
X134143712Y-125789629D01*
X134620000Y-125884369D01*
X135096288Y-125789629D01*
X135500065Y-125519834D01*
X135769860Y-125116057D01*
X135864600Y-124639769D01*
X135864600Y-124280231D01*
X135769860Y-123803943D01*
X135665128Y-123647200D01*
X135700622Y-123647200D01*
X135984793Y-123931371D01*
X135915400Y-124280231D01*
X135915400Y-124639769D01*
X136010140Y-125116057D01*
X136279935Y-125519834D01*
X136683712Y-125789629D01*
X137160000Y-125884369D01*
X137636288Y-125789629D01*
X138040065Y-125519834D01*
X138309860Y-125116057D01*
X138404600Y-124639769D01*
X138404600Y-124280231D01*
X138351202Y-124011780D01*
X138482651Y-124143230D01*
X138455400Y-124280231D01*
X138455400Y-124639769D01*
X138550140Y-125116057D01*
X138819935Y-125519834D01*
X139223712Y-125789629D01*
X139700000Y-125884369D01*
X140176288Y-125789629D01*
X140580065Y-125519834D01*
X140849860Y-125116057D01*
X140944600Y-124639769D01*
X140944600Y-124280231D01*
X140849860Y-123803943D01*
X140745128Y-123647200D01*
X140780622Y-123647200D01*
X141064793Y-123931371D01*
X140995400Y-124280231D01*
X140995400Y-124639769D01*
X141090140Y-125116057D01*
X141359935Y-125519834D01*
X141763712Y-125789629D01*
X142240000Y-125884369D01*
X142716288Y-125789629D01*
X143120065Y-125519834D01*
X143389860Y-125116057D01*
X143484600Y-124639769D01*
X143484600Y-124280231D01*
X143389860Y-123803943D01*
X143213656Y-123540234D01*
X143604793Y-123931371D01*
X143535400Y-124280231D01*
X143535400Y-124639769D01*
X143630140Y-125116057D01*
X143899935Y-125519834D01*
X144303712Y-125789629D01*
X144780000Y-125884369D01*
X145256288Y-125789629D01*
X145660065Y-125519834D01*
X145929860Y-125116057D01*
X146024600Y-124639769D01*
X146024600Y-124280231D01*
X145929860Y-123803943D01*
X145753656Y-123540234D01*
X146144793Y-123931371D01*
X146075400Y-124280231D01*
X146075400Y-124639769D01*
X146170140Y-125116057D01*
X146439935Y-125519834D01*
X146843712Y-125789629D01*
X147320000Y-125884369D01*
X147796288Y-125789629D01*
X148200065Y-125519834D01*
X148469860Y-125116057D01*
X148564600Y-124639769D01*
X148564600Y-124280231D01*
X148469860Y-123803943D01*
X148293656Y-123540234D01*
X148684793Y-123931371D01*
X148615400Y-124280231D01*
X148615400Y-124639769D01*
X148710140Y-125116057D01*
X148979935Y-125519834D01*
X149383712Y-125789629D01*
X149402800Y-125793426D01*
X149402800Y-125925546D01*
X149246665Y-126081408D01*
X149136226Y-126347376D01*
X149135975Y-126635361D01*
X149245950Y-126901521D01*
X149449408Y-127105335D01*
X149715376Y-127215774D01*
X150003361Y-127216025D01*
X150269521Y-127106050D01*
X150473335Y-126902592D01*
X150583774Y-126636624D01*
X150584025Y-126348639D01*
X150474050Y-126082479D01*
X150317200Y-125925355D01*
X150317200Y-125793426D01*
X150336288Y-125789629D01*
X150740065Y-125519834D01*
X151009860Y-125116057D01*
X151104600Y-124639769D01*
X151104600Y-124280231D01*
X151009860Y-123803943D01*
X150833655Y-123540234D01*
X151147936Y-123854515D01*
X151147936Y-125476000D01*
X151174503Y-125617190D01*
X151257946Y-125746865D01*
X151385266Y-125833859D01*
X151536400Y-125864464D01*
X151942800Y-125864464D01*
X151942800Y-126687546D01*
X151786665Y-126843408D01*
X151676226Y-127109376D01*
X151675975Y-127397361D01*
X151785950Y-127663521D01*
X151989408Y-127867335D01*
X152255376Y-127977774D01*
X152543361Y-127978025D01*
X152809521Y-127868050D01*
X153013335Y-127664592D01*
X153123774Y-127398624D01*
X153124025Y-127110639D01*
X153014050Y-126844479D01*
X152857200Y-126687355D01*
X152857200Y-125864464D01*
X153263600Y-125864464D01*
X153404790Y-125837897D01*
X153534465Y-125754454D01*
X153621459Y-125627134D01*
X153652064Y-125476000D01*
X153652064Y-124429870D01*
X154558583Y-124429870D01*
X154925166Y-125317069D01*
X155603361Y-125996449D01*
X156489919Y-126364580D01*
X157449870Y-126365417D01*
X158337069Y-125998834D01*
X159016449Y-125320639D01*
X159384580Y-124434081D01*
X159385417Y-123474130D01*
X159018834Y-122586931D01*
X158340639Y-121907551D01*
X157454081Y-121539420D01*
X156494130Y-121538583D01*
X155606931Y-121905166D01*
X154927551Y-122583361D01*
X154559420Y-123469919D01*
X154558583Y-124429870D01*
X153652064Y-124429870D01*
X153652064Y-123444000D01*
X153625497Y-123302810D01*
X153542054Y-123173135D01*
X153414734Y-123086141D01*
X153263600Y-123055536D01*
X151642115Y-123055536D01*
X150005487Y-121418909D01*
X149857161Y-121319800D01*
X149682198Y-121284998D01*
X140092576Y-121284998D01*
X139515289Y-120707711D01*
X139366963Y-120608602D01*
X139192000Y-120573800D01*
X139002300Y-120573800D01*
X138917050Y-120367479D01*
X138713592Y-120163665D01*
X138447624Y-120053226D01*
X138159639Y-120052975D01*
X137893479Y-120162950D01*
X137731507Y-120324639D01*
X137697592Y-120290665D01*
X137431624Y-120180226D01*
X137143639Y-120179975D01*
X136877479Y-120289950D01*
X136770246Y-120396996D01*
X136758050Y-120367479D01*
X136554592Y-120163665D01*
X136288624Y-120053226D01*
X136000639Y-120052975D01*
X135734479Y-120162950D01*
X135530665Y-120366408D01*
X135480589Y-120487005D01*
X135284592Y-120290665D01*
X135018624Y-120180226D01*
X134730639Y-120179975D01*
X134464479Y-120289950D01*
X134264039Y-120490040D01*
X134129624Y-120434226D01*
X133841639Y-120433975D01*
X133575479Y-120543950D01*
X133540618Y-120578750D01*
X133506592Y-120544665D01*
X133240624Y-120434226D01*
X132952639Y-120433975D01*
X132686479Y-120543950D01*
X132651618Y-120578750D01*
X132617592Y-120544665D01*
X132351624Y-120434226D01*
X132063639Y-120433975D01*
X131797479Y-120543950D01*
X131762618Y-120578750D01*
X131728592Y-120544665D01*
X131462624Y-120434226D01*
X131174639Y-120433975D01*
X130908479Y-120543950D01*
X130873618Y-120578750D01*
X130839592Y-120544665D01*
X130573624Y-120434226D01*
X130285639Y-120433975D01*
X130019479Y-120543950D01*
X129984618Y-120578750D01*
X129950592Y-120544665D01*
X129684624Y-120434226D01*
X129396639Y-120433975D01*
X129130479Y-120543950D01*
X128926665Y-120747408D01*
X128816226Y-121013376D01*
X128815975Y-121301361D01*
X128925950Y-121567521D01*
X129082800Y-121724645D01*
X129082800Y-123126574D01*
X129063712Y-123130371D01*
X128659935Y-123400166D01*
X128390140Y-123803943D01*
X128295400Y-124280231D01*
X128244600Y-124280231D01*
X128149860Y-123803943D01*
X127880065Y-123400166D01*
X127476288Y-123130371D01*
X127457200Y-123126574D01*
X127457200Y-121216454D01*
X127613335Y-121060592D01*
X127723774Y-120794624D01*
X127724025Y-120506639D01*
X127614050Y-120240479D01*
X127410592Y-120036665D01*
X127144624Y-119926226D01*
X126856639Y-119925975D01*
X126590479Y-120035950D01*
X126386665Y-120239408D01*
X126276226Y-120505376D01*
X126275975Y-120793361D01*
X126385950Y-121059521D01*
X126542800Y-121216645D01*
X126542800Y-123126574D01*
X126523712Y-123130371D01*
X126119935Y-123400166D01*
X125850140Y-123803943D01*
X125755400Y-124280231D01*
X125755400Y-124639769D01*
X125850140Y-125116057D01*
X126119935Y-125519834D01*
X126523712Y-125789629D01*
X126542800Y-125793426D01*
X126542800Y-128342154D01*
X126226216Y-128025017D01*
X125773935Y-127837214D01*
X125284213Y-127836787D01*
X124831605Y-128023800D01*
X124485017Y-128369784D01*
X124297214Y-128822065D01*
X124296787Y-129311787D01*
X121828787Y-129311787D01*
X121829213Y-128824213D01*
X121642200Y-128371605D01*
X121296216Y-128025017D01*
X120843935Y-127837214D01*
X120354213Y-127836787D01*
X119901605Y-128023800D01*
X119555017Y-128369784D01*
X119367214Y-128822065D01*
X119366787Y-129311787D01*
X115328787Y-129311787D01*
X115329213Y-128824213D01*
X115142200Y-128371605D01*
X114796216Y-128025017D01*
X114343935Y-127837214D01*
X113854213Y-127836787D01*
X113401605Y-128023800D01*
X113055017Y-128369784D01*
X112867214Y-128822065D01*
X112866787Y-129311787D01*
X109701000Y-129311787D01*
X109701000Y-124429870D01*
X109854583Y-124429870D01*
X110221166Y-125317069D01*
X110899361Y-125996449D01*
X111785919Y-126364580D01*
X112745870Y-126365417D01*
X113633069Y-125998834D01*
X114312449Y-125320639D01*
X114536022Y-124782213D01*
X115605473Y-124782213D01*
X115764430Y-125241720D01*
X116087133Y-125605419D01*
X116520882Y-125815393D01*
X116713000Y-125754712D01*
X116713000Y-124587000D01*
X116967000Y-124587000D01*
X116967000Y-125754712D01*
X117159118Y-125815393D01*
X117592867Y-125605419D01*
X117915570Y-125241720D01*
X118074527Y-124782213D01*
X117990643Y-124587000D01*
X116967000Y-124587000D01*
X116713000Y-124587000D01*
X115689357Y-124587000D01*
X115605473Y-124782213D01*
X114536022Y-124782213D01*
X114680580Y-124434081D01*
X114680838Y-124137787D01*
X115605473Y-124137787D01*
X115689357Y-124333000D01*
X116713000Y-124333000D01*
X116713000Y-123165288D01*
X116967000Y-123165288D01*
X116967000Y-124333000D01*
X117990643Y-124333000D01*
X118013318Y-124280231D01*
X118135400Y-124280231D01*
X118135400Y-124639769D01*
X118230140Y-125116057D01*
X118499935Y-125519834D01*
X118903712Y-125789629D01*
X119380000Y-125884369D01*
X119856288Y-125789629D01*
X120260065Y-125519834D01*
X120529860Y-125116057D01*
X120596265Y-124782213D01*
X120685473Y-124782213D01*
X120844430Y-125241720D01*
X121167133Y-125605419D01*
X121600882Y-125815393D01*
X121793000Y-125754712D01*
X121793000Y-124587000D01*
X122047000Y-124587000D01*
X122047000Y-125754712D01*
X122239118Y-125815393D01*
X122672867Y-125605419D01*
X122995570Y-125241720D01*
X123154527Y-124782213D01*
X123070643Y-124587000D01*
X122047000Y-124587000D01*
X121793000Y-124587000D01*
X120769357Y-124587000D01*
X120685473Y-124782213D01*
X120596265Y-124782213D01*
X120624600Y-124639769D01*
X120624600Y-124280231D01*
X120596266Y-124137787D01*
X120685473Y-124137787D01*
X120769357Y-124333000D01*
X121793000Y-124333000D01*
X121793000Y-123165288D01*
X122047000Y-123165288D01*
X122047000Y-124333000D01*
X123070643Y-124333000D01*
X123093318Y-124280231D01*
X123215400Y-124280231D01*
X123215400Y-124639769D01*
X123310140Y-125116057D01*
X123579935Y-125519834D01*
X123983712Y-125789629D01*
X124460000Y-125884369D01*
X124936288Y-125789629D01*
X125340065Y-125519834D01*
X125609860Y-125116057D01*
X125704600Y-124639769D01*
X125704600Y-124280231D01*
X125609860Y-123803943D01*
X125340065Y-123400166D01*
X124936288Y-123130371D01*
X124460000Y-123035631D01*
X123983712Y-123130371D01*
X123579935Y-123400166D01*
X123310140Y-123803943D01*
X123215400Y-124280231D01*
X123093318Y-124280231D01*
X123154527Y-124137787D01*
X122995570Y-123678280D01*
X122672867Y-123314581D01*
X122239118Y-123104607D01*
X122047000Y-123165288D01*
X121793000Y-123165288D01*
X121600882Y-123104607D01*
X121167133Y-123314581D01*
X120844430Y-123678280D01*
X120685473Y-124137787D01*
X120596266Y-124137787D01*
X120529860Y-123803943D01*
X120260065Y-123400166D01*
X119856288Y-123130371D01*
X119380000Y-123035631D01*
X118903712Y-123130371D01*
X118499935Y-123400166D01*
X118230140Y-123803943D01*
X118135400Y-124280231D01*
X118013318Y-124280231D01*
X118074527Y-124137787D01*
X117915570Y-123678280D01*
X117592867Y-123314581D01*
X117159118Y-123104607D01*
X116967000Y-123165288D01*
X116713000Y-123165288D01*
X116520882Y-123104607D01*
X116087133Y-123314581D01*
X115764430Y-123678280D01*
X115605473Y-124137787D01*
X114680838Y-124137787D01*
X114681417Y-123474130D01*
X114314834Y-122586931D01*
X113636639Y-121907551D01*
X112750081Y-121539420D01*
X111790130Y-121538583D01*
X110902931Y-121905166D01*
X110223551Y-122583361D01*
X109855420Y-123469919D01*
X109854583Y-124429870D01*
X109701000Y-124429870D01*
X109701000Y-117981036D01*
X119772234Y-117981036D01*
X119944142Y-118397086D01*
X120262180Y-118715679D01*
X120677929Y-118888313D01*
X121128096Y-118888706D01*
X121544146Y-118716798D01*
X121862739Y-118398760D01*
X122035373Y-117983011D01*
X122035766Y-117532844D01*
X121863858Y-117116794D01*
X121545820Y-116798201D01*
X121130071Y-116625567D01*
X120679904Y-116625174D01*
X120263854Y-116797082D01*
X119945261Y-117115120D01*
X119772627Y-117530869D01*
X119772234Y-117981036D01*
X109701000Y-117981036D01*
X109701000Y-113099156D01*
X119772234Y-113099156D01*
X119944142Y-113515206D01*
X119970297Y-113541406D01*
X119973602Y-113558023D01*
X120072711Y-113706349D01*
X120221037Y-113805458D01*
X120237072Y-113808648D01*
X120262180Y-113833799D01*
X120677929Y-114006433D01*
X121128096Y-114006826D01*
X121544146Y-113834918D01*
X121862739Y-113516880D01*
X121939400Y-113332260D01*
X122722655Y-113332260D01*
X122906408Y-113516335D01*
X123172376Y-113626774D01*
X123460361Y-113627025D01*
X123726521Y-113517050D01*
X123930335Y-113313592D01*
X124040774Y-113047624D01*
X124040817Y-112998250D01*
X129437000Y-112998250D01*
X129437000Y-113476785D01*
X129495004Y-113616819D01*
X129602180Y-113723996D01*
X129742214Y-113782000D01*
X130095750Y-113782000D01*
X130191000Y-113686750D01*
X130191000Y-112903000D01*
X130445000Y-112903000D01*
X130445000Y-113686750D01*
X130540250Y-113782000D01*
X130893786Y-113782000D01*
X131033820Y-113723996D01*
X131140996Y-113616819D01*
X131199000Y-113476785D01*
X131199000Y-112998250D01*
X131103750Y-112903000D01*
X130445000Y-112903000D01*
X130191000Y-112903000D01*
X129532250Y-112903000D01*
X129437000Y-112998250D01*
X124040817Y-112998250D01*
X124041025Y-112759639D01*
X123931050Y-112493479D01*
X123727592Y-112289665D01*
X123461624Y-112179226D01*
X123173639Y-112178975D01*
X122907479Y-112288950D01*
X122778343Y-112417860D01*
X121939450Y-112417860D01*
X121863858Y-112234914D01*
X121704438Y-112075215D01*
X129437000Y-112075215D01*
X129437000Y-112553750D01*
X129532250Y-112649000D01*
X130191000Y-112649000D01*
X130191000Y-111865250D01*
X130445000Y-111865250D01*
X130445000Y-112649000D01*
X131103750Y-112649000D01*
X131199000Y-112553750D01*
X131199000Y-112075215D01*
X131140996Y-111935181D01*
X131033820Y-111828004D01*
X130893786Y-111770000D01*
X130540250Y-111770000D01*
X130445000Y-111865250D01*
X130191000Y-111865250D01*
X130095750Y-111770000D01*
X129742214Y-111770000D01*
X129602180Y-111828004D01*
X129495004Y-111935181D01*
X129437000Y-112075215D01*
X121704438Y-112075215D01*
X121545820Y-111916321D01*
X121130071Y-111743687D01*
X120679904Y-111743294D01*
X120263854Y-111915202D01*
X119945261Y-112233240D01*
X119772627Y-112648989D01*
X119772234Y-113099156D01*
X109701000Y-113099156D01*
X109701000Y-110546666D01*
X109701932Y-110548061D01*
X109987749Y-110739038D01*
X110324893Y-110806100D01*
X110920187Y-110806100D01*
X111257331Y-110739038D01*
X111543148Y-110548061D01*
X111734125Y-110262244D01*
X111801187Y-109925100D01*
X111734125Y-109587956D01*
X111543148Y-109302139D01*
X111257331Y-109111162D01*
X110920187Y-109044100D01*
X110324893Y-109044100D01*
X109987749Y-109111162D01*
X109701932Y-109302139D01*
X109701000Y-109303534D01*
X109701000Y-108755391D01*
X112466540Y-108755391D01*
X112466540Y-109094809D01*
X112531699Y-109422386D01*
X112717257Y-109700092D01*
X112994963Y-109885650D01*
X113322540Y-109950809D01*
X113650117Y-109885650D01*
X113927823Y-109700092D01*
X114113381Y-109422386D01*
X114167362Y-109151000D01*
X125209536Y-109151000D01*
X125209536Y-110901000D01*
X125236103Y-111042190D01*
X125319546Y-111171865D01*
X125446866Y-111258859D01*
X125598000Y-111289464D01*
X126048000Y-111289464D01*
X126151670Y-111269957D01*
X126248000Y-111289464D01*
X126698000Y-111289464D01*
X126801670Y-111269957D01*
X126898000Y-111289464D01*
X127348000Y-111289464D01*
X127451670Y-111269957D01*
X127548000Y-111289464D01*
X127998000Y-111289464D01*
X128101670Y-111269957D01*
X128198000Y-111289464D01*
X128648000Y-111289464D01*
X128751670Y-111269957D01*
X128848000Y-111289464D01*
X129298000Y-111289464D01*
X129401670Y-111269957D01*
X129498000Y-111289464D01*
X129948000Y-111289464D01*
X130045805Y-111271061D01*
X130072215Y-111282000D01*
X130165250Y-111282000D01*
X130260500Y-111186750D01*
X130260500Y-111118519D01*
X130305859Y-111052134D01*
X130336464Y-110901000D01*
X130336464Y-109151000D01*
X130309897Y-109009810D01*
X130260500Y-108933044D01*
X130260500Y-108865250D01*
X130165250Y-108770000D01*
X130072215Y-108770000D01*
X130043531Y-108781881D01*
X129948000Y-108762536D01*
X129498000Y-108762536D01*
X129394330Y-108782043D01*
X129298000Y-108762536D01*
X128848000Y-108762536D01*
X128744330Y-108782043D01*
X128648000Y-108762536D01*
X128198000Y-108762536D01*
X128094330Y-108782043D01*
X127998000Y-108762536D01*
X127548000Y-108762536D01*
X127444330Y-108782043D01*
X127348000Y-108762536D01*
X126898000Y-108762536D01*
X126794330Y-108782043D01*
X126698000Y-108762536D01*
X126248000Y-108762536D01*
X126144330Y-108782043D01*
X126048000Y-108762536D01*
X125598000Y-108762536D01*
X125456810Y-108789103D01*
X125327135Y-108872546D01*
X125240141Y-108999866D01*
X125209536Y-109151000D01*
X114167362Y-109151000D01*
X114178540Y-109094809D01*
X114178540Y-108755391D01*
X114113381Y-108427814D01*
X113927823Y-108150108D01*
X113650117Y-107964550D01*
X113322540Y-107899391D01*
X112994963Y-107964550D01*
X112717257Y-108150108D01*
X112531699Y-108427814D01*
X112466540Y-108755391D01*
X109701000Y-108755391D01*
X109701000Y-107585361D01*
X129323975Y-107585361D01*
X129433950Y-107851521D01*
X129637408Y-108055335D01*
X129903376Y-108165774D01*
X130191361Y-108166025D01*
X130457521Y-108056050D01*
X130661335Y-107852592D01*
X130747451Y-107645200D01*
X130914737Y-107645200D01*
X130848226Y-107805376D01*
X130847975Y-108093361D01*
X130957950Y-108359521D01*
X131161408Y-108563335D01*
X131215800Y-108585920D01*
X131215800Y-108762536D01*
X130798000Y-108762536D01*
X130700195Y-108780939D01*
X130673785Y-108770000D01*
X130580750Y-108770000D01*
X130485500Y-108865250D01*
X130485500Y-108933481D01*
X130440141Y-108999866D01*
X130409536Y-109151000D01*
X130409536Y-110901000D01*
X130436103Y-111042190D01*
X130485500Y-111118956D01*
X130485500Y-111186750D01*
X130580750Y-111282000D01*
X130673785Y-111282000D01*
X130702469Y-111270119D01*
X130798000Y-111289464D01*
X131248000Y-111289464D01*
X131351670Y-111269957D01*
X131448000Y-111289464D01*
X131751500Y-111289464D01*
X131751500Y-111775049D01*
X131676810Y-111789103D01*
X131547135Y-111872546D01*
X131460141Y-111999866D01*
X131429536Y-112151000D01*
X131429536Y-113401000D01*
X131456103Y-113542190D01*
X131539546Y-113671865D01*
X131666866Y-113758859D01*
X131818000Y-113789464D01*
X132818000Y-113789464D01*
X132959190Y-113762897D01*
X133088865Y-113679454D01*
X133146800Y-113594663D01*
X133146800Y-113665000D01*
X133181602Y-113839963D01*
X133280711Y-113988289D01*
X133534711Y-114242289D01*
X133683037Y-114341398D01*
X133858000Y-114376200D01*
X134874000Y-114376200D01*
X135048963Y-114341398D01*
X135197289Y-114242289D01*
X135578289Y-113861289D01*
X135653171Y-113749221D01*
X135703866Y-113783859D01*
X135855000Y-113814464D01*
X136555000Y-113814464D01*
X136696190Y-113787897D01*
X136825865Y-113704454D01*
X136912859Y-113577134D01*
X136943464Y-113426000D01*
X136943464Y-113046361D01*
X150659975Y-113046361D01*
X150769950Y-113312521D01*
X150973408Y-113516335D01*
X151239376Y-113626774D01*
X151527361Y-113627025D01*
X151584267Y-113603512D01*
X151638000Y-113614200D01*
X153339800Y-113614200D01*
X153339800Y-116205000D01*
X153374602Y-116379963D01*
X153473711Y-116528289D01*
X154040336Y-117094914D01*
X154019757Y-117125712D01*
X153925017Y-117602000D01*
X154019757Y-118078288D01*
X154289552Y-118482065D01*
X154693329Y-118751860D01*
X155169617Y-118846600D01*
X155218383Y-118846600D01*
X155694671Y-118751860D01*
X156098448Y-118482065D01*
X156368243Y-118078288D01*
X156399506Y-117921118D01*
X156531007Y-117921118D01*
X156657695Y-118227001D01*
X156978801Y-118591310D01*
X157414880Y-118805005D01*
X157607000Y-118744865D01*
X157607000Y-117729000D01*
X157861000Y-117729000D01*
X157861000Y-118744865D01*
X158053120Y-118805005D01*
X158489199Y-118591310D01*
X158810305Y-118227001D01*
X158936993Y-117921118D01*
X158876312Y-117729000D01*
X157861000Y-117729000D01*
X157607000Y-117729000D01*
X156591688Y-117729000D01*
X156531007Y-117921118D01*
X156399506Y-117921118D01*
X156462983Y-117602000D01*
X156399507Y-117282882D01*
X156531007Y-117282882D01*
X156591688Y-117475000D01*
X157607000Y-117475000D01*
X157607000Y-116459135D01*
X157861000Y-116459135D01*
X157861000Y-117475000D01*
X158876312Y-117475000D01*
X158936993Y-117282882D01*
X158810305Y-116976999D01*
X158489199Y-116612690D01*
X158053120Y-116398995D01*
X157861000Y-116459135D01*
X157607000Y-116459135D01*
X157414880Y-116398995D01*
X156978801Y-116612690D01*
X156657695Y-116976999D01*
X156531007Y-117282882D01*
X156399507Y-117282882D01*
X156368243Y-117125712D01*
X156098448Y-116721935D01*
X155694671Y-116452140D01*
X155218383Y-116357400D01*
X155169617Y-116357400D01*
X154693329Y-116452140D01*
X154691764Y-116453186D01*
X154254200Y-116015622D01*
X154254200Y-115889157D01*
X154289552Y-115942065D01*
X154693329Y-116211860D01*
X155169617Y-116306600D01*
X155218383Y-116306600D01*
X155694671Y-116211860D01*
X156098448Y-115942065D01*
X156368243Y-115538288D01*
X156462983Y-115062000D01*
X156465017Y-115062000D01*
X156559757Y-115538288D01*
X156829552Y-115942065D01*
X157233329Y-116211860D01*
X157709617Y-116306600D01*
X157758383Y-116306600D01*
X158234671Y-116211860D01*
X158638448Y-115942065D01*
X158908243Y-115538288D01*
X159002983Y-115062000D01*
X158908243Y-114585712D01*
X158638448Y-114181935D01*
X158234671Y-113912140D01*
X157758383Y-113817400D01*
X157709617Y-113817400D01*
X157233329Y-113912140D01*
X156829552Y-114181935D01*
X156559757Y-114585712D01*
X156465017Y-115062000D01*
X156462983Y-115062000D01*
X156368243Y-114585712D01*
X156098448Y-114181935D01*
X155694671Y-113912140D01*
X155218383Y-113817400D01*
X155169617Y-113817400D01*
X154693329Y-113912140D01*
X154289552Y-114181935D01*
X154254200Y-114234843D01*
X154254200Y-113758633D01*
X154330400Y-113774064D01*
X156057600Y-113774064D01*
X156198790Y-113747497D01*
X156328465Y-113664054D01*
X156415459Y-113536734D01*
X156446064Y-113385600D01*
X156446064Y-112522000D01*
X156465017Y-112522000D01*
X156559757Y-112998288D01*
X156829552Y-113402065D01*
X157233329Y-113671860D01*
X157709617Y-113766600D01*
X157758383Y-113766600D01*
X158234671Y-113671860D01*
X158638448Y-113402065D01*
X158908243Y-112998288D01*
X159002983Y-112522000D01*
X158908243Y-112045712D01*
X158638448Y-111641935D01*
X158234671Y-111372140D01*
X157758383Y-111277400D01*
X157709617Y-111277400D01*
X157233329Y-111372140D01*
X156829552Y-111641935D01*
X156559757Y-112045712D01*
X156465017Y-112522000D01*
X156446064Y-112522000D01*
X156446064Y-111658400D01*
X156419497Y-111517210D01*
X156336054Y-111387535D01*
X156208734Y-111300541D01*
X156057600Y-111269936D01*
X154330400Y-111269936D01*
X154189210Y-111296503D01*
X154059535Y-111379946D01*
X153972541Y-111507266D01*
X153941936Y-111658400D01*
X153941936Y-112909358D01*
X153866289Y-112833711D01*
X153717963Y-112734602D01*
X153543000Y-112699800D01*
X152083300Y-112699800D01*
X151998050Y-112493479D01*
X151794592Y-112289665D01*
X151528624Y-112179226D01*
X151240639Y-112178975D01*
X150974479Y-112288950D01*
X150770665Y-112492408D01*
X150660226Y-112758376D01*
X150659975Y-113046361D01*
X136943464Y-113046361D01*
X136943464Y-112126000D01*
X136916897Y-111984810D01*
X136833454Y-111855135D01*
X136706134Y-111768141D01*
X136555000Y-111737536D01*
X136514114Y-111737536D01*
X135204200Y-110427622D01*
X135204200Y-108966000D01*
X135169398Y-108791037D01*
X135070289Y-108642711D01*
X134468599Y-108041021D01*
X146630584Y-108041021D01*
X146724792Y-108220848D01*
X147187993Y-108379822D01*
X147676772Y-108349435D01*
X147987208Y-108220848D01*
X148081416Y-108041021D01*
X147356000Y-107315605D01*
X146630584Y-108041021D01*
X134468599Y-108041021D01*
X133395571Y-106967993D01*
X146112178Y-106967993D01*
X146142565Y-107456772D01*
X146271152Y-107767208D01*
X146450979Y-107861416D01*
X147176395Y-107136000D01*
X147535605Y-107136000D01*
X148261021Y-107861416D01*
X148440848Y-107767208D01*
X148573813Y-107379787D01*
X150624787Y-107379787D01*
X150811800Y-107832395D01*
X151157784Y-108178983D01*
X151610065Y-108366786D01*
X152099787Y-108367213D01*
X152552395Y-108180200D01*
X152898983Y-107834216D01*
X153086786Y-107381935D01*
X153086955Y-107188000D01*
X154531631Y-107188000D01*
X154637971Y-107722609D01*
X154940803Y-108175828D01*
X155394022Y-108478660D01*
X155928631Y-108585000D01*
X155983369Y-108585000D01*
X156517978Y-108478660D01*
X156971197Y-108175828D01*
X157274029Y-107722609D01*
X157380369Y-107188000D01*
X157274029Y-106653391D01*
X156971197Y-106200172D01*
X156738966Y-106045000D01*
X157047786Y-106045000D01*
X157187820Y-105986996D01*
X157294996Y-105879819D01*
X157353000Y-105739785D01*
X157353000Y-104870250D01*
X157257750Y-104775000D01*
X156083000Y-104775000D01*
X156083000Y-104795000D01*
X155829000Y-104795000D01*
X155829000Y-104775000D01*
X154654250Y-104775000D01*
X154559000Y-104870250D01*
X154559000Y-105739785D01*
X154617004Y-105879819D01*
X154724180Y-105986996D01*
X154864214Y-106045000D01*
X155173034Y-106045000D01*
X154940803Y-106200172D01*
X154637971Y-106653391D01*
X154531631Y-107188000D01*
X153086955Y-107188000D01*
X153087213Y-106892213D01*
X152900200Y-106439605D01*
X152554216Y-106093017D01*
X152101935Y-105905214D01*
X151612213Y-105904787D01*
X151159605Y-106091800D01*
X150813017Y-106437784D01*
X150625214Y-106890065D01*
X150624787Y-107379787D01*
X148573813Y-107379787D01*
X148599822Y-107304007D01*
X148569435Y-106815228D01*
X148440848Y-106504792D01*
X148261021Y-106410584D01*
X147535605Y-107136000D01*
X147176395Y-107136000D01*
X146450979Y-106410584D01*
X146271152Y-106504792D01*
X146112178Y-106967993D01*
X133395571Y-106967993D01*
X133292289Y-106864711D01*
X133143963Y-106765602D01*
X132969000Y-106730800D01*
X130302000Y-106730800D01*
X130248523Y-106741437D01*
X130192624Y-106718226D01*
X129904639Y-106717975D01*
X129638479Y-106827950D01*
X129434665Y-107031408D01*
X129324226Y-107297376D01*
X129323975Y-107585361D01*
X109701000Y-107585361D01*
X109701000Y-106230979D01*
X146630584Y-106230979D01*
X147356000Y-106956395D01*
X148081416Y-106230979D01*
X147987208Y-106051152D01*
X147524007Y-105892178D01*
X147035228Y-105922565D01*
X146724792Y-106051152D01*
X146630584Y-106230979D01*
X109701000Y-106230979D01*
X109701000Y-103546666D01*
X109701932Y-103548061D01*
X109987749Y-103739038D01*
X110324893Y-103806100D01*
X110920187Y-103806100D01*
X111175118Y-103755391D01*
X112466540Y-103755391D01*
X112466540Y-104094809D01*
X112531699Y-104422386D01*
X112717257Y-104700092D01*
X112994963Y-104885650D01*
X113322540Y-104950809D01*
X113650117Y-104885650D01*
X113927823Y-104700092D01*
X114113381Y-104422386D01*
X114178540Y-104094809D01*
X114178540Y-103755391D01*
X114113381Y-103427814D01*
X113927823Y-103150108D01*
X113650117Y-102964550D01*
X113322540Y-102899391D01*
X112994963Y-102964550D01*
X112717257Y-103150108D01*
X112531699Y-103427814D01*
X112466540Y-103755391D01*
X111175118Y-103755391D01*
X111257331Y-103739038D01*
X111543148Y-103548061D01*
X111734125Y-103262244D01*
X111801187Y-102925100D01*
X111734125Y-102587956D01*
X111543148Y-102302139D01*
X111277085Y-102124361D01*
X123354975Y-102124361D01*
X123464950Y-102390521D01*
X123563250Y-102488993D01*
X123465665Y-102586408D01*
X123355226Y-102852376D01*
X123354975Y-103140361D01*
X123464950Y-103406521D01*
X123668408Y-103610335D01*
X123934376Y-103720774D01*
X124222361Y-103721025D01*
X124488521Y-103611050D01*
X124692335Y-103407592D01*
X124778451Y-103200200D01*
X125209536Y-103200200D01*
X125209536Y-103701000D01*
X125236103Y-103842190D01*
X125319546Y-103971865D01*
X125446866Y-104058859D01*
X125598000Y-104089464D01*
X126048000Y-104089464D01*
X126151670Y-104069957D01*
X126248000Y-104089464D01*
X126698000Y-104089464D01*
X126801670Y-104069957D01*
X126898000Y-104089464D01*
X127348000Y-104089464D01*
X127445805Y-104071061D01*
X127472215Y-104082000D01*
X127565250Y-104082000D01*
X127660500Y-103986750D01*
X127660500Y-103918519D01*
X127705859Y-103852134D01*
X127736464Y-103701000D01*
X127736464Y-101951000D01*
X127809536Y-101951000D01*
X127809536Y-103701000D01*
X127836103Y-103842190D01*
X127885500Y-103918956D01*
X127885500Y-103986750D01*
X127980750Y-104082000D01*
X128073785Y-104082000D01*
X128102469Y-104070119D01*
X128198000Y-104089464D01*
X128501500Y-104089464D01*
X128501500Y-104688995D01*
X128501499Y-104689000D01*
X128518606Y-104775000D01*
X128545003Y-104907704D01*
X128573805Y-104950809D01*
X128668888Y-105093112D01*
X129262886Y-105687109D01*
X129262888Y-105687112D01*
X129448296Y-105810997D01*
X129484582Y-105818215D01*
X129667000Y-105854501D01*
X129667005Y-105854500D01*
X130357646Y-105854500D01*
X130399408Y-105896335D01*
X130665376Y-106006774D01*
X130953361Y-106007025D01*
X131219521Y-105897050D01*
X131423335Y-105693592D01*
X131533774Y-105427624D01*
X131534025Y-105139639D01*
X131424050Y-104873479D01*
X131220592Y-104669665D01*
X130954624Y-104559226D01*
X130666639Y-104558975D01*
X130400479Y-104668950D01*
X130357855Y-104711500D01*
X129903723Y-104711500D01*
X129644500Y-104452276D01*
X129644500Y-103868758D01*
X129655859Y-103852134D01*
X129686464Y-103701000D01*
X129686464Y-101951000D01*
X129759536Y-101951000D01*
X129759536Y-103701000D01*
X129786103Y-103842190D01*
X129835500Y-103918956D01*
X129835500Y-103986750D01*
X129930750Y-104082000D01*
X130023785Y-104082000D01*
X130052469Y-104070119D01*
X130148000Y-104089464D01*
X130598000Y-104089464D01*
X130701670Y-104069957D01*
X130798000Y-104089464D01*
X131248000Y-104089464D01*
X131351670Y-104069957D01*
X131448000Y-104089464D01*
X131898000Y-104089464D01*
X131995805Y-104071061D01*
X132022215Y-104082000D01*
X132115250Y-104082000D01*
X132210500Y-103986750D01*
X132210500Y-103918519D01*
X132255859Y-103852134D01*
X132286464Y-103701000D01*
X132286464Y-103048250D01*
X132367000Y-103048250D01*
X132367000Y-103776786D01*
X132425004Y-103916820D01*
X132435500Y-103927316D01*
X132435500Y-103986750D01*
X132530750Y-104082000D01*
X132623785Y-104082000D01*
X132648000Y-104071970D01*
X132672215Y-104082000D01*
X132765250Y-104082000D01*
X132860500Y-103986750D01*
X132860500Y-103927316D01*
X132870996Y-103916820D01*
X132929000Y-103776786D01*
X132929000Y-103048250D01*
X132860500Y-102979750D01*
X132860500Y-102953000D01*
X132435500Y-102953000D01*
X132435500Y-102979750D01*
X132367000Y-103048250D01*
X132286464Y-103048250D01*
X132286464Y-102679000D01*
X132435500Y-102679000D01*
X132435500Y-102699000D01*
X132860500Y-102699000D01*
X132860500Y-102679000D01*
X133009536Y-102679000D01*
X133009536Y-103701000D01*
X133036103Y-103842190D01*
X133085500Y-103918956D01*
X133085500Y-103986750D01*
X133180750Y-104082000D01*
X133273785Y-104082000D01*
X133302469Y-104070119D01*
X133398000Y-104089464D01*
X133848000Y-104089464D01*
X133951670Y-104069957D01*
X134048000Y-104089464D01*
X134498000Y-104089464D01*
X134639190Y-104062897D01*
X134768865Y-103979454D01*
X134855859Y-103852134D01*
X134886464Y-103701000D01*
X134886464Y-103556215D01*
X154559000Y-103556215D01*
X154559000Y-104425750D01*
X154654250Y-104521000D01*
X155829000Y-104521000D01*
X155829000Y-103346250D01*
X156083000Y-103346250D01*
X156083000Y-104521000D01*
X157257750Y-104521000D01*
X157353000Y-104425750D01*
X157353000Y-103556215D01*
X157294996Y-103416181D01*
X157187820Y-103309004D01*
X157047786Y-103251000D01*
X156178250Y-103251000D01*
X156083000Y-103346250D01*
X155829000Y-103346250D01*
X155733750Y-103251000D01*
X154864214Y-103251000D01*
X154724180Y-103309004D01*
X154617004Y-103416181D01*
X154559000Y-103556215D01*
X134886464Y-103556215D01*
X134886464Y-101951000D01*
X134859897Y-101809810D01*
X134784089Y-101692000D01*
X137645536Y-101692000D01*
X137645536Y-102392000D01*
X137672103Y-102533190D01*
X137755546Y-102662865D01*
X137882866Y-102749859D01*
X138034000Y-102780464D01*
X139334000Y-102780464D01*
X139475190Y-102753897D01*
X139604865Y-102670454D01*
X139691859Y-102543134D01*
X139700756Y-102499200D01*
X140967707Y-102499200D01*
X140974103Y-102533190D01*
X141057546Y-102662865D01*
X141184866Y-102749859D01*
X141336000Y-102780464D01*
X142636000Y-102780464D01*
X142777190Y-102753897D01*
X142906865Y-102670454D01*
X142993859Y-102543134D01*
X143002756Y-102499200D01*
X143068000Y-102499200D01*
X143242963Y-102464398D01*
X143391289Y-102365289D01*
X143432745Y-102323833D01*
X143653361Y-102324025D01*
X143919521Y-102214050D01*
X144123335Y-102010592D01*
X144233774Y-101744624D01*
X144233951Y-101541021D01*
X146630584Y-101541021D01*
X146724792Y-101720848D01*
X147187993Y-101879822D01*
X147676772Y-101849435D01*
X147987208Y-101720848D01*
X148081416Y-101541021D01*
X147356000Y-100815605D01*
X146630584Y-101541021D01*
X144233951Y-101541021D01*
X144234025Y-101456639D01*
X144124050Y-101190479D01*
X143920592Y-100986665D01*
X143654624Y-100876226D01*
X143366639Y-100875975D01*
X143100479Y-100985950D01*
X142896665Y-101189408D01*
X142825642Y-101360452D01*
X142787134Y-101334141D01*
X142636000Y-101303536D01*
X141336000Y-101303536D01*
X141194810Y-101330103D01*
X141065135Y-101413546D01*
X140978141Y-101540866D01*
X140969244Y-101584800D01*
X139702293Y-101584800D01*
X139695897Y-101550810D01*
X139612454Y-101421135D01*
X139485134Y-101334141D01*
X139334000Y-101303536D01*
X138034000Y-101303536D01*
X137892810Y-101330103D01*
X137763135Y-101413546D01*
X137676141Y-101540866D01*
X137645536Y-101692000D01*
X134784089Y-101692000D01*
X134776454Y-101680135D01*
X134649134Y-101593141D01*
X134547732Y-101572607D01*
X134581774Y-101490624D01*
X134581933Y-101307867D01*
X134763361Y-101308025D01*
X135029521Y-101198050D01*
X135233335Y-100994592D01*
X135343774Y-100728624D01*
X135344025Y-100440639D01*
X135234050Y-100174479D01*
X135030592Y-99970665D01*
X134764624Y-99860226D01*
X134476639Y-99859975D01*
X134210479Y-99969950D01*
X134053355Y-100126800D01*
X133604000Y-100126800D01*
X133429037Y-100161602D01*
X133280711Y-100260711D01*
X133160622Y-100380800D01*
X131318000Y-100380800D01*
X131143037Y-100415602D01*
X130994711Y-100514711D01*
X130049711Y-101459711D01*
X129976018Y-101570000D01*
X129930750Y-101570000D01*
X129835500Y-101665250D01*
X129835500Y-101733481D01*
X129790141Y-101799866D01*
X129759536Y-101951000D01*
X129686464Y-101951000D01*
X129659897Y-101809810D01*
X129610500Y-101733044D01*
X129610500Y-101665250D01*
X129515250Y-101570000D01*
X129422215Y-101570000D01*
X129393531Y-101581881D01*
X129298000Y-101562536D01*
X128848000Y-101562536D01*
X128744330Y-101582043D01*
X128648000Y-101562536D01*
X128198000Y-101562536D01*
X128100195Y-101580939D01*
X128073785Y-101570000D01*
X127980750Y-101570000D01*
X127885500Y-101665250D01*
X127885500Y-101733481D01*
X127840141Y-101799866D01*
X127809536Y-101951000D01*
X127736464Y-101951000D01*
X127709897Y-101809810D01*
X127660500Y-101733044D01*
X127660500Y-101665250D01*
X127580200Y-101584950D01*
X127580200Y-101343464D01*
X127897000Y-101343464D01*
X128038190Y-101316897D01*
X128167865Y-101233454D01*
X128254859Y-101106134D01*
X128285464Y-100955000D01*
X128285464Y-100552250D01*
X128516000Y-100552250D01*
X128516000Y-101030785D01*
X128574004Y-101170819D01*
X128681180Y-101277996D01*
X128821214Y-101336000D01*
X129174750Y-101336000D01*
X129270000Y-101240750D01*
X129270000Y-100457000D01*
X129524000Y-100457000D01*
X129524000Y-101240750D01*
X129619250Y-101336000D01*
X129972786Y-101336000D01*
X130112820Y-101277996D01*
X130219996Y-101170819D01*
X130278000Y-101030785D01*
X130278000Y-100552250D01*
X130182750Y-100457000D01*
X129524000Y-100457000D01*
X129270000Y-100457000D01*
X128611250Y-100457000D01*
X128516000Y-100552250D01*
X128285464Y-100552250D01*
X128285464Y-99705000D01*
X128271204Y-99629215D01*
X128516000Y-99629215D01*
X128516000Y-100107750D01*
X128611250Y-100203000D01*
X129270000Y-100203000D01*
X129270000Y-99419250D01*
X129524000Y-99419250D01*
X129524000Y-100203000D01*
X130182750Y-100203000D01*
X130278000Y-100107750D01*
X130278000Y-99792000D01*
X137645536Y-99792000D01*
X137645536Y-100492000D01*
X137672103Y-100633190D01*
X137755546Y-100762865D01*
X137882866Y-100849859D01*
X138034000Y-100880464D01*
X139334000Y-100880464D01*
X139475190Y-100853897D01*
X139604865Y-100770454D01*
X139691859Y-100643134D01*
X139722464Y-100492000D01*
X139722464Y-99792000D01*
X140947536Y-99792000D01*
X140947536Y-100492000D01*
X140974103Y-100633190D01*
X141057546Y-100762865D01*
X141184866Y-100849859D01*
X141336000Y-100880464D01*
X142636000Y-100880464D01*
X142777190Y-100853897D01*
X142906865Y-100770454D01*
X142993859Y-100643134D01*
X143024464Y-100492000D01*
X143024464Y-100467993D01*
X146112178Y-100467993D01*
X146142565Y-100956772D01*
X146271152Y-101267208D01*
X146450979Y-101361416D01*
X147176395Y-100636000D01*
X147535605Y-100636000D01*
X148261021Y-101361416D01*
X148440848Y-101267208D01*
X148573813Y-100879787D01*
X150624787Y-100879787D01*
X150811800Y-101332395D01*
X151157784Y-101678983D01*
X151610065Y-101866786D01*
X152099787Y-101867213D01*
X152552395Y-101680200D01*
X152898983Y-101334216D01*
X153086786Y-100881935D01*
X153087213Y-100392213D01*
X152900200Y-99939605D01*
X152554216Y-99593017D01*
X152101935Y-99405214D01*
X151612213Y-99404787D01*
X151159605Y-99591800D01*
X150813017Y-99937784D01*
X150625214Y-100390065D01*
X150624787Y-100879787D01*
X148573813Y-100879787D01*
X148599822Y-100804007D01*
X148569435Y-100315228D01*
X148440848Y-100004792D01*
X148261021Y-99910584D01*
X147535605Y-100636000D01*
X147176395Y-100636000D01*
X146450979Y-99910584D01*
X146271152Y-100004792D01*
X146112178Y-100467993D01*
X143024464Y-100467993D01*
X143024464Y-99792000D01*
X143012982Y-99730979D01*
X146630584Y-99730979D01*
X147356000Y-100456395D01*
X148081416Y-99730979D01*
X147987208Y-99551152D01*
X147524007Y-99392178D01*
X147035228Y-99422565D01*
X146724792Y-99551152D01*
X146630584Y-99730979D01*
X143012982Y-99730979D01*
X142997897Y-99650810D01*
X142914454Y-99521135D01*
X142787134Y-99434141D01*
X142709809Y-99418482D01*
X142710025Y-99170639D01*
X142600050Y-98904479D01*
X142396592Y-98700665D01*
X142130624Y-98590226D01*
X141842639Y-98589975D01*
X141576479Y-98699950D01*
X141372665Y-98903408D01*
X141262226Y-99169376D01*
X141262010Y-99417458D01*
X141194810Y-99430103D01*
X141065135Y-99513546D01*
X140978141Y-99640866D01*
X140947536Y-99792000D01*
X139722464Y-99792000D01*
X139695897Y-99650810D01*
X139612454Y-99521135D01*
X139485134Y-99434141D01*
X139407809Y-99418482D01*
X139408025Y-99170639D01*
X139298050Y-98904479D01*
X139094592Y-98700665D01*
X138828624Y-98590226D01*
X138540639Y-98589975D01*
X138274479Y-98699950D01*
X138070665Y-98903408D01*
X137960226Y-99169376D01*
X137960010Y-99417458D01*
X137892810Y-99430103D01*
X137763135Y-99513546D01*
X137676141Y-99640866D01*
X137645536Y-99792000D01*
X130278000Y-99792000D01*
X130278000Y-99629215D01*
X130219996Y-99489181D01*
X130112820Y-99382004D01*
X129972786Y-99324000D01*
X129619250Y-99324000D01*
X129524000Y-99419250D01*
X129270000Y-99419250D01*
X129174750Y-99324000D01*
X128821214Y-99324000D01*
X128681180Y-99382004D01*
X128574004Y-99489181D01*
X128516000Y-99629215D01*
X128271204Y-99629215D01*
X128258897Y-99563810D01*
X128175454Y-99434135D01*
X128048134Y-99347141D01*
X127897000Y-99316536D01*
X126897000Y-99316536D01*
X126755810Y-99343103D01*
X126626135Y-99426546D01*
X126539141Y-99553866D01*
X126508536Y-99705000D01*
X126508536Y-100955000D01*
X126535103Y-101096190D01*
X126618546Y-101225865D01*
X126665800Y-101258152D01*
X126665800Y-101381222D01*
X126434289Y-101149711D01*
X126285963Y-101050602D01*
X126111000Y-101015800D01*
X124587000Y-101015800D01*
X124412037Y-101050602D01*
X124263710Y-101149711D01*
X124156254Y-101257167D01*
X123935639Y-101256975D01*
X123669479Y-101366950D01*
X123465665Y-101570408D01*
X123355226Y-101836376D01*
X123354975Y-102124361D01*
X111277085Y-102124361D01*
X111257331Y-102111162D01*
X110920187Y-102044100D01*
X110324893Y-102044100D01*
X109987749Y-102111162D01*
X109701932Y-102302139D01*
X109701000Y-102303534D01*
X109701000Y-97505870D01*
X109854583Y-97505870D01*
X110221166Y-98393069D01*
X110899361Y-99072449D01*
X111785919Y-99440580D01*
X112745870Y-99441417D01*
X113633069Y-99074834D01*
X114312449Y-98396639D01*
X114680580Y-97510081D01*
X114681162Y-96842213D01*
X115605473Y-96842213D01*
X115764430Y-97301720D01*
X116087133Y-97665419D01*
X116520882Y-97875393D01*
X116713000Y-97814712D01*
X116713000Y-96647000D01*
X116967000Y-96647000D01*
X116967000Y-97814712D01*
X117159118Y-97875393D01*
X117592867Y-97665419D01*
X117915570Y-97301720D01*
X118074527Y-96842213D01*
X117990643Y-96647000D01*
X116967000Y-96647000D01*
X116713000Y-96647000D01*
X115689357Y-96647000D01*
X115605473Y-96842213D01*
X114681162Y-96842213D01*
X114681417Y-96550130D01*
X114535832Y-96197787D01*
X115605473Y-96197787D01*
X115689357Y-96393000D01*
X116713000Y-96393000D01*
X116713000Y-95225288D01*
X116967000Y-95225288D01*
X116967000Y-96393000D01*
X117990643Y-96393000D01*
X118013318Y-96340231D01*
X118135400Y-96340231D01*
X118135400Y-96699769D01*
X118230140Y-97176057D01*
X118499935Y-97579834D01*
X118903712Y-97849629D01*
X119380000Y-97944369D01*
X119856288Y-97849629D01*
X120260065Y-97579834D01*
X120529860Y-97176057D01*
X120624600Y-96699769D01*
X120624600Y-96340231D01*
X120675400Y-96340231D01*
X120675400Y-96699769D01*
X120770140Y-97176057D01*
X121039935Y-97579834D01*
X121443712Y-97849629D01*
X121920000Y-97944369D01*
X122396288Y-97849629D01*
X122800065Y-97579834D01*
X123069860Y-97176057D01*
X123164600Y-96699769D01*
X123164600Y-96340231D01*
X123215400Y-96340231D01*
X123215400Y-96699769D01*
X123310140Y-97176057D01*
X123579935Y-97579834D01*
X123983712Y-97849629D01*
X124460000Y-97944369D01*
X124936288Y-97849629D01*
X125340065Y-97579834D01*
X125609860Y-97176057D01*
X125704600Y-96699769D01*
X125704600Y-96340231D01*
X125755400Y-96340231D01*
X125755400Y-96699769D01*
X125850140Y-97176057D01*
X126119935Y-97579834D01*
X126523712Y-97849629D01*
X127000000Y-97944369D01*
X127476288Y-97849629D01*
X127880065Y-97579834D01*
X128149860Y-97176057D01*
X128244600Y-96699769D01*
X128244600Y-96340231D01*
X128295400Y-96340231D01*
X128295400Y-96699769D01*
X128390140Y-97176057D01*
X128659935Y-97579834D01*
X129063712Y-97849629D01*
X129540000Y-97944369D01*
X130016288Y-97849629D01*
X130420065Y-97579834D01*
X130689860Y-97176057D01*
X130784600Y-96699769D01*
X130784600Y-96340231D01*
X130835400Y-96340231D01*
X130835400Y-96699769D01*
X130930140Y-97176057D01*
X131199935Y-97579834D01*
X131603712Y-97849629D01*
X132080000Y-97944369D01*
X132556288Y-97849629D01*
X132960065Y-97579834D01*
X133229860Y-97176057D01*
X133324600Y-96699769D01*
X133324600Y-96340231D01*
X133375400Y-96340231D01*
X133375400Y-96699769D01*
X133470140Y-97176057D01*
X133739935Y-97579834D01*
X134143712Y-97849629D01*
X134620000Y-97944369D01*
X135096288Y-97849629D01*
X135500065Y-97579834D01*
X135769860Y-97176057D01*
X135864600Y-96699769D01*
X135864600Y-96340231D01*
X135915400Y-96340231D01*
X135915400Y-96699769D01*
X136010140Y-97176057D01*
X136279935Y-97579834D01*
X136683712Y-97849629D01*
X137160000Y-97944369D01*
X137636288Y-97849629D01*
X138040065Y-97579834D01*
X138309860Y-97176057D01*
X138404600Y-96699769D01*
X138404600Y-96340231D01*
X138455400Y-96340231D01*
X138455400Y-96699769D01*
X138550140Y-97176057D01*
X138819935Y-97579834D01*
X139223712Y-97849629D01*
X139700000Y-97944369D01*
X140176288Y-97849629D01*
X140580065Y-97579834D01*
X140849860Y-97176057D01*
X140944600Y-96699769D01*
X140944600Y-96340231D01*
X140995400Y-96340231D01*
X140995400Y-96699769D01*
X141090140Y-97176057D01*
X141359935Y-97579834D01*
X141763712Y-97849629D01*
X142240000Y-97944369D01*
X142716288Y-97849629D01*
X143120065Y-97579834D01*
X143389860Y-97176057D01*
X143484600Y-96699769D01*
X143484600Y-96340231D01*
X143535400Y-96340231D01*
X143535400Y-96699769D01*
X143630140Y-97176057D01*
X143899935Y-97579834D01*
X144303712Y-97849629D01*
X144780000Y-97944369D01*
X145256288Y-97849629D01*
X145660065Y-97579834D01*
X145929860Y-97176057D01*
X146024600Y-96699769D01*
X146024600Y-96340231D01*
X146075400Y-96340231D01*
X146075400Y-96699769D01*
X146170140Y-97176057D01*
X146439935Y-97579834D01*
X146843712Y-97849629D01*
X147320000Y-97944369D01*
X147796288Y-97849629D01*
X148200065Y-97579834D01*
X148469860Y-97176057D01*
X148564600Y-96699769D01*
X148564600Y-96340231D01*
X148615400Y-96340231D01*
X148615400Y-96699769D01*
X148710140Y-97176057D01*
X148979935Y-97579834D01*
X149383712Y-97849629D01*
X149860000Y-97944369D01*
X150336288Y-97849629D01*
X150740065Y-97579834D01*
X151009860Y-97176057D01*
X151104600Y-96699769D01*
X151104600Y-96340231D01*
X151009860Y-95863943D01*
X150769354Y-95504000D01*
X151147936Y-95504000D01*
X151147936Y-97536000D01*
X151174503Y-97677190D01*
X151257946Y-97806865D01*
X151385266Y-97893859D01*
X151536400Y-97924464D01*
X153263600Y-97924464D01*
X153404790Y-97897897D01*
X153534465Y-97814454D01*
X153621459Y-97687134D01*
X153652064Y-97536000D01*
X153652064Y-97505870D01*
X154558583Y-97505870D01*
X154925166Y-98393069D01*
X155603361Y-99072449D01*
X156489919Y-99440580D01*
X157449870Y-99441417D01*
X158337069Y-99074834D01*
X159016449Y-98396639D01*
X159384580Y-97510081D01*
X159385417Y-96550130D01*
X159018834Y-95662931D01*
X158340639Y-94983551D01*
X157454081Y-94615420D01*
X156494130Y-94614583D01*
X155606931Y-94981166D01*
X154927551Y-95659361D01*
X154559420Y-96545919D01*
X154558583Y-97505870D01*
X153652064Y-97505870D01*
X153652064Y-95504000D01*
X153625497Y-95362810D01*
X153542054Y-95233135D01*
X153414734Y-95146141D01*
X153263600Y-95115536D01*
X151536400Y-95115536D01*
X151395210Y-95142103D01*
X151265535Y-95225546D01*
X151178541Y-95352866D01*
X151147936Y-95504000D01*
X150769354Y-95504000D01*
X150740065Y-95460166D01*
X150336288Y-95190371D01*
X149860000Y-95095631D01*
X149383712Y-95190371D01*
X148979935Y-95460166D01*
X148710140Y-95863943D01*
X148615400Y-96340231D01*
X148564600Y-96340231D01*
X148469860Y-95863943D01*
X148200065Y-95460166D01*
X147796288Y-95190371D01*
X147320000Y-95095631D01*
X146843712Y-95190371D01*
X146439935Y-95460166D01*
X146170140Y-95863943D01*
X146075400Y-96340231D01*
X146024600Y-96340231D01*
X145929860Y-95863943D01*
X145660065Y-95460166D01*
X145256288Y-95190371D01*
X144780000Y-95095631D01*
X144303712Y-95190371D01*
X143899935Y-95460166D01*
X143630140Y-95863943D01*
X143535400Y-96340231D01*
X143484600Y-96340231D01*
X143389860Y-95863943D01*
X143120065Y-95460166D01*
X142716288Y-95190371D01*
X142240000Y-95095631D01*
X141763712Y-95190371D01*
X141359935Y-95460166D01*
X141090140Y-95863943D01*
X140995400Y-96340231D01*
X140944600Y-96340231D01*
X140849860Y-95863943D01*
X140580065Y-95460166D01*
X140176288Y-95190371D01*
X139700000Y-95095631D01*
X139223712Y-95190371D01*
X138819935Y-95460166D01*
X138550140Y-95863943D01*
X138455400Y-96340231D01*
X138404600Y-96340231D01*
X138309860Y-95863943D01*
X138040065Y-95460166D01*
X137636288Y-95190371D01*
X137160000Y-95095631D01*
X136683712Y-95190371D01*
X136279935Y-95460166D01*
X136010140Y-95863943D01*
X135915400Y-96340231D01*
X135864600Y-96340231D01*
X135769860Y-95863943D01*
X135500065Y-95460166D01*
X135096288Y-95190371D01*
X134620000Y-95095631D01*
X134143712Y-95190371D01*
X133739935Y-95460166D01*
X133470140Y-95863943D01*
X133375400Y-96340231D01*
X133324600Y-96340231D01*
X133229860Y-95863943D01*
X132960065Y-95460166D01*
X132556288Y-95190371D01*
X132080000Y-95095631D01*
X131603712Y-95190371D01*
X131199935Y-95460166D01*
X130930140Y-95863943D01*
X130835400Y-96340231D01*
X130784600Y-96340231D01*
X130689860Y-95863943D01*
X130420065Y-95460166D01*
X130016288Y-95190371D01*
X129540000Y-95095631D01*
X129063712Y-95190371D01*
X128659935Y-95460166D01*
X128390140Y-95863943D01*
X128295400Y-96340231D01*
X128244600Y-96340231D01*
X128149860Y-95863943D01*
X127880065Y-95460166D01*
X127476288Y-95190371D01*
X127000000Y-95095631D01*
X126523712Y-95190371D01*
X126119935Y-95460166D01*
X125850140Y-95863943D01*
X125755400Y-96340231D01*
X125704600Y-96340231D01*
X125609860Y-95863943D01*
X125340065Y-95460166D01*
X124936288Y-95190371D01*
X124460000Y-95095631D01*
X123983712Y-95190371D01*
X123579935Y-95460166D01*
X123310140Y-95863943D01*
X123215400Y-96340231D01*
X123164600Y-96340231D01*
X123069860Y-95863943D01*
X122800065Y-95460166D01*
X122396288Y-95190371D01*
X121920000Y-95095631D01*
X121443712Y-95190371D01*
X121039935Y-95460166D01*
X120770140Y-95863943D01*
X120675400Y-96340231D01*
X120624600Y-96340231D01*
X120529860Y-95863943D01*
X120260065Y-95460166D01*
X119856288Y-95190371D01*
X119380000Y-95095631D01*
X118903712Y-95190371D01*
X118499935Y-95460166D01*
X118230140Y-95863943D01*
X118135400Y-96340231D01*
X118013318Y-96340231D01*
X118074527Y-96197787D01*
X117915570Y-95738280D01*
X117592867Y-95374581D01*
X117159118Y-95164607D01*
X116967000Y-95225288D01*
X116713000Y-95225288D01*
X116520882Y-95164607D01*
X116087133Y-95374581D01*
X115764430Y-95738280D01*
X115605473Y-96197787D01*
X114535832Y-96197787D01*
X114314834Y-95662931D01*
X113636639Y-94983551D01*
X112750081Y-94615420D01*
X111790130Y-94614583D01*
X110902931Y-94981166D01*
X110223551Y-95659361D01*
X109855420Y-96545919D01*
X109854583Y-97505870D01*
X109701000Y-97505870D01*
X109701000Y-94461000D01*
X159539000Y-94461000D01*
X159539000Y-144299000D01*
M02*
