G04 #@! TF.FileFunction,Soldermask,Top*
%FSLAX46Y46*%
G04 Gerber Fmt 4.6, Leading zero omitted, Abs format (unit mm)*
G04 Created by KiCad (PCBNEW 4.0.1-stable) date 5/8/2016 2:59:50 PM*
%MOMM*%
G01*
G04 APERTURE LIST*
%ADD10C,0.100000*%
%ADD11C,4.064000*%
%ADD12C,1.700000*%
%ADD13R,1.000000X1.250000*%
%ADD14R,1.250000X1.000000*%
%ADD15R,1.198880X1.198880*%
%ADD16R,1.600000X0.550000*%
%ADD17R,0.550000X1.600000*%
%ADD18R,1.727200X2.032000*%
%ADD19O,1.727200X2.032000*%
%ADD20R,1.300000X0.700000*%
%ADD21R,1.550000X0.600000*%
%ADD22C,1.501140*%
%ADD23R,2.032000X2.032000*%
%ADD24O,2.032000X2.032000*%
%ADD25R,1.350000X0.400000*%
%ADD26O,0.950000X1.250000*%
%ADD27O,1.550000X1.000000*%
%ADD28R,1.727200X1.727200*%
%ADD29O,1.727200X1.727200*%
%ADD30C,0.152400*%
G04 APERTURE END LIST*
D10*
D11*
X112268000Y-97028000D03*
D12*
X125528000Y-129068000D03*
X132028000Y-129068000D03*
X132028000Y-133568000D03*
X125528000Y-133568000D03*
D13*
X116570000Y-113792000D03*
X114570000Y-113792000D03*
X116570000Y-116840000D03*
X114570000Y-116840000D03*
D14*
X122174000Y-106918000D03*
X122174000Y-104918000D03*
X119634000Y-106918000D03*
X119634000Y-104918000D03*
D13*
X140478000Y-109728000D03*
X142478000Y-109728000D03*
X137430000Y-106426000D03*
X139430000Y-106426000D03*
X146542000Y-114554000D03*
X144542000Y-114554000D03*
X140478000Y-114554000D03*
X142478000Y-114554000D03*
D14*
X149352000Y-120634000D03*
X149352000Y-118634000D03*
D15*
X141986000Y-102141020D03*
X141986000Y-100042980D03*
X138684000Y-102141020D03*
X138684000Y-100042980D03*
D16*
X125798000Y-103626000D03*
X125798000Y-104426000D03*
X125798000Y-105226000D03*
X125798000Y-106026000D03*
X125798000Y-106826000D03*
X125798000Y-107626000D03*
X125798000Y-108426000D03*
X125798000Y-109226000D03*
D17*
X127248000Y-110676000D03*
X128048000Y-110676000D03*
X128848000Y-110676000D03*
X129648000Y-110676000D03*
X130448000Y-110676000D03*
X131248000Y-110676000D03*
X132048000Y-110676000D03*
X132848000Y-110676000D03*
D16*
X134298000Y-109226000D03*
X134298000Y-108426000D03*
X134298000Y-107626000D03*
X134298000Y-106826000D03*
X134298000Y-106026000D03*
X134298000Y-105226000D03*
X134298000Y-104426000D03*
X134298000Y-103626000D03*
D17*
X132848000Y-102176000D03*
X132048000Y-102176000D03*
X131248000Y-102176000D03*
X130448000Y-102176000D03*
X129648000Y-102176000D03*
X128848000Y-102176000D03*
X128048000Y-102176000D03*
X127248000Y-102176000D03*
D14*
X137922000Y-111744000D03*
X137922000Y-109744000D03*
D18*
X152400000Y-96520000D03*
D19*
X149860000Y-96520000D03*
X147320000Y-96520000D03*
X144780000Y-96520000D03*
X142240000Y-96520000D03*
X139700000Y-96520000D03*
X137160000Y-96520000D03*
X134620000Y-96520000D03*
X132080000Y-96520000D03*
X129540000Y-96520000D03*
X127000000Y-96520000D03*
X124460000Y-96520000D03*
X121920000Y-96520000D03*
X119380000Y-96520000D03*
X116840000Y-96520000D03*
D18*
X152400000Y-124460000D03*
D19*
X149860000Y-124460000D03*
X147320000Y-124460000D03*
X144780000Y-124460000D03*
X142240000Y-124460000D03*
X139700000Y-124460000D03*
X137160000Y-124460000D03*
X134620000Y-124460000D03*
X132080000Y-124460000D03*
X129540000Y-124460000D03*
X127000000Y-124460000D03*
X124460000Y-124460000D03*
X121920000Y-124460000D03*
X119380000Y-124460000D03*
X116840000Y-124460000D03*
D20*
X117094000Y-101788000D03*
X117094000Y-99888000D03*
X149098000Y-111821000D03*
X149098000Y-109921000D03*
D21*
X146210000Y-120777000D03*
X146210000Y-119507000D03*
X146210000Y-118237000D03*
X146210000Y-116967000D03*
X140810000Y-116967000D03*
X140810000Y-118237000D03*
X140810000Y-119507000D03*
X140810000Y-120777000D03*
D22*
X120904000Y-112875060D03*
X120904000Y-117756940D03*
D12*
X114098000Y-129068000D03*
X120598000Y-129068000D03*
X120598000Y-133568000D03*
X114098000Y-133568000D03*
X136958000Y-129068000D03*
X143458000Y-129068000D03*
X143458000Y-133568000D03*
X136958000Y-133568000D03*
X148388000Y-129068000D03*
X154888000Y-129068000D03*
X154888000Y-133568000D03*
X148388000Y-133568000D03*
X114098000Y-137958000D03*
X120598000Y-137958000D03*
X120598000Y-142458000D03*
X114098000Y-142458000D03*
X125528000Y-137958000D03*
X132028000Y-137958000D03*
X132028000Y-142458000D03*
X125528000Y-142458000D03*
X136958000Y-137958000D03*
X143458000Y-137958000D03*
X143458000Y-142458000D03*
X136958000Y-142458000D03*
X148388000Y-137958000D03*
X154888000Y-137958000D03*
X154888000Y-142458000D03*
X148388000Y-142458000D03*
X151856000Y-100636000D03*
X151856000Y-107136000D03*
X147356000Y-107136000D03*
X147356000Y-100636000D03*
D11*
X156972000Y-97028000D03*
X112268000Y-123952000D03*
X156972000Y-123952000D03*
D23*
X155956000Y-104648000D03*
D24*
X155956000Y-107188000D03*
D25*
X113322540Y-105125100D03*
X113322540Y-105775100D03*
X113322540Y-106425100D03*
X113322540Y-107075100D03*
X113322540Y-107725100D03*
D26*
X113322540Y-103925100D03*
X113322540Y-108925100D03*
D27*
X110622540Y-102925100D03*
X110622540Y-109925100D03*
D28*
X155194000Y-112522000D03*
D29*
X157734000Y-112522000D03*
X155194000Y-115062000D03*
X157734000Y-115062000D03*
X155194000Y-117602000D03*
X157734000Y-117602000D03*
D14*
X119634000Y-99838000D03*
X119634000Y-101838000D03*
D30*
G36*
X124891800Y-119049800D02*
X124028200Y-119049800D01*
X124028200Y-117424200D01*
X124891800Y-117424200D01*
X124891800Y-119049800D01*
X124891800Y-119049800D01*
G37*
X124891800Y-119049800D02*
X124028200Y-119049800D01*
X124028200Y-117424200D01*
X124891800Y-117424200D01*
X124891800Y-119049800D01*
G36*
X126415800Y-115239800D02*
X125552200Y-115239800D01*
X125552200Y-113614200D01*
X126415800Y-113614200D01*
X126415800Y-115239800D01*
X126415800Y-115239800D01*
G37*
X126415800Y-115239800D02*
X125552200Y-115239800D01*
X125552200Y-113614200D01*
X126415800Y-113614200D01*
X126415800Y-115239800D01*
M02*
