M48
;DRILL file {KiCad 4.0.1-stable} date 5/8/2016 3:00:03 PM
;FORMAT={-:-/ absolute / inch / decimal}
FMAT,2
INCH,TZ
T1C0.013
T2C0.020
T3C0.022
T4C0.032
T5C0.035
T6C0.040
T7C0.126
%
G90
G05
M72
T1
X4.51Y-4.54
X4.52Y-4.24
X4.76Y-4.01
X4.76Y-4.13
X4.855Y-4.445
X4.885Y-4.015
X4.885Y-4.055
X5.Y-4.75
X5.Y-5.13
X5.01Y-4.14
X5.01Y-4.2
X5.1Y-4.77
X5.1Y-5.13
X5.12Y-4.23
X5.135Y-4.77
X5.15Y-4.145
X5.17Y-4.77
X5.18Y-4.25
X5.205Y-4.77
X5.21Y-4.28
X5.215Y-4.245
X5.23Y-4.17
X5.24Y-4.77
X5.27Y-3.99
X5.275Y-4.77
X5.3Y-3.96
X5.31Y-4.76
X5.325Y-4.41
X5.36Y-4.755
X5.405Y-4.76
X5.445Y-4.755
X5.46Y-3.91
X5.54Y-4.19
X5.59Y-3.91
X5.61Y-4.27
X5.65Y-4.
X5.65Y-4.51
X5.82Y-4.65
X5.9Y-4.98
X5.96Y-4.445
X6.Y-5.01
T4
X4.76Y-4.4439
X4.76Y-4.6361
T5
X4.492Y-5.0814
X4.492Y-5.2586
X4.492Y-5.4314
X4.492Y-5.6086
X4.748Y-5.0814
X4.748Y-5.2586
X4.748Y-5.4314
X4.748Y-5.6086
X4.942Y-5.0814
X4.942Y-5.2586
X4.942Y-5.4314
X4.942Y-5.6086
X5.198Y-5.0814
X5.198Y-5.2586
X5.198Y-5.4314
X5.198Y-5.6086
X5.392Y-5.0814
X5.392Y-5.2586
X5.392Y-5.4314
X5.392Y-5.6086
X5.648Y-5.0814
X5.648Y-5.2586
X5.648Y-5.4314
X5.648Y-5.6086
X5.8014Y-3.962
X5.8014Y-4.218
X5.842Y-5.0814
X5.842Y-5.2586
X5.842Y-5.4314
X5.842Y-5.6086
X5.9786Y-3.962
X5.9786Y-4.218
X6.098Y-5.0814
X6.098Y-5.2586
X6.098Y-5.4314
X6.098Y-5.6086
T6
X4.6Y-3.8
X4.6Y-4.9
X4.7Y-3.8
X4.7Y-4.9
X4.8Y-3.8
X4.8Y-4.9
X4.9Y-3.8
X4.9Y-4.9
X5.Y-3.8
X5.Y-4.9
X5.1Y-3.8
X5.1Y-4.9
X5.2Y-3.8
X5.2Y-4.9
X5.3Y-3.8
X5.3Y-4.9
X5.4Y-3.8
X5.4Y-4.9
X5.5Y-3.8
X5.5Y-4.9
X5.6Y-3.8
X5.6Y-4.9
X5.7Y-3.8
X5.7Y-4.9
X5.8Y-3.8
X5.8Y-4.9
X5.9Y-3.8
X5.9Y-4.9
X6.Y-3.8
X6.Y-4.9
X6.11Y-4.43
X6.11Y-4.53
X6.11Y-4.63
X6.14Y-4.12
X6.14Y-4.22
X6.21Y-4.43
X6.21Y-4.53
X6.21Y-4.63
T7
X4.42Y-3.82
X4.42Y-4.88
X6.18Y-3.82
X6.18Y-4.88
T2
X4.3424Y-4.0522G85X4.368Y-4.0522
G05
X4.3424Y-4.3278G85X4.368Y-4.3278
G05
T3
X4.4615Y-4.0856G85X4.4615Y-4.0974
G05
X4.4615Y-4.2825G85X4.4615Y-4.2943
G05
T0
M30
