G04 #@! TF.FileFunction,Legend,Top*
%FSLAX46Y46*%
G04 Gerber Fmt 4.6, Leading zero omitted, Abs format (unit mm)*
G04 Created by KiCad (PCBNEW 4.0.1-stable) date 5/8/2016 2:59:50 PM*
%MOMM*%
G01*
G04 APERTURE LIST*
%ADD10C,0.100000*%
%ADD11C,0.127000*%
%ADD12C,0.076200*%
%ADD13C,0.150000*%
%ADD14C,0.075000*%
G04 APERTURE END LIST*
D10*
D11*
X109220000Y-127000000D02*
X160020000Y-127000000D01*
D12*
X116452953Y-126238000D02*
X116404572Y-126213810D01*
X116332000Y-126213810D01*
X116259429Y-126238000D01*
X116211048Y-126286381D01*
X116186857Y-126334762D01*
X116162667Y-126431524D01*
X116162667Y-126504095D01*
X116186857Y-126600857D01*
X116211048Y-126649238D01*
X116259429Y-126697619D01*
X116332000Y-126721810D01*
X116380381Y-126721810D01*
X116452953Y-126697619D01*
X116477143Y-126673429D01*
X116477143Y-126504095D01*
X116380381Y-126504095D01*
X116694857Y-126721810D02*
X116694857Y-126213810D01*
X116985143Y-126721810D01*
X116985143Y-126213810D01*
X117227047Y-126721810D02*
X117227047Y-126213810D01*
X117348000Y-126213810D01*
X117420571Y-126238000D01*
X117468952Y-126286381D01*
X117493143Y-126334762D01*
X117517333Y-126431524D01*
X117517333Y-126504095D01*
X117493143Y-126600857D01*
X117468952Y-126649238D01*
X117420571Y-126697619D01*
X117348000Y-126721810D01*
X117227047Y-126721810D01*
X118472857Y-126528286D02*
X118859905Y-126528286D01*
X118666381Y-126721810D02*
X118666381Y-126334762D01*
X119343714Y-126213810D02*
X119101809Y-126213810D01*
X119077619Y-126455714D01*
X119101809Y-126431524D01*
X119150190Y-126407333D01*
X119271143Y-126407333D01*
X119319524Y-126431524D01*
X119343714Y-126455714D01*
X119367905Y-126504095D01*
X119367905Y-126625048D01*
X119343714Y-126673429D01*
X119319524Y-126697619D01*
X119271143Y-126721810D01*
X119150190Y-126721810D01*
X119101809Y-126697619D01*
X119077619Y-126673429D01*
X119513048Y-126213810D02*
X119682381Y-126721810D01*
X119851715Y-126213810D01*
X121532953Y-126238000D02*
X121484572Y-126213810D01*
X121412000Y-126213810D01*
X121339429Y-126238000D01*
X121291048Y-126286381D01*
X121266857Y-126334762D01*
X121242667Y-126431524D01*
X121242667Y-126504095D01*
X121266857Y-126600857D01*
X121291048Y-126649238D01*
X121339429Y-126697619D01*
X121412000Y-126721810D01*
X121460381Y-126721810D01*
X121532953Y-126697619D01*
X121557143Y-126673429D01*
X121557143Y-126504095D01*
X121460381Y-126504095D01*
X121774857Y-126721810D02*
X121774857Y-126213810D01*
X122065143Y-126721810D01*
X122065143Y-126213810D01*
X122307047Y-126721810D02*
X122307047Y-126213810D01*
X122428000Y-126213810D01*
X122500571Y-126238000D01*
X122548952Y-126286381D01*
X122573143Y-126334762D01*
X122597333Y-126431524D01*
X122597333Y-126504095D01*
X122573143Y-126600857D01*
X122548952Y-126649238D01*
X122500571Y-126697619D01*
X122428000Y-126721810D01*
X122307047Y-126721810D01*
X123806857Y-126528286D02*
X124193905Y-126528286D01*
X124000381Y-126721810D02*
X124000381Y-126334762D01*
X124677714Y-126213810D02*
X124435809Y-126213810D01*
X124411619Y-126455714D01*
X124435809Y-126431524D01*
X124484190Y-126407333D01*
X124605143Y-126407333D01*
X124653524Y-126431524D01*
X124677714Y-126455714D01*
X124701905Y-126504095D01*
X124701905Y-126625048D01*
X124677714Y-126673429D01*
X124653524Y-126697619D01*
X124605143Y-126721810D01*
X124484190Y-126721810D01*
X124435809Y-126697619D01*
X124411619Y-126673429D01*
X124847048Y-126213810D02*
X125016381Y-126721810D01*
X125185715Y-126213810D01*
X126371047Y-126721810D02*
X126371047Y-126213810D01*
X126564571Y-126213810D01*
X126612952Y-126238000D01*
X126637143Y-126262190D01*
X126661333Y-126310571D01*
X126661333Y-126383143D01*
X126637143Y-126431524D01*
X126612952Y-126455714D01*
X126564571Y-126479905D01*
X126371047Y-126479905D01*
X127048381Y-126455714D02*
X127120952Y-126479905D01*
X127145143Y-126504095D01*
X127169333Y-126552476D01*
X127169333Y-126625048D01*
X127145143Y-126673429D01*
X127120952Y-126697619D01*
X127072571Y-126721810D01*
X126879047Y-126721810D01*
X126879047Y-126213810D01*
X127048381Y-126213810D01*
X127096762Y-126238000D01*
X127120952Y-126262190D01*
X127145143Y-126310571D01*
X127145143Y-126358952D01*
X127120952Y-126407333D01*
X127096762Y-126431524D01*
X127048381Y-126455714D01*
X126879047Y-126455714D01*
X127604762Y-126213810D02*
X127508000Y-126213810D01*
X127459619Y-126238000D01*
X127435428Y-126262190D01*
X127387047Y-126334762D01*
X127362857Y-126431524D01*
X127362857Y-126625048D01*
X127387047Y-126673429D01*
X127411238Y-126697619D01*
X127459619Y-126721810D01*
X127556381Y-126721810D01*
X127604762Y-126697619D01*
X127628952Y-126673429D01*
X127653143Y-126625048D01*
X127653143Y-126504095D01*
X127628952Y-126455714D01*
X127604762Y-126431524D01*
X127556381Y-126407333D01*
X127459619Y-126407333D01*
X127411238Y-126431524D01*
X127387047Y-126455714D01*
X127362857Y-126504095D01*
X128911047Y-126721810D02*
X128911047Y-126213810D01*
X129104571Y-126213810D01*
X129152952Y-126238000D01*
X129177143Y-126262190D01*
X129201333Y-126310571D01*
X129201333Y-126383143D01*
X129177143Y-126431524D01*
X129152952Y-126455714D01*
X129104571Y-126479905D01*
X128911047Y-126479905D01*
X129588381Y-126455714D02*
X129660952Y-126479905D01*
X129685143Y-126504095D01*
X129709333Y-126552476D01*
X129709333Y-126625048D01*
X129685143Y-126673429D01*
X129660952Y-126697619D01*
X129612571Y-126721810D01*
X129419047Y-126721810D01*
X129419047Y-126213810D01*
X129588381Y-126213810D01*
X129636762Y-126238000D01*
X129660952Y-126262190D01*
X129685143Y-126310571D01*
X129685143Y-126358952D01*
X129660952Y-126407333D01*
X129636762Y-126431524D01*
X129588381Y-126455714D01*
X129419047Y-126455714D01*
X129878666Y-126213810D02*
X130217333Y-126213810D01*
X129999619Y-126721810D01*
X131451047Y-126721810D02*
X131451047Y-126213810D01*
X131644571Y-126213810D01*
X131692952Y-126238000D01*
X131717143Y-126262190D01*
X131741333Y-126310571D01*
X131741333Y-126383143D01*
X131717143Y-126431524D01*
X131692952Y-126455714D01*
X131644571Y-126479905D01*
X131451047Y-126479905D01*
X131959047Y-126721810D02*
X131959047Y-126213810D01*
X132080000Y-126213810D01*
X132152571Y-126238000D01*
X132200952Y-126286381D01*
X132225143Y-126334762D01*
X132249333Y-126431524D01*
X132249333Y-126504095D01*
X132225143Y-126600857D01*
X132200952Y-126649238D01*
X132152571Y-126697619D01*
X132080000Y-126721810D01*
X131959047Y-126721810D01*
X132708952Y-126213810D02*
X132467047Y-126213810D01*
X132442857Y-126455714D01*
X132467047Y-126431524D01*
X132515428Y-126407333D01*
X132636381Y-126407333D01*
X132684762Y-126431524D01*
X132708952Y-126455714D01*
X132733143Y-126504095D01*
X132733143Y-126625048D01*
X132708952Y-126673429D01*
X132684762Y-126697619D01*
X132636381Y-126721810D01*
X132515428Y-126721810D01*
X132467047Y-126697619D01*
X132442857Y-126673429D01*
X133991047Y-126721810D02*
X133991047Y-126213810D01*
X134184571Y-126213810D01*
X134232952Y-126238000D01*
X134257143Y-126262190D01*
X134281333Y-126310571D01*
X134281333Y-126383143D01*
X134257143Y-126431524D01*
X134232952Y-126455714D01*
X134184571Y-126479905D01*
X133991047Y-126479905D01*
X134499047Y-126721810D02*
X134499047Y-126213810D01*
X134620000Y-126213810D01*
X134692571Y-126238000D01*
X134740952Y-126286381D01*
X134765143Y-126334762D01*
X134789333Y-126431524D01*
X134789333Y-126504095D01*
X134765143Y-126600857D01*
X134740952Y-126649238D01*
X134692571Y-126697619D01*
X134620000Y-126721810D01*
X134499047Y-126721810D01*
X135224762Y-126213810D02*
X135128000Y-126213810D01*
X135079619Y-126238000D01*
X135055428Y-126262190D01*
X135007047Y-126334762D01*
X134982857Y-126431524D01*
X134982857Y-126625048D01*
X135007047Y-126673429D01*
X135031238Y-126697619D01*
X135079619Y-126721810D01*
X135176381Y-126721810D01*
X135224762Y-126697619D01*
X135248952Y-126673429D01*
X135273143Y-126625048D01*
X135273143Y-126504095D01*
X135248952Y-126455714D01*
X135224762Y-126431524D01*
X135176381Y-126407333D01*
X135079619Y-126407333D01*
X135031238Y-126431524D01*
X135007047Y-126455714D01*
X134982857Y-126504095D01*
X136531047Y-126721810D02*
X136531047Y-126213810D01*
X136724571Y-126213810D01*
X136772952Y-126238000D01*
X136797143Y-126262190D01*
X136821333Y-126310571D01*
X136821333Y-126383143D01*
X136797143Y-126431524D01*
X136772952Y-126455714D01*
X136724571Y-126479905D01*
X136531047Y-126479905D01*
X137039047Y-126721810D02*
X137039047Y-126213810D01*
X137160000Y-126213810D01*
X137232571Y-126238000D01*
X137280952Y-126286381D01*
X137305143Y-126334762D01*
X137329333Y-126431524D01*
X137329333Y-126504095D01*
X137305143Y-126600857D01*
X137280952Y-126649238D01*
X137232571Y-126697619D01*
X137160000Y-126721810D01*
X137039047Y-126721810D01*
X137498666Y-126213810D02*
X137837333Y-126213810D01*
X137619619Y-126721810D01*
X139071047Y-126721810D02*
X139071047Y-126213810D01*
X139264571Y-126213810D01*
X139312952Y-126238000D01*
X139337143Y-126262190D01*
X139361333Y-126310571D01*
X139361333Y-126383143D01*
X139337143Y-126431524D01*
X139312952Y-126455714D01*
X139264571Y-126479905D01*
X139071047Y-126479905D01*
X139748381Y-126455714D02*
X139820952Y-126479905D01*
X139845143Y-126504095D01*
X139869333Y-126552476D01*
X139869333Y-126625048D01*
X139845143Y-126673429D01*
X139820952Y-126697619D01*
X139772571Y-126721810D01*
X139579047Y-126721810D01*
X139579047Y-126213810D01*
X139748381Y-126213810D01*
X139796762Y-126238000D01*
X139820952Y-126262190D01*
X139845143Y-126310571D01*
X139845143Y-126358952D01*
X139820952Y-126407333D01*
X139796762Y-126431524D01*
X139748381Y-126455714D01*
X139579047Y-126455714D01*
X140183809Y-126213810D02*
X140232190Y-126213810D01*
X140280571Y-126238000D01*
X140304762Y-126262190D01*
X140328952Y-126310571D01*
X140353143Y-126407333D01*
X140353143Y-126528286D01*
X140328952Y-126625048D01*
X140304762Y-126673429D01*
X140280571Y-126697619D01*
X140232190Y-126721810D01*
X140183809Y-126721810D01*
X140135428Y-126697619D01*
X140111238Y-126673429D01*
X140087047Y-126625048D01*
X140062857Y-126528286D01*
X140062857Y-126407333D01*
X140087047Y-126310571D01*
X140111238Y-126262190D01*
X140135428Y-126238000D01*
X140183809Y-126213810D01*
X141611047Y-126721810D02*
X141611047Y-126213810D01*
X141804571Y-126213810D01*
X141852952Y-126238000D01*
X141877143Y-126262190D01*
X141901333Y-126310571D01*
X141901333Y-126383143D01*
X141877143Y-126431524D01*
X141852952Y-126455714D01*
X141804571Y-126479905D01*
X141611047Y-126479905D01*
X142288381Y-126455714D02*
X142360952Y-126479905D01*
X142385143Y-126504095D01*
X142409333Y-126552476D01*
X142409333Y-126625048D01*
X142385143Y-126673429D01*
X142360952Y-126697619D01*
X142312571Y-126721810D01*
X142119047Y-126721810D01*
X142119047Y-126213810D01*
X142288381Y-126213810D01*
X142336762Y-126238000D01*
X142360952Y-126262190D01*
X142385143Y-126310571D01*
X142385143Y-126358952D01*
X142360952Y-126407333D01*
X142336762Y-126431524D01*
X142288381Y-126455714D01*
X142119047Y-126455714D01*
X142893143Y-126721810D02*
X142602857Y-126721810D01*
X142748000Y-126721810D02*
X142748000Y-126213810D01*
X142699619Y-126286381D01*
X142651238Y-126334762D01*
X142602857Y-126358952D01*
X144151047Y-126721810D02*
X144151047Y-126213810D01*
X144344571Y-126213810D01*
X144392952Y-126238000D01*
X144417143Y-126262190D01*
X144441333Y-126310571D01*
X144441333Y-126383143D01*
X144417143Y-126431524D01*
X144392952Y-126455714D01*
X144344571Y-126479905D01*
X144151047Y-126479905D01*
X144828381Y-126455714D02*
X144900952Y-126479905D01*
X144925143Y-126504095D01*
X144949333Y-126552476D01*
X144949333Y-126625048D01*
X144925143Y-126673429D01*
X144900952Y-126697619D01*
X144852571Y-126721810D01*
X144659047Y-126721810D01*
X144659047Y-126213810D01*
X144828381Y-126213810D01*
X144876762Y-126238000D01*
X144900952Y-126262190D01*
X144925143Y-126310571D01*
X144925143Y-126358952D01*
X144900952Y-126407333D01*
X144876762Y-126431524D01*
X144828381Y-126455714D01*
X144659047Y-126455714D01*
X145142857Y-126262190D02*
X145167047Y-126238000D01*
X145215428Y-126213810D01*
X145336381Y-126213810D01*
X145384762Y-126238000D01*
X145408952Y-126262190D01*
X145433143Y-126310571D01*
X145433143Y-126358952D01*
X145408952Y-126431524D01*
X145118666Y-126721810D01*
X145433143Y-126721810D01*
X146691047Y-126721810D02*
X146691047Y-126213810D01*
X146884571Y-126213810D01*
X146932952Y-126238000D01*
X146957143Y-126262190D01*
X146981333Y-126310571D01*
X146981333Y-126383143D01*
X146957143Y-126431524D01*
X146932952Y-126455714D01*
X146884571Y-126479905D01*
X146691047Y-126479905D01*
X147368381Y-126455714D02*
X147440952Y-126479905D01*
X147465143Y-126504095D01*
X147489333Y-126552476D01*
X147489333Y-126625048D01*
X147465143Y-126673429D01*
X147440952Y-126697619D01*
X147392571Y-126721810D01*
X147199047Y-126721810D01*
X147199047Y-126213810D01*
X147368381Y-126213810D01*
X147416762Y-126238000D01*
X147440952Y-126262190D01*
X147465143Y-126310571D01*
X147465143Y-126358952D01*
X147440952Y-126407333D01*
X147416762Y-126431524D01*
X147368381Y-126455714D01*
X147199047Y-126455714D01*
X147658666Y-126213810D02*
X147973143Y-126213810D01*
X147803809Y-126407333D01*
X147876381Y-126407333D01*
X147924762Y-126431524D01*
X147948952Y-126455714D01*
X147973143Y-126504095D01*
X147973143Y-126625048D01*
X147948952Y-126673429D01*
X147924762Y-126697619D01*
X147876381Y-126721810D01*
X147731238Y-126721810D01*
X147682857Y-126697619D01*
X147658666Y-126673429D01*
X149231047Y-126721810D02*
X149231047Y-126213810D01*
X149424571Y-126213810D01*
X149472952Y-126238000D01*
X149497143Y-126262190D01*
X149521333Y-126310571D01*
X149521333Y-126383143D01*
X149497143Y-126431524D01*
X149472952Y-126455714D01*
X149424571Y-126479905D01*
X149231047Y-126479905D01*
X149908381Y-126455714D02*
X149980952Y-126479905D01*
X150005143Y-126504095D01*
X150029333Y-126552476D01*
X150029333Y-126625048D01*
X150005143Y-126673429D01*
X149980952Y-126697619D01*
X149932571Y-126721810D01*
X149739047Y-126721810D01*
X149739047Y-126213810D01*
X149908381Y-126213810D01*
X149956762Y-126238000D01*
X149980952Y-126262190D01*
X150005143Y-126310571D01*
X150005143Y-126358952D01*
X149980952Y-126407333D01*
X149956762Y-126431524D01*
X149908381Y-126455714D01*
X149739047Y-126455714D01*
X150464762Y-126383143D02*
X150464762Y-126721810D01*
X150343809Y-126189619D02*
X150222857Y-126552476D01*
X150537333Y-126552476D01*
X151771047Y-126721810D02*
X151771047Y-126213810D01*
X151964571Y-126213810D01*
X152012952Y-126238000D01*
X152037143Y-126262190D01*
X152061333Y-126310571D01*
X152061333Y-126383143D01*
X152037143Y-126431524D01*
X152012952Y-126455714D01*
X151964571Y-126479905D01*
X151771047Y-126479905D01*
X152448381Y-126455714D02*
X152520952Y-126479905D01*
X152545143Y-126504095D01*
X152569333Y-126552476D01*
X152569333Y-126625048D01*
X152545143Y-126673429D01*
X152520952Y-126697619D01*
X152472571Y-126721810D01*
X152279047Y-126721810D01*
X152279047Y-126213810D01*
X152448381Y-126213810D01*
X152496762Y-126238000D01*
X152520952Y-126262190D01*
X152545143Y-126310571D01*
X152545143Y-126358952D01*
X152520952Y-126407333D01*
X152496762Y-126431524D01*
X152448381Y-126455714D01*
X152279047Y-126455714D01*
X153028952Y-126213810D02*
X152787047Y-126213810D01*
X152762857Y-126455714D01*
X152787047Y-126431524D01*
X152835428Y-126407333D01*
X152956381Y-126407333D01*
X153004762Y-126431524D01*
X153028952Y-126455714D01*
X153053143Y-126504095D01*
X153053143Y-126625048D01*
X153028952Y-126673429D01*
X153004762Y-126697619D01*
X152956381Y-126721810D01*
X152835428Y-126721810D01*
X152787047Y-126697619D01*
X152762857Y-126673429D01*
X151529143Y-94826667D02*
X151771048Y-94826667D01*
X151480762Y-94971810D02*
X151650095Y-94463810D01*
X151819429Y-94971810D01*
X151988762Y-94971810D02*
X151988762Y-94463810D01*
X152109715Y-94463810D01*
X152182286Y-94488000D01*
X152230667Y-94536381D01*
X152254858Y-94584762D01*
X152279048Y-94681524D01*
X152279048Y-94754095D01*
X152254858Y-94850857D01*
X152230667Y-94899238D01*
X152182286Y-94947619D01*
X152109715Y-94971810D01*
X151988762Y-94971810D01*
X152787048Y-94923429D02*
X152762858Y-94947619D01*
X152690286Y-94971810D01*
X152641905Y-94971810D01*
X152569334Y-94947619D01*
X152520953Y-94899238D01*
X152496762Y-94850857D01*
X152472572Y-94754095D01*
X152472572Y-94681524D01*
X152496762Y-94584762D01*
X152520953Y-94536381D01*
X152569334Y-94488000D01*
X152641905Y-94463810D01*
X152690286Y-94463810D01*
X152762858Y-94488000D01*
X152787048Y-94512190D01*
X153222477Y-94463810D02*
X153125715Y-94463810D01*
X153077334Y-94488000D01*
X153053143Y-94512190D01*
X153004762Y-94584762D01*
X152980572Y-94681524D01*
X152980572Y-94875048D01*
X153004762Y-94923429D01*
X153028953Y-94947619D01*
X153077334Y-94971810D01*
X153174096Y-94971810D01*
X153222477Y-94947619D01*
X153246667Y-94923429D01*
X153270858Y-94875048D01*
X153270858Y-94754095D01*
X153246667Y-94705714D01*
X153222477Y-94681524D01*
X153174096Y-94657333D01*
X153077334Y-94657333D01*
X153028953Y-94681524D01*
X153004762Y-94705714D01*
X152980572Y-94754095D01*
X148989143Y-94826667D02*
X149231048Y-94826667D01*
X148940762Y-94971810D02*
X149110095Y-94463810D01*
X149279429Y-94971810D01*
X149448762Y-94971810D02*
X149448762Y-94463810D01*
X149569715Y-94463810D01*
X149642286Y-94488000D01*
X149690667Y-94536381D01*
X149714858Y-94584762D01*
X149739048Y-94681524D01*
X149739048Y-94754095D01*
X149714858Y-94850857D01*
X149690667Y-94899238D01*
X149642286Y-94947619D01*
X149569715Y-94971810D01*
X149448762Y-94971810D01*
X150247048Y-94923429D02*
X150222858Y-94947619D01*
X150150286Y-94971810D01*
X150101905Y-94971810D01*
X150029334Y-94947619D01*
X149980953Y-94899238D01*
X149956762Y-94850857D01*
X149932572Y-94754095D01*
X149932572Y-94681524D01*
X149956762Y-94584762D01*
X149980953Y-94536381D01*
X150029334Y-94488000D01*
X150101905Y-94463810D01*
X150150286Y-94463810D01*
X150222858Y-94488000D01*
X150247048Y-94512190D01*
X150416381Y-94463810D02*
X150755048Y-94463810D01*
X150537334Y-94971810D01*
X146691047Y-94971810D02*
X146691047Y-94463810D01*
X146884571Y-94463810D01*
X146932952Y-94488000D01*
X146957143Y-94512190D01*
X146981333Y-94560571D01*
X146981333Y-94633143D01*
X146957143Y-94681524D01*
X146932952Y-94705714D01*
X146884571Y-94729905D01*
X146691047Y-94729905D01*
X147489333Y-94923429D02*
X147465143Y-94947619D01*
X147392571Y-94971810D01*
X147344190Y-94971810D01*
X147271619Y-94947619D01*
X147223238Y-94899238D01*
X147199047Y-94850857D01*
X147174857Y-94754095D01*
X147174857Y-94681524D01*
X147199047Y-94584762D01*
X147223238Y-94536381D01*
X147271619Y-94488000D01*
X147344190Y-94463810D01*
X147392571Y-94463810D01*
X147465143Y-94488000D01*
X147489333Y-94512190D01*
X147803809Y-94463810D02*
X147852190Y-94463810D01*
X147900571Y-94488000D01*
X147924762Y-94512190D01*
X147948952Y-94560571D01*
X147973143Y-94657333D01*
X147973143Y-94778286D01*
X147948952Y-94875048D01*
X147924762Y-94923429D01*
X147900571Y-94947619D01*
X147852190Y-94971810D01*
X147803809Y-94971810D01*
X147755428Y-94947619D01*
X147731238Y-94923429D01*
X147707047Y-94875048D01*
X147682857Y-94778286D01*
X147682857Y-94657333D01*
X147707047Y-94560571D01*
X147731238Y-94512190D01*
X147755428Y-94488000D01*
X147803809Y-94463810D01*
X144151047Y-94971810D02*
X144151047Y-94463810D01*
X144344571Y-94463810D01*
X144392952Y-94488000D01*
X144417143Y-94512190D01*
X144441333Y-94560571D01*
X144441333Y-94633143D01*
X144417143Y-94681524D01*
X144392952Y-94705714D01*
X144344571Y-94729905D01*
X144151047Y-94729905D01*
X144949333Y-94923429D02*
X144925143Y-94947619D01*
X144852571Y-94971810D01*
X144804190Y-94971810D01*
X144731619Y-94947619D01*
X144683238Y-94899238D01*
X144659047Y-94850857D01*
X144634857Y-94754095D01*
X144634857Y-94681524D01*
X144659047Y-94584762D01*
X144683238Y-94536381D01*
X144731619Y-94488000D01*
X144804190Y-94463810D01*
X144852571Y-94463810D01*
X144925143Y-94488000D01*
X144949333Y-94512190D01*
X145433143Y-94971810D02*
X145142857Y-94971810D01*
X145288000Y-94971810D02*
X145288000Y-94463810D01*
X145239619Y-94536381D01*
X145191238Y-94584762D01*
X145142857Y-94608952D01*
X141611047Y-94971810D02*
X141611047Y-94463810D01*
X141804571Y-94463810D01*
X141852952Y-94488000D01*
X141877143Y-94512190D01*
X141901333Y-94560571D01*
X141901333Y-94633143D01*
X141877143Y-94681524D01*
X141852952Y-94705714D01*
X141804571Y-94729905D01*
X141611047Y-94729905D01*
X142409333Y-94923429D02*
X142385143Y-94947619D01*
X142312571Y-94971810D01*
X142264190Y-94971810D01*
X142191619Y-94947619D01*
X142143238Y-94899238D01*
X142119047Y-94850857D01*
X142094857Y-94754095D01*
X142094857Y-94681524D01*
X142119047Y-94584762D01*
X142143238Y-94536381D01*
X142191619Y-94488000D01*
X142264190Y-94463810D01*
X142312571Y-94463810D01*
X142385143Y-94488000D01*
X142409333Y-94512190D01*
X142602857Y-94512190D02*
X142627047Y-94488000D01*
X142675428Y-94463810D01*
X142796381Y-94463810D01*
X142844762Y-94488000D01*
X142868952Y-94512190D01*
X142893143Y-94560571D01*
X142893143Y-94608952D01*
X142868952Y-94681524D01*
X142578666Y-94971810D01*
X142893143Y-94971810D01*
X139071047Y-94971810D02*
X139071047Y-94463810D01*
X139264571Y-94463810D01*
X139312952Y-94488000D01*
X139337143Y-94512190D01*
X139361333Y-94560571D01*
X139361333Y-94633143D01*
X139337143Y-94681524D01*
X139312952Y-94705714D01*
X139264571Y-94729905D01*
X139071047Y-94729905D01*
X139869333Y-94923429D02*
X139845143Y-94947619D01*
X139772571Y-94971810D01*
X139724190Y-94971810D01*
X139651619Y-94947619D01*
X139603238Y-94899238D01*
X139579047Y-94850857D01*
X139554857Y-94754095D01*
X139554857Y-94681524D01*
X139579047Y-94584762D01*
X139603238Y-94536381D01*
X139651619Y-94488000D01*
X139724190Y-94463810D01*
X139772571Y-94463810D01*
X139845143Y-94488000D01*
X139869333Y-94512190D01*
X140038666Y-94463810D02*
X140353143Y-94463810D01*
X140183809Y-94657333D01*
X140256381Y-94657333D01*
X140304762Y-94681524D01*
X140328952Y-94705714D01*
X140353143Y-94754095D01*
X140353143Y-94875048D01*
X140328952Y-94923429D01*
X140304762Y-94947619D01*
X140256381Y-94971810D01*
X140111238Y-94971810D01*
X140062857Y-94947619D01*
X140038666Y-94923429D01*
X136531047Y-94971810D02*
X136531047Y-94463810D01*
X136724571Y-94463810D01*
X136772952Y-94488000D01*
X136797143Y-94512190D01*
X136821333Y-94560571D01*
X136821333Y-94633143D01*
X136797143Y-94681524D01*
X136772952Y-94705714D01*
X136724571Y-94729905D01*
X136531047Y-94729905D01*
X137329333Y-94923429D02*
X137305143Y-94947619D01*
X137232571Y-94971810D01*
X137184190Y-94971810D01*
X137111619Y-94947619D01*
X137063238Y-94899238D01*
X137039047Y-94850857D01*
X137014857Y-94754095D01*
X137014857Y-94681524D01*
X137039047Y-94584762D01*
X137063238Y-94536381D01*
X137111619Y-94488000D01*
X137184190Y-94463810D01*
X137232571Y-94463810D01*
X137305143Y-94488000D01*
X137329333Y-94512190D01*
X137764762Y-94633143D02*
X137764762Y-94971810D01*
X137643809Y-94439619D02*
X137522857Y-94802476D01*
X137837333Y-94802476D01*
X133991047Y-94971810D02*
X133991047Y-94463810D01*
X134184571Y-94463810D01*
X134232952Y-94488000D01*
X134257143Y-94512190D01*
X134281333Y-94560571D01*
X134281333Y-94633143D01*
X134257143Y-94681524D01*
X134232952Y-94705714D01*
X134184571Y-94729905D01*
X133991047Y-94729905D01*
X134789333Y-94923429D02*
X134765143Y-94947619D01*
X134692571Y-94971810D01*
X134644190Y-94971810D01*
X134571619Y-94947619D01*
X134523238Y-94899238D01*
X134499047Y-94850857D01*
X134474857Y-94754095D01*
X134474857Y-94681524D01*
X134499047Y-94584762D01*
X134523238Y-94536381D01*
X134571619Y-94488000D01*
X134644190Y-94463810D01*
X134692571Y-94463810D01*
X134765143Y-94488000D01*
X134789333Y-94512190D01*
X135248952Y-94463810D02*
X135007047Y-94463810D01*
X134982857Y-94705714D01*
X135007047Y-94681524D01*
X135055428Y-94657333D01*
X135176381Y-94657333D01*
X135224762Y-94681524D01*
X135248952Y-94705714D01*
X135273143Y-94754095D01*
X135273143Y-94875048D01*
X135248952Y-94923429D01*
X135224762Y-94947619D01*
X135176381Y-94971810D01*
X135055428Y-94971810D01*
X135007047Y-94947619D01*
X134982857Y-94923429D01*
X131451047Y-94971810D02*
X131451047Y-94463810D01*
X131644571Y-94463810D01*
X131692952Y-94488000D01*
X131717143Y-94512190D01*
X131741333Y-94560571D01*
X131741333Y-94633143D01*
X131717143Y-94681524D01*
X131692952Y-94705714D01*
X131644571Y-94729905D01*
X131451047Y-94729905D01*
X132249333Y-94923429D02*
X132225143Y-94947619D01*
X132152571Y-94971810D01*
X132104190Y-94971810D01*
X132031619Y-94947619D01*
X131983238Y-94899238D01*
X131959047Y-94850857D01*
X131934857Y-94754095D01*
X131934857Y-94681524D01*
X131959047Y-94584762D01*
X131983238Y-94536381D01*
X132031619Y-94488000D01*
X132104190Y-94463810D01*
X132152571Y-94463810D01*
X132225143Y-94488000D01*
X132249333Y-94512190D01*
X132684762Y-94463810D02*
X132588000Y-94463810D01*
X132539619Y-94488000D01*
X132515428Y-94512190D01*
X132467047Y-94584762D01*
X132442857Y-94681524D01*
X132442857Y-94875048D01*
X132467047Y-94923429D01*
X132491238Y-94947619D01*
X132539619Y-94971810D01*
X132636381Y-94971810D01*
X132684762Y-94947619D01*
X132708952Y-94923429D01*
X132733143Y-94875048D01*
X132733143Y-94754095D01*
X132708952Y-94705714D01*
X132684762Y-94681524D01*
X132636381Y-94657333D01*
X132539619Y-94657333D01*
X132491238Y-94681524D01*
X132467047Y-94705714D01*
X132442857Y-94754095D01*
X128911047Y-94971810D02*
X128911047Y-94463810D01*
X129104571Y-94463810D01*
X129152952Y-94488000D01*
X129177143Y-94512190D01*
X129201333Y-94560571D01*
X129201333Y-94633143D01*
X129177143Y-94681524D01*
X129152952Y-94705714D01*
X129104571Y-94729905D01*
X128911047Y-94729905D01*
X129419047Y-94971810D02*
X129419047Y-94463810D01*
X129540000Y-94463810D01*
X129612571Y-94488000D01*
X129660952Y-94536381D01*
X129685143Y-94584762D01*
X129709333Y-94681524D01*
X129709333Y-94754095D01*
X129685143Y-94850857D01*
X129660952Y-94899238D01*
X129612571Y-94947619D01*
X129540000Y-94971810D01*
X129419047Y-94971810D01*
X130023809Y-94463810D02*
X130072190Y-94463810D01*
X130120571Y-94488000D01*
X130144762Y-94512190D01*
X130168952Y-94560571D01*
X130193143Y-94657333D01*
X130193143Y-94778286D01*
X130168952Y-94875048D01*
X130144762Y-94923429D01*
X130120571Y-94947619D01*
X130072190Y-94971810D01*
X130023809Y-94971810D01*
X129975428Y-94947619D01*
X129951238Y-94923429D01*
X129927047Y-94875048D01*
X129902857Y-94778286D01*
X129902857Y-94657333D01*
X129927047Y-94560571D01*
X129951238Y-94512190D01*
X129975428Y-94488000D01*
X130023809Y-94463810D01*
X126371047Y-94971810D02*
X126371047Y-94463810D01*
X126564571Y-94463810D01*
X126612952Y-94488000D01*
X126637143Y-94512190D01*
X126661333Y-94560571D01*
X126661333Y-94633143D01*
X126637143Y-94681524D01*
X126612952Y-94705714D01*
X126564571Y-94729905D01*
X126371047Y-94729905D01*
X126879047Y-94971810D02*
X126879047Y-94463810D01*
X127000000Y-94463810D01*
X127072571Y-94488000D01*
X127120952Y-94536381D01*
X127145143Y-94584762D01*
X127169333Y-94681524D01*
X127169333Y-94754095D01*
X127145143Y-94850857D01*
X127120952Y-94899238D01*
X127072571Y-94947619D01*
X127000000Y-94971810D01*
X126879047Y-94971810D01*
X127362857Y-94512190D02*
X127387047Y-94488000D01*
X127435428Y-94463810D01*
X127556381Y-94463810D01*
X127604762Y-94488000D01*
X127628952Y-94512190D01*
X127653143Y-94560571D01*
X127653143Y-94608952D01*
X127628952Y-94681524D01*
X127338666Y-94971810D01*
X127653143Y-94971810D01*
X123831047Y-94971810D02*
X123831047Y-94463810D01*
X124024571Y-94463810D01*
X124072952Y-94488000D01*
X124097143Y-94512190D01*
X124121333Y-94560571D01*
X124121333Y-94633143D01*
X124097143Y-94681524D01*
X124072952Y-94705714D01*
X124024571Y-94729905D01*
X123831047Y-94729905D01*
X124339047Y-94971810D02*
X124339047Y-94463810D01*
X124460000Y-94463810D01*
X124532571Y-94488000D01*
X124580952Y-94536381D01*
X124605143Y-94584762D01*
X124629333Y-94681524D01*
X124629333Y-94754095D01*
X124605143Y-94850857D01*
X124580952Y-94899238D01*
X124532571Y-94947619D01*
X124460000Y-94971810D01*
X124339047Y-94971810D01*
X124822857Y-94512190D02*
X124847047Y-94488000D01*
X124895428Y-94463810D01*
X125016381Y-94463810D01*
X125064762Y-94488000D01*
X125088952Y-94512190D01*
X125113143Y-94560571D01*
X125113143Y-94608952D01*
X125088952Y-94681524D01*
X124798666Y-94971810D01*
X125113143Y-94971810D01*
X121291047Y-94971810D02*
X121291047Y-94463810D01*
X121484571Y-94463810D01*
X121532952Y-94488000D01*
X121557143Y-94512190D01*
X121581333Y-94560571D01*
X121581333Y-94633143D01*
X121557143Y-94681524D01*
X121532952Y-94705714D01*
X121484571Y-94729905D01*
X121291047Y-94729905D01*
X121799047Y-94971810D02*
X121799047Y-94463810D01*
X121920000Y-94463810D01*
X121992571Y-94488000D01*
X122040952Y-94536381D01*
X122065143Y-94584762D01*
X122089333Y-94681524D01*
X122089333Y-94754095D01*
X122065143Y-94850857D01*
X122040952Y-94899238D01*
X121992571Y-94947619D01*
X121920000Y-94971810D01*
X121799047Y-94971810D01*
X122258666Y-94463810D02*
X122573143Y-94463810D01*
X122403809Y-94657333D01*
X122476381Y-94657333D01*
X122524762Y-94681524D01*
X122548952Y-94705714D01*
X122573143Y-94754095D01*
X122573143Y-94875048D01*
X122548952Y-94923429D01*
X122524762Y-94947619D01*
X122476381Y-94971810D01*
X122331238Y-94971810D01*
X122282857Y-94947619D01*
X122258666Y-94923429D01*
X118751047Y-94971810D02*
X118751047Y-94463810D01*
X118944571Y-94463810D01*
X118992952Y-94488000D01*
X119017143Y-94512190D01*
X119041333Y-94560571D01*
X119041333Y-94633143D01*
X119017143Y-94681524D01*
X118992952Y-94705714D01*
X118944571Y-94729905D01*
X118751047Y-94729905D01*
X119259047Y-94971810D02*
X119259047Y-94463810D01*
X119380000Y-94463810D01*
X119452571Y-94488000D01*
X119500952Y-94536381D01*
X119525143Y-94584762D01*
X119549333Y-94681524D01*
X119549333Y-94754095D01*
X119525143Y-94850857D01*
X119500952Y-94899238D01*
X119452571Y-94947619D01*
X119380000Y-94971810D01*
X119259047Y-94971810D01*
X119984762Y-94633143D02*
X119984762Y-94971810D01*
X119863809Y-94439619D02*
X119742857Y-94802476D01*
X120057333Y-94802476D01*
X116452953Y-94488000D02*
X116404572Y-94463810D01*
X116332000Y-94463810D01*
X116259429Y-94488000D01*
X116211048Y-94536381D01*
X116186857Y-94584762D01*
X116162667Y-94681524D01*
X116162667Y-94754095D01*
X116186857Y-94850857D01*
X116211048Y-94899238D01*
X116259429Y-94947619D01*
X116332000Y-94971810D01*
X116380381Y-94971810D01*
X116452953Y-94947619D01*
X116477143Y-94923429D01*
X116477143Y-94754095D01*
X116380381Y-94754095D01*
X116694857Y-94971810D02*
X116694857Y-94463810D01*
X116985143Y-94971810D01*
X116985143Y-94463810D01*
X117227047Y-94971810D02*
X117227047Y-94463810D01*
X117348000Y-94463810D01*
X117420571Y-94488000D01*
X117468952Y-94536381D01*
X117493143Y-94584762D01*
X117517333Y-94681524D01*
X117517333Y-94754095D01*
X117493143Y-94850857D01*
X117468952Y-94899238D01*
X117420571Y-94947619D01*
X117348000Y-94971810D01*
X117227047Y-94971810D01*
D13*
X114554000Y-97028000D02*
G75*
G03X114554000Y-97028000I-2286000J0D01*
G01*
X128778000Y-131953000D02*
X129286000Y-130618000D01*
X128905000Y-132080000D02*
G75*
G03X128905000Y-132080000I-127000J0D01*
G01*
X128905000Y-130556000D02*
G75*
G03X128905000Y-130556000I-127000J0D01*
G01*
X128778000Y-133604000D02*
X128778000Y-132207000D01*
X128778000Y-129032000D02*
X128778000Y-130429000D01*
X126365000Y-133604000D02*
X131191000Y-133604000D01*
X126365000Y-129032000D02*
X131191000Y-129032000D01*
X125778000Y-129868000D02*
X125778000Y-132768000D01*
X125928000Y-134318000D02*
X131628000Y-134318000D01*
X131778000Y-132768000D02*
X131778000Y-129868000D01*
X131628000Y-128318000D02*
X125928000Y-128318000D01*
X115070000Y-114642000D02*
X116070000Y-114642000D01*
X116070000Y-112942000D02*
X115070000Y-112942000D01*
X115070000Y-117690000D02*
X116070000Y-117690000D01*
X116070000Y-115990000D02*
X115070000Y-115990000D01*
X121324000Y-105418000D02*
X121324000Y-106418000D01*
X123024000Y-106418000D02*
X123024000Y-105418000D01*
X118784000Y-105418000D02*
X118784000Y-106418000D01*
X120484000Y-106418000D02*
X120484000Y-105418000D01*
X141978000Y-108878000D02*
X140978000Y-108878000D01*
X140978000Y-110578000D02*
X141978000Y-110578000D01*
X138930000Y-105576000D02*
X137930000Y-105576000D01*
X137930000Y-107276000D02*
X138930000Y-107276000D01*
X145042000Y-115404000D02*
X146042000Y-115404000D01*
X146042000Y-113704000D02*
X145042000Y-113704000D01*
X141978000Y-113704000D02*
X140978000Y-113704000D01*
X140978000Y-115404000D02*
X141978000Y-115404000D01*
X148502000Y-119134000D02*
X148502000Y-120134000D01*
X150202000Y-120134000D02*
X150202000Y-119134000D01*
X141236000Y-99492000D02*
X141236000Y-102192000D01*
X142736000Y-99492000D02*
X142736000Y-102192000D01*
X141836000Y-100992000D02*
X142086000Y-100992000D01*
X142086000Y-100992000D02*
X141936000Y-100842000D01*
X142336000Y-100742000D02*
X141636000Y-100742000D01*
X141986000Y-101092000D02*
X141986000Y-101442000D01*
X141986000Y-100742000D02*
X142336000Y-101092000D01*
X142336000Y-101092000D02*
X141636000Y-101092000D01*
X141636000Y-101092000D02*
X141986000Y-100742000D01*
X137934000Y-99492000D02*
X137934000Y-102192000D01*
X139434000Y-99492000D02*
X139434000Y-102192000D01*
X138534000Y-100992000D02*
X138784000Y-100992000D01*
X138784000Y-100992000D02*
X138634000Y-100842000D01*
X139034000Y-100742000D02*
X138334000Y-100742000D01*
X138684000Y-101092000D02*
X138684000Y-101442000D01*
X138684000Y-100742000D02*
X139034000Y-101092000D01*
X139034000Y-101092000D02*
X138334000Y-101092000D01*
X138334000Y-101092000D02*
X138684000Y-100742000D01*
X126423000Y-102801000D02*
X126423000Y-103126000D01*
X133673000Y-102801000D02*
X133673000Y-103126000D01*
X133673000Y-110051000D02*
X133673000Y-109726000D01*
X126423000Y-110051000D02*
X126423000Y-109726000D01*
X126423000Y-102801000D02*
X126748000Y-102801000D01*
X126423000Y-110051000D02*
X126748000Y-110051000D01*
X133673000Y-110051000D02*
X133348000Y-110051000D01*
X133673000Y-102801000D02*
X133348000Y-102801000D01*
X126423000Y-103126000D02*
X124998000Y-103126000D01*
X137072000Y-110244000D02*
X137072000Y-111244000D01*
X138772000Y-111244000D02*
X138772000Y-110244000D01*
X117969000Y-100238000D02*
X117969000Y-101438000D01*
X116219000Y-101438000D02*
X116219000Y-100238000D01*
X149973000Y-110271000D02*
X149973000Y-111471000D01*
X148223000Y-111471000D02*
X148223000Y-110271000D01*
X145585000Y-121447000D02*
X145585000Y-121302000D01*
X141435000Y-121447000D02*
X141435000Y-121302000D01*
X141435000Y-116297000D02*
X141435000Y-116442000D01*
X145585000Y-116297000D02*
X145585000Y-116442000D01*
X145585000Y-121447000D02*
X141435000Y-121447000D01*
X145585000Y-116297000D02*
X141435000Y-116297000D01*
X145585000Y-121302000D02*
X146985000Y-121302000D01*
X121904760Y-120015000D02*
X121503440Y-120215660D01*
X121503440Y-120215660D02*
X120904000Y-120317260D01*
X120904000Y-120317260D02*
X120403620Y-120215660D01*
X120403620Y-120215660D02*
X119705120Y-119816880D01*
X119705120Y-119816880D02*
X119303800Y-119214900D01*
X119303800Y-119214900D02*
X119103140Y-118615460D01*
X119103140Y-118615460D02*
X119103140Y-112016540D01*
X119103140Y-112016540D02*
X119303800Y-111315500D01*
X119303800Y-111315500D02*
X119603520Y-110916720D01*
X119603520Y-110916720D02*
X120103900Y-110515400D01*
X120103900Y-110515400D02*
X120703340Y-110314740D01*
X120703340Y-110314740D02*
X121203720Y-110314740D01*
X121203720Y-110314740D02*
X121704100Y-110515400D01*
X121704100Y-110515400D02*
X122303540Y-111015780D01*
X122303540Y-111015780D02*
X122603260Y-111516160D01*
X122603260Y-111516160D02*
X122704860Y-112016540D01*
X122704860Y-112115600D02*
X122704860Y-118717060D01*
X122704860Y-118717060D02*
X122603260Y-119115840D01*
X122603260Y-119115840D02*
X122303540Y-119616220D01*
X122303540Y-119616220D02*
X121803160Y-120116600D01*
X123233180Y-112125760D02*
X123184920Y-111666020D01*
X123184920Y-111666020D02*
X123073160Y-111267240D01*
X123073160Y-111267240D02*
X122854720Y-110835440D01*
X122854720Y-110835440D02*
X122623580Y-110545880D01*
X122623580Y-110545880D02*
X122273060Y-110215680D01*
X122273060Y-110215680D02*
X121734580Y-109926120D01*
X121734580Y-109926120D02*
X121135140Y-109796580D01*
X121135140Y-109796580D02*
X120624600Y-109796580D01*
X120624600Y-109796580D02*
X119923560Y-109966760D01*
X119923560Y-109966760D02*
X119334280Y-110365540D01*
X119334280Y-110365540D02*
X118963440Y-110825280D01*
X118963440Y-110825280D02*
X118755160Y-111246920D01*
X118755160Y-111246920D02*
X118595140Y-111696500D01*
X118595140Y-111696500D02*
X118564660Y-112135920D01*
X118783100Y-119476520D02*
X119004080Y-119854980D01*
X119004080Y-119854980D02*
X119283480Y-120175020D01*
X119283480Y-120175020D02*
X119613680Y-120426480D01*
X119613680Y-120426480D02*
X120164860Y-120726200D01*
X120164860Y-120726200D02*
X120634760Y-120835420D01*
X120634760Y-120835420D02*
X121094500Y-120855740D01*
X121094500Y-120855740D02*
X121554240Y-120766840D01*
X121554240Y-120766840D02*
X122003820Y-120576340D01*
X122003820Y-120576340D02*
X122473720Y-120215660D01*
X122473720Y-120215660D02*
X122793760Y-119865140D01*
X122793760Y-119865140D02*
X123024900Y-119476520D01*
X123024900Y-119476520D02*
X123164600Y-119047260D01*
X123164600Y-119047260D02*
X123233180Y-118605300D01*
X118574820Y-112115600D02*
X118574820Y-118567200D01*
X118574820Y-118567200D02*
X118612920Y-118986300D01*
X118612920Y-118986300D02*
X118783100Y-119476520D01*
X123233180Y-112115600D02*
X123233180Y-118567200D01*
X117348000Y-131953000D02*
X117856000Y-130618000D01*
X117475000Y-132080000D02*
G75*
G03X117475000Y-132080000I-127000J0D01*
G01*
X117475000Y-130556000D02*
G75*
G03X117475000Y-130556000I-127000J0D01*
G01*
X117348000Y-133604000D02*
X117348000Y-132207000D01*
X117348000Y-129032000D02*
X117348000Y-130429000D01*
X114935000Y-133604000D02*
X119761000Y-133604000D01*
X114935000Y-129032000D02*
X119761000Y-129032000D01*
X114348000Y-129868000D02*
X114348000Y-132768000D01*
X114498000Y-134318000D02*
X120198000Y-134318000D01*
X120348000Y-132768000D02*
X120348000Y-129868000D01*
X120198000Y-128318000D02*
X114498000Y-128318000D01*
X140208000Y-131953000D02*
X140716000Y-130618000D01*
X140335000Y-132080000D02*
G75*
G03X140335000Y-132080000I-127000J0D01*
G01*
X140335000Y-130556000D02*
G75*
G03X140335000Y-130556000I-127000J0D01*
G01*
X140208000Y-133604000D02*
X140208000Y-132207000D01*
X140208000Y-129032000D02*
X140208000Y-130429000D01*
X137795000Y-133604000D02*
X142621000Y-133604000D01*
X137795000Y-129032000D02*
X142621000Y-129032000D01*
X137208000Y-129868000D02*
X137208000Y-132768000D01*
X137358000Y-134318000D02*
X143058000Y-134318000D01*
X143208000Y-132768000D02*
X143208000Y-129868000D01*
X143058000Y-128318000D02*
X137358000Y-128318000D01*
X151638000Y-131953000D02*
X152146000Y-130618000D01*
X151765000Y-132080000D02*
G75*
G03X151765000Y-132080000I-127000J0D01*
G01*
X151765000Y-130556000D02*
G75*
G03X151765000Y-130556000I-127000J0D01*
G01*
X151638000Y-133604000D02*
X151638000Y-132207000D01*
X151638000Y-129032000D02*
X151638000Y-130429000D01*
X149225000Y-133604000D02*
X154051000Y-133604000D01*
X149225000Y-129032000D02*
X154051000Y-129032000D01*
X148638000Y-129868000D02*
X148638000Y-132768000D01*
X148788000Y-134318000D02*
X154488000Y-134318000D01*
X154638000Y-132768000D02*
X154638000Y-129868000D01*
X154488000Y-128318000D02*
X148788000Y-128318000D01*
X117348000Y-140843000D02*
X117856000Y-139508000D01*
X117475000Y-140970000D02*
G75*
G03X117475000Y-140970000I-127000J0D01*
G01*
X117475000Y-139446000D02*
G75*
G03X117475000Y-139446000I-127000J0D01*
G01*
X117348000Y-142494000D02*
X117348000Y-141097000D01*
X117348000Y-137922000D02*
X117348000Y-139319000D01*
X114935000Y-142494000D02*
X119761000Y-142494000D01*
X114935000Y-137922000D02*
X119761000Y-137922000D01*
X114348000Y-138758000D02*
X114348000Y-141658000D01*
X114498000Y-143208000D02*
X120198000Y-143208000D01*
X120348000Y-141658000D02*
X120348000Y-138758000D01*
X120198000Y-137208000D02*
X114498000Y-137208000D01*
X128778000Y-140843000D02*
X129286000Y-139508000D01*
X128905000Y-140970000D02*
G75*
G03X128905000Y-140970000I-127000J0D01*
G01*
X128905000Y-139446000D02*
G75*
G03X128905000Y-139446000I-127000J0D01*
G01*
X128778000Y-142494000D02*
X128778000Y-141097000D01*
X128778000Y-137922000D02*
X128778000Y-139319000D01*
X126365000Y-142494000D02*
X131191000Y-142494000D01*
X126365000Y-137922000D02*
X131191000Y-137922000D01*
X125778000Y-138758000D02*
X125778000Y-141658000D01*
X125928000Y-143208000D02*
X131628000Y-143208000D01*
X131778000Y-141658000D02*
X131778000Y-138758000D01*
X131628000Y-137208000D02*
X125928000Y-137208000D01*
X140208000Y-140843000D02*
X140716000Y-139508000D01*
X140335000Y-140970000D02*
G75*
G03X140335000Y-140970000I-127000J0D01*
G01*
X140335000Y-139446000D02*
G75*
G03X140335000Y-139446000I-127000J0D01*
G01*
X140208000Y-142494000D02*
X140208000Y-141097000D01*
X140208000Y-137922000D02*
X140208000Y-139319000D01*
X137795000Y-142494000D02*
X142621000Y-142494000D01*
X137795000Y-137922000D02*
X142621000Y-137922000D01*
X137208000Y-138758000D02*
X137208000Y-141658000D01*
X137358000Y-143208000D02*
X143058000Y-143208000D01*
X143208000Y-141658000D02*
X143208000Y-138758000D01*
X143058000Y-137208000D02*
X137358000Y-137208000D01*
X151638000Y-140843000D02*
X152146000Y-139508000D01*
X151765000Y-140970000D02*
G75*
G03X151765000Y-140970000I-127000J0D01*
G01*
X151765000Y-139446000D02*
G75*
G03X151765000Y-139446000I-127000J0D01*
G01*
X151638000Y-142494000D02*
X151638000Y-141097000D01*
X151638000Y-137922000D02*
X151638000Y-139319000D01*
X149225000Y-142494000D02*
X154051000Y-142494000D01*
X149225000Y-137922000D02*
X154051000Y-137922000D01*
X148638000Y-138758000D02*
X148638000Y-141658000D01*
X148788000Y-143208000D02*
X154488000Y-143208000D01*
X154638000Y-141658000D02*
X154638000Y-138758000D01*
X154488000Y-137208000D02*
X148788000Y-137208000D01*
X148971000Y-103886000D02*
X150306000Y-104394000D01*
X148971000Y-103886000D02*
G75*
G03X148971000Y-103886000I-127000J0D01*
G01*
X150495000Y-103886000D02*
G75*
G03X150495000Y-103886000I-127000J0D01*
G01*
X147320000Y-103886000D02*
X148717000Y-103886000D01*
X151892000Y-103886000D02*
X150495000Y-103886000D01*
X147320000Y-101473000D02*
X147320000Y-106299000D01*
X151892000Y-101473000D02*
X151892000Y-106299000D01*
X151056000Y-100886000D02*
X148156000Y-100886000D01*
X146606000Y-101036000D02*
X146606000Y-106736000D01*
X148156000Y-106886000D02*
X151056000Y-106886000D01*
X152606000Y-106736000D02*
X152606000Y-101036000D01*
X159258000Y-97028000D02*
G75*
G03X159258000Y-97028000I-2286000J0D01*
G01*
X114554000Y-123952000D02*
G75*
G03X114554000Y-123952000I-2286000J0D01*
G01*
X159258000Y-123952000D02*
G75*
G03X159258000Y-123952000I-2286000J0D01*
G01*
X154656000Y-103098000D02*
X154656000Y-104648000D01*
X155956000Y-103098000D02*
X154656000Y-103098000D01*
X160147000Y-104521000D02*
X165989000Y-104521000D01*
X165989000Y-104521000D02*
X165989000Y-104775000D01*
X165989000Y-104775000D02*
X160147000Y-104775000D01*
X160147000Y-104775000D02*
X160147000Y-104648000D01*
X160147000Y-104648000D02*
X165989000Y-104648000D01*
X157480000Y-104394000D02*
X157099000Y-104394000D01*
X157480000Y-104902000D02*
X157099000Y-104902000D01*
X157480000Y-106934000D02*
X157099000Y-106934000D01*
X157480000Y-107442000D02*
X157099000Y-107442000D01*
X157480000Y-103378000D02*
X160020000Y-103378000D01*
X157480000Y-105918000D02*
X160020000Y-105918000D01*
X157480000Y-105918000D02*
X157480000Y-108458000D01*
X157480000Y-108458000D02*
X160020000Y-108458000D01*
X160020000Y-106934000D02*
X166116000Y-106934000D01*
X166116000Y-106934000D02*
X166116000Y-107442000D01*
X166116000Y-107442000D02*
X160020000Y-107442000D01*
X160020000Y-108458000D02*
X160020000Y-105918000D01*
X160020000Y-105918000D02*
X160020000Y-103378000D01*
X166116000Y-104902000D02*
X160020000Y-104902000D01*
X166116000Y-104394000D02*
X166116000Y-104902000D01*
X160020000Y-104394000D02*
X166116000Y-104394000D01*
X157480000Y-105918000D02*
X160020000Y-105918000D01*
X157480000Y-103378000D02*
X157480000Y-105918000D01*
X107942540Y-102075100D02*
X107942540Y-110775100D01*
X114347540Y-102075100D02*
X114347540Y-110775100D01*
X114347540Y-110775100D02*
X107942540Y-110775100D01*
X109172540Y-110775100D02*
X109172540Y-102075100D01*
X107942540Y-102075100D02*
X114347540Y-102075100D01*
X153924000Y-113792000D02*
X153924000Y-118872000D01*
X153644000Y-110972000D02*
X155194000Y-110972000D01*
X156464000Y-111252000D02*
X156464000Y-113792000D01*
X156464000Y-113792000D02*
X153924000Y-113792000D01*
X153924000Y-118872000D02*
X159004000Y-118872000D01*
X159004000Y-118872000D02*
X159004000Y-113792000D01*
X153644000Y-110972000D02*
X153644000Y-112522000D01*
X159004000Y-111252000D02*
X156464000Y-111252000D01*
X159004000Y-113792000D02*
X159004000Y-111252000D01*
X120484000Y-101338000D02*
X120484000Y-100338000D01*
X118784000Y-100338000D02*
X118784000Y-101338000D01*
D14*
X123662286Y-132675142D02*
X123686095Y-132603713D01*
X123709905Y-132579904D01*
X123757524Y-132556094D01*
X123828952Y-132556094D01*
X123876571Y-132579904D01*
X123900381Y-132603713D01*
X123924190Y-132651332D01*
X123924190Y-132841808D01*
X123424190Y-132841808D01*
X123424190Y-132675142D01*
X123448000Y-132627523D01*
X123471810Y-132603713D01*
X123519429Y-132579904D01*
X123567048Y-132579904D01*
X123614667Y-132603713D01*
X123638476Y-132627523D01*
X123662286Y-132675142D01*
X123662286Y-132841808D01*
X123590857Y-132127523D02*
X123924190Y-132127523D01*
X123590857Y-132341808D02*
X123852762Y-132341808D01*
X123900381Y-132317999D01*
X123924190Y-132270380D01*
X123924190Y-132198951D01*
X123900381Y-132151332D01*
X123876571Y-132127523D01*
X123590857Y-131960856D02*
X123590857Y-131770380D01*
X123424190Y-131889427D02*
X123852762Y-131889427D01*
X123900381Y-131865618D01*
X123924190Y-131817999D01*
X123924190Y-131770380D01*
X123590857Y-131675142D02*
X123590857Y-131484666D01*
X123424190Y-131603713D02*
X123852762Y-131603713D01*
X123900381Y-131579904D01*
X123924190Y-131532285D01*
X123924190Y-131484666D01*
X123924190Y-131246571D02*
X123900381Y-131294190D01*
X123876571Y-131317999D01*
X123828952Y-131341809D01*
X123686095Y-131341809D01*
X123638476Y-131317999D01*
X123614667Y-131294190D01*
X123590857Y-131246571D01*
X123590857Y-131175142D01*
X123614667Y-131127523D01*
X123638476Y-131103714D01*
X123686095Y-131079904D01*
X123828952Y-131079904D01*
X123876571Y-131103714D01*
X123900381Y-131127523D01*
X123924190Y-131175142D01*
X123924190Y-131246571D01*
X123590857Y-130865618D02*
X123924190Y-130865618D01*
X123638476Y-130865618D02*
X123614667Y-130841809D01*
X123590857Y-130794190D01*
X123590857Y-130722761D01*
X123614667Y-130675142D01*
X123662286Y-130651333D01*
X123924190Y-130651333D01*
X123471810Y-130056095D02*
X123448000Y-130032285D01*
X123424190Y-129984666D01*
X123424190Y-129865619D01*
X123448000Y-129818000D01*
X123471810Y-129794190D01*
X123519429Y-129770381D01*
X123567048Y-129770381D01*
X123638476Y-129794190D01*
X123924190Y-130079904D01*
X123924190Y-129770381D01*
D12*
X115001523Y-112449429D02*
X114977333Y-112473619D01*
X114904761Y-112497810D01*
X114856380Y-112497810D01*
X114783809Y-112473619D01*
X114735428Y-112425238D01*
X114711237Y-112376857D01*
X114687047Y-112280095D01*
X114687047Y-112207524D01*
X114711237Y-112110762D01*
X114735428Y-112062381D01*
X114783809Y-112014000D01*
X114856380Y-111989810D01*
X114904761Y-111989810D01*
X114977333Y-112014000D01*
X115001523Y-112038190D01*
X115485333Y-112497810D02*
X115195047Y-112497810D01*
X115340190Y-112497810D02*
X115340190Y-111989810D01*
X115291809Y-112062381D01*
X115243428Y-112110762D01*
X115195047Y-112134952D01*
X115799809Y-111989810D02*
X115848190Y-111989810D01*
X115896571Y-112014000D01*
X115920762Y-112038190D01*
X115944952Y-112086571D01*
X115969143Y-112183333D01*
X115969143Y-112304286D01*
X115944952Y-112401048D01*
X115920762Y-112449429D01*
X115896571Y-112473619D01*
X115848190Y-112497810D01*
X115799809Y-112497810D01*
X115751428Y-112473619D01*
X115727238Y-112449429D01*
X115703047Y-112401048D01*
X115678857Y-112304286D01*
X115678857Y-112183333D01*
X115703047Y-112086571D01*
X115727238Y-112038190D01*
X115751428Y-112014000D01*
X115799809Y-111989810D01*
X116452953Y-112497810D02*
X116162667Y-112497810D01*
X116307810Y-112497810D02*
X116307810Y-111989810D01*
X116259429Y-112062381D01*
X116211048Y-112110762D01*
X116162667Y-112134952D01*
X115001523Y-118545429D02*
X114977333Y-118569619D01*
X114904761Y-118593810D01*
X114856380Y-118593810D01*
X114783809Y-118569619D01*
X114735428Y-118521238D01*
X114711237Y-118472857D01*
X114687047Y-118376095D01*
X114687047Y-118303524D01*
X114711237Y-118206762D01*
X114735428Y-118158381D01*
X114783809Y-118110000D01*
X114856380Y-118085810D01*
X114904761Y-118085810D01*
X114977333Y-118110000D01*
X115001523Y-118134190D01*
X115485333Y-118593810D02*
X115195047Y-118593810D01*
X115340190Y-118593810D02*
X115340190Y-118085810D01*
X115291809Y-118158381D01*
X115243428Y-118206762D01*
X115195047Y-118230952D01*
X115799809Y-118085810D02*
X115848190Y-118085810D01*
X115896571Y-118110000D01*
X115920762Y-118134190D01*
X115944952Y-118182571D01*
X115969143Y-118279333D01*
X115969143Y-118400286D01*
X115944952Y-118497048D01*
X115920762Y-118545429D01*
X115896571Y-118569619D01*
X115848190Y-118593810D01*
X115799809Y-118593810D01*
X115751428Y-118569619D01*
X115727238Y-118545429D01*
X115703047Y-118497048D01*
X115678857Y-118400286D01*
X115678857Y-118279333D01*
X115703047Y-118182571D01*
X115727238Y-118134190D01*
X115751428Y-118110000D01*
X115799809Y-118085810D01*
X116162667Y-118134190D02*
X116186857Y-118110000D01*
X116235238Y-118085810D01*
X116356191Y-118085810D01*
X116404572Y-118110000D01*
X116428762Y-118134190D01*
X116452953Y-118182571D01*
X116452953Y-118230952D01*
X116428762Y-118303524D01*
X116138476Y-118593810D01*
X116452953Y-118593810D01*
X121605523Y-103813429D02*
X121581333Y-103837619D01*
X121508761Y-103861810D01*
X121460380Y-103861810D01*
X121387809Y-103837619D01*
X121339428Y-103789238D01*
X121315237Y-103740857D01*
X121291047Y-103644095D01*
X121291047Y-103571524D01*
X121315237Y-103474762D01*
X121339428Y-103426381D01*
X121387809Y-103378000D01*
X121460380Y-103353810D01*
X121508761Y-103353810D01*
X121581333Y-103378000D01*
X121605523Y-103402190D01*
X122089333Y-103861810D02*
X121799047Y-103861810D01*
X121944190Y-103861810D02*
X121944190Y-103353810D01*
X121895809Y-103426381D01*
X121847428Y-103474762D01*
X121799047Y-103498952D01*
X122403809Y-103353810D02*
X122452190Y-103353810D01*
X122500571Y-103378000D01*
X122524762Y-103402190D01*
X122548952Y-103450571D01*
X122573143Y-103547333D01*
X122573143Y-103668286D01*
X122548952Y-103765048D01*
X122524762Y-103813429D01*
X122500571Y-103837619D01*
X122452190Y-103861810D01*
X122403809Y-103861810D01*
X122355428Y-103837619D01*
X122331238Y-103813429D01*
X122307047Y-103765048D01*
X122282857Y-103668286D01*
X122282857Y-103547333D01*
X122307047Y-103450571D01*
X122331238Y-103402190D01*
X122355428Y-103378000D01*
X122403809Y-103353810D01*
X122742476Y-103353810D02*
X123056953Y-103353810D01*
X122887619Y-103547333D01*
X122960191Y-103547333D01*
X123008572Y-103571524D01*
X123032762Y-103595714D01*
X123056953Y-103644095D01*
X123056953Y-103765048D01*
X123032762Y-103813429D01*
X123008572Y-103837619D01*
X122960191Y-103861810D01*
X122815048Y-103861810D01*
X122766667Y-103837619D01*
X122742476Y-103813429D01*
X119065523Y-103813429D02*
X119041333Y-103837619D01*
X118968761Y-103861810D01*
X118920380Y-103861810D01*
X118847809Y-103837619D01*
X118799428Y-103789238D01*
X118775237Y-103740857D01*
X118751047Y-103644095D01*
X118751047Y-103571524D01*
X118775237Y-103474762D01*
X118799428Y-103426381D01*
X118847809Y-103378000D01*
X118920380Y-103353810D01*
X118968761Y-103353810D01*
X119041333Y-103378000D01*
X119065523Y-103402190D01*
X119549333Y-103861810D02*
X119259047Y-103861810D01*
X119404190Y-103861810D02*
X119404190Y-103353810D01*
X119355809Y-103426381D01*
X119307428Y-103474762D01*
X119259047Y-103498952D01*
X119863809Y-103353810D02*
X119912190Y-103353810D01*
X119960571Y-103378000D01*
X119984762Y-103402190D01*
X120008952Y-103450571D01*
X120033143Y-103547333D01*
X120033143Y-103668286D01*
X120008952Y-103765048D01*
X119984762Y-103813429D01*
X119960571Y-103837619D01*
X119912190Y-103861810D01*
X119863809Y-103861810D01*
X119815428Y-103837619D01*
X119791238Y-103813429D01*
X119767047Y-103765048D01*
X119742857Y-103668286D01*
X119742857Y-103547333D01*
X119767047Y-103450571D01*
X119791238Y-103402190D01*
X119815428Y-103378000D01*
X119863809Y-103353810D01*
X120468572Y-103523143D02*
X120468572Y-103861810D01*
X120347619Y-103329619D02*
X120226667Y-103692476D01*
X120541143Y-103692476D01*
X140909523Y-111433429D02*
X140885333Y-111457619D01*
X140812761Y-111481810D01*
X140764380Y-111481810D01*
X140691809Y-111457619D01*
X140643428Y-111409238D01*
X140619237Y-111360857D01*
X140595047Y-111264095D01*
X140595047Y-111191524D01*
X140619237Y-111094762D01*
X140643428Y-111046381D01*
X140691809Y-110998000D01*
X140764380Y-110973810D01*
X140812761Y-110973810D01*
X140885333Y-110998000D01*
X140909523Y-111022190D01*
X141393333Y-111481810D02*
X141103047Y-111481810D01*
X141248190Y-111481810D02*
X141248190Y-110973810D01*
X141199809Y-111046381D01*
X141151428Y-111094762D01*
X141103047Y-111118952D01*
X141707809Y-110973810D02*
X141756190Y-110973810D01*
X141804571Y-110998000D01*
X141828762Y-111022190D01*
X141852952Y-111070571D01*
X141877143Y-111167333D01*
X141877143Y-111288286D01*
X141852952Y-111385048D01*
X141828762Y-111433429D01*
X141804571Y-111457619D01*
X141756190Y-111481810D01*
X141707809Y-111481810D01*
X141659428Y-111457619D01*
X141635238Y-111433429D01*
X141611047Y-111385048D01*
X141586857Y-111288286D01*
X141586857Y-111167333D01*
X141611047Y-111070571D01*
X141635238Y-111022190D01*
X141659428Y-110998000D01*
X141707809Y-110973810D01*
X142312572Y-110973810D02*
X142215810Y-110973810D01*
X142167429Y-110998000D01*
X142143238Y-111022190D01*
X142094857Y-111094762D01*
X142070667Y-111191524D01*
X142070667Y-111385048D01*
X142094857Y-111433429D01*
X142119048Y-111457619D01*
X142167429Y-111481810D01*
X142264191Y-111481810D01*
X142312572Y-111457619D01*
X142336762Y-111433429D01*
X142360953Y-111385048D01*
X142360953Y-111264095D01*
X142336762Y-111215714D01*
X142312572Y-111191524D01*
X142264191Y-111167333D01*
X142167429Y-111167333D01*
X142119048Y-111191524D01*
X142094857Y-111215714D01*
X142070667Y-111264095D01*
X137861523Y-105083429D02*
X137837333Y-105107619D01*
X137764761Y-105131810D01*
X137716380Y-105131810D01*
X137643809Y-105107619D01*
X137595428Y-105059238D01*
X137571237Y-105010857D01*
X137547047Y-104914095D01*
X137547047Y-104841524D01*
X137571237Y-104744762D01*
X137595428Y-104696381D01*
X137643809Y-104648000D01*
X137716380Y-104623810D01*
X137764761Y-104623810D01*
X137837333Y-104648000D01*
X137861523Y-104672190D01*
X138345333Y-105131810D02*
X138055047Y-105131810D01*
X138200190Y-105131810D02*
X138200190Y-104623810D01*
X138151809Y-104696381D01*
X138103428Y-104744762D01*
X138055047Y-104768952D01*
X138659809Y-104623810D02*
X138708190Y-104623810D01*
X138756571Y-104648000D01*
X138780762Y-104672190D01*
X138804952Y-104720571D01*
X138829143Y-104817333D01*
X138829143Y-104938286D01*
X138804952Y-105035048D01*
X138780762Y-105083429D01*
X138756571Y-105107619D01*
X138708190Y-105131810D01*
X138659809Y-105131810D01*
X138611428Y-105107619D01*
X138587238Y-105083429D01*
X138563047Y-105035048D01*
X138538857Y-104938286D01*
X138538857Y-104817333D01*
X138563047Y-104720571D01*
X138587238Y-104672190D01*
X138611428Y-104648000D01*
X138659809Y-104623810D01*
X138998476Y-104623810D02*
X139337143Y-104623810D01*
X139119429Y-105131810D01*
X144973523Y-113211429D02*
X144949333Y-113235619D01*
X144876761Y-113259810D01*
X144828380Y-113259810D01*
X144755809Y-113235619D01*
X144707428Y-113187238D01*
X144683237Y-113138857D01*
X144659047Y-113042095D01*
X144659047Y-112969524D01*
X144683237Y-112872762D01*
X144707428Y-112824381D01*
X144755809Y-112776000D01*
X144828380Y-112751810D01*
X144876761Y-112751810D01*
X144949333Y-112776000D01*
X144973523Y-112800190D01*
X145457333Y-113259810D02*
X145167047Y-113259810D01*
X145312190Y-113259810D02*
X145312190Y-112751810D01*
X145263809Y-112824381D01*
X145215428Y-112872762D01*
X145167047Y-112896952D01*
X145771809Y-112751810D02*
X145820190Y-112751810D01*
X145868571Y-112776000D01*
X145892762Y-112800190D01*
X145916952Y-112848571D01*
X145941143Y-112945333D01*
X145941143Y-113066286D01*
X145916952Y-113163048D01*
X145892762Y-113211429D01*
X145868571Y-113235619D01*
X145820190Y-113259810D01*
X145771809Y-113259810D01*
X145723428Y-113235619D01*
X145699238Y-113211429D01*
X145675047Y-113163048D01*
X145650857Y-113066286D01*
X145650857Y-112945333D01*
X145675047Y-112848571D01*
X145699238Y-112800190D01*
X145723428Y-112776000D01*
X145771809Y-112751810D01*
X146231429Y-112969524D02*
X146183048Y-112945333D01*
X146158857Y-112921143D01*
X146134667Y-112872762D01*
X146134667Y-112848571D01*
X146158857Y-112800190D01*
X146183048Y-112776000D01*
X146231429Y-112751810D01*
X146328191Y-112751810D01*
X146376572Y-112776000D01*
X146400762Y-112800190D01*
X146424953Y-112848571D01*
X146424953Y-112872762D01*
X146400762Y-112921143D01*
X146376572Y-112945333D01*
X146328191Y-112969524D01*
X146231429Y-112969524D01*
X146183048Y-112993714D01*
X146158857Y-113017905D01*
X146134667Y-113066286D01*
X146134667Y-113163048D01*
X146158857Y-113211429D01*
X146183048Y-113235619D01*
X146231429Y-113259810D01*
X146328191Y-113259810D01*
X146376572Y-113235619D01*
X146400762Y-113211429D01*
X146424953Y-113163048D01*
X146424953Y-113066286D01*
X146400762Y-113017905D01*
X146376572Y-112993714D01*
X146328191Y-112969524D01*
X140909523Y-113211429D02*
X140885333Y-113235619D01*
X140812761Y-113259810D01*
X140764380Y-113259810D01*
X140691809Y-113235619D01*
X140643428Y-113187238D01*
X140619237Y-113138857D01*
X140595047Y-113042095D01*
X140595047Y-112969524D01*
X140619237Y-112872762D01*
X140643428Y-112824381D01*
X140691809Y-112776000D01*
X140764380Y-112751810D01*
X140812761Y-112751810D01*
X140885333Y-112776000D01*
X140909523Y-112800190D01*
X141393333Y-113259810D02*
X141103047Y-113259810D01*
X141248190Y-113259810D02*
X141248190Y-112751810D01*
X141199809Y-112824381D01*
X141151428Y-112872762D01*
X141103047Y-112896952D01*
X141707809Y-112751810D02*
X141756190Y-112751810D01*
X141804571Y-112776000D01*
X141828762Y-112800190D01*
X141852952Y-112848571D01*
X141877143Y-112945333D01*
X141877143Y-113066286D01*
X141852952Y-113163048D01*
X141828762Y-113211429D01*
X141804571Y-113235619D01*
X141756190Y-113259810D01*
X141707809Y-113259810D01*
X141659428Y-113235619D01*
X141635238Y-113211429D01*
X141611047Y-113163048D01*
X141586857Y-113066286D01*
X141586857Y-112945333D01*
X141611047Y-112848571D01*
X141635238Y-112800190D01*
X141659428Y-112776000D01*
X141707809Y-112751810D01*
X142119048Y-113259810D02*
X142215810Y-113259810D01*
X142264191Y-113235619D01*
X142288381Y-113211429D01*
X142336762Y-113138857D01*
X142360953Y-113042095D01*
X142360953Y-112848571D01*
X142336762Y-112800190D01*
X142312572Y-112776000D01*
X142264191Y-112751810D01*
X142167429Y-112751810D01*
X142119048Y-112776000D01*
X142094857Y-112800190D01*
X142070667Y-112848571D01*
X142070667Y-112969524D01*
X142094857Y-113017905D01*
X142119048Y-113042095D01*
X142167429Y-113066286D01*
X142264191Y-113066286D01*
X142312572Y-113042095D01*
X142336762Y-113017905D01*
X142360953Y-112969524D01*
X148783523Y-117275429D02*
X148759333Y-117299619D01*
X148686761Y-117323810D01*
X148638380Y-117323810D01*
X148565809Y-117299619D01*
X148517428Y-117251238D01*
X148493237Y-117202857D01*
X148469047Y-117106095D01*
X148469047Y-117033524D01*
X148493237Y-116936762D01*
X148517428Y-116888381D01*
X148565809Y-116840000D01*
X148638380Y-116815810D01*
X148686761Y-116815810D01*
X148759333Y-116840000D01*
X148783523Y-116864190D01*
X149267333Y-117323810D02*
X148977047Y-117323810D01*
X149122190Y-117323810D02*
X149122190Y-116815810D01*
X149073809Y-116888381D01*
X149025428Y-116936762D01*
X148977047Y-116960952D01*
X149751143Y-117323810D02*
X149460857Y-117323810D01*
X149606000Y-117323810D02*
X149606000Y-116815810D01*
X149557619Y-116888381D01*
X149509238Y-116936762D01*
X149460857Y-116960952D01*
X150065619Y-116815810D02*
X150114000Y-116815810D01*
X150162381Y-116840000D01*
X150186572Y-116864190D01*
X150210762Y-116912571D01*
X150234953Y-117009333D01*
X150234953Y-117130286D01*
X150210762Y-117227048D01*
X150186572Y-117275429D01*
X150162381Y-117299619D01*
X150114000Y-117323810D01*
X150065619Y-117323810D01*
X150017238Y-117299619D01*
X149993048Y-117275429D01*
X149968857Y-117227048D01*
X149944667Y-117130286D01*
X149944667Y-117009333D01*
X149968857Y-116912571D01*
X149993048Y-116864190D01*
X150017238Y-116840000D01*
X150065619Y-116815810D01*
X141127237Y-99035810D02*
X141127237Y-98527810D01*
X141248190Y-98527810D01*
X141320761Y-98552000D01*
X141369142Y-98600381D01*
X141393333Y-98648762D01*
X141417523Y-98745524D01*
X141417523Y-98818095D01*
X141393333Y-98914857D01*
X141369142Y-98963238D01*
X141320761Y-99011619D01*
X141248190Y-99035810D01*
X141127237Y-99035810D01*
X141901333Y-99035810D02*
X141611047Y-99035810D01*
X141756190Y-99035810D02*
X141756190Y-98527810D01*
X141707809Y-98600381D01*
X141659428Y-98648762D01*
X141611047Y-98672952D01*
X142215809Y-98527810D02*
X142264190Y-98527810D01*
X142312571Y-98552000D01*
X142336762Y-98576190D01*
X142360952Y-98624571D01*
X142385143Y-98721333D01*
X142385143Y-98842286D01*
X142360952Y-98939048D01*
X142336762Y-98987429D01*
X142312571Y-99011619D01*
X142264190Y-99035810D01*
X142215809Y-99035810D01*
X142167428Y-99011619D01*
X142143238Y-98987429D01*
X142119047Y-98939048D01*
X142094857Y-98842286D01*
X142094857Y-98721333D01*
X142119047Y-98624571D01*
X142143238Y-98576190D01*
X142167428Y-98552000D01*
X142215809Y-98527810D01*
X142868953Y-99035810D02*
X142578667Y-99035810D01*
X142723810Y-99035810D02*
X142723810Y-98527810D01*
X142675429Y-98600381D01*
X142627048Y-98648762D01*
X142578667Y-98672952D01*
X137825237Y-99035810D02*
X137825237Y-98527810D01*
X137946190Y-98527810D01*
X138018761Y-98552000D01*
X138067142Y-98600381D01*
X138091333Y-98648762D01*
X138115523Y-98745524D01*
X138115523Y-98818095D01*
X138091333Y-98914857D01*
X138067142Y-98963238D01*
X138018761Y-99011619D01*
X137946190Y-99035810D01*
X137825237Y-99035810D01*
X138599333Y-99035810D02*
X138309047Y-99035810D01*
X138454190Y-99035810D02*
X138454190Y-98527810D01*
X138405809Y-98600381D01*
X138357428Y-98648762D01*
X138309047Y-98672952D01*
X138913809Y-98527810D02*
X138962190Y-98527810D01*
X139010571Y-98552000D01*
X139034762Y-98576190D01*
X139058952Y-98624571D01*
X139083143Y-98721333D01*
X139083143Y-98842286D01*
X139058952Y-98939048D01*
X139034762Y-98987429D01*
X139010571Y-99011619D01*
X138962190Y-99035810D01*
X138913809Y-99035810D01*
X138865428Y-99011619D01*
X138841238Y-98987429D01*
X138817047Y-98939048D01*
X138792857Y-98842286D01*
X138792857Y-98721333D01*
X138817047Y-98624571D01*
X138841238Y-98576190D01*
X138865428Y-98552000D01*
X138913809Y-98527810D01*
X139276667Y-98576190D02*
X139300857Y-98552000D01*
X139349238Y-98527810D01*
X139470191Y-98527810D01*
X139518572Y-98552000D01*
X139542762Y-98576190D01*
X139566953Y-98624571D01*
X139566953Y-98672952D01*
X139542762Y-98745524D01*
X139252476Y-99035810D01*
X139566953Y-99035810D01*
X131608285Y-100813810D02*
X131608285Y-100305810D01*
X132140476Y-100765429D02*
X132116286Y-100789619D01*
X132043714Y-100813810D01*
X131995333Y-100813810D01*
X131922762Y-100789619D01*
X131874381Y-100741238D01*
X131850190Y-100692857D01*
X131826000Y-100596095D01*
X131826000Y-100523524D01*
X131850190Y-100426762D01*
X131874381Y-100378381D01*
X131922762Y-100330000D01*
X131995333Y-100305810D01*
X132043714Y-100305810D01*
X132116286Y-100330000D01*
X132140476Y-100354190D01*
X132624286Y-100813810D02*
X132334000Y-100813810D01*
X132479143Y-100813810D02*
X132479143Y-100305810D01*
X132430762Y-100378381D01*
X132382381Y-100426762D01*
X132334000Y-100450952D01*
X132938762Y-100305810D02*
X132987143Y-100305810D01*
X133035524Y-100330000D01*
X133059715Y-100354190D01*
X133083905Y-100402571D01*
X133108096Y-100499333D01*
X133108096Y-100620286D01*
X133083905Y-100717048D01*
X133059715Y-100765429D01*
X133035524Y-100789619D01*
X132987143Y-100813810D01*
X132938762Y-100813810D01*
X132890381Y-100789619D01*
X132866191Y-100765429D01*
X132842000Y-100717048D01*
X132817810Y-100620286D01*
X132817810Y-100499333D01*
X132842000Y-100402571D01*
X132866191Y-100354190D01*
X132890381Y-100330000D01*
X132938762Y-100305810D01*
X133591906Y-100813810D02*
X133301620Y-100813810D01*
X133446763Y-100813810D02*
X133446763Y-100305810D01*
X133398382Y-100378381D01*
X133350001Y-100426762D01*
X133301620Y-100450952D01*
X137353523Y-108687810D02*
X137111618Y-108687810D01*
X137111618Y-108179810D01*
X137788952Y-108687810D02*
X137498666Y-108687810D01*
X137643809Y-108687810D02*
X137643809Y-108179810D01*
X137595428Y-108252381D01*
X137547047Y-108300762D01*
X137498666Y-108324952D01*
X138103428Y-108179810D02*
X138151809Y-108179810D01*
X138200190Y-108204000D01*
X138224381Y-108228190D01*
X138248571Y-108276571D01*
X138272762Y-108373333D01*
X138272762Y-108494286D01*
X138248571Y-108591048D01*
X138224381Y-108639429D01*
X138200190Y-108663619D01*
X138151809Y-108687810D01*
X138103428Y-108687810D01*
X138055047Y-108663619D01*
X138030857Y-108639429D01*
X138006666Y-108591048D01*
X137982476Y-108494286D01*
X137982476Y-108373333D01*
X138006666Y-108276571D01*
X138030857Y-108228190D01*
X138055047Y-108204000D01*
X138103428Y-108179810D01*
X138756572Y-108687810D02*
X138466286Y-108687810D01*
X138611429Y-108687810D02*
X138611429Y-108179810D01*
X138563048Y-108252381D01*
X138514667Y-108300762D01*
X138466286Y-108324952D01*
X116670667Y-98769714D02*
X116501333Y-98769714D01*
X116501333Y-99035810D02*
X116501333Y-98527810D01*
X116743238Y-98527810D01*
X117106096Y-98769714D02*
X117178667Y-98793905D01*
X117202858Y-98818095D01*
X117227048Y-98866476D01*
X117227048Y-98939048D01*
X117202858Y-98987429D01*
X117178667Y-99011619D01*
X117130286Y-99035810D01*
X116936762Y-99035810D01*
X116936762Y-98527810D01*
X117106096Y-98527810D01*
X117154477Y-98552000D01*
X117178667Y-98576190D01*
X117202858Y-98624571D01*
X117202858Y-98672952D01*
X117178667Y-98721333D01*
X117154477Y-98745524D01*
X117106096Y-98769714D01*
X116936762Y-98769714D01*
X117710858Y-99035810D02*
X117420572Y-99035810D01*
X117565715Y-99035810D02*
X117565715Y-98527810D01*
X117517334Y-98600381D01*
X117468953Y-98648762D01*
X117420572Y-98672952D01*
X148529523Y-113259810D02*
X148360190Y-113017905D01*
X148239237Y-113259810D02*
X148239237Y-112751810D01*
X148432761Y-112751810D01*
X148481142Y-112776000D01*
X148505333Y-112800190D01*
X148529523Y-112848571D01*
X148529523Y-112921143D01*
X148505333Y-112969524D01*
X148481142Y-112993714D01*
X148432761Y-113017905D01*
X148239237Y-113017905D01*
X149013333Y-113259810D02*
X148723047Y-113259810D01*
X148868190Y-113259810D02*
X148868190Y-112751810D01*
X148819809Y-112824381D01*
X148771428Y-112872762D01*
X148723047Y-112896952D01*
X149327809Y-112751810D02*
X149376190Y-112751810D01*
X149424571Y-112776000D01*
X149448762Y-112800190D01*
X149472952Y-112848571D01*
X149497143Y-112945333D01*
X149497143Y-113066286D01*
X149472952Y-113163048D01*
X149448762Y-113211429D01*
X149424571Y-113235619D01*
X149376190Y-113259810D01*
X149327809Y-113259810D01*
X149279428Y-113235619D01*
X149255238Y-113211429D01*
X149231047Y-113163048D01*
X149206857Y-113066286D01*
X149206857Y-112945333D01*
X149231047Y-112848571D01*
X149255238Y-112800190D01*
X149279428Y-112776000D01*
X149327809Y-112751810D01*
X149932572Y-112921143D02*
X149932572Y-113259810D01*
X149811619Y-112727619D02*
X149690667Y-113090476D01*
X150005143Y-113090476D01*
X142639142Y-122093810D02*
X142639142Y-122505048D01*
X142663333Y-122553429D01*
X142687523Y-122577619D01*
X142735904Y-122601810D01*
X142832666Y-122601810D01*
X142881047Y-122577619D01*
X142905238Y-122553429D01*
X142929428Y-122505048D01*
X142929428Y-122093810D01*
X143437428Y-122601810D02*
X143147142Y-122601810D01*
X143292285Y-122601810D02*
X143292285Y-122093810D01*
X143243904Y-122166381D01*
X143195523Y-122214762D01*
X143147142Y-122238952D01*
X143751904Y-122093810D02*
X143800285Y-122093810D01*
X143848666Y-122118000D01*
X143872857Y-122142190D01*
X143897047Y-122190571D01*
X143921238Y-122287333D01*
X143921238Y-122408286D01*
X143897047Y-122505048D01*
X143872857Y-122553429D01*
X143848666Y-122577619D01*
X143800285Y-122601810D01*
X143751904Y-122601810D01*
X143703523Y-122577619D01*
X143679333Y-122553429D01*
X143655142Y-122505048D01*
X143630952Y-122408286D01*
X143630952Y-122287333D01*
X143655142Y-122190571D01*
X143679333Y-122142190D01*
X143703523Y-122118000D01*
X143751904Y-122093810D01*
X144114762Y-122142190D02*
X144138952Y-122118000D01*
X144187333Y-122093810D01*
X144308286Y-122093810D01*
X144356667Y-122118000D01*
X144380857Y-122142190D01*
X144405048Y-122190571D01*
X144405048Y-122238952D01*
X144380857Y-122311524D01*
X144090571Y-122601810D01*
X144405048Y-122601810D01*
X124193905Y-116041715D02*
X124435810Y-116041715D01*
X123927810Y-116211048D02*
X124193905Y-116041715D01*
X123927810Y-115872381D01*
X124435810Y-115436952D02*
X124435810Y-115727238D01*
X124435810Y-115582095D02*
X123927810Y-115582095D01*
X124000381Y-115630476D01*
X124048762Y-115678857D01*
X124072952Y-115727238D01*
X123927810Y-115122476D02*
X123927810Y-115074095D01*
X123952000Y-115025714D01*
X123976190Y-115001523D01*
X124024571Y-114977333D01*
X124121333Y-114953142D01*
X124242286Y-114953142D01*
X124339048Y-114977333D01*
X124387429Y-115001523D01*
X124411619Y-115025714D01*
X124435810Y-115074095D01*
X124435810Y-115122476D01*
X124411619Y-115170857D01*
X124387429Y-115195047D01*
X124339048Y-115219238D01*
X124242286Y-115243428D01*
X124121333Y-115243428D01*
X124024571Y-115219238D01*
X123976190Y-115195047D01*
X123952000Y-115170857D01*
X123927810Y-115122476D01*
X124435810Y-114469332D02*
X124435810Y-114759618D01*
X124435810Y-114614475D02*
X123927810Y-114614475D01*
X124000381Y-114662856D01*
X124048762Y-114711237D01*
X124072952Y-114759618D01*
D14*
X112232286Y-132675142D02*
X112256095Y-132603713D01*
X112279905Y-132579904D01*
X112327524Y-132556094D01*
X112398952Y-132556094D01*
X112446571Y-132579904D01*
X112470381Y-132603713D01*
X112494190Y-132651332D01*
X112494190Y-132841808D01*
X111994190Y-132841808D01*
X111994190Y-132675142D01*
X112018000Y-132627523D01*
X112041810Y-132603713D01*
X112089429Y-132579904D01*
X112137048Y-132579904D01*
X112184667Y-132603713D01*
X112208476Y-132627523D01*
X112232286Y-132675142D01*
X112232286Y-132841808D01*
X112160857Y-132127523D02*
X112494190Y-132127523D01*
X112160857Y-132341808D02*
X112422762Y-132341808D01*
X112470381Y-132317999D01*
X112494190Y-132270380D01*
X112494190Y-132198951D01*
X112470381Y-132151332D01*
X112446571Y-132127523D01*
X112160857Y-131960856D02*
X112160857Y-131770380D01*
X111994190Y-131889427D02*
X112422762Y-131889427D01*
X112470381Y-131865618D01*
X112494190Y-131817999D01*
X112494190Y-131770380D01*
X112160857Y-131675142D02*
X112160857Y-131484666D01*
X111994190Y-131603713D02*
X112422762Y-131603713D01*
X112470381Y-131579904D01*
X112494190Y-131532285D01*
X112494190Y-131484666D01*
X112494190Y-131246571D02*
X112470381Y-131294190D01*
X112446571Y-131317999D01*
X112398952Y-131341809D01*
X112256095Y-131341809D01*
X112208476Y-131317999D01*
X112184667Y-131294190D01*
X112160857Y-131246571D01*
X112160857Y-131175142D01*
X112184667Y-131127523D01*
X112208476Y-131103714D01*
X112256095Y-131079904D01*
X112398952Y-131079904D01*
X112446571Y-131103714D01*
X112470381Y-131127523D01*
X112494190Y-131175142D01*
X112494190Y-131246571D01*
X112160857Y-130865618D02*
X112494190Y-130865618D01*
X112208476Y-130865618D02*
X112184667Y-130841809D01*
X112160857Y-130794190D01*
X112160857Y-130722761D01*
X112184667Y-130675142D01*
X112232286Y-130651333D01*
X112494190Y-130651333D01*
X112494190Y-129770381D02*
X112494190Y-130056095D01*
X112494190Y-129913238D02*
X111994190Y-129913238D01*
X112065619Y-129960857D01*
X112113238Y-130008476D01*
X112137048Y-130056095D01*
X135092286Y-132675142D02*
X135116095Y-132603713D01*
X135139905Y-132579904D01*
X135187524Y-132556094D01*
X135258952Y-132556094D01*
X135306571Y-132579904D01*
X135330381Y-132603713D01*
X135354190Y-132651332D01*
X135354190Y-132841808D01*
X134854190Y-132841808D01*
X134854190Y-132675142D01*
X134878000Y-132627523D01*
X134901810Y-132603713D01*
X134949429Y-132579904D01*
X134997048Y-132579904D01*
X135044667Y-132603713D01*
X135068476Y-132627523D01*
X135092286Y-132675142D01*
X135092286Y-132841808D01*
X135020857Y-132127523D02*
X135354190Y-132127523D01*
X135020857Y-132341808D02*
X135282762Y-132341808D01*
X135330381Y-132317999D01*
X135354190Y-132270380D01*
X135354190Y-132198951D01*
X135330381Y-132151332D01*
X135306571Y-132127523D01*
X135020857Y-131960856D02*
X135020857Y-131770380D01*
X134854190Y-131889427D02*
X135282762Y-131889427D01*
X135330381Y-131865618D01*
X135354190Y-131817999D01*
X135354190Y-131770380D01*
X135020857Y-131675142D02*
X135020857Y-131484666D01*
X134854190Y-131603713D02*
X135282762Y-131603713D01*
X135330381Y-131579904D01*
X135354190Y-131532285D01*
X135354190Y-131484666D01*
X135354190Y-131246571D02*
X135330381Y-131294190D01*
X135306571Y-131317999D01*
X135258952Y-131341809D01*
X135116095Y-131341809D01*
X135068476Y-131317999D01*
X135044667Y-131294190D01*
X135020857Y-131246571D01*
X135020857Y-131175142D01*
X135044667Y-131127523D01*
X135068476Y-131103714D01*
X135116095Y-131079904D01*
X135258952Y-131079904D01*
X135306571Y-131103714D01*
X135330381Y-131127523D01*
X135354190Y-131175142D01*
X135354190Y-131246571D01*
X135020857Y-130865618D02*
X135354190Y-130865618D01*
X135068476Y-130865618D02*
X135044667Y-130841809D01*
X135020857Y-130794190D01*
X135020857Y-130722761D01*
X135044667Y-130675142D01*
X135092286Y-130651333D01*
X135354190Y-130651333D01*
X134854190Y-130079904D02*
X134854190Y-129770381D01*
X135044667Y-129937047D01*
X135044667Y-129865619D01*
X135068476Y-129818000D01*
X135092286Y-129794190D01*
X135139905Y-129770381D01*
X135258952Y-129770381D01*
X135306571Y-129794190D01*
X135330381Y-129818000D01*
X135354190Y-129865619D01*
X135354190Y-130008476D01*
X135330381Y-130056095D01*
X135306571Y-130079904D01*
X146395286Y-132675142D02*
X146419095Y-132603713D01*
X146442905Y-132579904D01*
X146490524Y-132556094D01*
X146561952Y-132556094D01*
X146609571Y-132579904D01*
X146633381Y-132603713D01*
X146657190Y-132651332D01*
X146657190Y-132841808D01*
X146157190Y-132841808D01*
X146157190Y-132675142D01*
X146181000Y-132627523D01*
X146204810Y-132603713D01*
X146252429Y-132579904D01*
X146300048Y-132579904D01*
X146347667Y-132603713D01*
X146371476Y-132627523D01*
X146395286Y-132675142D01*
X146395286Y-132841808D01*
X146323857Y-132127523D02*
X146657190Y-132127523D01*
X146323857Y-132341808D02*
X146585762Y-132341808D01*
X146633381Y-132317999D01*
X146657190Y-132270380D01*
X146657190Y-132198951D01*
X146633381Y-132151332D01*
X146609571Y-132127523D01*
X146323857Y-131960856D02*
X146323857Y-131770380D01*
X146157190Y-131889427D02*
X146585762Y-131889427D01*
X146633381Y-131865618D01*
X146657190Y-131817999D01*
X146657190Y-131770380D01*
X146323857Y-131675142D02*
X146323857Y-131484666D01*
X146157190Y-131603713D02*
X146585762Y-131603713D01*
X146633381Y-131579904D01*
X146657190Y-131532285D01*
X146657190Y-131484666D01*
X146657190Y-131246571D02*
X146633381Y-131294190D01*
X146609571Y-131317999D01*
X146561952Y-131341809D01*
X146419095Y-131341809D01*
X146371476Y-131317999D01*
X146347667Y-131294190D01*
X146323857Y-131246571D01*
X146323857Y-131175142D01*
X146347667Y-131127523D01*
X146371476Y-131103714D01*
X146419095Y-131079904D01*
X146561952Y-131079904D01*
X146609571Y-131103714D01*
X146633381Y-131127523D01*
X146657190Y-131175142D01*
X146657190Y-131246571D01*
X146323857Y-130865618D02*
X146657190Y-130865618D01*
X146371476Y-130865618D02*
X146347667Y-130841809D01*
X146323857Y-130794190D01*
X146323857Y-130722761D01*
X146347667Y-130675142D01*
X146395286Y-130651333D01*
X146657190Y-130651333D01*
X146323857Y-129818000D02*
X146657190Y-129818000D01*
X146133381Y-129937047D02*
X146490524Y-130056095D01*
X146490524Y-129746571D01*
X112232286Y-141565142D02*
X112256095Y-141493713D01*
X112279905Y-141469904D01*
X112327524Y-141446094D01*
X112398952Y-141446094D01*
X112446571Y-141469904D01*
X112470381Y-141493713D01*
X112494190Y-141541332D01*
X112494190Y-141731808D01*
X111994190Y-141731808D01*
X111994190Y-141565142D01*
X112018000Y-141517523D01*
X112041810Y-141493713D01*
X112089429Y-141469904D01*
X112137048Y-141469904D01*
X112184667Y-141493713D01*
X112208476Y-141517523D01*
X112232286Y-141565142D01*
X112232286Y-141731808D01*
X112160857Y-141017523D02*
X112494190Y-141017523D01*
X112160857Y-141231808D02*
X112422762Y-141231808D01*
X112470381Y-141207999D01*
X112494190Y-141160380D01*
X112494190Y-141088951D01*
X112470381Y-141041332D01*
X112446571Y-141017523D01*
X112160857Y-140850856D02*
X112160857Y-140660380D01*
X111994190Y-140779427D02*
X112422762Y-140779427D01*
X112470381Y-140755618D01*
X112494190Y-140707999D01*
X112494190Y-140660380D01*
X112160857Y-140565142D02*
X112160857Y-140374666D01*
X111994190Y-140493713D02*
X112422762Y-140493713D01*
X112470381Y-140469904D01*
X112494190Y-140422285D01*
X112494190Y-140374666D01*
X112494190Y-140136571D02*
X112470381Y-140184190D01*
X112446571Y-140207999D01*
X112398952Y-140231809D01*
X112256095Y-140231809D01*
X112208476Y-140207999D01*
X112184667Y-140184190D01*
X112160857Y-140136571D01*
X112160857Y-140065142D01*
X112184667Y-140017523D01*
X112208476Y-139993714D01*
X112256095Y-139969904D01*
X112398952Y-139969904D01*
X112446571Y-139993714D01*
X112470381Y-140017523D01*
X112494190Y-140065142D01*
X112494190Y-140136571D01*
X112160857Y-139755618D02*
X112494190Y-139755618D01*
X112208476Y-139755618D02*
X112184667Y-139731809D01*
X112160857Y-139684190D01*
X112160857Y-139612761D01*
X112184667Y-139565142D01*
X112232286Y-139541333D01*
X112494190Y-139541333D01*
X111994190Y-138684190D02*
X111994190Y-138922285D01*
X112232286Y-138946095D01*
X112208476Y-138922285D01*
X112184667Y-138874666D01*
X112184667Y-138755619D01*
X112208476Y-138708000D01*
X112232286Y-138684190D01*
X112279905Y-138660381D01*
X112398952Y-138660381D01*
X112446571Y-138684190D01*
X112470381Y-138708000D01*
X112494190Y-138755619D01*
X112494190Y-138874666D01*
X112470381Y-138922285D01*
X112446571Y-138946095D01*
X123662286Y-141565142D02*
X123686095Y-141493713D01*
X123709905Y-141469904D01*
X123757524Y-141446094D01*
X123828952Y-141446094D01*
X123876571Y-141469904D01*
X123900381Y-141493713D01*
X123924190Y-141541332D01*
X123924190Y-141731808D01*
X123424190Y-141731808D01*
X123424190Y-141565142D01*
X123448000Y-141517523D01*
X123471810Y-141493713D01*
X123519429Y-141469904D01*
X123567048Y-141469904D01*
X123614667Y-141493713D01*
X123638476Y-141517523D01*
X123662286Y-141565142D01*
X123662286Y-141731808D01*
X123590857Y-141017523D02*
X123924190Y-141017523D01*
X123590857Y-141231808D02*
X123852762Y-141231808D01*
X123900381Y-141207999D01*
X123924190Y-141160380D01*
X123924190Y-141088951D01*
X123900381Y-141041332D01*
X123876571Y-141017523D01*
X123590857Y-140850856D02*
X123590857Y-140660380D01*
X123424190Y-140779427D02*
X123852762Y-140779427D01*
X123900381Y-140755618D01*
X123924190Y-140707999D01*
X123924190Y-140660380D01*
X123590857Y-140565142D02*
X123590857Y-140374666D01*
X123424190Y-140493713D02*
X123852762Y-140493713D01*
X123900381Y-140469904D01*
X123924190Y-140422285D01*
X123924190Y-140374666D01*
X123924190Y-140136571D02*
X123900381Y-140184190D01*
X123876571Y-140207999D01*
X123828952Y-140231809D01*
X123686095Y-140231809D01*
X123638476Y-140207999D01*
X123614667Y-140184190D01*
X123590857Y-140136571D01*
X123590857Y-140065142D01*
X123614667Y-140017523D01*
X123638476Y-139993714D01*
X123686095Y-139969904D01*
X123828952Y-139969904D01*
X123876571Y-139993714D01*
X123900381Y-140017523D01*
X123924190Y-140065142D01*
X123924190Y-140136571D01*
X123590857Y-139755618D02*
X123924190Y-139755618D01*
X123638476Y-139755618D02*
X123614667Y-139731809D01*
X123590857Y-139684190D01*
X123590857Y-139612761D01*
X123614667Y-139565142D01*
X123662286Y-139541333D01*
X123924190Y-139541333D01*
X123424190Y-138708000D02*
X123424190Y-138803238D01*
X123448000Y-138850857D01*
X123471810Y-138874666D01*
X123543238Y-138922285D01*
X123638476Y-138946095D01*
X123828952Y-138946095D01*
X123876571Y-138922285D01*
X123900381Y-138898476D01*
X123924190Y-138850857D01*
X123924190Y-138755619D01*
X123900381Y-138708000D01*
X123876571Y-138684190D01*
X123828952Y-138660381D01*
X123709905Y-138660381D01*
X123662286Y-138684190D01*
X123638476Y-138708000D01*
X123614667Y-138755619D01*
X123614667Y-138850857D01*
X123638476Y-138898476D01*
X123662286Y-138922285D01*
X123709905Y-138946095D01*
X135092286Y-141565142D02*
X135116095Y-141493713D01*
X135139905Y-141469904D01*
X135187524Y-141446094D01*
X135258952Y-141446094D01*
X135306571Y-141469904D01*
X135330381Y-141493713D01*
X135354190Y-141541332D01*
X135354190Y-141731808D01*
X134854190Y-141731808D01*
X134854190Y-141565142D01*
X134878000Y-141517523D01*
X134901810Y-141493713D01*
X134949429Y-141469904D01*
X134997048Y-141469904D01*
X135044667Y-141493713D01*
X135068476Y-141517523D01*
X135092286Y-141565142D01*
X135092286Y-141731808D01*
X135020857Y-141017523D02*
X135354190Y-141017523D01*
X135020857Y-141231808D02*
X135282762Y-141231808D01*
X135330381Y-141207999D01*
X135354190Y-141160380D01*
X135354190Y-141088951D01*
X135330381Y-141041332D01*
X135306571Y-141017523D01*
X135020857Y-140850856D02*
X135020857Y-140660380D01*
X134854190Y-140779427D02*
X135282762Y-140779427D01*
X135330381Y-140755618D01*
X135354190Y-140707999D01*
X135354190Y-140660380D01*
X135020857Y-140565142D02*
X135020857Y-140374666D01*
X134854190Y-140493713D02*
X135282762Y-140493713D01*
X135330381Y-140469904D01*
X135354190Y-140422285D01*
X135354190Y-140374666D01*
X135354190Y-140136571D02*
X135330381Y-140184190D01*
X135306571Y-140207999D01*
X135258952Y-140231809D01*
X135116095Y-140231809D01*
X135068476Y-140207999D01*
X135044667Y-140184190D01*
X135020857Y-140136571D01*
X135020857Y-140065142D01*
X135044667Y-140017523D01*
X135068476Y-139993714D01*
X135116095Y-139969904D01*
X135258952Y-139969904D01*
X135306571Y-139993714D01*
X135330381Y-140017523D01*
X135354190Y-140065142D01*
X135354190Y-140136571D01*
X135020857Y-139755618D02*
X135354190Y-139755618D01*
X135068476Y-139755618D02*
X135044667Y-139731809D01*
X135020857Y-139684190D01*
X135020857Y-139612761D01*
X135044667Y-139565142D01*
X135092286Y-139541333D01*
X135354190Y-139541333D01*
X134854190Y-138969904D02*
X134854190Y-138636571D01*
X135354190Y-138850857D01*
X146522286Y-141565142D02*
X146546095Y-141493713D01*
X146569905Y-141469904D01*
X146617524Y-141446094D01*
X146688952Y-141446094D01*
X146736571Y-141469904D01*
X146760381Y-141493713D01*
X146784190Y-141541332D01*
X146784190Y-141731808D01*
X146284190Y-141731808D01*
X146284190Y-141565142D01*
X146308000Y-141517523D01*
X146331810Y-141493713D01*
X146379429Y-141469904D01*
X146427048Y-141469904D01*
X146474667Y-141493713D01*
X146498476Y-141517523D01*
X146522286Y-141565142D01*
X146522286Y-141731808D01*
X146450857Y-141017523D02*
X146784190Y-141017523D01*
X146450857Y-141231808D02*
X146712762Y-141231808D01*
X146760381Y-141207999D01*
X146784190Y-141160380D01*
X146784190Y-141088951D01*
X146760381Y-141041332D01*
X146736571Y-141017523D01*
X146450857Y-140850856D02*
X146450857Y-140660380D01*
X146284190Y-140779427D02*
X146712762Y-140779427D01*
X146760381Y-140755618D01*
X146784190Y-140707999D01*
X146784190Y-140660380D01*
X146450857Y-140565142D02*
X146450857Y-140374666D01*
X146284190Y-140493713D02*
X146712762Y-140493713D01*
X146760381Y-140469904D01*
X146784190Y-140422285D01*
X146784190Y-140374666D01*
X146784190Y-140136571D02*
X146760381Y-140184190D01*
X146736571Y-140207999D01*
X146688952Y-140231809D01*
X146546095Y-140231809D01*
X146498476Y-140207999D01*
X146474667Y-140184190D01*
X146450857Y-140136571D01*
X146450857Y-140065142D01*
X146474667Y-140017523D01*
X146498476Y-139993714D01*
X146546095Y-139969904D01*
X146688952Y-139969904D01*
X146736571Y-139993714D01*
X146760381Y-140017523D01*
X146784190Y-140065142D01*
X146784190Y-140136571D01*
X146450857Y-139755618D02*
X146784190Y-139755618D01*
X146498476Y-139755618D02*
X146474667Y-139731809D01*
X146450857Y-139684190D01*
X146450857Y-139612761D01*
X146474667Y-139565142D01*
X146522286Y-139541333D01*
X146784190Y-139541333D01*
X146498476Y-138850857D02*
X146474667Y-138898476D01*
X146450857Y-138922285D01*
X146403238Y-138946095D01*
X146379429Y-138946095D01*
X146331810Y-138922285D01*
X146308000Y-138898476D01*
X146284190Y-138850857D01*
X146284190Y-138755619D01*
X146308000Y-138708000D01*
X146331810Y-138684190D01*
X146379429Y-138660381D01*
X146403238Y-138660381D01*
X146450857Y-138684190D01*
X146474667Y-138708000D01*
X146498476Y-138755619D01*
X146498476Y-138850857D01*
X146522286Y-138898476D01*
X146546095Y-138922285D01*
X146593714Y-138946095D01*
X146688952Y-138946095D01*
X146736571Y-138922285D01*
X146760381Y-138898476D01*
X146784190Y-138850857D01*
X146784190Y-138755619D01*
X146760381Y-138708000D01*
X146736571Y-138684190D01*
X146688952Y-138660381D01*
X146593714Y-138660381D01*
X146546095Y-138684190D01*
X146522286Y-138708000D01*
X146498476Y-138755619D01*
X148961553Y-99336990D02*
X148794886Y-99098895D01*
X148675839Y-99336990D02*
X148675839Y-98836990D01*
X148866315Y-98836990D01*
X148913934Y-98860800D01*
X148937743Y-98884610D01*
X148961553Y-98932229D01*
X148961553Y-99003657D01*
X148937743Y-99051276D01*
X148913934Y-99075086D01*
X148866315Y-99098895D01*
X148675839Y-99098895D01*
X149366315Y-99313181D02*
X149318696Y-99336990D01*
X149223458Y-99336990D01*
X149175839Y-99313181D01*
X149152029Y-99265562D01*
X149152029Y-99075086D01*
X149175839Y-99027467D01*
X149223458Y-99003657D01*
X149318696Y-99003657D01*
X149366315Y-99027467D01*
X149390124Y-99075086D01*
X149390124Y-99122705D01*
X149152029Y-99170324D01*
X149580600Y-99313181D02*
X149628219Y-99336990D01*
X149723457Y-99336990D01*
X149771076Y-99313181D01*
X149794886Y-99265562D01*
X149794886Y-99241752D01*
X149771076Y-99194133D01*
X149723457Y-99170324D01*
X149652029Y-99170324D01*
X149604410Y-99146514D01*
X149580600Y-99098895D01*
X149580600Y-99075086D01*
X149604410Y-99027467D01*
X149652029Y-99003657D01*
X149723457Y-99003657D01*
X149771076Y-99027467D01*
X150199648Y-99313181D02*
X150152029Y-99336990D01*
X150056791Y-99336990D01*
X150009172Y-99313181D01*
X149985362Y-99265562D01*
X149985362Y-99075086D01*
X150009172Y-99027467D01*
X150056791Y-99003657D01*
X150152029Y-99003657D01*
X150199648Y-99027467D01*
X150223457Y-99075086D01*
X150223457Y-99122705D01*
X149985362Y-99170324D01*
X150366314Y-99003657D02*
X150556790Y-99003657D01*
X150437743Y-98836990D02*
X150437743Y-99265562D01*
X150461552Y-99313181D01*
X150509171Y-99336990D01*
X150556790Y-99336990D01*
D12*
X154673905Y-101829810D02*
X154843238Y-102337810D01*
X155012572Y-101829810D01*
X155181905Y-102337810D02*
X155181905Y-101999143D01*
X155181905Y-101829810D02*
X155157715Y-101854000D01*
X155181905Y-101878190D01*
X155206096Y-101854000D01*
X155181905Y-101829810D01*
X155181905Y-101878190D01*
X155423810Y-101999143D02*
X155423810Y-102337810D01*
X155423810Y-102047524D02*
X155448001Y-102023333D01*
X155496382Y-101999143D01*
X155568953Y-101999143D01*
X155617334Y-102023333D01*
X155641525Y-102071714D01*
X155641525Y-102337810D01*
D13*
X115662381Y-107164095D02*
X114662381Y-107164095D01*
X114662381Y-106783142D01*
X114710000Y-106687904D01*
X114757619Y-106640285D01*
X114852857Y-106592666D01*
X114995714Y-106592666D01*
X115090952Y-106640285D01*
X115138571Y-106687904D01*
X115186190Y-106783142D01*
X115186190Y-107164095D01*
X114757619Y-106211714D02*
X114710000Y-106164095D01*
X114662381Y-106068857D01*
X114662381Y-105830761D01*
X114710000Y-105735523D01*
X114757619Y-105687904D01*
X114852857Y-105640285D01*
X114948095Y-105640285D01*
X115090952Y-105687904D01*
X115662381Y-106259333D01*
X115662381Y-105640285D01*
D12*
X154190095Y-110465810D02*
X154190095Y-109957810D01*
X154722286Y-110417429D02*
X154698096Y-110441619D01*
X154625524Y-110465810D01*
X154577143Y-110465810D01*
X154504572Y-110441619D01*
X154456191Y-110393238D01*
X154432000Y-110344857D01*
X154407810Y-110248095D01*
X154407810Y-110175524D01*
X154432000Y-110078762D01*
X154456191Y-110030381D01*
X154504572Y-109982000D01*
X154577143Y-109957810D01*
X154625524Y-109957810D01*
X154698096Y-109982000D01*
X154722286Y-110006190D01*
X154915810Y-110441619D02*
X154988381Y-110465810D01*
X155109334Y-110465810D01*
X155157715Y-110441619D01*
X155181905Y-110417429D01*
X155206096Y-110369048D01*
X155206096Y-110320667D01*
X155181905Y-110272286D01*
X155157715Y-110248095D01*
X155109334Y-110223905D01*
X155012572Y-110199714D01*
X154964191Y-110175524D01*
X154940000Y-110151333D01*
X154915810Y-110102952D01*
X154915810Y-110054571D01*
X154940000Y-110006190D01*
X154964191Y-109982000D01*
X155012572Y-109957810D01*
X155133524Y-109957810D01*
X155206096Y-109982000D01*
X155423810Y-110465810D02*
X155423810Y-109957810D01*
X155617334Y-109957810D01*
X155665715Y-109982000D01*
X155689906Y-110006190D01*
X155714096Y-110054571D01*
X155714096Y-110127143D01*
X155689906Y-110175524D01*
X155665715Y-110199714D01*
X155617334Y-110223905D01*
X155423810Y-110223905D01*
X121339429Y-100922667D02*
X121363619Y-100946857D01*
X121387810Y-101019429D01*
X121387810Y-101067810D01*
X121363619Y-101140381D01*
X121315238Y-101188762D01*
X121266857Y-101212953D01*
X121170095Y-101237143D01*
X121097524Y-101237143D01*
X121000762Y-101212953D01*
X120952381Y-101188762D01*
X120904000Y-101140381D01*
X120879810Y-101067810D01*
X120879810Y-101019429D01*
X120904000Y-100946857D01*
X120928190Y-100922667D01*
X120928190Y-100729143D02*
X120904000Y-100704953D01*
X120879810Y-100656572D01*
X120879810Y-100535619D01*
X120904000Y-100487238D01*
X120928190Y-100463048D01*
X120976571Y-100438857D01*
X121024952Y-100438857D01*
X121097524Y-100463048D01*
X121387810Y-100753334D01*
X121387810Y-100438857D01*
M02*
