G04 #@! TF.FileFunction,Legend,Bot*
%FSLAX46Y46*%
G04 Gerber Fmt 4.6, Leading zero omitted, Abs format (unit mm)*
G04 Created by KiCad (PCBNEW 4.0.1-stable) date 5/8/2016 2:59:50 PM*
%MOMM*%
G01*
G04 APERTURE LIST*
%ADD10C,0.100000*%
%ADD11C,0.076200*%
%ADD12C,0.150000*%
G04 APERTURE END LIST*
D10*
D11*
X136670142Y-116613214D02*
X137032999Y-116613214D01*
X137032999Y-115851214D01*
X136089571Y-116613214D02*
X136089571Y-116214071D01*
X136125857Y-116141500D01*
X136198428Y-116105214D01*
X136343571Y-116105214D01*
X136416142Y-116141500D01*
X136089571Y-116576929D02*
X136162142Y-116613214D01*
X136343571Y-116613214D01*
X136416142Y-116576929D01*
X136452428Y-116504357D01*
X136452428Y-116431786D01*
X136416142Y-116359214D01*
X136343571Y-116322929D01*
X136162142Y-116322929D01*
X136089571Y-116286643D01*
X135400142Y-116105214D02*
X135400142Y-116613214D01*
X135726713Y-116105214D02*
X135726713Y-116504357D01*
X135690428Y-116576929D01*
X135617856Y-116613214D01*
X135508999Y-116613214D01*
X135436428Y-116576929D01*
X135400142Y-116540643D01*
X135037284Y-116105214D02*
X135037284Y-116613214D01*
X135037284Y-116177786D02*
X135000999Y-116141500D01*
X134928427Y-116105214D01*
X134819570Y-116105214D01*
X134746999Y-116141500D01*
X134710713Y-116214071D01*
X134710713Y-116613214D01*
X134021284Y-116576929D02*
X134093855Y-116613214D01*
X134238998Y-116613214D01*
X134311570Y-116576929D01*
X134347855Y-116540643D01*
X134384141Y-116468071D01*
X134384141Y-116250357D01*
X134347855Y-116177786D01*
X134311570Y-116141500D01*
X134238998Y-116105214D01*
X134093855Y-116105214D01*
X134021284Y-116141500D01*
X133694712Y-116613214D02*
X133694712Y-115851214D01*
X133368141Y-116613214D02*
X133368141Y-116214071D01*
X133404427Y-116141500D01*
X133476998Y-116105214D01*
X133585855Y-116105214D01*
X133658427Y-116141500D01*
X133694712Y-116177786D01*
X132714998Y-116576929D02*
X132787569Y-116613214D01*
X132932712Y-116613214D01*
X133005283Y-116576929D01*
X133041569Y-116504357D01*
X133041569Y-116214071D01*
X133005283Y-116141500D01*
X132932712Y-116105214D01*
X132787569Y-116105214D01*
X132714998Y-116141500D01*
X132678712Y-116214071D01*
X132678712Y-116286643D01*
X133041569Y-116359214D01*
X132352140Y-116613214D02*
X132352140Y-116105214D01*
X132352140Y-116250357D02*
X132315855Y-116177786D01*
X132279569Y-116141500D01*
X132206998Y-116105214D01*
X132134426Y-116105214D01*
X130864427Y-116613214D02*
X131118427Y-116250357D01*
X131299855Y-116613214D02*
X131299855Y-115851214D01*
X131009570Y-115851214D01*
X130936998Y-115887500D01*
X130900713Y-115923786D01*
X130864427Y-115996357D01*
X130864427Y-116105214D01*
X130900713Y-116177786D01*
X130936998Y-116214071D01*
X131009570Y-116250357D01*
X131299855Y-116250357D01*
X130247570Y-116576929D02*
X130320141Y-116613214D01*
X130465284Y-116613214D01*
X130537855Y-116576929D01*
X130574141Y-116504357D01*
X130574141Y-116214071D01*
X130537855Y-116141500D01*
X130465284Y-116105214D01*
X130320141Y-116105214D01*
X130247570Y-116141500D01*
X130211284Y-116214071D01*
X130211284Y-116286643D01*
X130574141Y-116359214D01*
X129957284Y-116105214D02*
X129775855Y-116613214D01*
X129594427Y-116105214D01*
X128578428Y-115851214D02*
X128505856Y-115851214D01*
X128433285Y-115887500D01*
X128396999Y-115923786D01*
X128360713Y-115996357D01*
X128324428Y-116141500D01*
X128324428Y-116322929D01*
X128360713Y-116468071D01*
X128396999Y-116540643D01*
X128433285Y-116576929D01*
X128505856Y-116613214D01*
X128578428Y-116613214D01*
X128650999Y-116576929D01*
X128687285Y-116540643D01*
X128723570Y-116468071D01*
X128759856Y-116322929D01*
X128759856Y-116141500D01*
X128723570Y-115996357D01*
X128687285Y-115923786D01*
X128650999Y-115887500D01*
X128578428Y-115851214D01*
X127598714Y-116613214D02*
X128034142Y-116613214D01*
X127816428Y-116613214D02*
X127816428Y-115851214D01*
X127888999Y-115960071D01*
X127961571Y-116032643D01*
X128034142Y-116068929D01*
X134765143Y-117357071D02*
X134656286Y-117393357D01*
X134620001Y-117429643D01*
X134583715Y-117502214D01*
X134583715Y-117611071D01*
X134620001Y-117683643D01*
X134656286Y-117719929D01*
X134728858Y-117756214D01*
X135019143Y-117756214D01*
X135019143Y-116994214D01*
X134765143Y-116994214D01*
X134692572Y-117030500D01*
X134656286Y-117066786D01*
X134620001Y-117139357D01*
X134620001Y-117211929D01*
X134656286Y-117284500D01*
X134692572Y-117320786D01*
X134765143Y-117357071D01*
X135019143Y-117357071D01*
X134148286Y-117756214D02*
X134220858Y-117719929D01*
X134257143Y-117683643D01*
X134293429Y-117611071D01*
X134293429Y-117393357D01*
X134257143Y-117320786D01*
X134220858Y-117284500D01*
X134148286Y-117248214D01*
X134039429Y-117248214D01*
X133966858Y-117284500D01*
X133930572Y-117320786D01*
X133894286Y-117393357D01*
X133894286Y-117611071D01*
X133930572Y-117683643D01*
X133966858Y-117719929D01*
X134039429Y-117756214D01*
X134148286Y-117756214D01*
X133567714Y-117756214D02*
X133567714Y-116994214D01*
X133567714Y-117284500D02*
X133495143Y-117248214D01*
X133350000Y-117248214D01*
X133277429Y-117284500D01*
X133241143Y-117320786D01*
X133204857Y-117393357D01*
X133204857Y-117611071D01*
X133241143Y-117683643D01*
X133277429Y-117719929D01*
X133350000Y-117756214D01*
X133495143Y-117756214D01*
X133567714Y-117719929D01*
X132878285Y-117756214D02*
X132878285Y-117248214D01*
X132878285Y-117393357D02*
X132842000Y-117320786D01*
X132805714Y-117284500D01*
X132733143Y-117248214D01*
X132660571Y-117248214D01*
X132297714Y-117756214D02*
X132370286Y-117719929D01*
X132406571Y-117683643D01*
X132442857Y-117611071D01*
X132442857Y-117393357D01*
X132406571Y-117320786D01*
X132370286Y-117284500D01*
X132297714Y-117248214D01*
X132188857Y-117248214D01*
X132116286Y-117284500D01*
X132080000Y-117320786D01*
X132043714Y-117393357D01*
X132043714Y-117611071D01*
X132080000Y-117683643D01*
X132116286Y-117719929D01*
X132188857Y-117756214D01*
X132297714Y-117756214D01*
X131789714Y-117248214D02*
X131644571Y-117756214D01*
X131499428Y-117393357D01*
X131354285Y-117756214D01*
X131209142Y-117248214D01*
X130918856Y-117756214D02*
X130918856Y-117248214D01*
X130918856Y-116994214D02*
X130955142Y-117030500D01*
X130918856Y-117066786D01*
X130882571Y-117030500D01*
X130918856Y-116994214D01*
X130918856Y-117066786D01*
X130229428Y-117719929D02*
X130301999Y-117756214D01*
X130447142Y-117756214D01*
X130519714Y-117719929D01*
X130555999Y-117683643D01*
X130592285Y-117611071D01*
X130592285Y-117393357D01*
X130555999Y-117320786D01*
X130519714Y-117284500D01*
X130447142Y-117248214D01*
X130301999Y-117248214D01*
X130229428Y-117284500D01*
X129975428Y-117248214D02*
X129576285Y-117248214D01*
X129975428Y-117756214D01*
X129576285Y-117756214D01*
D12*
X130818000Y-111926000D02*
X131818000Y-111926000D01*
X131818000Y-113626000D02*
X130818000Y-113626000D01*
X151130000Y-97790000D02*
X115570000Y-97790000D01*
X115570000Y-97790000D02*
X115570000Y-95250000D01*
X115570000Y-95250000D02*
X151130000Y-95250000D01*
X153950000Y-94970000D02*
X152400000Y-94970000D01*
X151130000Y-95250000D02*
X151130000Y-97790000D01*
X152400000Y-98070000D02*
X153950000Y-98070000D01*
X153950000Y-98070000D02*
X153950000Y-94970000D01*
X151130000Y-125730000D02*
X115570000Y-125730000D01*
X115570000Y-125730000D02*
X115570000Y-123190000D01*
X115570000Y-123190000D02*
X151130000Y-123190000D01*
X153950000Y-122910000D02*
X152400000Y-122910000D01*
X151130000Y-123190000D02*
X151130000Y-125730000D01*
X152400000Y-126010000D02*
X153950000Y-126010000D01*
X153950000Y-126010000D02*
X153950000Y-122910000D01*
X134655000Y-113651000D02*
X135855000Y-113651000D01*
X135855000Y-111901000D02*
X134655000Y-111901000D01*
X137809000Y-100492000D02*
X137809000Y-101692000D01*
X139559000Y-101692000D02*
X139559000Y-100492000D01*
X141111000Y-100492000D02*
X141111000Y-101692000D01*
X142861000Y-101692000D02*
X142861000Y-100492000D01*
X135373000Y-109301000D02*
X134723000Y-109301000D01*
X135373000Y-103551000D02*
X134723000Y-103551000D01*
X124723000Y-103551000D02*
X125373000Y-103551000D01*
X124723000Y-109301000D02*
X125373000Y-109301000D01*
X135373000Y-109301000D02*
X135373000Y-103551000D01*
X124723000Y-109301000D02*
X124723000Y-103551000D01*
X134723000Y-109301000D02*
X134723000Y-110901000D01*
X128897000Y-101180000D02*
X127897000Y-101180000D01*
X127897000Y-99480000D02*
X128897000Y-99480000D01*
D11*
X129213429Y-112207523D02*
X129237619Y-112183333D01*
X129261810Y-112110761D01*
X129261810Y-112062380D01*
X129237619Y-111989809D01*
X129189238Y-111941428D01*
X129140857Y-111917237D01*
X129044095Y-111893047D01*
X128971524Y-111893047D01*
X128874762Y-111917237D01*
X128826381Y-111941428D01*
X128778000Y-111989809D01*
X128753810Y-112062380D01*
X128753810Y-112110761D01*
X128778000Y-112183333D01*
X128802190Y-112207523D01*
X129261810Y-112691333D02*
X129261810Y-112401047D01*
X129261810Y-112546190D02*
X128753810Y-112546190D01*
X128826381Y-112497809D01*
X128874762Y-112449428D01*
X128898952Y-112401047D01*
X128753810Y-113005809D02*
X128753810Y-113054190D01*
X128778000Y-113102571D01*
X128802190Y-113126762D01*
X128850571Y-113150952D01*
X128947333Y-113175143D01*
X129068286Y-113175143D01*
X129165048Y-113150952D01*
X129213429Y-113126762D01*
X129237619Y-113102571D01*
X129261810Y-113054190D01*
X129261810Y-113005809D01*
X129237619Y-112957428D01*
X129213429Y-112933238D01*
X129165048Y-112909047D01*
X129068286Y-112884857D01*
X128947333Y-112884857D01*
X128850571Y-112909047D01*
X128802190Y-112933238D01*
X128778000Y-112957428D01*
X128753810Y-113005809D01*
X128753810Y-113634762D02*
X128753810Y-113392857D01*
X128995714Y-113368667D01*
X128971524Y-113392857D01*
X128947333Y-113441238D01*
X128947333Y-113562191D01*
X128971524Y-113610572D01*
X128995714Y-113634762D01*
X129044095Y-113658953D01*
X129165048Y-113658953D01*
X129213429Y-113634762D01*
X129237619Y-113610572D01*
X129261810Y-113562191D01*
X129261810Y-113441238D01*
X129237619Y-113392857D01*
X129213429Y-113368667D01*
X135950477Y-114529810D02*
X136119810Y-114287905D01*
X136240763Y-114529810D02*
X136240763Y-114021810D01*
X136047239Y-114021810D01*
X135998858Y-114046000D01*
X135974667Y-114070190D01*
X135950477Y-114118571D01*
X135950477Y-114191143D01*
X135974667Y-114239524D01*
X135998858Y-114263714D01*
X136047239Y-114287905D01*
X136240763Y-114287905D01*
X135466667Y-114529810D02*
X135756953Y-114529810D01*
X135611810Y-114529810D02*
X135611810Y-114021810D01*
X135660191Y-114094381D01*
X135708572Y-114142762D01*
X135756953Y-114166952D01*
X135152191Y-114021810D02*
X135103810Y-114021810D01*
X135055429Y-114046000D01*
X135031238Y-114070190D01*
X135007048Y-114118571D01*
X134982857Y-114215333D01*
X134982857Y-114336286D01*
X135007048Y-114433048D01*
X135031238Y-114481429D01*
X135055429Y-114505619D01*
X135103810Y-114529810D01*
X135152191Y-114529810D01*
X135200572Y-114505619D01*
X135224762Y-114481429D01*
X135248953Y-114433048D01*
X135273143Y-114336286D01*
X135273143Y-114215333D01*
X135248953Y-114118571D01*
X135224762Y-114070190D01*
X135200572Y-114046000D01*
X135152191Y-114021810D01*
X134523238Y-114021810D02*
X134765143Y-114021810D01*
X134789333Y-114263714D01*
X134765143Y-114239524D01*
X134716762Y-114215333D01*
X134595809Y-114215333D01*
X134547428Y-114239524D01*
X134523238Y-114263714D01*
X134499047Y-114312095D01*
X134499047Y-114433048D01*
X134523238Y-114481429D01*
X134547428Y-114505619D01*
X134595809Y-114529810D01*
X134716762Y-114529810D01*
X134765143Y-114505619D01*
X134789333Y-114481429D01*
X139252477Y-103607810D02*
X139421810Y-103365905D01*
X139542763Y-103607810D02*
X139542763Y-103099810D01*
X139349239Y-103099810D01*
X139300858Y-103124000D01*
X139276667Y-103148190D01*
X139252477Y-103196571D01*
X139252477Y-103269143D01*
X139276667Y-103317524D01*
X139300858Y-103341714D01*
X139349239Y-103365905D01*
X139542763Y-103365905D01*
X138768667Y-103607810D02*
X139058953Y-103607810D01*
X138913810Y-103607810D02*
X138913810Y-103099810D01*
X138962191Y-103172381D01*
X139010572Y-103220762D01*
X139058953Y-103244952D01*
X138454191Y-103099810D02*
X138405810Y-103099810D01*
X138357429Y-103124000D01*
X138333238Y-103148190D01*
X138309048Y-103196571D01*
X138284857Y-103293333D01*
X138284857Y-103414286D01*
X138309048Y-103511048D01*
X138333238Y-103559429D01*
X138357429Y-103583619D01*
X138405810Y-103607810D01*
X138454191Y-103607810D01*
X138502572Y-103583619D01*
X138526762Y-103559429D01*
X138550953Y-103511048D01*
X138575143Y-103414286D01*
X138575143Y-103293333D01*
X138550953Y-103196571D01*
X138526762Y-103148190D01*
X138502572Y-103124000D01*
X138454191Y-103099810D01*
X137849428Y-103099810D02*
X137946190Y-103099810D01*
X137994571Y-103124000D01*
X138018762Y-103148190D01*
X138067143Y-103220762D01*
X138091333Y-103317524D01*
X138091333Y-103511048D01*
X138067143Y-103559429D01*
X138042952Y-103583619D01*
X137994571Y-103607810D01*
X137897809Y-103607810D01*
X137849428Y-103583619D01*
X137825238Y-103559429D01*
X137801047Y-103511048D01*
X137801047Y-103390095D01*
X137825238Y-103341714D01*
X137849428Y-103317524D01*
X137897809Y-103293333D01*
X137994571Y-103293333D01*
X138042952Y-103317524D01*
X138067143Y-103341714D01*
X138091333Y-103390095D01*
X142554477Y-103607810D02*
X142723810Y-103365905D01*
X142844763Y-103607810D02*
X142844763Y-103099810D01*
X142651239Y-103099810D01*
X142602858Y-103124000D01*
X142578667Y-103148190D01*
X142554477Y-103196571D01*
X142554477Y-103269143D01*
X142578667Y-103317524D01*
X142602858Y-103341714D01*
X142651239Y-103365905D01*
X142844763Y-103365905D01*
X142070667Y-103607810D02*
X142360953Y-103607810D01*
X142215810Y-103607810D02*
X142215810Y-103099810D01*
X142264191Y-103172381D01*
X142312572Y-103220762D01*
X142360953Y-103244952D01*
X141756191Y-103099810D02*
X141707810Y-103099810D01*
X141659429Y-103124000D01*
X141635238Y-103148190D01*
X141611048Y-103196571D01*
X141586857Y-103293333D01*
X141586857Y-103414286D01*
X141611048Y-103511048D01*
X141635238Y-103559429D01*
X141659429Y-103583619D01*
X141707810Y-103607810D01*
X141756191Y-103607810D01*
X141804572Y-103583619D01*
X141828762Y-103559429D01*
X141852953Y-103511048D01*
X141877143Y-103414286D01*
X141877143Y-103293333D01*
X141852953Y-103196571D01*
X141828762Y-103148190D01*
X141804572Y-103124000D01*
X141756191Y-103099810D01*
X141417524Y-103099810D02*
X141078857Y-103099810D01*
X141296571Y-103607810D01*
X135611810Y-102507142D02*
X136023048Y-102507142D01*
X136071429Y-102531333D01*
X136095619Y-102555523D01*
X136119810Y-102603904D01*
X136119810Y-102700666D01*
X136095619Y-102749047D01*
X136071429Y-102773238D01*
X136023048Y-102797428D01*
X135611810Y-102797428D01*
X136119810Y-103305428D02*
X136119810Y-103015142D01*
X136119810Y-103160285D02*
X135611810Y-103160285D01*
X135684381Y-103111904D01*
X135732762Y-103063523D01*
X135756952Y-103015142D01*
X135611810Y-103619904D02*
X135611810Y-103668285D01*
X135636000Y-103716666D01*
X135660190Y-103740857D01*
X135708571Y-103765047D01*
X135805333Y-103789238D01*
X135926286Y-103789238D01*
X136023048Y-103765047D01*
X136071429Y-103740857D01*
X136095619Y-103716666D01*
X136119810Y-103668285D01*
X136119810Y-103619904D01*
X136095619Y-103571523D01*
X136071429Y-103547333D01*
X136023048Y-103523142D01*
X135926286Y-103498952D01*
X135805333Y-103498952D01*
X135708571Y-103523142D01*
X135660190Y-103547333D01*
X135636000Y-103571523D01*
X135611810Y-103619904D01*
X136119810Y-104273048D02*
X136119810Y-103982762D01*
X136119810Y-104127905D02*
X135611810Y-104127905D01*
X135684381Y-104079524D01*
X135732762Y-104031143D01*
X135756952Y-103982762D01*
X128354667Y-99241429D02*
X128378857Y-99265619D01*
X128451429Y-99289810D01*
X128499810Y-99289810D01*
X128572381Y-99265619D01*
X128620762Y-99217238D01*
X128644953Y-99168857D01*
X128669143Y-99072095D01*
X128669143Y-98999524D01*
X128644953Y-98902762D01*
X128620762Y-98854381D01*
X128572381Y-98806000D01*
X128499810Y-98781810D01*
X128451429Y-98781810D01*
X128378857Y-98806000D01*
X128354667Y-98830190D01*
X127870857Y-99289810D02*
X128161143Y-99289810D01*
X128016000Y-99289810D02*
X128016000Y-98781810D01*
X128064381Y-98854381D01*
X128112762Y-98902762D01*
X128161143Y-98926952D01*
M02*
